<svg xmlns="http://www.w3.org/2000/svg" width="222.219" height="225.233" viewBox="0 0 58.795 59.593"><g transform="translate(397.265 736.624)"><ellipse cx="-367.868" cy="-706.828" rx="29.398" ry="29.796" fill="#6da7ff" paint-order="markers stroke fill"/><path d="M-368.974-728.308c-1.723.011-3.282.61-4.65 1.816a1.712 1.712 0 00-.185.19c-1.891 2.269-2.064 4.975-1.985 7.359-.929-.354-1.906-.514-2.87-.54-1.302-.034-2.58.177-3.676.483a1.702 1.702 0 00-.332.133c-1.42.744-2.395 1.94-3.012 3.246a1.708 1.708 0 00-.14.453c-.545 3.336 1.083 5.91 2.622 8.07-1.67-.004-3.242.396-4.753 1.342a1.72 1.72 0 00-.184.133c-1.138.945-2.108 2.248-2.308 3.961a1.71 1.71 0 00.002.426c.307 2.283 1.55 3.927 2.992 5.27l.068.06c.837.702 1.982 1.42 3.39 1.5v.416c.001.385.132.759.372 1.06 2.05 2.583 4.91 4.437 7.645 5.78a1.9 1.9 0 00.14.06c2.883 1.108 6.54 1.244 9.522-.008.041-.017.082-.037.123-.058l.558-.289c1.377-.705 2.805-1.476 4.133-2.605l.059-.053c1.135-1.06 2.105-1.775 3.45-2.473 1.312-.673 3.176-1.488 4.936-2.574 1.762-1.087 3.512-2.46 4.364-4.545a1.69 1.69 0 00.122-.579c.017.004.033.01.05.013a1.704 1.704 0 001.668-.563l.28-.332.03-.037c2.6-3.245 4.727-7.42 4.32-11.998a1.707 1.707 0 00-.173-.611c-.527-1.054-1.268-1.791-2.042-2.416a1.707 1.707 0 00-.88-.37c-1.67-.188-3.222.027-4.782.635a1.689 1.689 0 00-.189.088l-4.266 1.184c-1.577-1.158-2.797-2.28-3.94-3.785l-2.673-3.772a1.702 1.702 0 00-.104-.338c-1.165-2.718-3.638-4.543-6.086-5.54a1.707 1.707 0 00-.398-.107 8.157 8.157 0 00-1.219-.085zm-.536 3.356c.286 0 .627.044 1.032.098 1.532.664 2.939 1.857 3.703 3.153-1.295 1.221-2.658 2.115-4.303 2.277-1.457.015-2.335-.114-3.254-.523.016-1.615.219-2.974 1.101-4.08.526-.457.894-.764 1.264-.871.134-.039.285-.055.457-.055zm7.871 8.005c.138.178.285.357.419.535l.008.01c.852 1.122 1.796 2.06 2.79 2.94l-.513.212-1.467.588-.018.008c-2.95 1.217-5.645 2.874-7.42 5.934a1.7 1.7 0 00-.1.205c-1.102 2.67-.808 5.268.141 7.719.018.045.038.09.06.133.528 1.082 1.263 1.881 2.109 2.562 1.362 1.098 3.297-.322 2.66-1.95l-.213-.542c-.507-1.756-.489-4.128.174-5.629 1.177-1.85 3.382-2.934 5.806-3.818.409 2.638 1.186 5.164 3.342 7.32.062.062.129.119.2.17.327.24.667.442 1 .666a9.59 9.59 0 01-2.188 1.83c-1.483.915-3.242 1.693-4.71 2.445l-.007.004c-1.59.826-2.874 1.773-4.152 2.96-.986.837-2.154 1.489-3.472 2.164-.002 0-.004.002-.006.004l-.455.234c-1.843.768-4.96.71-6.912-.023-1.99-.986-3.865-2.324-5.37-3.836 1.449-1.308 2.009-3.087 2.438-4.375.045-.133.074-.272.084-.412.156-2.085-.096-4.079-.732-6.094l.48-.235.012-.006.49-.234.014-.008c2.273-1.119 4.157-2.793 5.117-5.377a1.53 1.53 0 00.047-.145c.284-1.039.33-2 .428-2.979 3.573.024 6.897-.58 9.916-2.98zm-17.458.983c.106 0 .213 0 .32.005.666.023 1.139.174 1.615.312.203 1.066.218 2.204-.092 3.092-.83 1.263-1.821 2.204-3.037 2.575-.208.041-.412.063-.617.099-1.039-1.535-1.69-2.872-1.514-4.476.33-.633.664-1.053 1.234-1.378a9.44 9.44 0 012.09-.23zm32.241 2.816c.212-.002.429.005.655.017.2.187.425.406.56.637.13 2.919-1.219 5.836-3.103 8.398-.908-.487-1.678-1.22-2.533-2.39-.632-1.063-.649-2.328-.487-3.932.41-.897 1.485-1.563 2.961-2.363a5.308 5.308 0 011.947-.367zm-36.77 9.52c.675 1.298.924 2.494.712 4.12-.325.763-.79 1.343-1.244 1.639-.258-.055-.497-.202-.987-.615-1.126-1.052-1.639-1.772-1.853-3.018.093-.621.262-.847.93-1.397.87-.534 1.587-.698 2.441-.73z" style="-inkscape-stroke:none" color="#000" fill="#0a2f62" paint-order="markers stroke fill"/><path d="M-361.385-719.39c.52.645 1.035 1.292 1.531 1.956 1.253 1.65 2.622 2.906 4.29 4.129-.605.683-1.16.998-2.003 1.336l-.72.297-1.482.595c-2.8 1.155-5.05 2.552-6.594 5.213-.932 2.258-.708 4.22.156 6.45.429.876.892 1.376 1.647 1.984l-.258-.657c-.625-2.139-.674-4.883.274-6.933 1.713-2.811 4.897-4.12 7.921-5.11h.794l.07.775c.314 2.916.957 5.279 3.105 7.427a35.29 35.29 0 002.381 1.588c-1.252 3.061-5.727 4.822-8.507 6.248-1.478.768-2.612 1.606-3.828 2.741-1.157.985-2.456 1.697-3.804 2.388l-.565.291c-2.418 1.015-5.832.919-8.25-.01-2.59-1.273-5.252-3.03-7.06-5.308v-.53l.71-.396c1.406-.877 1.96-2.59 2.465-4.102.186-2.498.011-4.582-1.059-6.879l.764-.368 1.006-.492c.165-.08.33-.159.502-.24 2.047-1.008 3.461-2.265 4.27-4.441.379-1.388.49-2.818.602-4.248l1.007.028c4.018.08 7.144-.344 10.19-3.262l.445-.47z" style="-inkscape-stroke:none" color="#000" fill="#a9cafd" paint-order="markers stroke fill"/><path d="M-345.51-714.892c.712.575 1.179 1.034 1.587 1.852.351 3.95-1.517 7.742-3.951 10.78l-.282.332c-2.125-.465-3.346-1.956-4.568-3.635-1.006-1.653-.936-3.485-.724-5.36.664-1.739 2.39-2.588 3.969-3.44 1.362-.531 2.526-.692 3.969-.53z" style="-inkscape-stroke:none" color="#000" fill="#fbfcfc" paint-order="markers stroke fill"/><path d="M-368-726.534c2.115.86 4.25 2.506 5.16 4.63l.132.662c-1.688 1.85-3.694 3.29-6.24 3.528-2.02.02-3.43-.032-5.137-1.147-.086-2.31.054-4.51 1.587-6.35 1.477-1.3 2.546-1.605 4.498-1.323z" style="-inkscape-stroke:none" color="#000" fill="#fbfbfc" paint-order="markers stroke fill"/><path d="M-375.673-717.01c.542 1.625.611 3.611-.015 5.216-.993 1.576-2.334 2.929-4.148 3.465-.64.132-1.273.239-1.922.316-1.525-2.131-2.826-4.16-2.381-6.88.513-1.088 1.176-1.896 2.259-2.463 1.805-.505 4.55-.585 6.207.347z" style="-inkscape-stroke:none" color="#000" fill="#fafbfb" paint-order="markers stroke fill"/><path d="M-382.552-705.367c1.323 2.05 1.686 3.927 1.323 6.35-.452 1.168-1.21 2.378-2.381 2.91-1.178.053-1.81-.379-2.68-1.108-1.325-1.234-2.215-2.407-2.463-4.25.157-1.35.67-1.988 1.703-2.844 1.49-.933 2.761-1.185 4.498-1.058z" style="-inkscape-stroke:none" color="#000" fill="#fbfbfc" paint-order="markers stroke fill"/><path fill="#f4f6f8" d="M-355.829-710.13v2.646l-.852.291c-2.792.982-5.373 1.964-6.821 4.736-.577 1.519-.669 3.155-.794 4.762-1.15-1.725-1.009-3.8-.793-5.82.513-1.85 1.565-3.207 3.175-4.234 4.247-2.381 4.247-2.381 6.085-2.381z"/><path fill="#f9fafb" d="M-361.385-719.39c.52.645 1.035 1.292 1.531 1.956 1.253 1.65 2.622 2.906 4.29 4.129-.587.603-1.048 1.039-1.853 1.323-1.645-.167-2.417-1.169-3.44-2.381-1.883-2.538-1.883-2.538-1.802-3.49.296-.658.743-1.058 1.274-1.537z"/></g></svg>