<?xml version="1.0" encoding="UTF-8" standalone="no"?>
<!-- Created with Inkscape (http://www.inkscape.org/) -->

<svg
   width="222.2186"
   height="225.23318"
   viewBox="0 0 58.795334 59.592943"
   version="1.1"
   id="svg1"
   inkscape:version="1.3.2 (091e20e, 2023-11-25)"
   sodipodi:docname="logo.svg"
   xmlns:inkscape="http://www.inkscape.org/namespaces/inkscape"
   xmlns:sodipodi="http://sodipodi.sourceforge.net/DTD/sodipodi-0.dtd"
   xmlns="http://www.w3.org/2000/svg"
   xmlns:svg="http://www.w3.org/2000/svg">
  <sodipodi:namedview
     id="namedview1"
     pagecolor="#ffffff"
     bordercolor="#000000"
     borderopacity="0.25"
     inkscape:showpageshadow="2"
     inkscape:pageopacity="0.0"
     inkscape:pagecheckerboard="0"
     inkscape:deskcolor="#d1d1d1"
     inkscape:document-units="px"
     inkscape:zoom="0.8971514"
     inkscape:cx="203.42163"
     inkscape:cy="328.26121"
     inkscape:window-width="1916"
     inkscape:window-height="1041"
     inkscape:window-x="1080"
     inkscape:window-y="18"
     inkscape:window-maximized="1"
     inkscape:current-layer="layer1"
     showguides="true"
     showgrid="false" />
  <defs
     id="defs1">
    <radialGradient
       id="SVGID_1_"
       cx="1279.12"
       cy="245.5547"
       r="2430.2305"
       gradientUnits="userSpaceOnUse">
      <stop
         offset="0"
         style="stop-color:#F5831F"
         id="stop1" />
      <stop
         offset="0.4866"
         style="stop-color:#EE2558"
         id="stop2" />
      <stop
         offset="0.8824"
         style="stop-color:#A6228E"
         id="stop3" />
    </radialGradient>
    <radialGradient
       id="SVGID_00000077310070269670167740000009247874703993994155_"
       cx="1279.1205"
       cy="245.55521"
       r="2430.228"
       gradientUnits="userSpaceOnUse">
      <stop
         offset="0"
         style="stop-color:#F5831F"
         id="stop4" />
      <stop
         offset="0.4866"
         style="stop-color:#EE2558"
         id="stop5" />
      <stop
         offset="0.8824"
         style="stop-color:#A6228E"
         id="stop6" />
    </radialGradient>
    <linearGradient
       x1="288.80301"
       y1="329.31201"
       x2="510.94101"
       y2="492.99899"
       gradientUnits="userSpaceOnUse"
       gradientTransform="scale(10)"
       spreadMethod="pad"
       id="linearGradient3">
      <stop
         style="stop-opacity:1;stop-color:#f59020"
         offset="0"
         id="stop2-5" />
      <stop
         style="stop-opacity:1;stop-color:#ec098b"
         offset="1"
         id="stop3-6" />
    </linearGradient>
    <clipPath
       clipPathUnits="userSpaceOnUse"
       id="clipPath3">
      <path
         d="m 3612.61,4487.8 h 930.16 c 93.39,0 157.2,-71.14 168.87,-161.43 11.38,-88.14 -74.84,-174.62 -160.87,-174.62 h -862.14 l -306.72,-480.06 h -406.72 l -219.14,-340.1 c -48.87,-75.85 19.04,-162.25 91.52,-187.83 79.91,-28.2 220.97,-13.8 272.45,58.22 82.15,114.83 159.19,260.86 243.46,362.83 83.19,100.69 93.58,101.64 213.13,101.09 l 1016.14,-4.66 c 742.07,-3.43 827.96,1325.32 -10.68,1325.32 h -862.76 l -189.3,-357.27 c -39.08,-73.77 -115.44,-155.5 -205.46,-152.63 l -212.68,6.78 c -334.54,10.66 -201.35,-552.83 43.92,-399.94 52.6,32.79 102.62,90.88 137.08,162.16 68.96,142.64 160.12,242.14 319.74,242.14 z"
         clip-rule="evenodd"
         id="path3-2" />
    </clipPath>
    <linearGradient
       x1="0"
       y1="0"
       x2="1"
       y2="0"
       gradientUnits="userSpaceOnUse"
       gradientTransform="matrix(17060,18182.3,18182.3,-17060,11970.3,15071)"
       spreadMethod="pad"
       id="linearGradient17">
      <stop
         style="stop-opacity:1;stop-color:#c30015"
         offset="0"
         id="stop15" />
      <stop
         style="stop-opacity:1;stop-color:#f7cc0f"
         offset="0.9977451"
         id="stop16" />
      <stop
         style="stop-opacity:1;stop-color:#f7cc0f"
         offset="1"
         id="stop17" />
    </linearGradient>
    <clipPath
       clipPathUnits="userSpaceOnUse"
       id="clipPath17">
      <path
         d="M 11255.7,14838 H 28109.3 V 31743.2 H 11255.7 Z"
         id="path17" />
    </clipPath>
    <linearGradient
       x1="0"
       y1="0"
       x2="1"
       y2="0"
       gradientUnits="userSpaceOnUse"
       gradientTransform="matrix(17060,18182.3,18182.3,-17060,11780.7,15248.9)"
       spreadMethod="pad"
       id="linearGradient14">
      <stop
         style="stop-opacity:1;stop-color:#c30015"
         offset="0"
         id="stop12" />
      <stop
         style="stop-opacity:1;stop-color:#f7cc0f"
         offset="0.9977451"
         id="stop13" />
      <stop
         style="stop-opacity:1;stop-color:#f7cc0f"
         offset="1"
         id="stop14" />
    </linearGradient>
    <clipPath
       clipPathUnits="userSpaceOnUse"
       id="clipPath14">
      <path
         d="m 14742.7,17707.9 h 9548.9 v 11572.7 h -9548.9 z"
         id="path14" />
    </clipPath>
    <linearGradient
       id="SVGID_00000103944215088344909020000017679031263555168172_"
       gradientUnits="userSpaceOnUse"
       x1="446.9512"
       y1="124.58143"
       x2="536.69049"
       y2="124.58143"
       gradientTransform="matrix(0.26458333,0,0,0.26458333,-541.54885,-614.23421)">
      <stop
         offset="0"
         style="stop-color:#D86FA8"
         id="stop19" />
      <stop
         offset="0.5"
         style="stop-color:#C8067D"
         id="stop20" />
      <stop
         offset="1"
         style="stop-color:#A1197F"
         id="stop21" />
    </linearGradient>
    <linearGradient
       id="SVGID_00000052082512979597093160000014998565527884640665_"
       gradientUnits="userSpaceOnUse"
       x1="351.82639"
       y1="110.1996"
       x2="370.88339"
       y2="110.1996">
      <stop
         offset="0"
         style="stop-color:#48C0EF"
         id="stop22" />
      <stop
         offset="0.5"
         style="stop-color:#00A0E2"
         id="stop23" />
      <stop
         offset="1"
         style="stop-color:#008BD1"
         id="stop24" />
    </linearGradient>
    <linearGradient
       id="SVGID_00000101060789177310384960000017752128999518176905_"
       gradientUnits="userSpaceOnUse"
       x1="351.82639"
       y1="79.113297"
       x2="407.46411"
       y2="79.113297">
      <stop
         offset="0"
         style="stop-color:#48C0EF"
         id="stop25" />
      <stop
         offset="0.5"
         style="stop-color:#00A0E2"
         id="stop26" />
      <stop
         offset="1"
         style="stop-color:#008BD1"
         id="stop27" />
    </linearGradient>
    <linearGradient
       id="linearGradient3-6"
       gradientUnits="userSpaceOnUse"
       x1="351.82639"
       y1="123.9631"
       x2="428.49249"
       y2="123.9631">
      <stop
         offset="0"
         style="stop-color:#D86FA8"
         id="stop1-5" />
      <stop
         offset="0.5"
         style="stop-color:#C8067D"
         id="stop2-6" />
      <stop
         offset="1"
         style="stop-color:#A1197F"
         id="stop3-9" />
    </linearGradient>
    <linearGradient
       id="linearGradient6"
       gradientUnits="userSpaceOnUse"
       x1="351.82639"
       y1="110.1996"
       x2="370.88339"
       y2="110.1996">
      <stop
         offset="0"
         style="stop-color:#48C0EF"
         id="stop4-3" />
      <stop
         offset="0.5"
         style="stop-color:#00A0E2"
         id="stop5-7" />
      <stop
         offset="1"
         style="stop-color:#008BD1"
         id="stop6-4" />
    </linearGradient>
    <linearGradient
       id="linearGradient9"
       gradientUnits="userSpaceOnUse"
       x1="351.82639"
       y1="79.113297"
       x2="407.46411"
       y2="79.113297">
      <stop
         offset="0"
         style="stop-color:#48C0EF"
         id="stop7" />
      <stop
         offset="0.5"
         style="stop-color:#00A0E2"
         id="stop8" />
      <stop
         offset="1"
         style="stop-color:#008BD1"
         id="stop9" />
    </linearGradient>
    <linearGradient
       x1="0"
       y1="0"
       x2="1"
       y2="0"
       gradientUnits="userSpaceOnUse"
       gradientTransform="matrix(13278.3,16279.5,16279.5,-13278.3,9791.42,14359.1)"
       spreadMethod="pad"
       id="linearGradient28">
      <stop
         style="stop-opacity:1;stop-color:#e8653c"
         offset="0"
         id="stop27-2" />
      <stop
         style="stop-opacity:1;stop-color:#e9028b"
         offset="1"
         id="stop28" />
    </linearGradient>
    <clipPath
       clipPathUnits="userSpaceOnUse"
       id="clipPath28">
      <path
         d="m 14148.8,25904.1 7252.7,4236.7 c 91.3,54.1 192.7,87.9 297.6,101.4 l 182.5,20.3 c 115,-54.1 172.5,-162.3 169.1,-328 -23.7,-1247.6 -20.3,-2491.9 10.1,-3739.6 -40.5,-1572.2 -33.8,-3147.9 23.7,-4720.1 3.4,-64.3 -10.1,-115 -37.2,-155.6 -19.6,-30.8 -47.9,-65.4 -81.5,-104.8 -6.9,-5.5 -13.5,-12.8 -19.9,-23.7 l -3634.8,2099.8 c -169.1,94.6 -372,94.6 -541,0 l -3756.5,-2164 v -4760.7 l 3763.3,-2123.4 c 135.2,-77.8 202.8,-37.2 202.8,118.3 l 3.4,4233.3 c 0,108.2 47.3,189.3 138.6,243.4 l 3949.3,2302.6 3979.7,2316.1 27,4415.9 c 0,152.2 -81.1,294.2 -213,371.9 l -3901.9,2231.6 -3776.8,2194.4 c -145.4,84.5 -328,84.5 -473.4,-3.3 l -3421.8,-2025.4 c -226.5,-135.2 -365.1,-378.7 -365.1,-639 l -3.4,-3966.2 c 0,-118.3 125.1,-189.3 226.5,-131.9 z"
         transform="translate(0,-2.5e-4)"
         id="path28" />
    </clipPath>
  </defs>
  <g
     inkscape:label="Livello 1"
     inkscape:groupmode="layer"
     id="layer1"
     transform="translate(397.26528,736.62411)">
    <ellipse
       style="opacity:1;fill:#04aded;fill-opacity:1;stroke:none;stroke-width:1.37583;stroke-linecap:round;stroke-linejoin:round;stroke-dasharray:none;stroke-opacity:1;paint-order:markers stroke fill"
       id="path1"
       cx="-367.86761"
       cy="-706.82764"
       rx="29.397667"
       ry="29.796473" />
    <path
       id="path31"
       style="fill:#000000;fill-opacity:1;fill-rule:nonzero;stroke:none;stroke-width:0.352778"
       d="m -353.90853,-725.04014 c -0.41146,-0.0158 -0.82585,0.26706 -0.87436,0.7562 -0.04,0.40302 -0.10805,0.80315 -0.19628,1.19498 -0.54516,2.42347 -1.84926,4.38266 -4.10269,5.51437 -1.05049,0.52758 -2.20113,0.84935 -3.36586,0.99295 -0.004,2.9e-4 -0.008,4e-4 -0.0101,8.2e-4 -1.84446,0.22701 -3.71702,-0.15087 -5.32066,-1.09002 -0.24226,-0.14185 -0.45174,-0.27433 -0.60695,-0.38406 -1.10891,-0.78336 -2.09993,-1.57851 -3.11699,-2.4732 -2.15967,-1.90011 -4.65451,-3.21162 -7.6003,-3.23066 -1.42575,-0.009 -2.89409,0.23444 -4.18103,0.8684 -0.4751,0.23399 -1.08145,0.60295 -1.67123,1.00102 -0.65197,0.44008 -0.39772,1.45438 0.38491,1.53199 0.40303,0.04 0.80337,0.1083 1.19519,0.19651 2.42347,0.54514 4.38244,1.84924 5.51418,4.10267 0.52756,1.05049 0.84934,2.20099 0.99293,3.36586 0.3209,2.60223 -0.23879,4.95087 -1.78299,7.13642 -0.7835,1.1089 -1.5785,2.09992 -2.47318,3.11699 -1.90012,2.15953 -3.21163,4.65458 -3.23067,7.60052 -0.009,1.42574 0.23437,2.89387 0.86818,4.18081 0.23414,0.47511 0.60302,1.08174 1.00124,1.67164 0.43993,0.65184 1.45445,0.3973 1.5322,-0.38533 0.04,-0.40302 0.10804,-0.80314 0.19608,-1.19497 0.54515,-2.42347 1.84925,-4.38266 4.10267,-5.51438 1.05049,-0.52757 2.20114,-0.84935 3.36586,-0.99294 0.004,-4.2e-4 0.006,-4.2e-4 0.0101,-8.3e-4 1.8449,-0.2273 3.71779,0.15057 5.32172,1.09003 0.24213,0.1417 0.45153,0.27447 0.60674,0.38405 1.10892,0.78351 2.09993,1.57829 3.11699,2.47298 2.15953,1.90012 4.65458,3.21185 7.60053,3.23088 1.42574,0.009 2.89373,-0.23444 4.18082,-0.86839 0.47509,-0.23399 1.08166,-0.60275 1.67142,-1.00082 0.65184,-0.44008 0.39751,-1.45459 -0.38512,-1.5322 -0.40301,-0.0399 -0.8033,-0.10817 -1.19498,-0.19628 -2.42347,-0.54516 -4.38279,-1.84926 -5.51437,-4.10269 -0.52758,-1.05049 -0.84936,-2.20113 -0.99295,-3.36585 -0.16292,-1.32139 -0.0404,-2.8509 0.41983,-4.10907 0.85559,-2.33946 2.20176,-4.28673 3.83635,-6.14455 1.89997,-2.15968 3.21163,-4.65443 3.23067,-7.60053 0.009,-1.4256 -0.23423,-2.89387 -0.86819,-4.18081 -0.23399,-0.4751 -0.60295,-1.08151 -1.00103,-1.67143 -0.16502,-0.24444 -0.41095,-0.36157 -0.65783,-0.37108 z m -13.95968,14.29989 c 2.16085,0 3.91278,1.75177 3.91278,3.91277 0,2.161 -1.75193,3.91278 -3.91278,3.91278 -2.16099,0 -3.91278,-1.75178 -3.91278,-3.91278 0,-2.161 1.75179,-3.91277 3.91278,-3.91277 z" />
  </g>
</svg>
