<?xml version="1.0" encoding="UTF-8" standalone="no"?>
<!-- Created with Inkscape (http://www.inkscape.org/) -->

<svg
   width="120.83707mm"
   height="44.999901mm"
   viewBox="0 0 120.83707 44.999901"
   version="1.1"
   id="svg6414"
   xmlns:inkscape="http://www.inkscape.org/namespaces/inkscape"
   xmlns:sodipodi="http://sodipodi.sourceforge.net/DTD/sodipodi-0.dtd"
   xmlns:xlink="http://www.w3.org/1999/xlink"
   xmlns="http://www.w3.org/2000/svg"
   xmlns:svg="http://www.w3.org/2000/svg">
  <sodipodi:namedview
     id="namedview6416"
     pagecolor="#ffffff"
     bordercolor="#000000"
     borderopacity="0.25"
     inkscape:showpageshadow="2"
     inkscape:pageopacity="0.0"
     inkscape:pagecheckerboard="0"
     inkscape:deskcolor="#d1d1d1"
     inkscape:document-units="mm"
     showgrid="false" />
  <defs
     id="defs6411">
    <linearGradient
       inkscape:collect="always"
       xlink:href="#linearGradient3304"
       id="linearGradient3359"
       gradientUnits="userSpaceOnUse"
       x1="309.98596"
       y1="1272.0308"
       x2="430.82303"
       y2="1272.0308"
       gradientTransform="translate(-282.71268,-1111.874)" />
    <linearGradient
       inkscape:collect="always"
       id="linearGradient3304">
      <stop
         style="stop-color:#f704fe;stop-opacity:1;"
         offset="0"
         id="stop3300" />
      <stop
         style="stop-color:#24bce3;stop-opacity:1;"
         offset="1"
         id="stop3302" />
    </linearGradient>
  </defs>
  <g
     inkscape:label="Livello 1"
     inkscape:groupmode="layer"
     id="layer1"
     transform="translate(-27.27328,-141.68216)">
    <path
       id="path3261-9"
       d="m 77.42216,141.68216 c -1.385,0 -2.50011,1.1151 -2.50011,2.5001 0,1.385 1.11511,2.4996 2.50011,2.4996 h 2.60862 2.10272 c 1.38498,0 2.5001,1.1151 2.5001,2.5001 0,1.385 -1.11512,2.5001 -2.5001,2.5001 h -4.90151 -5.0984 c -1.385,0 -2.50011,1.1151 -2.50011,2.5001 0,1.385 1.11511,2.4996 2.50011,2.4996 h 2.30012 7.83931 c 1.385,0 2.50011,1.1151 2.50011,2.5001 0,1.385 -1.11511,2.5001 -2.50011,2.5001 H 71.63491 64.77332 c -1.385,0 -2.50011,1.1151 -2.50011,2.5001 0,1.385 1.11511,2.5001 2.50011,2.5001 h 4.0628 9.22217 c 1.385,0 2.49959,1.1146 2.49959,2.4996 0,1.385 -1.11459,2.5001 -2.49959,2.5001 H 66.03732 57.31227 c -1.385,0 -2.49959,1.1151 -2.49959,2.5001 0,1.385 1.11459,2.5001 2.49959,2.5001 h 5.92626 0.29662 c 1.385,0 2.5001,1.1152 2.5001,2.5002 0,1.385 -1.1151,2.4995 -2.5001,2.4995 h -3.0949 -2.22829 c -1.385,0 -2.50011,1.1151 -2.50011,2.5001 0,1.385 1.11511,2.5002 2.50011,2.5002 h 15.00012 6.28488 c 1.01563,0 1.81599,-0.4885 2.40193,-1.4651 l 21.67981,-38.7304 c 0.50781,-0.9376 1.30869,-1.4061 2.40244,-1.4061 h 14.7655 c 1.36719,0 2.05104,0.3124 2.05104,0.9374 0,0.1891 -0.0656,0.4108 -0.19379,0.664 h -9.15809 c -1.385,0 -2.50011,1.1151 -2.50011,2.5001 0,1.385 1.11511,2.5001 2.50011,2.5001 h 3.7884 7.07502 c 1.38498,0 2.5001,1.1151 2.5001,2.5001 0,1.385 -1.11512,2.4996 -2.5001,2.4996 h -12.88449 -2.11563 -7.29103 c -1.385,0 -2.49959,1.1151 -2.49959,2.5001 0,1.385 1.11459,2.5001 2.49959,2.5001 h 3.59668 l -14.75104,12.6954 c -0.15624,0.2734 -0.23409,0.5075 -0.23409,0.7028 0,0.4297 0.37092,0.6449 1.11311,0.6449 h 54.14088 c 0.46875,0 0.82034,-0.2346 1.05472,-0.7033 l 1.05471,-1.8748 c 0.0781,-0.2341 0.11731,-0.371 0.11731,-0.4103 0,-0.1954 -0.13687,-0.2931 -0.41031,-0.2931 h -29.06283 c -0.74219,0 -1.11311,-0.2147 -1.11311,-0.6444 0,-0.1562 0.0784,-0.371 0.23461,-0.6444 l 25.95707,-22.3242 c 2.26563,-2.2265 3.39825,-3.926 3.39825,-5.0979 0,-1.3672 -1.44556,-2.0505 -4.33617,-2.0505 h -50.3561 -8.00313 z m -30.28859,9.9999 c -1.385,0 -2.50011,1.1151 -2.50011,2.5001 0,1.385 1.11511,2.4996 2.50011,2.4996 h 0.13952 14.86008 c 1.385,0 2.5001,-1.1146 2.5001,-2.4996 0,-1.385 -1.1151,-2.5001 -2.5001,-2.5001 z m -17.3607,9.9999 c -1.385,0 -2.49959,1.1151 -2.49959,2.5001 0,1.385 1.11459,2.5001 2.49959,2.5001 h 13.28498 11.71504 c 1.385,0 2.50011,-1.1151 2.50011,-2.5001 0,-1.385 -1.11511,-2.5001 -2.50011,-2.5001 h -7.4998 z"
       style="font-size:58.5938px;font-family:Sandoval;-inkscape-font-specification:'Sandoval, Normal';fill:url(#linearGradient3359);fill-opacity:1;stroke-width:2.25054;stroke-linejoin:round;paint-order:fill markers stroke"
       inkscape:export-filename="path3261-9.png"
       inkscape:export-xdpi="96"
       inkscape:export-ydpi="96" />
  </g>
</svg>
