<?xml version="1.0" encoding="UTF-8" standalone="no"?>
<!-- Created with Inkscape (http://www.inkscape.org/) -->

<svg
   width="931.22339"
   height="1161.6626"
   viewBox="0 0 246.38618 307.35657"
   version="1.1"
   id="svg10815"
   xml:space="preserve"
   sodipodi:docname="presto-sq-bw.svg"
   inkscape:version="1.3.2 (091e20e, 2023-11-25)"
   xmlns:inkscape="http://www.inkscape.org/namespaces/inkscape"
   xmlns:sodipodi="http://sodipodi.sourceforge.net/DTD/sodipodi-0.dtd"
   xmlns="http://www.w3.org/2000/svg"
   xmlns:svg="http://www.w3.org/2000/svg"><sodipodi:namedview
     id="namedview1"
     pagecolor="#ffffff"
     bordercolor="#000000"
     borderopacity="0.25"
     inkscape:showpageshadow="2"
     inkscape:pageopacity="0.0"
     inkscape:pagecheckerboard="0"
     inkscape:deskcolor="#d1d1d1"
     inkscape:zoom="0.72377907"
     inkscape:cx="465.61169"
     inkscape:cy="580.97839"
     inkscape:window-width="1916"
     inkscape:window-height="1041"
     inkscape:window-x="1080"
     inkscape:window-y="18"
     inkscape:window-maximized="1"
     inkscape:current-layer="svg10815" /><defs
     id="defs10812" /><path
     id="rect115"
     style="fill:#1a1a1a;stroke-width:39.0756;stroke-linecap:round;stroke-linejoin:round;stroke-miterlimit:10;paint-order:markers fill stroke"
     d="M 2.160369e-5,-6.818322e-5 H 246.38624 V 307.3565 H 2.160369e-5 Z"
     inkscape:label="canvas" /><path
     id="path100-6"
     style="font-size:41.5011px;font-family:'Space Quest';-inkscape-font-specification:'Space Quest, Normal';fill:#ffffff;stroke-width:12.4985;stroke-linecap:round;stroke-linejoin:round;stroke-miterlimit:10;paint-order:markers fill stroke"
     d="m 25.116258,240.97069 v 35.05417 H 35.131541 V 266.0097 h 7.512173 c 8.346214,0 12.518888,-4.17329 12.518888,-12.5195 0,-8.34634 -4.172674,-12.51951 -12.518888,-12.51951 z m 32.55069,0 v 35.05417 H 67.682107 V 266.0097 h 4.081486 l 7.185847,10.01516 h 11.267332 l -8.137271,-11.36754 c 3.755901,-1.83624 5.633667,-5.55854 5.633667,-11.16712 0,-8.34634 -4.173292,-12.51951 -12.519506,-12.51951 z m 33.801997,0 v 35.05417 h 27.542735 l 10.01516,-10.01516 h -27.54199 v -2.50434 h 17.52683 V 253.4902 h -17.52683 v -2.50435 h 17.52683 v -10.01516 z m 42.565845,0 c -8.34621,0 -12.51888,3.7223 -12.51888,11.16713 0,7.5784 4.17267,11.36754 12.51888,11.36754 h 7.51156 c 1.66919,0 2.50422,0.38415 2.50422,1.15196 0,0.90139 -0.83503,1.35238 -2.50422,1.35238 h -11.26733 l -10.01529,10.01516 h 21.28262 c 8.34621,0 12.5195,-3.78913 12.5195,-11.36754 0,-7.44483 -4.17329,-11.16712 -12.5195,-11.16712 h -7.51156 c -1.66931,0 -2.5036,-0.451 -2.5036,-1.35238 0,-0.76794 0.83429,-1.15197 2.5036,-1.15197 h 10.01578 l 10.01528,-10.01516 z m 21.28324,0 -10.01529,10.01516 h 20.03045 v 25.03901 h 10.0159 v -25.03901 h 10.01516 v -10.01516 z m 48.42489,0 c -4.8409,0 -8.97242,1.71108 -12.39446,5.133 -3.42179,3.42204 -5.13238,7.55356 -5.13238,12.39446 0,4.84077 1.71059,8.97168 5.13238,12.39372 3.42204,3.42191 7.55356,5.13299 12.39446,5.13299 4.84077,0 8.9723,-1.71108 12.39434,-5.13299 3.42191,-3.42204 5.13299,-7.55295 5.13299,-12.39372 0,-4.8409 -1.71108,-8.97242 -5.13299,-12.39446 -3.42204,-3.42192 -7.55357,-5.133 -12.39434,-5.133 z"
     inkscape:label="text" /><path
     id="rect43-2-9"
     style="fill:#ffffff;fill-opacity:1;stroke-width:21.7058;stroke-linecap:round;stroke-linejoin:round;stroke-miterlimit:10;paint-order:markers fill stroke"
     d="m 48.699714,160.72215 c 2.479881,2.47988 2.479881,6.47277 0,8.95265 l -8.952407,8.95241 c -2.47988,2.47988 -6.472772,2.47976 -8.952653,0 -2.479634,-2.47976 -2.479757,-6.47265 1.23e-4,-8.95241 l 8.95253,-8.95253 c 2.479758,-2.47988 6.47265,-2.47975 8.952407,-1.2e-4 z"
     inkscape:label="meteor-sub"
     inkscape:export-filename="presto-meteor-bw.svg"
     inkscape:export-xdpi="96"
     inkscape:export-ydpi="96" /><path
     id="path13-3-6"
     style="font-size:139.906px;font-family:'Space Quest';-inkscape-font-specification:'Space Quest, Normal';fill:#ffffff;stroke-width:54.3907;stroke-linecap:round;stroke-linejoin:round;stroke-miterlimit:10;paint-order:markers fill stroke"
     d="m 141.1921,31.346267 c -21.06638,0 -39.04583,7.44582 -53.937469,22.337584 -14.891641,14.891517 -22.336843,32.870343 -22.336843,53.936729 0,2.10116 0.09638,4.16291 0.243045,6.20266 l 6.892635,-6.89251 c 1.487805,-1.48793 3.429205,-2.23214 5.370851,-2.23214 1.94177,0 3.883911,0.74421 5.371839,2.23214 2.975734,2.97561 2.975734,7.76671 0,10.74257 l -14.148664,14.1494 -16.228083,16.22735 c -2.479757,2.47975 -2.479757,6.47252 0,8.9524 2.479881,2.47976 6.472403,2.47976 8.952283,0 l 12.72017,-12.7193 7.274069,-7.2742 c 1.487929,-1.48792 3.430193,-2.23214 5.371716,-2.23214 1.94177,0 3.883169,0.74422 5.370974,2.23214 2.975734,2.97586 2.975734,7.76684 0,10.74257 l -9.151711,9.15196 -25.543389,25.54314 c -2.479757,2.47988 -2.479634,6.47265 0,8.95228 2.480004,2.48001 6.472649,2.48001 8.952406,0 l 25.543142,-25.54314 c 2.47e-4,1.3e-4 7.42e-4,0 8.65e-4,0 l 18.666444,-18.66632 c 1.48781,-1.48781 3.42921,-2.23214 5.37085,-2.23214 1.94177,0 3.88391,0.74433 5.37172,2.23214 2.97573,2.97573 2.97573,7.76683 0,10.74269 l -8.64733,8.64746 c 0,0 0,0 -0.0161,0 l -8.13381,8.1348 -42.596366,42.59636 c -2.479881,2.47976 -2.479881,6.47253 0,8.95229 2.479757,2.47988 6.472402,2.47988 8.952159,0 l 46.104527,-46.10441 4.62664,-4.6259 c 0,0 0,0 0,-0.0161 L 141.42649,155.699 c 1.48793,-1.48805 3.42921,-2.2314 5.37098,-2.2314 1.94177,0 3.88379,0.74347 5.37159,2.2314 2.97598,2.97573 2.97598,7.76758 0,10.74343 l -17.19495,17.19495 c 2.03975,0.1484 4.1015,0.24317 6.20267,0.24317 21.06638,0 39.04496,-7.44594 53.93672,-22.33758 14.89127,-14.89176 22.33759,-32.87121 22.33759,-53.93759 0,-21.066261 -7.44632,-39.045087 -22.33759,-53.936604 C 180.22174,38.777012 162.24316,31.331068 141.17678,31.331068 Z m 28.75117,59.615862 c 1.94177,0 3.88292,0.744212 5.37097,2.23214 2.97574,2.975733 2.97574,7.766961 0,10.742691 l -10.74269,10.74269 c -2.97585,2.97573 -7.76769,2.97573 -10.74343,0 -2.97586,-2.97573 -2.97586,-7.76696 0,-10.74269 l 10.74343,-10.742691 c 1.48793,-1.487928 3.43007,-2.23214 5.37172,-2.23214 z m -42.62108,3.23027 c 1.94164,0 3.88379,0.74347 5.37159,2.231399 2.97586,2.975733 2.97586,7.767572 0,10.743432 l -10.74343,10.74269 c -2.97573,2.97573 -7.76683,2.97573 -10.74269,0 -2.97573,-2.97573 -2.97573,-7.76696 0,-10.74269 l 0.89508,-0.8952 9.9e-4,-7.5e-4 9.84662,-9.847482 c 1.4878,-1.487929 3.42994,-2.231399 5.37184,-2.231399 z"
     inkscape:label="meteor" /><style
     type="text/css"
     id="style40359">
	.st0{fill:#F36D21;}
	.st1{fill:#FBAE1E;}
	.st2{fill:#F7F3AB;}
	.st3{fill:#ED1C24;}
	.st4{fill:#FBAD1A;}
	.st5{fill:#EAEAEA;}
	.st6{fill:#22455B;}
	.st7{opacity:0.2;fill:#010101;}
	.st8{fill:#D12027;}
	.st9{fill:#E21F26;}
	.st10{fill:#231F21;}
	.st11{fill:#3A88C3;}
	.st12{fill:#3A87C1;}
	.st13{fill:#3A7DAA;}
	.st14{fill:#3B3F40;}
	.st15{fill:#FEEC6E;}
</style></svg>
