<?xml version="1.0" encoding="UTF-8" standalone="no"?>
<!-- Created with Inkscape (http://www.inkscape.org/) -->

<svg
   width="2054.627"
   height="601.95062"
   viewBox="0 0 543.62004 159.26611"
   version="1.1"
   id="svg10815"
   xml:space="preserve"
   sodipodi:docname="presto-h.svg"
   inkscape:version="1.3.2 (091e20e, 2023-11-25)"
   xmlns:inkscape="http://www.inkscape.org/namespaces/inkscape"
   xmlns:sodipodi="http://sodipodi.sourceforge.net/DTD/sodipodi-0.dtd"
   xmlns:xlink="http://www.w3.org/1999/xlink"
   xmlns="http://www.w3.org/2000/svg"
   xmlns:svg="http://www.w3.org/2000/svg"><sodipodi:namedview
     id="namedview1"
     pagecolor="#ffffff"
     bordercolor="#000000"
     borderopacity="0.25"
     inkscape:showpageshadow="2"
     inkscape:pageopacity="0.0"
     inkscape:pagecheckerboard="0"
     inkscape:deskcolor="#d1d1d1"
     inkscape:zoom="0.32804008"
     inkscape:cx="1143.153"
     inkscape:cy="-56.395547"
     inkscape:window-width="1916"
     inkscape:window-height="1041"
     inkscape:window-x="1080"
     inkscape:window-y="18"
     inkscape:window-maximized="1"
     inkscape:current-layer="svg10815" /><defs
     id="defs10812"><linearGradient
       x1="0"
       y1="0"
       x2="1"
       y2="0"
       gradientUnits="userSpaceOnUse"
       gradientTransform="matrix(1410.4,0,0,-1410.4,13653.7,22984.3)"
       spreadMethod="pad"
       id="linearGradient8"><stop
         style="stop-opacity:1;stop-color:#eb008b"
         offset="0"
         id="stop6" /><stop
         style="stop-opacity:1;stop-color:#eb008b"
         offset="0.07650253"
         id="stop7" /><stop
         style="stop-opacity:1;stop-color:#4000b4"
         offset="1"
         id="stop8" /></linearGradient><linearGradient
       xlink:href="#linearGradient8"
       id="linearGradient89"
       gradientUnits="userSpaceOnUse"
       x1="1786.6895"
       y1="1232.1504"
       x2="1863.8455"
       y2="1169.3359" /><linearGradient
       xlink:href="#linearGradient8"
       id="linearGradient90"
       gradientUnits="userSpaceOnUse"
       x1="2119.7329"
       y1="-363.46838"
       x2="2121.5833"
       y2="-379.06201" /><linearGradient
       inkscape:collect="always"
       xlink:href="#linearGradient8"
       id="linearGradient1"
       gradientUnits="userSpaceOnUse"
       x1="1786.6895"
       y1="1232.1504"
       x2="1863.8455"
       y2="1169.3359"
       gradientTransform="matrix(1.2908969,0,0,1.2908969,-1875.1711,-1485.4408)" /><linearGradient
       inkscape:collect="always"
       xlink:href="#linearGradient8"
       id="linearGradient2"
       gradientUnits="userSpaceOnUse"
       x1="2119.7329"
       y1="-363.46838"
       x2="2121.5833"
       y2="-379.06201"
       gradientTransform="matrix(0.91280195,0.91280195,-0.91280195,0.91280195,-1875.1711,-1485.4408)" /></defs><path
     id="path10"
     style="font-size:139.906px;font-family:'Space Quest';-inkscape-font-specification:'Space Quest, Normal';stroke-width:32.7536;stroke-linecap:round;stroke-linejoin:round;stroke-miterlimit:10;paint-order:markers fill stroke"
     d="m 341.20773,15.7242 -26.24694,26.247 h 52.49344 v 65.6166 h 26.247 V 41.9712 h 26.2428 c 3.0566,-9.6088 8.4666,-18.4788 15.5701,-25.6321 0.1998,-0.2103 0.4122,-0.4076 0.615,-0.6149 z" /><path
     style="font-size:139.906px;font-family:'Space Quest';-inkscape-font-specification:'Space Quest, Normal';stroke-width:32.7536;stroke-linecap:round;stroke-linejoin:round;stroke-miterlimit:10;paint-order:markers fill stroke"
     d="m 285.43329,74.7794 c -21.8723,0 -32.8085,-9.93 -32.8085,-29.79 0,-19.5101 10.9362,-29.2651 32.8085,-29.2651 h 52.49344 L 311.67999,41.971 h -26.2467 c -4.3745,0 -6.5617,1.0062 -6.5617,3.0184 0,2.3622 2.1872,3.5433 6.5617,3.5433 h 19.685 c 21.8722,0 32.80844,9.755 32.80844,29.2651 0,19.8601 -10.93624,29.7901 -32.80844,29.7901 h -55.7744 l 26.2468,-26.2468 h 29.5276 c 4.3745,0 6.5617,-1.1811 6.5617,-3.5433 0,-2.0122 -2.1872,-3.0184 -6.5617,-3.0184 z"
     id="path9" /><path
     style="font-size:139.906px;font-family:'Space Quest';-inkscape-font-specification:'Space Quest, Normal';stroke-width:32.7536;stroke-linecap:round;stroke-linejoin:round;stroke-miterlimit:10;paint-order:markers fill stroke"
     d="M 246.06319,15.7243 V 41.971 h -45.9319 v 6.5617 h 45.9319 v 26.2467 h -45.9319 v 6.5617 h 72.1786 l -26.2467,26.2468 h -72.1785 V 15.7243 Z"
     id="path7" /><path
     style="font-size:139.906px;font-family:'Space Quest';-inkscape-font-specification:'Space Quest, Normal';stroke-width:32.7536;stroke-linecap:round;stroke-linejoin:round;stroke-miterlimit:10;paint-order:markers fill stroke"
     d="m 122.24409,81.3411 h -10.6955 v 26.2468 H 85.30189 V 15.7243 h 45.9318 c 21.8723,0 32.8084,10.9362 32.8084,32.8084 0,14.6982 -4.9213,24.4532 -14.7638,29.2651 l 21.3255,29.7901 h -29.5276 z"
     id="path4" /><path
     style="font-size:139.906px;font-family:'Space Quest';-inkscape-font-specification:'Space Quest, Normal';stroke-width:32.7536;stroke-linecap:round;stroke-linejoin:round;stroke-miterlimit:10;paint-order:markers fill stroke"
     d="m 26.24669,81.3411 v 26.2468 H -1e-5 V 15.7243 h 45.9318 c 21.8722,0 32.8084,10.9362 32.8084,32.8084 0,21.8723 -10.9362,32.8084 -32.8084,32.8084 z"
     id="text52" /><style
     type="text/css"
     id="style40359">
	.st0{fill:#F36D21;}
	.st1{fill:#FBAE1E;}
	.st2{fill:#F7F3AB;}
	.st3{fill:#ED1C24;}
	.st4{fill:#FBAD1A;}
	.st5{fill:#EAEAEA;}
	.st6{fill:#22455B;}
	.st7{opacity:0.2;fill:#010101;}
	.st8{fill:#D12027;}
	.st9{fill:#E21F26;}
	.st10{fill:#231F21;}
	.st11{fill:#3A88C3;}
	.st12{fill:#3A87C1;}
	.st13{fill:#3A7DAA;}
	.st14{fill:#3B3F40;}
	.st15{fill:#FEEC6E;}
</style><path
     id="path13-2"
     style="font-size:139.906px;font-family:'Space Quest';-inkscape-font-specification:'Space Quest, Normal';fill:url(#linearGradient1);stroke-width:44.0191;stroke-linecap:round;stroke-linejoin:round;stroke-miterlimit:10;paint-order:markers fill stroke"
     d="m 481.90246,0.01207721 c -17.04926,0 -31.60025,6.02603579 -43.65232,18.07810779 -12.05194,12.051942 -18.07746,26.602416 -18.07746,43.651678 0,1.700499 0.0774,3.369112 0.19673,5.019911 l 5.57822,-5.578224 c 1.20415,-1.204148 2.7753,-1.806481 4.34671,-1.806481 1.57154,0 3.14334,0.602333 4.34748,1.806481 2.4083,2.408298 2.4083,6.285765 0,8.694191 l -11.45064,11.451288 -13.13358,13.13294 c -2.00696,2.006957 -2.00696,5.23833 0,7.245291 2.00695,2.00695 5.2382,2.00695 7.24516,0 l 10.29464,-10.293873 5.88701,-5.887136 c 1.20415,-1.204148 2.77607,-1.806481 4.34735,-1.806481 1.57154,0 3.14269,0.602333 4.34684,1.806481 2.40829,2.408427 2.40829,6.285894 0,8.694191 l -7.40665,7.406778 -20.67255,20.67242 c -2.00696,2.00696 -2.00683,5.23833 0,7.24516 2.00708,2.00709 5.23833,2.00709 7.24528,0 l 20.67243,-20.67242 c 1.3e-4,1.3e-4 5.1e-4,0 6.4e-4,0 l 15.10698,-15.10685 c 1.20415,-1.204149 2.7753,-1.806481 4.34671,-1.806481 1.57154,0 3.14333,0.602332 4.34748,1.806481 2.4083,2.408297 2.4083,6.28576 0,8.69419 l -6.99847,6.99847 c 0,0 0,0 -0.0129,0 l -6.5828,6.58357 -34.47378,34.47379 c -2.00696,2.00696 -2.00696,5.23833 0,7.24529 2.00695,2.00696 5.2382,2.00696 7.24515,0 l 37.31299,-37.31299 3.74438,-3.74373 c 0,0 0,0 0,-0.0129 l 16.03875,-16.03875 c 1.20427,-1.204273 2.7753,-1.805831 4.34683,-1.805831 1.57154,0 3.14321,0.601687 4.34736,1.805831 2.40842,2.4083 2.40842,6.28641 0,8.69484 l -13.91613,13.91613 c 1.6508,0.12005 3.31941,0.19673 5.01991,0.19673 17.04926,0 31.59961,-6.02604 43.65168,-18.07811 C 537.59357,93.329991 543.62,78.779002 543.62,61.729739 543.62,44.680476 537.59357,30.130003 525.54189,18.07806 513.48981,6.0259786 498.93946,-5.7223642e-5 481.8902,-5.7223642e-5 Z M 505.17114,48.259994 c 1.57154,0 3.14256,0.602333 4.34684,1.806481 2.40829,2.408298 2.40829,6.285894 0,8.694191 l -8.69419,8.694191 c -2.40843,2.408297 -6.28654,2.408297 -8.69484,0 -2.40843,-2.408298 -2.40843,-6.285894 0,-8.694191 l 8.69484,-8.694191 c 1.20414,-1.204148 2.77594,-1.806481 4.34735,-1.806481 z m -34.4938,2.614325 c 1.57141,0 3.14321,0.601687 4.34735,1.805835 2.40843,2.408298 2.40843,6.28641 0,8.694836 l -8.69483,8.694191 c -2.4083,2.408297 -6.28577,2.408297 -8.69419,0 -2.4083,-2.408297 -2.4083,-6.285893 0,-8.694191 l 0.72445,-0.724451 7.7e-4,-6.45e-4 7.96897,-7.96974 c 1.20415,-1.204148 2.77594,-1.805835 4.34748,-1.805835 z" /><path
     id="rect43-6"
     style="fill:url(#linearGradient2);stroke-width:17.5668;stroke-linecap:round;stroke-linejoin:round;stroke-miterlimit:10;paint-order:markers fill stroke"
     d="m 407.04715,104.71774 c 2.00698,2.00698 2.00702,5.23844 5e-5,7.24541 l -7.24537,7.24537 c -2.00697,2.00697 -5.23843,2.00693 -7.24541,-5e-5 -2.00689,-2.00689 -2.00692,-5.23835 5e-5,-7.24532 l 7.24536,-7.24536 c 2.00697,-2.00697 5.23844,-2.00694 7.24532,-5e-5 z" /></svg>
