<?xml version="1.0" encoding="UTF-8" standalone="no"?>
<!-- Created with Inkscape (http://www.inkscape.org/) -->

<svg
   width="741.3689"
   height="924.82684"
   viewBox="0 0 196.15385 244.69378"
   version="1.1"
   id="svg10815"
   xml:space="preserve"
   sodipodi:docname="presto-sq.svg"
   inkscape:version="1.3.2 (091e20e, 2023-11-25)"
   xmlns:inkscape="http://www.inkscape.org/namespaces/inkscape"
   xmlns:sodipodi="http://sodipodi.sourceforge.net/DTD/sodipodi-0.dtd"
   xmlns:xlink="http://www.w3.org/1999/xlink"
   xmlns="http://www.w3.org/2000/svg"
   xmlns:svg="http://www.w3.org/2000/svg"><sodipodi:namedview
     id="namedview1"
     pagecolor="#ffffff"
     bordercolor="#000000"
     borderopacity="0.25"
     inkscape:showpageshadow="2"
     inkscape:pageopacity="0.0"
     inkscape:pagecheckerboard="0"
     inkscape:deskcolor="#d1d1d1"
     inkscape:zoom="0.90912905"
     inkscape:cx="370.68445"
     inkscape:cy="462.53059"
     inkscape:window-width="1916"
     inkscape:window-height="1041"
     inkscape:window-x="1080"
     inkscape:window-y="18"
     inkscape:window-maximized="1"
     inkscape:current-layer="svg10815" /><defs
     id="defs10812"><linearGradient
       x1="0"
       y1="0"
       x2="1"
       y2="0"
       gradientUnits="userSpaceOnUse"
       gradientTransform="matrix(1410.4,0,0,-1410.4,13653.7,22984.3)"
       spreadMethod="pad"
       id="linearGradient8"><stop
         style="stop-opacity:1;stop-color:#eb008b"
         offset="0"
         id="stop6" /><stop
         style="stop-opacity:1;stop-color:#eb008b"
         offset="0.07650253"
         id="stop7" /><stop
         style="stop-opacity:1;stop-color:#4000b4"
         offset="1"
         id="stop8" /></linearGradient><linearGradient
       xlink:href="#linearGradient8"
       id="linearGradient89-5"
       gradientUnits="userSpaceOnUse"
       x1="1786.6895"
       y1="1232.1504"
       x2="1863.8455"
       y2="1169.3359"
       gradientTransform="matrix(1.5950527,0,0,1.5950527,-2796.3619,-1835.4342)" /><linearGradient
       xlink:href="#linearGradient8"
       id="linearGradient90-1"
       gradientUnits="userSpaceOnUse"
       x1="2119.7329"
       y1="-363.46838"
       x2="2121.5833"
       y2="-379.06201"
       gradientTransform="matrix(1.1278726,1.1278726,-1.1278726,1.1278726,-2796.3619,-1835.4342)" /></defs><path
     id="path13-3"
     style="font-size:139.906px;font-family:'Space Quest';-inkscape-font-specification:'Space Quest, Normal';fill:url(#linearGradient89-5);stroke-width:54.3907;stroke-linecap:round;stroke-linejoin:round;stroke-miterlimit:10;paint-order:markers fill stroke"
     d="m 116.07561,0.01495362 c -21.06634,0 -39.045774,7.44586548 -53.937505,22.33759638 -14.891572,14.891572 -22.336799,32.870368 -22.336799,53.936707 0,2.101163 0.0957,4.162928 0.243086,6.202682 l 6.892542,-6.892542 c 1.487865,-1.487865 3.429203,-2.232117 5.370861,-2.232117 1.941817,0 3.883953,0.744252 5.371819,2.232117 2.97573,2.97573 2.97573,7.76679 0,10.74268 L 43.531018,100.49147 27.302951,116.71874 c -2.479828,2.47983 -2.479828,6.47256 0,8.95239 2.479829,2.47983 6.472405,2.47983 8.952234,0 l 12.720226,-12.71927 7.274078,-7.27424 c 1.487865,-1.48786 3.430161,-2.23211 5.371659,-2.23211 1.941817,0 3.883156,0.74425 5.371021,2.23211 2.975731,2.97589 2.975731,7.76695 0,10.74268 l -9.151774,9.15194 -25.543334,25.54317 c -2.479828,2.47983 -2.479668,6.47257 0,8.95224 2.479988,2.47998 6.472565,2.47998 8.952393,0 l 25.543174,-25.54318 c 1.6e-4,1.6e-4 6.38e-4,0 7.98e-4,0 l 18.666423,-18.66626 c 1.487865,-1.48787 3.429204,-2.23212 5.370861,-2.23212 1.941818,0 3.883954,0.74425 5.371819,2.23212 2.97573,2.97573 2.97573,7.76679 0,10.74268 l -8.647419,8.64742 c 0,0 0,0 -0.01595,0 l -8.133812,8.13477 -42.596361,42.59636 c -2.479828,2.47982 -2.479828,6.47256 0,8.95239 2.479828,2.47983 6.472405,2.47983 8.952233,0 l 46.10452,-46.10452 4.62661,-4.62581 c 0,0 0,0 0,-0.016 l 19.81773,-19.81774 c 1.48803,-1.48802 3.42921,-2.23132 5.37102,-2.23132 1.94182,0 3.8838,0.74346 5.37166,2.23132 2.97589,2.97573 2.97589,7.76759 0,10.74348 l -17.19498,17.19499 c 2.03975,0.14834 4.10151,0.24308 6.20268,0.24308 21.06634,0 39.04497,-7.44586 53.9367,-22.33759 14.89126,-14.89173 22.3376,-32.871167 22.3376,-53.937506 0,-21.06634 -7.44634,-39.045136 -22.3376,-53.936707 C 155.10543,7.4458256 137.1268,-3.9878122e-5 116.06046,-3.9878122e-5 Z M 144.82675,59.630846 c 1.94182,0 3.883,0.744251 5.37102,2.232117 2.97573,2.97573 2.97573,7.766949 0,10.742679 l -10.74268,10.74268 c -2.97589,2.975731 -7.76774,2.975731 -10.74347,0 -2.97589,-2.97573 -2.97589,-7.766949 0,-10.74268 l 10.74347,-10.742679 c 1.48787,-1.487866 3.43001,-2.232117 5.37166,-2.232117 z m -42.62108,3.230301 c 1.94166,0 3.88379,0.743454 5.37166,2.231319 2.97589,2.97573 2.97589,7.767587 0,10.743477 l -10.743479,10.74268 c -2.975731,2.97573 -7.76679,2.97573 -10.74268,0 -2.975731,-2.97573 -2.975731,-7.766949 0,-10.74268 l 0.895143,-0.895143 9.57e-4,-7.98e-4 9.84658,-9.847536 c 1.487865,-1.487865 3.429999,-2.231319 5.371819,-2.231319 z" /><path
     id="rect43-2"
     style="fill:url(#linearGradient90-1);stroke-width:21.7058;stroke-linecap:round;stroke-linejoin:round;stroke-miterlimit:10;paint-order:markers fill stroke"
     d="m 23.583251,129.39097 c 2.479854,2.47985 2.479899,6.4727 5.7e-5,8.95255 l -8.952489,8.95248 c -2.479842,2.47985 -6.4726915,2.4798 -8.952545,-5e-5 -2.4797407,-2.47974 -2.4797858,-6.47259 5.64e-5,-8.95243 l 8.9524886,-8.95249 c 2.479842,-2.47985 6.472692,-2.4798 8.952432,-6e-5 z" /><path
     id="path99"
     style="font-size:41.5011px;font-family:'Space Quest';-inkscape-font-specification:'Space Quest, Normal';stroke-width:12.4985;stroke-linecap:round;stroke-linejoin:round;stroke-miterlimit:10;paint-order:markers fill stroke"
     d="m 4.096692e-5,209.63957 v 35.05418 H 10.015449 v -10.01541 h 7.51168 c 8.346215,0 12.519137,-4.17342 12.519137,-12.51963 0,-8.34622 -4.172922,-12.51914 -12.519137,-12.51914 z m 32.55044703308,0 v 35.05418 h 10.015409 v -10.01541 h 4.081363 l 7.186094,10.01541 h 11.267582 l -8.138014,-11.36779 c 3.755902,-1.83625 5.633791,-5.55867 5.633791,-11.16725 0,-8.34622 -4.172922,-12.51914 -12.519137,-12.51914 z m 33.802003,0 v 35.05418 H 93.894987 L 103.91052,234.67834 H 76.367899 v -2.50422 H 93.894987 V 222.15871 H 76.367899 v -2.50373 h 17.527088 v -10.01541 z m 42.565979,0 c -8.34634,0 -12.519136,3.72242 -12.519136,11.16725 0,7.5784 4.172796,11.3673 12.519136,11.3673 h 7.51168 c 1.66919,0 2.50373,0.38403 2.50373,1.15184 0,0.90138 -0.83454,1.35238 -2.50373,1.35238 h -11.26758 l -10.015409,10.01541 h 21.282989 c 8.34621,0 12.51963,-3.78939 12.51963,-11.36779 0,-7.44484 -4.17342,-11.16725 -12.51963,-11.16725 h -7.51168 c -1.66932,0 -2.50373,-0.45051 -2.50373,-1.35189 0,-0.76781 0.83441,-1.15184 2.50373,-1.15184 h 10.01541 l 10.0159,-10.01541 z m 21.28287,0 -10.01541,10.01541 h 20.03081 v 25.03877 h 10.01591 v -25.03877 h 10.01541 v -10.01541 z m 48.42502,0 c -4.8409,0 -8.97218,1.71059 -12.39409,5.1325 -3.42192,3.42204 -5.133,7.55382 -5.133,12.39459 0,4.84077 1.71108,8.97205 5.133,12.39409 3.42191,3.42204 7.55319,5.133 12.39409,5.133 4.84077,0 8.97255,-1.71096 12.39459,-5.133 3.42191,-3.42204 5.13299,-7.55332 5.13299,-12.39409 0,-4.84077 -1.71108,-8.97255 -5.13299,-12.39459 -3.42204,-3.42191 -7.55382,-5.1325 -12.39459,-5.1325 z" /><style
     type="text/css"
     id="style40359">
	.st0{fill:#F36D21;}
	.st1{fill:#FBAE1E;}
	.st2{fill:#F7F3AB;}
	.st3{fill:#ED1C24;}
	.st4{fill:#FBAD1A;}
	.st5{fill:#EAEAEA;}
	.st6{fill:#22455B;}
	.st7{opacity:0.2;fill:#010101;}
	.st8{fill:#D12027;}
	.st9{fill:#E21F26;}
	.st10{fill:#231F21;}
	.st11{fill:#3A88C3;}
	.st12{fill:#3A87C1;}
	.st13{fill:#3A7DAA;}
	.st14{fill:#3B3F40;}
	.st15{fill:#FEEC6E;}
</style></svg>
