<?xml version="1.0" encoding="UTF-8" standalone="no"?>
<!-- Created with Inkscape (http://www.inkscape.org/) -->

<svg
   width="712.50208"
   height="743.78033"
   viewBox="0 0 188.51617 196.79189"
   version="1.1"
   id="svg10815"
   xml:space="preserve"
   sodipodi:docname="presto-meteor-bw.svg"
   inkscape:version="1.3.2 (091e20e, 2023-11-25)"
   xmlns:inkscape="http://www.inkscape.org/namespaces/inkscape"
   xmlns:sodipodi="http://sodipodi.sourceforge.net/DTD/sodipodi-0.dtd"
   xmlns="http://www.w3.org/2000/svg"
   xmlns:svg="http://www.w3.org/2000/svg"><sodipodi:namedview
     id="namedview1"
     pagecolor="#ffffff"
     bordercolor="#000000"
     borderopacity="0.25"
     inkscape:showpageshadow="2"
     inkscape:pageopacity="0.0"
     inkscape:pagecheckerboard="0"
     inkscape:deskcolor="#d1d1d1"
     inkscape:zoom="0.33444813"
     inkscape:cx="-113.62001"
     inkscape:cy="1131.7151"
     inkscape:window-width="1916"
     inkscape:window-height="1041"
     inkscape:window-x="1080"
     inkscape:window-y="18"
     inkscape:window-maximized="1"
     inkscape:current-layer="svg10815" /><defs
     id="defs10812" /><path
     id="rect43-2-9"
     style="fill:#ffffff;fill-opacity:1;stroke-width:21.7058;stroke-linecap:round;stroke-linejoin:round;stroke-miterlimit:10;paint-order:markers fill stroke"
     d="m 19.764817,129.39108 c 2.479881,2.47988 2.479881,6.47277 0,8.95265 l -8.952407,8.95241 c -2.4798803,2.47988 -6.4727723,2.47976 -8.9526533,0 -2.47963402,-2.47976 -2.47975702,-6.47265 1.23e-4,-8.95241 L 10.81241,129.3912 c 2.479758,-2.47988 6.47265,-2.47975 8.952407,-1.2e-4 z" /><path
     id="path13-3-6"
     style="font-size:139.906px;font-family:'Space Quest';-inkscape-font-specification:'Space Quest, Normal';fill:#ffffff;stroke-width:54.3907;stroke-linecap:round;stroke-linejoin:round;stroke-miterlimit:10;paint-order:markers fill stroke"
     d="m 112.2572,0.01519988 c -21.066377,0 -39.045827,7.44582002 -53.937466,22.33758412 -14.891641,14.891517 -22.336843,32.870343 -22.336843,53.936729 0,2.10116 0.09638,4.16291 0.243045,6.20266 l 6.892635,-6.89251 c 1.487805,-1.48793 3.429205,-2.23214 5.370851,-2.23214 1.94177,0 3.883911,0.74421 5.371839,2.23214 2.975734,2.97561 2.975734,7.76671 0,10.74257 L 39.712597,100.49163 23.484514,116.71898 c -2.479757,2.47975 -2.479757,6.47252 0,8.9524 2.479881,2.47976 6.472403,2.47976 8.952283,0 l 12.72017,-12.7193 7.274069,-7.2742 c 1.487929,-1.48792 3.430193,-2.23214 5.371716,-2.23214 1.94177,0 3.883169,0.74422 5.370974,2.23214 2.975734,2.97586 2.975734,7.76684 0,10.74257 l -9.151711,9.15196 -25.543389,25.54314 c -2.479757,2.47988 -2.479634,6.47265 0,8.95228 2.480004,2.48001 6.472649,2.48001 8.952406,0 l 25.543142,-25.54314 c 2.47e-4,1.3e-4 7.42e-4,0 8.65e-4,0 l 18.666444,-18.66632 c 1.48781,-1.48781 3.42921,-2.23214 5.37085,-2.23214 1.94177,0 3.88391,0.74433 5.37172,2.23214 2.97573,2.97573 2.97573,7.76683 0,10.74269 l -8.64733,8.64746 c 0,0 0,0 -0.0161,0 l -8.13381,8.1348 -42.596366,42.59636 c -2.479881,2.47976 -2.479881,6.47253 0,8.95229 2.479757,2.47988 6.472402,2.47988 8.952159,0 l 46.104527,-46.10441 4.62664,-4.6259 c 0,0 0,0 0,-0.0161 l 19.817817,-19.81763 c 1.48793,-1.48805 3.42921,-2.2314 5.37098,-2.2314 1.94177,0 3.88379,0.74347 5.37159,2.2314 2.97598,2.97573 2.97598,7.76758 0,10.74343 l -17.19495,17.19495 c 2.03975,0.1484 4.1015,0.24317 6.20267,0.24317 21.06638,0 39.04496,-7.44594 53.93672,-22.33758 14.89127,-14.89176 22.33759,-32.871207 22.33759,-53.937587 0,-21.066261 -7.44632,-39.045087 -22.33759,-53.936604 C 151.28684,7.4459449 133.30826,8.7841464e-7 112.24188,8.7841464e-7 Z M 141.00837,59.631062 c 1.94177,0 3.88292,0.744212 5.37097,2.23214 2.97574,2.975733 2.97574,7.766961 0,10.742691 l -10.74269,10.74269 c -2.97585,2.97573 -7.76769,2.97573 -10.74343,0 -2.97586,-2.97573 -2.97586,-7.76696 0,-10.74269 l 10.74343,-10.742691 c 1.48793,-1.487928 3.43007,-2.23214 5.37172,-2.23214 z m -42.621077,3.23027 c 1.941637,0 3.883787,0.74347 5.371587,2.231399 2.97586,2.975733 2.97586,7.767572 0,10.743432 l -10.743427,10.74269 c -2.97573,2.97573 -7.76683,2.97573 -10.74269,0 -2.97573,-2.97573 -2.97573,-7.76696 0,-10.74269 l 0.89508,-0.8952 9.9e-4,-7.5e-4 9.84662,-9.847482 c 1.4878,-1.487929 3.42994,-2.231399 5.37184,-2.231399 z" /><style
     type="text/css"
     id="style40359">
	.st0{fill:#F36D21;}
	.st1{fill:#FBAE1E;}
	.st2{fill:#F7F3AB;}
	.st3{fill:#ED1C24;}
	.st4{fill:#FBAD1A;}
	.st5{fill:#EAEAEA;}
	.st6{fill:#22455B;}
	.st7{opacity:0.2;fill:#010101;}
	.st8{fill:#D12027;}
	.st9{fill:#E21F26;}
	.st10{fill:#231F21;}
	.st11{fill:#3A88C3;}
	.st12{fill:#3A87C1;}
	.st13{fill:#3A7DAA;}
	.st14{fill:#3B3F40;}
	.st15{fill:#FEEC6E;}
</style></svg>
