<svg xmlns="http://www.w3.org/2000/svg" xmlns:xlink="http://www.w3.org/1999/xlink" xml:space="preserve" id="svg10815" width="350.184" height="201.129" version="1.1" viewBox="0 0 92.653 53.215"><defs id="defs10812"><linearGradient id="linearGradient2025"><stop id="stop2021" offset="0" style="stop-color:#006cff;stop-opacity:1"/><stop id="stop2023" offset="1" style="stop-color:#5fff00;stop-opacity:.98624688"/></linearGradient><linearGradient xlink:href="#linearGradient2025" id="linearGradient2788" x1="249.442" x2="342.094" y1="1337.781" y2="1337.781" gradientTransform="translate(586.04 -49.716)" gradientUnits="userSpaceOnUse"/></defs><g id="layer1" transform="translate(-835.48 -1267.883)"><path id="path1363-9" d="m859.288 1272.883-.842 2.133 11.225 4.041-.393 1.122-13.694 2.357-.73 1.909 11.225 4.04-.449 1.18-13.695 2.357-.729 1.908 11.225 3.984-.45 1.18-13.637 2.244-5.613 14.76h30.14l4.32-11.224h31.374l12.291-31.99zm27.894 5.893h4.714c1.235 0 1.852.599 1.852 1.796 0 .3-.056.636-.168 1.01l-5.556 14.649c-.262.748-.768 1.403-1.516 1.964-.748.524-1.515.786-2.301.786h-4.77z" style="font-size:56.1242px;font-family:Speedbold;-inkscape-font-specification:&quot;Speedbold, Normal&quot;;fill:url(#linearGradient2788);fill-opacity:1;stroke:#000;stroke-width:10;stroke-linejoin:miter;stroke-dasharray:none;stroke-opacity:1;paint-order:stroke fill markers"/></g><style id="style40359" type="text/css">.st0{fill:#f36d21}.st1{fill:#fbae1e}.st2{fill:#f7f3ab}.st3{fill:#ed1c24}.st4{fill:#fbad1a}.st5{fill:#eaeaea}.st6{fill:#22455b}.st7{opacity:.2;fill:#010101}.st8{fill:#d12027}.st9{fill:#e21f26}.st10{fill:#231f21}.st11{fill:#3a88c3}.st12{fill:#3a87c1}.st13{fill:#3a7daa}.st14{fill:#3b3f40}.st15{fill:#feec6e}</style></svg>