<svg xmlns="http://www.w3.org/2000/svg" width="200" height="200" viewBox="0 0 52.917 52.917"><g transform="translate(397.265 736.624)"><circle cx="-370.807" cy="-710.166" r="26.458" style="opacity:1;fill:#5669a1;fill-opacity:1;stroke:none;stroke-width:1.37583;stroke-linecap:round;stroke-linejoin:round;stroke-dasharray:none;stroke-opacity:1;paint-order:markers stroke fill"/><g style="stroke-width:.332854"><path fill="#f7f7f9" d="M-351.748-692.192c1.532 1.153 1.355 1.991-.529 2.513a29.265 29.265 0 0 0-3.968.397 8.147 8.147 0 0 0-2.117 3.043 1.124 1.124 0 0 1-1.058 0 14.75 14.75 0 0 0-1.191-1.455 80.163 80.163 0 0 1 0-3.44 12.258 12.258 0 0 1-3.307-3.44c-.054-.5.122-.896.529-1.19a14.169 14.169 0 0 1 3.969.397c.242-.012.418-.1.529-.265a65.85 65.85 0 0 1 2.116-3.043c.668-.237 1.242-.104 1.72.397.095 1.616.36 3.204.794 4.763a6.895 6.895 0 0 0 2.513 1.323z" style="clip-rule:evenodd;fill-rule:evenodd;stroke-width:.0880675;image-rendering:optimizeQuality;shape-rendering:geometricPrecision;text-rendering:geometricPrecision" transform="translate(702.705 1370.17) scale(3.00432)"/><path fill="#2c2a3b" d="M-358.098-693.78c1.799.16 2.24.999 1.323 2.514-1.208.436-1.914.04-2.116-1.19.156-.51.42-.95.793-1.324z" style="clip-rule:evenodd;fill-rule:evenodd;stroke-width:.0880675;image-rendering:optimizeQuality;shape-rendering:geometricPrecision;text-rendering:geometricPrecision" transform="translate(702.705 1370.17) scale(3.00432)"/></g></g></svg>