<?xml version="1.0" encoding="UTF-8" standalone="no"?>
<!-- Created with Inkscape (http://www.inkscape.org/) -->

<svg
   width="222.2186"
   height="225.23318"
   viewBox="0 0 58.795334 59.592943"
   version="1.1"
   id="svg1"
   inkscape:version="1.3.2 (091e20e, 2023-11-25)"
   sodipodi:docname="logo.svg"
   xmlns:inkscape="http://www.inkscape.org/namespaces/inkscape"
   xmlns:sodipodi="http://sodipodi.sourceforge.net/DTD/sodipodi-0.dtd"
   xmlns="http://www.w3.org/2000/svg"
   xmlns:svg="http://www.w3.org/2000/svg">
  <sodipodi:namedview
     id="namedview1"
     pagecolor="#ffffff"
     bordercolor="#000000"
     borderopacity="0.25"
     inkscape:showpageshadow="2"
     inkscape:pageopacity="0.0"
     inkscape:pagecheckerboard="0"
     inkscape:deskcolor="#d1d1d1"
     inkscape:document-units="px"
     inkscape:zoom="1.7943028"
     inkscape:cx="161.06535"
     inkscape:cy="11.98237"
     inkscape:window-width="1916"
     inkscape:window-height="1041"
     inkscape:window-x="1080"
     inkscape:window-y="18"
     inkscape:window-maximized="1"
     inkscape:current-layer="layer1"
     showguides="true"
     showgrid="false" />
  <defs
     id="defs1">
    <radialGradient
       id="SVGID_1_"
       cx="1279.12"
       cy="245.5547"
       r="2430.2305"
       gradientUnits="userSpaceOnUse">
      <stop
         offset="0"
         style="stop-color:#F5831F"
         id="stop1" />
      <stop
         offset="0.4866"
         style="stop-color:#EE2558"
         id="stop2" />
      <stop
         offset="0.8824"
         style="stop-color:#A6228E"
         id="stop3" />
    </radialGradient>
    <radialGradient
       id="SVGID_00000077310070269670167740000009247874703993994155_"
       cx="1279.1205"
       cy="245.55521"
       r="2430.228"
       gradientUnits="userSpaceOnUse">
      <stop
         offset="0"
         style="stop-color:#F5831F"
         id="stop4" />
      <stop
         offset="0.4866"
         style="stop-color:#EE2558"
         id="stop5" />
      <stop
         offset="0.8824"
         style="stop-color:#A6228E"
         id="stop6" />
    </radialGradient>
    <linearGradient
       x1="288.80301"
       y1="329.31201"
       x2="510.94101"
       y2="492.99899"
       gradientUnits="userSpaceOnUse"
       gradientTransform="scale(10)"
       spreadMethod="pad"
       id="linearGradient3">
      <stop
         style="stop-opacity:1;stop-color:#f59020"
         offset="0"
         id="stop2-5" />
      <stop
         style="stop-opacity:1;stop-color:#ec098b"
         offset="1"
         id="stop3-6" />
    </linearGradient>
    <clipPath
       clipPathUnits="userSpaceOnUse"
       id="clipPath3">
      <path
         d="m 3612.61,4487.8 h 930.16 c 93.39,0 157.2,-71.14 168.87,-161.43 11.38,-88.14 -74.84,-174.62 -160.87,-174.62 h -862.14 l -306.72,-480.06 h -406.72 l -219.14,-340.1 c -48.87,-75.85 19.04,-162.25 91.52,-187.83 79.91,-28.2 220.97,-13.8 272.45,58.22 82.15,114.83 159.19,260.86 243.46,362.83 83.19,100.69 93.58,101.64 213.13,101.09 l 1016.14,-4.66 c 742.07,-3.43 827.96,1325.32 -10.68,1325.32 h -862.76 l -189.3,-357.27 c -39.08,-73.77 -115.44,-155.5 -205.46,-152.63 l -212.68,6.78 c -334.54,10.66 -201.35,-552.83 43.92,-399.94 52.6,32.79 102.62,90.88 137.08,162.16 68.96,142.64 160.12,242.14 319.74,242.14 z"
         clip-rule="evenodd"
         id="path3-2" />
    </clipPath>
    <linearGradient
       x1="0"
       y1="0"
       x2="1"
       y2="0"
       gradientUnits="userSpaceOnUse"
       gradientTransform="matrix(17060,18182.3,18182.3,-17060,11970.3,15071)"
       spreadMethod="pad"
       id="linearGradient17">
      <stop
         style="stop-opacity:1;stop-color:#c30015"
         offset="0"
         id="stop15" />
      <stop
         style="stop-opacity:1;stop-color:#f7cc0f"
         offset="0.9977451"
         id="stop16" />
      <stop
         style="stop-opacity:1;stop-color:#f7cc0f"
         offset="1"
         id="stop17" />
    </linearGradient>
    <clipPath
       clipPathUnits="userSpaceOnUse"
       id="clipPath17">
      <path
         d="M 11255.7,14838 H 28109.3 V 31743.2 H 11255.7 Z"
         id="path17" />
    </clipPath>
    <linearGradient
       x1="0"
       y1="0"
       x2="1"
       y2="0"
       gradientUnits="userSpaceOnUse"
       gradientTransform="matrix(17060,18182.3,18182.3,-17060,11780.7,15248.9)"
       spreadMethod="pad"
       id="linearGradient14">
      <stop
         style="stop-opacity:1;stop-color:#c30015"
         offset="0"
         id="stop12" />
      <stop
         style="stop-opacity:1;stop-color:#f7cc0f"
         offset="0.9977451"
         id="stop13" />
      <stop
         style="stop-opacity:1;stop-color:#f7cc0f"
         offset="1"
         id="stop14" />
    </linearGradient>
    <clipPath
       clipPathUnits="userSpaceOnUse"
       id="clipPath14">
      <path
         d="m 14742.7,17707.9 h 9548.9 v 11572.7 h -9548.9 z"
         id="path14" />
    </clipPath>
    <linearGradient
       id="SVGID_00000103944215088344909020000017679031263555168172_"
       gradientUnits="userSpaceOnUse"
       x1="446.9512"
       y1="124.58143"
       x2="536.69049"
       y2="124.58143"
       gradientTransform="matrix(0.26458333,0,0,0.26458333,-541.54885,-614.23421)">
      <stop
         offset="0"
         style="stop-color:#D86FA8"
         id="stop19" />
      <stop
         offset="0.5"
         style="stop-color:#C8067D"
         id="stop20" />
      <stop
         offset="1"
         style="stop-color:#A1197F"
         id="stop21" />
    </linearGradient>
    <linearGradient
       id="SVGID_00000052082512979597093160000014998565527884640665_"
       gradientUnits="userSpaceOnUse"
       x1="351.82639"
       y1="110.1996"
       x2="370.88339"
       y2="110.1996">
      <stop
         offset="0"
         style="stop-color:#48C0EF"
         id="stop22" />
      <stop
         offset="0.5"
         style="stop-color:#00A0E2"
         id="stop23" />
      <stop
         offset="1"
         style="stop-color:#008BD1"
         id="stop24" />
    </linearGradient>
    <linearGradient
       id="SVGID_00000101060789177310384960000017752128999518176905_"
       gradientUnits="userSpaceOnUse"
       x1="351.82639"
       y1="79.113297"
       x2="407.46411"
       y2="79.113297">
      <stop
         offset="0"
         style="stop-color:#48C0EF"
         id="stop25" />
      <stop
         offset="0.5"
         style="stop-color:#00A0E2"
         id="stop26" />
      <stop
         offset="1"
         style="stop-color:#008BD1"
         id="stop27" />
    </linearGradient>
    <linearGradient
       id="linearGradient3-6"
       gradientUnits="userSpaceOnUse"
       x1="351.82639"
       y1="123.9631"
       x2="428.49249"
       y2="123.9631">
      <stop
         offset="0"
         style="stop-color:#D86FA8"
         id="stop1-5" />
      <stop
         offset="0.5"
         style="stop-color:#C8067D"
         id="stop2-6" />
      <stop
         offset="1"
         style="stop-color:#A1197F"
         id="stop3-9" />
    </linearGradient>
    <linearGradient
       id="linearGradient6"
       gradientUnits="userSpaceOnUse"
       x1="351.82639"
       y1="110.1996"
       x2="370.88339"
       y2="110.1996">
      <stop
         offset="0"
         style="stop-color:#48C0EF"
         id="stop4-3" />
      <stop
         offset="0.5"
         style="stop-color:#00A0E2"
         id="stop5-7" />
      <stop
         offset="1"
         style="stop-color:#008BD1"
         id="stop6-4" />
    </linearGradient>
    <linearGradient
       id="linearGradient9"
       gradientUnits="userSpaceOnUse"
       x1="351.82639"
       y1="79.113297"
       x2="407.46411"
       y2="79.113297">
      <stop
         offset="0"
         style="stop-color:#48C0EF"
         id="stop7" />
      <stop
         offset="0.5"
         style="stop-color:#00A0E2"
         id="stop8" />
      <stop
         offset="1"
         style="stop-color:#008BD1"
         id="stop9" />
    </linearGradient>
    <linearGradient
       x1="0"
       y1="0"
       x2="1"
       y2="0"
       gradientUnits="userSpaceOnUse"
       gradientTransform="matrix(13278.3,16279.5,16279.5,-13278.3,9791.42,14359.1)"
       spreadMethod="pad"
       id="linearGradient28">
      <stop
         style="stop-opacity:1;stop-color:#e8653c"
         offset="0"
         id="stop27-2" />
      <stop
         style="stop-opacity:1;stop-color:#e9028b"
         offset="1"
         id="stop28" />
    </linearGradient>
    <clipPath
       clipPathUnits="userSpaceOnUse"
       id="clipPath28">
      <path
         d="m 14148.8,25904.1 7252.7,4236.7 c 91.3,54.1 192.7,87.9 297.6,101.4 l 182.5,20.3 c 115,-54.1 172.5,-162.3 169.1,-328 -23.7,-1247.6 -20.3,-2491.9 10.1,-3739.6 -40.5,-1572.2 -33.8,-3147.9 23.7,-4720.1 3.4,-64.3 -10.1,-115 -37.2,-155.6 -19.6,-30.8 -47.9,-65.4 -81.5,-104.8 -6.9,-5.5 -13.5,-12.8 -19.9,-23.7 l -3634.8,2099.8 c -169.1,94.6 -372,94.6 -541,0 l -3756.5,-2164 v -4760.7 l 3763.3,-2123.4 c 135.2,-77.8 202.8,-37.2 202.8,118.3 l 3.4,4233.3 c 0,108.2 47.3,189.3 138.6,243.4 l 3949.3,2302.6 3979.7,2316.1 27,4415.9 c 0,152.2 -81.1,294.2 -213,371.9 l -3901.9,2231.6 -3776.8,2194.4 c -145.4,84.5 -328,84.5 -473.4,-3.3 l -3421.8,-2025.4 c -226.5,-135.2 -365.1,-378.7 -365.1,-639 l -3.4,-3966.2 c 0,-118.3 125.1,-189.3 226.5,-131.9 z"
         transform="translate(0,-2.5e-4)"
         id="path28" />
    </clipPath>
  </defs>
  <g
     inkscape:label="Livello 1"
     inkscape:groupmode="layer"
     id="layer1"
     transform="translate(397.26528,736.62411)">
    <ellipse
       style="opacity:1;fill:#6da7ff;fill-opacity:1;stroke:none;stroke-width:1.37583;stroke-linecap:round;stroke-linejoin:round;stroke-dasharray:none;stroke-opacity:1;paint-order:markers stroke fill"
       id="path1"
       cx="-367.86761"
       cy="-706.82764"
       rx="29.397667"
       ry="29.796473" />
    <path
       id="path19"
       style="color:#000000;fill:#0a2f62;stroke-linecap:round;stroke-linejoin:round;-inkscape-stroke:none;paint-order:markers stroke fill"
       d="m -368.9745,-728.30834 c -1.72277,0.0114 -3.28199,0.61045 -4.65036,1.81591 -0.0661,0.0584 -0.12764,0.12177 -0.18397,0.18965 -1.89135,2.26968 -2.06369,4.97573 -1.98541,7.35976 -0.92859,-0.35394 -1.90599,-0.51435 -2.86959,-0.5395 -1.30232,-0.034 -2.58044,0.17653 -3.67626,0.48266 -0.11493,0.0325 -0.22613,0.077 -0.33177,0.1328 -1.41936,0.74378 -2.39557,1.93958 -3.0117,3.2458 -0.0677,0.14379 -0.11504,0.29633 -0.14056,0.4532 -0.54472,3.33646 1.08342,5.91093 2.62258,8.06928 -1.66986,-0.003 -3.24278,0.39701 -4.75371,1.34307 -0.064,0.0402 -0.12531,0.0845 -0.18346,0.13281 -1.13866,0.94462 -2.10855,2.24826 -2.30838,3.96099 -0.0171,0.14147 -0.0164,0.28452 0.002,0.42582 0.30727,2.28264 1.55061,3.92722 2.99206,5.26944 0.0222,0.0208 0.0449,0.0409 0.0682,0.0605 0.83713,0.70175 1.98211,1.42087 3.39049,1.49965 v 0.41651 c 6.2e-4,0.38527 0.13157,0.759 0.37156,1.0604 2.04979,2.58236 4.90989,4.43686 7.64449,5.77949 0.0459,0.0222 0.0928,0.0424 0.14056,0.0605 2.88275,1.10793 6.53886,1.24341 9.52138,-0.008 0.0418,-0.0178 0.0828,-0.0373 0.12299,-0.0584 0.18988,-0.0981 0.37402,-0.1935 0.55863,-0.28887 1.37623,-0.70491 2.8051,-1.47599 4.13308,-2.60553 0.0199,-0.0171 0.0393,-0.0347 0.0584,-0.0527 1.13486,-1.05975 2.10562,-1.77538 3.4494,-2.47272 1.31276,-0.67314 3.17711,-1.48804 4.93717,-2.574 1.76198,-1.08715 3.51126,-2.46104 4.36356,-4.54494 0.0742,-0.18433 0.11565,-0.3802 0.12247,-0.57878 0.0167,0.004 0.0323,0.009 0.0491,0.0124 0.61735,0.13579 1.25919,-0.0807 1.66812,-0.56276 0.0959,-0.11309 0.18795,-0.22185 0.28112,-0.33176 0.01,-0.0123 0.0198,-0.0247 0.0294,-0.0372 2.60041,-3.24542 4.72713,-7.41969 4.32015,-11.99823 -0.0191,-0.21285 -0.078,-0.42023 -0.17363,-0.61134 -0.52686,-1.0537 -1.26789,-1.79062 -2.04122,-2.41587 -0.25253,-0.20453 -0.5582,-0.33271 -0.88108,-0.36948 -1.66883,-0.18841 -3.22095,0.0269 -4.78111,0.6351 -0.0648,0.0254 -0.12794,0.0547 -0.18913,0.0879 l -4.26589,1.18339 c -1.57732,-1.15714 -2.79703,-2.28038 -3.9393,-3.78478 l -2.67373,-3.77187 c -0.0228,-0.11595 -0.0576,-0.22921 -0.10387,-0.33796 -1.16497,-2.71829 -3.63862,-4.54338 -6.08594,-5.5392 -0.12797,-0.0518 -0.26176,-0.0879 -0.39842,-0.10748 v 5.1e-4 c -0.4146,-0.0598 -0.82097,-0.0884 -1.21853,-0.0858 z m -0.53589,3.35587 c 0.28601,3.1e-4 0.62766,0.0442 1.03198,0.0987 1.53192,0.66391 2.93902,1.85669 3.70313,3.15278 -1.29435,1.22099 -2.65787,2.1148 -4.30309,2.27738 -1.45675,0.0144 -2.33488,-0.1144 -3.25355,-0.52348 0.0157,-1.61529 0.21877,-2.97418 1.10123,-4.08037 0.52529,-0.45647 0.89343,-0.76315 1.264,-0.87075 0.13324,-0.0387 0.2847,-0.0545 0.4563,-0.0543 z m 7.87187,8.00519 c 0.13721,0.1779 0.2847,0.35687 0.41807,0.53537 0.003,0.003 0.005,0.007 0.008,0.01 0.85201,1.12211 1.79625,2.05923 2.79104,2.93936 l -0.51366,0.2129 c -0.48869,0.19689 -0.97754,0.39225 -1.46658,0.58808 -0.006,0.003 -0.0121,0.005 -0.0181,0.008 -2.95118,1.21705 -5.64511,2.87383 -7.4197,5.93349 -0.0378,0.0661 -0.0711,0.13462 -0.0997,0.20515 -1.10248,2.66914 -0.80924,5.26781 0.14056,7.71891 0.0177,0.0451 0.0374,0.0894 0.0589,0.13281 0.52906,1.0818 1.2641,1.88167 2.10943,2.56264 1.36268,1.09729 3.29738,-0.32207 2.65979,-1.95131 -0.0701,-0.17905 -0.14145,-0.35853 -0.21291,-0.54105 -0.50673,-1.75649 -0.48853,-4.12835 0.17415,-5.62911 1.17767,-1.85002 3.38183,-2.93393 5.80636,-3.81837 0.40875,2.63793 1.18568,5.16424 3.34192,7.32048 0.062,0.0617 0.12872,0.11854 0.19947,0.17001 0.32783,0.23993 0.66773,0.44146 0.99994,0.66611 -0.555,0.62812 -1.25324,1.25345 -2.18747,1.82987 -1.48346,0.9153 -3.2422,1.6927 -4.70927,2.44533 -0.003,10e-4 -0.005,0.003 -0.008,0.004 -1.59037,0.8253 -2.87413,1.77299 -4.1522,2.95951 -0.98599,0.83737 -2.15345,1.48878 -3.47111,2.16369 -0.002,10e-4 -0.004,0.002 -0.006,0.004 -0.14995,0.0775 -0.30215,0.15553 -0.45527,0.23461 -1.84331,0.76804 -4.9607,0.71025 -6.91224,-0.0233 -1.98992,-0.9861 -3.86531,-2.32396 -5.37073,-3.83594 1.44966,-1.30811 2.00988,-3.08719 2.43913,-4.37492 0.045,-0.13346 0.0733,-0.27197 0.0842,-0.41238 0.15587,-2.08509 -0.0966,-4.07844 -0.73277,-6.09369 0.1599,-0.0782 0.32072,-0.15635 0.48059,-0.23461 l 0.0119,-0.006 c 0.16133,-0.0775 0.32309,-0.15456 0.48989,-0.23461 0.005,-0.003 0.009,-0.005 0.014,-0.008 2.2728,-1.11854 4.15708,-2.79295 5.117,-5.37694 0.0178,-0.0475 0.0335,-0.0958 0.047,-0.14469 0.28392,-1.03896 0.32977,-1.99983 0.42788,-2.97863 3.5729,0.0235 6.89724,-0.57989 9.91568,-2.98018 z m -17.45888,0.98289 c 0.10666,0 0.21329,10e-4 0.31988,0.005 0.6665,0.0233 1.13908,0.17433 1.6154,0.31264 0.20277,1.06526 0.21804,2.20391 -0.092,3.0918 -0.82932,1.26292 -1.8209,2.20419 -3.03702,2.57452 -0.20789,0.0416 -0.41187,0.0637 -0.61702,0.0992 -1.0384,-1.53439 -1.68996,-2.87157 -1.5136,-4.47621 0.3298,-0.63213 0.66389,-1.05232 1.23403,-1.37718 0.60438,-0.14159 1.34373,-0.22999 2.09031,-0.22996 z m 32.24144,2.81688 c 0.21221,-0.002 0.42865,0.005 0.65474,0.0165 0.20029,0.18694 0.42553,0.40558 0.56069,0.63665 0.12868,2.91921 -1.21952,5.83654 -3.10368,8.39846 -0.9077,-0.48729 -1.67755,-1.22053 -2.53318,-2.39056 -0.63118,-1.0624 -0.64818,-2.32783 -0.48628,-3.93154 0.40957,-0.89673 1.48463,-1.56288 2.96106,-2.36316 0.7112,-0.27286 1.31003,-0.35999 1.94665,-0.36639 z m -36.77088,9.5188 c 0.67547,1.29863 0.92524,2.49465 0.71262,4.12068 -0.32513,0.76347 -0.78963,1.34347 -1.24385,1.63866 -0.25841,-0.0546 -0.49726,-0.20145 -0.9865,-0.61495 -1.12671,-1.05162 -1.63933,-1.77216 -1.85364,-3.01739 0.0935,-0.62141 0.26231,-0.84744 0.92966,-1.39681 0.8704,-0.53433 1.58758,-0.69819 2.44171,-0.73019 z"
       sodipodi:nodetypes="cccccccccccccccccccccccccccsccccccccccccccccccccccccccsccccccccccccccccccccsccccccccccccccccccccscccccccssccccccsccccccccccc" />
    <path
       style="color:#000000;fill:#a9cafd;stroke-linecap:round;stroke-linejoin:round;-inkscape-stroke:none;paint-order:markers stroke fill"
       d="m -361.38529,-719.39037 c 0.52046,0.64542 1.03539,1.29221 1.53169,1.95647 1.25221,1.64919 2.62175,2.90573 4.28914,4.12895 -0.605,0.68345 -1.15926,0.99841 -2.00298,1.33635 -0.35607,0.14657 -0.35607,0.14657 -0.71933,0.2961 -0.49382,0.19896 -0.98784,0.39741 -1.48208,0.59532 -2.80047,1.15489 -5.05032,2.55226 -6.59391,5.21363 -0.93231,2.25717 -0.7078,4.21989 0.15606,6.44922 0.42848,0.87614 0.89156,1.3763 1.64641,1.98438 -0.0849,-0.21692 -0.16985,-0.43384 -0.25735,-0.65733 -0.62489,-2.13841 -0.67479,-4.88264 0.27389,-6.93291 1.7123,-2.81103 4.89636,-4.11989 7.92096,-5.10976 0.26194,0 0.52387,0 0.79375,0 0.0229,0.25579 0.0457,0.51159 0.0693,0.77514 0.31469,2.91602 0.95758,5.27877 3.10575,7.42694 0.77252,0.56539 1.56573,1.08646 2.38125,1.5875 -1.2521,3.06144 -5.72691,4.82251 -8.50697,6.24871 -1.47835,0.76717 -2.61272,1.60589 -3.82819,2.74092 -1.15757,0.9846 -2.45623,1.69691 -3.80442,2.38745 -0.18622,0.0962 -0.37245,0.19236 -0.56431,0.29146 -2.41886,1.01497 -5.83214,0.91872 -8.24962,-0.0104 -2.59147,-1.27236 -5.25239,-3.02958 -7.06107,-5.30819 0,-0.17463 0,-0.34925 0,-0.52917 0.23465,-0.13097 0.4693,-0.26194 0.71107,-0.39687 1.40572,-0.87608 1.96015,-2.58971 2.46393,-4.10104 0.18674,-2.49802 0.0113,-4.58223 -1.05834,-6.87917 0.37807,-0.18213 0.37807,-0.18213 0.76378,-0.36794 0.33525,-0.1639 0.67046,-0.32789 1.00563,-0.49196 0.16558,-0.0795 0.33117,-0.15893 0.50177,-0.24081 2.04753,-1.00768 3.46162,-2.26492 4.27003,-4.44107 0.37922,-1.38769 0.49118,-2.81763 0.60254,-4.2478 0.3322,0.009 0.6644,0.0184 1.00666,0.0279 4.01786,0.0799 7.14389,-0.34334 10.19059,-3.26181 0.14666,-0.15519 0.29332,-0.31037 0.44442,-0.47026 z"
       id="path20" />
    <g
       id="path5">
      <path
         style="color:#000000;fill:#fbfcfc;stroke-linecap:round;stroke-linejoin:round;-inkscape-stroke:none;paint-order:markers stroke fill"
         d="m -345.51029,-714.89246 c 0.71201,0.57567 1.17881,1.0347 1.5875,1.85208 0.35118,3.95081 -1.51757,7.74246 -3.95118,10.77971 -0.0931,0.10982 -0.18622,0.21964 -0.28215,0.33279 -2.12494,-0.46511 -3.34623,-1.9566 -4.5682,-3.63492 -1.00559,-1.65356 -0.93591,-3.48552 -0.72347,-5.36091 0.66367,-1.73818 2.38939,-2.58691 3.96875,-3.43958 1.36249,-0.53114 2.52607,-0.69205 3.96875,-0.52917 z"
         id="path18" />
    </g>
    <g
       id="path6">
      <path
         style="color:#000000;fill:#fbfbfc;stroke-linecap:round;stroke-linejoin:round;-inkscape-stroke:none;paint-order:markers stroke fill"
         d="m -367.99987,-726.53412 c 2.11509,0.86064 4.24909,2.5062 5.15937,4.63021 0.0655,0.32742 0.0655,0.32742 0.1323,0.66146 -1.6877,1.85102 -3.69336,3.28985 -6.24045,3.52846 -2.01904,0.0208 -3.4287,-0.0318 -5.13664,-1.14721 -0.0855,-2.30935 0.0542,-4.50999 1.5875,-6.35 1.47647,-1.3007 2.54555,-1.60456 4.49792,-1.32292 z"
         id="path15" />
    </g>
    <g
       id="path7">
      <path
         style="color:#000000;fill:#fafbfb;stroke-linecap:round;stroke-linejoin:round;-inkscape-stroke:none;paint-order:markers stroke fill"
         d="m -375.67279,-717.00912 c 0.54132,1.62395 0.61109,3.61055 -0.0155,5.21519 -0.99239,1.57598 -2.33351,2.92898 -4.14755,3.46542 -0.6404,0.13115 -1.27344,0.2381 -1.92237,0.31522 -1.52439,-2.13118 -2.82536,-4.15894 -2.38125,-6.87916 0.51337,-1.08835 1.17623,-1.89639 2.2593,-2.46394 1.80533,-0.50434 4.5496,-0.58483 6.20737,0.34727 z"
         id="path12" />
    </g>
    <g
       id="path8">
      <path
         style="color:#000000;fill:#fbfbfc;stroke-linecap:round;stroke-linejoin:round;-inkscape-stroke:none;paint-order:markers stroke fill"
         d="m -382.55196,-705.36746 c 1.32302,2.05068 1.68582,3.92776 1.32292,6.35 -0.45187,1.16881 -1.2099,2.37799 -2.38125,2.91042 -1.17746,0.0535 -1.80926,-0.37893 -2.67891,-1.10795 -1.32574,-1.23449 -2.2159,-2.40737 -2.46393,-4.24987 0.15753,-1.35024 0.67096,-1.9879 1.70325,-2.84427 1.48926,-0.93249 2.76091,-1.18466 4.49792,-1.05833 z"
         id="path4" />
    </g>
    <path
       d="m -355.82904,-710.12996 c 0,0.87312 0,1.74625 0,2.64583 -0.42156,0.14427 -0.42156,0.14427 -0.85163,0.29146 -2.79217,0.98199 -5.37368,1.96399 -6.82129,4.73563 -0.57706,1.51875 -0.6686,3.1554 -0.79375,4.7625 -1.15027,-1.72541 -1.00925,-3.79982 -0.79375,-5.82084 0.51386,-1.85035 1.56569,-3.2063 3.175,-4.23333 4.24764,-2.38125 4.24764,-2.38125 6.08542,-2.38125 z"
       fill="#f4f6f8"
       id="path9"
       style="stroke-width:0.264583" />
    <path
       d="m -361.38529,-719.39037 c 0.52046,0.64542 1.03539,1.29221 1.53169,1.95647 1.25221,1.64919 2.62175,2.90573 4.28914,4.12895 -0.58637,0.60293 -1.04766,1.039 -1.85208,1.32291 -1.64565,-0.16671 -2.41741,-1.1685 -3.43958,-2.38125 -1.88404,-2.53767 -1.88404,-2.53767 -1.80248,-3.48919 0.29516,-0.65842 0.74271,-1.05864 1.27331,-1.53789 z"
       fill="#f9fafb"
       id="path11"
       style="stroke-width:0.264583" />
  </g>
</svg>
