<?xml version="1.0" encoding="UTF-8"?>
<!-- Created with Inkscape (http://www.inkscape.org/) -->
<svg width="109.86mm" height="58.3mm" version="1.1" viewBox="0 0 109.86 58.3" xmlns="http://www.w3.org/2000/svg">
 <g transform="translate(-130.18 -114.56)">
  <g stroke-width=".26458">
   <path d="m151.49 114.58c-1.4345 0.01-2.7615 0.62717-3.9291 1.4112-0.78874 0.46609-1.859 0.72679-2.3112 1.577-0.41556 1.3478 0.0304 2.8341 0.70313 4.0234 0.20585 0.31477 0.43029 0.61947 0.69336 0.88867-1.3801 8e-3 -3.1624 0.16351-4.0112-1.1795-0.63384-0.7361-0.63871-2.0403-1.6744-2.3694-1.1111-0.35008-2.1666 0.4475-2.764 1.3165-1.2027 1.2259-2.2749 2.6244-2.8786 4.248 1.6935 1.4304 3.1347 3.5569 5.5062 3.8399 2.0264 0.2382 4.0711 0.17169 6.1071 0.21282-0.74991 0.43174-1.4102 1.1641-2.3539 1.0012-2.9374 0.10335-6.0521-0.60055-8.819 0.71943-1.5356 0.647-2.7759 1.7973-3.8446 3.043-1.3595 1.4188-1.8635 3.5163-1.7148 5.4372 0.15194 2.2923 2.0358 4.5781 4.4483 4.5409 1.689 0.0522 3.3092-0.81448 4.3466-2.1245 0.55147-0.35055 1.2394-0.40955 1.873-0.31446 0.17029 0.47295-0.0317 0.6198-0.50191 0.60763-1.7962 0.34045-3.1918 1.8246-3.7072 3.5398-1.3574 3.2563-1.2879 6.8828-1.019 10.335 0.21354 1.294 0.89947 2.5742 2.0563 3.2524 0.0266 1.0824-0.17386 2.2234 0.30078 3.2519 0.8143 1.9294 2.8595 3.4527 5.0174 3.1538 0.86884-0.0815 1.7088-0.37738 2.465-0.80813 0.26018 0.61111 0.68234 1.1826 0.58321 1.8949-0.10358 1.8245 0.25253 3.7937 1.5978 5.1287 1.5634 1.7247 4.531 2.3364 6.3815 0.71857 0.80609-0.72613 1.1396-1.826 1.2969-2.8672 2.1205-0.52943 3.4196-2.472 4.668-4.1079 1.2343-1.7691 2.2843-3.77 2.4628-5.9546 1.4741 0.76878 3.3598 0.58622 4.7594-0.24912 1.3505-1.1049 1.135-3.1463 0.52038-4.585 0.11609-0.48154 0.82242-0.57961 1.1695-0.92533 2.2841-1.4049 4.4633-3.1429 5.7382-5.555 2.4301-4.336 2.6838-9.8388 0.66414-14.377-1.3892-2.7939-3.8267-4.9094-6.3719-6.6315-3.1236-1.9907-6.913-3.1725-10.63-2.6766-0.54167 0.34336-0.48688-0.12822-0.57602-0.55865-0.31494-1.6565-1.6428-2.9322-3.2033-3.4648-0.92902-0.39624-2.0758-0.56025-2.7633-1.3328-0.3876-1.2908 0.68247-2.3919 0.96249-3.5403-0.10442-0.61818-0.78349-0.53376-1.248-0.51953zm8.7285 32.777c0.55524 0.18142 1.1594 0.16342 1.7383 0.22852-0.45954 1.3176-1.227 2.497-1.7617 3.7812 0.047-1.0846 0.0818-2.3196-0.73438-3.1543 0.31074-0.22804 0.41552-0.68921 0.75781-0.85546z" fill="#fff"/>
   <path d="m189.63 151.9c3.7042 0 3.7042 0 4.5334 0.62309 0.16736 0.28483 0.33471 0.56966 0.50714 0.86312 0.094 0.15144 0.18793 0.30287 0.28475 0.4589 0.29417 0.48053 0.5681 0.96954 0.84283 1.4614 0.19634 0.32768 0.39391 0.65463 0.59273 0.98082 0.5984 0.99039 1.1881 1.9856 1.7058 3.021 0.0873-2.4448 0.17462-4.8895 0.26458-7.4083h4.2333v15.346h-3.7042c-0.83553-1.0055-1.2766-1.7669-1.8521-2.9104-0.50698-0.81036-1.0398-1.6032-1.571-2.3978-0.25746-0.38797-0.51354-0.77685-0.76791-1.1668-0.11014-0.16715-0.22029-0.33429-0.33377-0.5065-0.23777-0.42678-0.23777-0.42678-0.23777-0.95595h-0.52917v7.6729h-3.9688v-15.081z" fill="#252b45"/>
   <path d="m180.37 151.8-1.1973 0.0289-3.8365 0.0661v15.346h4.2333v-3.7042c1.8359 0.0765 3.489 0.26522 5.1036-0.709 1.5778-1.2176 2.4378-2.6289 2.8339-4.5827 0.12528-1.3131 0.13269-2.5854-0.62115-3.7042l-0.45372-0.52916-0.43925-0.52917c-1.7946-1.5761-3.2925-1.702-5.6229-1.6826zm0.43357 3.4907c1.1165 5e-3 1.9394 0.20973 2.9993 1.1023-0.0295 1.2309-0.1089 2.1352-0.77722 3.1915-1.1894 0.75251-2.0644 0.60542-3.4561 0.51263v-4.7625c0.45708-0.0247 0.86186-0.0455 1.234-0.0439z" fill="#a1b6f0"/>
  </g>
  <g fill="#252b45" stroke-width=".26458">
   <path d="m235.06 156.22c-1.5342 0.0107-3.0481 0.45903-4.424 1.2314l0.79375 2.3812h0.79375c1.111-0.49379 1.9518-0.68772 3.175-0.52916 0.4594 0.65117 0.4594 0.65117 0.79375 1.3229l-0.76378-0.0279-1.0056-0.0217-0.99529-0.0279c-1.3619 0.11237-1.9962 0.56188-2.8742 1.5823-0.57871 1.136-0.56879 1.7293-0.44649 2.9931 0.31708 1.0377 0.91754 1.5826 1.8521 2.1167 1.4257 0.17345 2.7063 0.21342 3.9688-0.52917v-0.52917h0.52916v0.79375h3.4396c0.0273-0.94598 0.0501-1.8918 0.0646-2.8381 5e-3 -0.38792 0.0114-0.77584 0.0181-1.1638 0.0169-0.56881 0.0335-1.1373 0.0408-1.7064l6e-3 -0.54467c0.021-1.0161 0.021-1.0161-0.12919-1.9492-0.54045-0.89229-1.2008-1.5085-2.0784-2.0764-0.9095-0.33329-1.8374-0.48442-2.758-0.47801zm0.22272 6.242 0.90951 0.0165c0.0331 0.76067 0.0331 0.76067 0 1.5875-0.52917 0.52916-0.52917 0.52916-1.1906 0.59531-0.66145-0.0661-0.66145-0.0661-1.1906-0.59531 0.19288-1.5816 0.19288-1.5816 1.4717-1.604z"/>
   <path d="m219.53 156.4c0.93674 0.52254 1.6351 1.1536 2.1167 2.1167 0.0229 0.63722 0.0306 1.2666 0.0258 1.9038-3.7e-4 0.18717-7.4e-4 0.37435-1e-3 0.5672-1e-3 0.59849-5e-3 1.197-8e-3 1.7954-1e-3 0.40549-3e-3 0.81098-4e-3 1.2165-3e-3 0.99461-7e-3 1.9892-0.0129 2.9838h-3.4396c-0.013-0.49045-0.0259-0.9809-0.0393-1.4862-0.0199-0.6401-0.0398-1.2802-0.06-1.9203-8e-3 -0.32367-0.0164-0.64734-0.0248-0.98082-0.0102-0.30866-0.0205-0.61732-0.031-0.93534-8e-3 -0.28543-0.0166-0.57086-0.0252-0.86493-0.0174-0.73327-0.0174-0.73327-0.61353-1.2207-0.92604-0.0882-0.92604-0.0882-1.8521 0-0.70868 0.70868-0.60988 1.0953-0.63872 2.0857-0.0153 0.463-0.0153 0.463-0.031 0.93534-8e-3 0.32367-0.0164 0.64734-0.0248 0.98082-0.0153 0.48858-0.0153 0.48858-0.031 0.98702-0.025 0.80643-0.0469 1.613-0.0682 2.4195h-3.4396v-10.319h3.4396v0.79375c0.19645-0.17462 0.39291-0.34925 0.59531-0.52916 1.2636-0.83441 2.7184-0.79258 4.1672-0.52917z"/>
   <path d="m224.29 156.66h3.7042c0.0197 1.7419 0.034 3.4838 0.0436 5.2258 4e-3 0.59231 9e-3 1.1846 0.0163 1.7769 0.01 0.85251 0.0141 1.7049 0.0176 2.5575 4e-3 0.26382 8e-3 0.52763 0.0124 0.79944 4e-4 1.6681-0.15335 2.8926-1.3508 4.1563-0.81757 0.41593-1.4658 0.3777-2.3771 0.35037-0.30969-7e-3 -0.61938-0.0143-0.93845-0.0217-0.23601-9e-3 -0.47203-0.0184-0.7152-0.0279-0.24502-1.0654-0.22499-1.8355 0-2.9104 0.65484-0.13097 0.65484-0.13097 1.3229-0.26458 0.0873-3.8418 0.17462-7.6835 0.26458-11.642z"/>
   <path d="m205.24 156.66h3.7042v10.583h-3.7042v-10.583z"/>
   <path d="m226.93 151.9c0.64492 0.41341 0.64492 0.41341 1.0583 1.0583-0.0567 1.6442-0.0567 1.6442-0.79375 2.3812-0.49609 0.0796-0.49609 0.0796-1.0583 0.0827-0.18554 4e-3 -0.37108 9e-3 -0.56224 0.0134-0.16371-0.0317-0.32742-0.0634-0.49609-0.0961-0.65174-0.9776-0.63234-1.4904-0.52917-2.6458 0.57009-0.98182 1.3208-0.94524 2.3812-0.79375z"/>
   <path d="m206.81 151.78c0.904 0.12914 1.2805 0.20832 1.8686 0.90951 0.11393 0.91145 0.16757 1.5465-0.28112 2.3647-0.8089 0.44359-1.4626 0.37777-2.3647 0.28112-0.51263-0.29766-0.51263-0.29766-0.79375-0.79375-0.11233-0.8799-0.0831-1.412 0.29765-2.2159 0.4961-0.42994 0.4961-0.42994 1.2733-0.5457z"/>
   <path d="m226.17 151.87c0.25102 0.0109 0.50205 0.0218 0.76068 0.0331v0.26459h-1.3229c-0.0764 0.16916-0.1528 0.33833-0.23151 0.51263-0.29766 0.5457-0.29766 0.5457-0.82682 0.81028 0.22142-1.1071 0.39941-1.5717 1.6206-1.6206z"/>
  </g>
  <g transform="matrix(.26458 0 0 .26458 86.116 87.913)">
   <path transform="translate(245,106)" d="m0 0-1 2.125c-1.3289 3.8207-1.6014 7.0244-0.33984 10.906 1.8905 2.7779 3.8966 3.271 7.0273 4.4062 11.09 4.3402 11.09 4.3402 14.484 9.2617 1.1651 3.2369 1.0166 6.1235 0.95312 9.5508-0.01805 1.2633-0.03609 2.5266-0.05469 3.8281-0.023201 0.96422-0.046404 1.9284-0.07031 2.9219 0.40992-0.49371 0.81984-0.98742 1.2422-1.4961 0.53883-0.64066 1.0777-1.2813 1.6328-1.9414 0.53367-0.63809 1.0673-1.2762 1.6172-1.9336 1.8572-2.0064 2.9296-2.5741 5.6523-2.832 16.755-0.29438 30.988 5.8569 43.48 16.828 1.4792 1.4372 2.9402 2.8935 4.375 4.375 0.56977 0.56074 1.1395 1.1215 1.7266 1.6992 9.4724 10.031 11.672 21.39 11.488 34.609-0.44341 13.636-5.0979 25.214-14.398 35.16-4.5158 4.0586-9.5278 7.2724-14.656 10.5-3.114 1.8434-3.114 1.8434-5.1602 4.0312 0.32698 2.6158 0.82039 4.6408 2 7 0.5669 6.2359 0.5669 6.2359-1.4375 8.9375-3.9035 1.6185-7.4082 1.827-11.562 1.0625-4.5962-2.8939-7.2225-5.8649-9-11-1.3436-7.573 1.3981-12.567 4.9778-19.064 2.5118-4.5977 3.9348-8.8023 5.0222-13.936-0.81984-0.0606-1.6397-0.12117-2.4844-0.18359-1.6165-0.12569-1.6165-0.12569-3.2656-0.25391-1.601-0.12182-1.601-0.12182-3.2344-0.24609-2.4524-0.25732-4.6548-0.63453-7.0156-1.3164-0.40219 0.89719-0.40219 0.89719-0.8125 1.8125-1.1867 2.186-2.2835 3.6008-4.1875 5.1875h-2c0.36094 0.49629 0.72188 0.99258 1.0938 1.5039 3.2126 4.703 4.4692 7.6409 3.9062 13.496 0 4.1237 0.65682 5.3111 2.8474 8.6172 5.0135 7.6461 7.0158 14.139 5.1526 23.383-3.58 10.322-10.556 21.379-19.555 27.832-2.4453 1.168-2.4453 1.168-6.4453 1.168-0.0825 1.2169-0.165 2.4338-0.25 3.6875-0.54321 4.1401-1.5087 6.4977-4.75 9.3125-4.1396 1.2497-6.4725 1.1546-10.625-0.0625-4.7098-2.7038-7.6172-5.664-9.375-10.938-0.27119-3.5815-0.44546-7.1626-0.62109-10.75-0.146-3.3931-0.146-3.3931-2.3789-6.25-0.58802-3.1606-0.4698-5.1738 1.1328-7.9922 3.1441-4.3623 6.6005-7.757 10.867-11.008-1.0202-2.7468-2.1051-5.1737-3.625-7.6875-1.375-2.3125-1.375-2.3125-1.375-4.3125h-2c-0.28875 0.94875-0.5775 1.8975-0.875 2.875-1.125 3.125-1.125 3.125-3.125 5.125-0.27532 2.1673-0.27532 2.1673-0.3125 4.625-0.52244 6.4466-3.0664 10.913-7.75 15.312-4.187 2.2961-8.1996 2.6246-12.938 2.0625-3.5598-2.1388-6.2069-4.7586-8.4375-8.25-0.56716-2.7728-0.49869-4.9965-0.375-7.8125 0.11937-2.5906 0.11937-2.5906-0.1875-4.9375-2.245-2.3293-2.245-2.3293-5-4-3.6462-5.3999-3.5013-10.59-3.4375-16.875 0.0061-1.0164 0.01225-2.0327 0.01855-3.0798 0.22677-11.06 1.5434-21.996 8.419-31.045 4.1161-2.6844 7.1188-3.3487 12-3v-11c-7.4149-1.6213-7.4149-1.6213-14.402 0.42188-1.9375 1.7999-3.7631 3.6747-5.5977 5.5781-3.9989 2.2433-7.4485 2.559-12 2-3.7658-2.158-6.4105-4.9539-8-9-0.9159-6.7487-0.74085-12.554 3.3906-18.125 0.53109-0.61875 1.0622-1.2375 1.6094-1.875 0.59297-0.70125 1.1859-1.4025 1.7969-2.125 5.3754-5.8485 11.397-9.3202 19.203-10.875 2.1859-0.03603 4.3731-0.01476 6.5586 0.04297 1.9094 0.0319 1.9094 0.0319 3.8574 0.06445 2.0126 0.03707 4.0243 0.08016 6.0364 0.1394 1.9516 0.0547 3.904 0.08198 5.8562 0.10864 1.7449 0.04097 1.7449 0.04097 3.5251 0.08276 3.8254-0.52945 5.3663-1.8552 8.1663-4.4382 6.6578-3.4766 13.635-4.8849 21-6-9.8976-3.474-19.567-3.4588-29.902-3.5112-19.192-0.14044-19.192-0.14044-27.098-7.6763-1.1447-1.0731-1.1447-1.0731-2.3125-2.168-0.55688-0.5427-1.1138-1.0854-1.6875-1.6445 1.6315-3.8933 4.1763-6.6472 7-9.75 0.45117-0.5066 0.90234-1.0132 1.3672-1.5352 1.1664-1.2803 2.3957-2.5028 3.6328-3.7148h2c0.20754 0.51949 0.41508 1.039 0.62891 1.5742 0.30809 0.69738 0.61617 1.3948 0.93359 2.1133 0.29004 0.68449 0.58008 1.369 0.87891 2.0742 2.343 3.3647 4.8343 5.5964 8.5586 7.2383 4.2739 0.66285 8.4941 0.65439 12.812 0.625 8.298 0 15.362 0.50096 23.188 3.375l3 1c-4.7817-3.2815-9.2027-5.5178-14.688-7.4375-6.7383-2.4879-9.3478-4.7267-12.625-11.125-0.73223-2.5961-0.7366-4.7547-0.6875-7.4375 2.4557-1.3384 4.9143-2.6709 7.375-4 1.048-0.57234 1.048-0.57234 2.1172-1.1562 5.2812-2.8438 5.2812-2.8438 7.5078-2.8438z" fill="#252b45"/>
   <path transform="translate(213,196)" d="m0 0c2.5662 3.8492 2.551 6.4349 3 11 1.0725 0.37125 2.145 0.7425 3.25 1.125 18.926 7.1395 18.926 7.1395 24.25 15.125 2.1682 2.5296 4.2848 2.4642 7.5 2.75v2c1.1318 0.04898 2.2636 0.09797 3.4297 0.14844 1.4818 0.07503 2.9636 0.15058 4.4453 0.22656 0.74637 0.03094 1.4927 0.06188 2.2617 0.09375 5.6367 0.30469 5.6367 0.30469 7.8633 2.5312 1.9839 1.0316 3.9828 2.0352 6 3v11c0.92002 1.5566 1.8487 3.1098 2.8474 4.6172 5.0135 7.6461 7.0158 14.139 5.1526 23.383-3.58 10.322-10.556 21.379-19.555 27.832-2.4453 1.168-2.4453 1.168-6.4453 1.168-0.0825 1.2169-0.165 2.4338-0.25 3.6875-0.54321 4.1401-1.5087 6.4977-4.75 9.3125-4.1396 1.2497-6.4725 1.1546-10.625-0.0625-4.7098-2.7038-7.6172-5.664-9.375-10.938-0.27119-3.5815-0.44546-7.1626-0.62109-10.75-0.146-3.3931-0.146-3.3931-2.3789-6.25-0.58802-3.1606-0.4698-5.1738 1.1328-7.9922 3.1441-4.3623 6.6005-7.757 10.867-11.008-1.0202-2.7468-2.1051-5.1737-3.625-7.6875-1.375-2.3125-1.375-2.3125-1.375-4.3125h-2c-0.28875 0.94875-0.5775 1.8975-0.875 2.875-1.125 3.125-1.125 3.125-3.125 5.125-0.27532 2.1673-0.27532 2.1673-0.3125 4.625-0.52244 6.4466-3.0664 10.913-7.75 15.312-4.187 2.2961-8.1995 2.6246-12.938 2.0625-3.5598-2.1387-6.2069-4.7586-8.4375-8.25-0.56716-2.7728-0.49869-4.9965-0.375-7.8125 0.11937-2.5906 0.11937-2.5906-0.1875-4.9375-2.245-2.3293-2.245-2.3293-5-4-3.6462-5.3999-3.5013-10.59-3.4375-16.875 0.0061-1.0163 0.01225-2.0327 0.01855-3.0798 0.22478-10.963 1.4688-22.141 8.419-31.045 4.7015-1.9154 7.812-2 13-2v-12z" fill="#242a43"/>
   <path transform="translate(242,155)" d="m0 0v3h19c-1 4-1 4-2.5664 5.1406-0.65871 0.36609-1.3174 0.73219-1.9961 1.1094-4.4294 3.1238-6.5402 6.8901-8.9375 11.625-0.35006 0.67192-0.70012 1.3438-1.0608 2.0361-2.6418 5.495-3.4907 10.456-1.7517 16.464 1.2712 1.8448 1.2712 1.8448 3.8125 2.625 2.5 1 2.5 1 3.6304 2.7236 1.0192 2.6679 1.1886 4.8453 1.2837 7.6982 0.03867 1.0248 0.07734 2.0496 0.11719 3.1055 0.03094 1.0635 0.06188 2.127 0.09375 3.2227 0.03867 1.0789 0.07734 2.1579 0.11719 3.2695 0.094158 2.66 0.17979 5.32 0.25781 7.9805-1.614 0.07094-3.2288 0.12182-4.8438 0.16406-1.3487 0.04568-1.3487 0.04568-2.7246 0.09229-2.4316-0.25635-2.4316-0.25635-4.9316-2.8814-0.36996-0.54656-0.73992-1.0931-1.1211-1.6562-4.9682-6.1927-13.592-8.7093-20.91-10.859-2.4688-0.85938-2.4688-0.85938-4.4688-2.8594-0.5652-2.6554-0.73788-5.2914-1-8l-1 9-10 1c3.4352-2.2901 4.9853-2.1784 9-2v-11c-7.4149-1.6213-7.4149-1.6213-14.402 0.42188-1.9375 1.7999-3.7631 3.6747-5.5977 5.5781-3.9989 2.2433-7.4485 2.559-12 2-3.7658-2.158-6.4105-4.9539-8-9-0.9159-6.7487-0.74085-12.554 3.3906-18.125 0.53109-0.61875 1.0622-1.2375 1.6094-1.875 0.59297-0.70125 1.1859-1.4025 1.7969-2.125 5.3754-5.8485 11.397-9.3202 19.203-10.875 2.1859-0.036025 4.3731-0.014755 6.5586 0.042969 1.9094 0.031904 1.9094 0.031904 3.8574 0.064453 2.0126 0.037075 4.0243 0.080161 6.0364 0.1394 1.9516 0.054696 3.904 0.081981 5.8562 0.10864 1.7449 0.040968 1.7449 0.040968 3.5251 0.082764 3.8224-0.52905 5.3675-1.8592 8.1663-4.4382 2.168-1.0469 2.168-1.0469 4.1875-1.75 1.0113-0.36352 1.0113-0.36352 2.043-0.73438 1.7695-0.51562 1.7695-0.51562 3.7695-0.51562z" fill="#262c46"/>
   <path transform="translate(261,158)" d="m0 0c-0.27734 1.8594-0.27734 1.8594-1 4-1.5664 1.1406-1.5664 1.1406-3.5625 2.25-4.4294 3.1238-6.5402 6.8901-8.9375 11.625-0.35006 0.67192-0.70012 1.3438-1.0608 2.0361-2.6418 5.495-3.4907 10.456-1.7517 16.464 1.2712 1.8448 1.2712 1.8448 3.8125 2.625 2.5 1 2.5 1 3.6304 2.7236 1.0192 2.6679 1.1886 4.8453 1.2837 7.6982 0.058008 1.5372 0.058008 1.5372 0.11719 3.1055 0.030938 1.0635 0.061875 2.127 0.09375 3.2227 0.058008 1.6184 0.058008 1.6184 0.11719 3.2695 0.094159 2.66 0.17979 5.32 0.25781 7.9805-1.614 0.07094-3.2288 0.12182-4.8438 0.16406-1.3487 0.04568-1.3487 0.04568-2.7246 0.09229-2.4316-0.25635-2.4316-0.25635-4.9316-2.8814-0.36996-0.54656-0.73992-1.0931-1.1211-1.6562-4.985-6.2135-13.681-8.7451-21.008-10.957-2.3711-0.76172-2.3711-0.76172-3.3711-1.7617-0.74091-4.1426-0.9346-7.8824 0-12 2.3429-2.1503 4.6658-3.3333 7.5078-4.7422 3.717-1.876 4.9638-3.3673 6.4922-7.2578 0.50671-6.4209 0.46294-12.708-1-19 10.124-7.5277 19.836-7.3771 32-7z" fill="#fafbfb"/>
   <path transform="translate(328,173)" d="m0 0c1.582 2.3633 1.582 2.3633 2.8125 5.3125 0.62842 1.4483 0.62842 1.4483 1.2695 2.9258 0.91797 2.7617 0.91797 2.7617 0.91797 6.7617-0.78504 0.060586-1.5701 0.12117-2.3789 0.18359-5.5718 0.44438-11.101 0.91512-16.621 1.8164-0.86625 0.10312-1.7325 0.20625-2.625 0.3125-2.5635 0.55681-2.5635 0.55681-4.6875 2.75-3.162 2.2796-4.9416 2.5889-8.7578 2.3945-4.0591-0.96136-6.0213-4.1161-8.2422-7.3945-1.2032-3.6097-1.5108-6.3462 0.17944-9.8699 2.3595-3.358 4.0897-4.9608 8.1707-5.8677 3.6903-0.27691 7.3245-0.34384 11.025-0.32495 1.2665-0.024492 2.533-0.048984 3.8379-0.074219 10.894-0.14963 10.894-0.14963 15.1 1.0742z" fill="#9fb4ee"/>
   <path transform="translate(199,167)" d="m0 0c-0.26297 0.93199-0.26297 0.93199-0.53125 1.8828-0.41656 2.7701-0.42731 4.9627-0.25 7.7344 0.81096 13.872 0.81096 13.872-2.1484 18.215-2.3013 1.7462-4.4198 3.0341-7.0703 4.168l-2 1c-2.8125 0.4375-2.8125 0.4375-6 0-2.5958-2.2437-4.4643-4.9287-6-8-0.4471-6.6087 1.6837-10.949 5.8867-15.918 5.1403-5.0643 10.792-9.2747 18.113-9.082z" fill="#a1b6f0"/>
   <path transform="translate(261.62 165.25)" d="m0 0c3.64 1.1495 4.5896 3.4981 6.375 6.75 1.2626 3.7878 1.2232 7.3652 1.25 11.312 0.020625 0.74701 0.04125 1.494 0.0625 2.2637 0.034451 4.9049-0.71147 8.1184-3.3125 12.424-3.2987-0.36652-4.0985-1.1061-6.4375-3.625l-2.5625-2.375c-2.5833 0.08333-2.5833 0.08333-5 1h-4c-1-1-1-1-1.4375-4.3125 0.094539-7.4956 4.5416-15.003 9.5-20.438 2.9375-2.25 2.9375-2.25 5.5625-3z" fill="#a0b4ee"/>
   <path transform="translate(283,194)" d="m0 0c3.563 0.24858 6.1246 1.0577 9.375 2.5625 6.2089 2.4621 11.386 1.9332 17.625-0.5625v-2h2c0.43289 4.4371-0.20085 7.5835-2.6211 11.387-3.277 3.834-7.2111 5.2551-12.098 6.0625-4.8266 0.29835-8.4424 0.035327-12.406-2.8867-3.1788-3.1941-3.7907-6.2073-4.0977-10.609 0.22266-1.9531 0.22266-1.9531 2.2227-3.9531z" fill="#a1b4eb"/>
   <path transform="translate(245,229)" d="m0 0c3.5851-0.16187 7.163-0.28084 10.75-0.375 1.0158-0.050273 2.0316-0.10055 3.0781-0.15234 2.8408-0.056068 5.3856-0.035595 8.1719 0.52734 2.9873 3.1341 4 4.6728 4 9-6.5402 2.9384-11.882 3.379-19 3.1875-1.4483-0.0203-1.4483-0.0203-2.9258-0.04102-2.3583-0.03502-4.7163-0.088815-7.0742-0.14648l3-12z" fill="#f6f6f7"/>
   <path transform="translate(204,268)" d="m0 0h21c-1.1478 8.0345-1.1478 8.0345-5 12-3.7505 2.5003-5.5586 2.536-10 2-2.875-1.9375-2.875-1.9375-5-5l-1-9z" fill="#9fb3ed"/>
   <path transform="translate(187,166)" d="m0 0c0.99 0.33 1.98 0.66 3 1v3c-1.793 1.5078-1.793 1.5078-4.1875 3.125-5.71 4.26-9.1257 8.9829-10.375 16.062 0.788 3.94 2.7183 6.9683 5.5625 9.8125 3.5264 0.15673 6.6191 0.04029 10-1l1 4c-4.1434 2.0089-7.4146 2.5631-12 2-3.7658-2.158-6.4105-4.9539-8-9-0.91564-6.7469-0.72597-12.524 3.3633-18.113 7.7647-8.9507 7.7647-8.9507 11.637-10.887z" fill="#2c334c"/>
   <path transform="translate(235,294)" d="m0 0c2.7882 1.3322 5.3132 2.8392 7.875 4.5625 3.3566 2.1372 6.097 3.1354 10.125 3.4375 0.31991 3.519 0.3717 5.4202-1.5625 8.4375-2.4375 1.5625-2.4375 1.5625-5.8125 1.75-4.7299-1.5495-6.9484-4.0738-9.625-8.1875-1.1578-3.4733-1.0687-6.3607-1-10z" fill="#9db1eb"/>
   <path transform="translate(256,207)" d="m0 0c0.72445 0.47051 1.4489 0.94102 2.1953 1.4258 7.2048 4.6424 7.2048 4.6424 14.805 8.5742-0.0625 1.75-0.0625 1.75-1 4-4.5074 3.1817-7.3634 4.5499-13 4-2.7747-6.2431-3.3763-11.198-3-18z" fill="#9fb2e9"/>
   <path transform="translate(196,176)" d="m0 0h1c1.8251 11.097 1.8251 11.097 1 16-2.4613 3.4087-5.2496 5.1814-9 7l-2 1c-2.8125 0.4375-2.8125 0.4375-6 0-2.5958-2.2437-4.4643-4.9287-6-8 0.08652-1.5461 0.24003-3.0891 0.4375-4.625 0.10184-0.81727 0.20367-1.6345 0.30859-2.4766 0.083789-0.62648 0.16758-1.253 0.25391-1.8984h1c0.26812 0.92812 0.53625 1.8562 0.8125 2.8125 1.2841 3.795 1.2841 3.795 4.1875 6.1875 4.3915 0.49581 6.8891 0.47273 10.938-1.25 3.3096-4.4129 2.9694-9.3691 3.0625-14.75z" fill="#7285bd"/>
   <path transform="translate(283,194)" d="m0 0c3.4432 0.4199 6.0013 1.0006 9.125 2.5625 5.0045 2.3271 10.485 1.6765 15.875 1.4375-1.1794 3.5383-2.6015 4.4755-5.8359 6.1992-4.0383 1.4943-7.946 1.5026-12.164 0.80078-3.8554-1.9966-5.5981-3.3971-8-7 0.375-2.1875 0.375-2.1875 1-4z" fill="#f6f7fa"/>
   <path transform="translate(328,173)" d="m0 0-1 3c-3.7069 0.8789-6.9811 1.0535-10.781 0.88672-1.0893-0.030293-2.1785-0.060586-3.3008-0.091797-2.2793-0.071636-4.5582-0.1628-6.8359-0.27344-5.7612-0.31078-5.7612-0.31078-10.948 1.7354-2.5471 2.955-3.793 5.878-4.134 9.7432-2-2-2-2-2.5-4.6875 0.59944-3.9713 1.6558-5.8415 4.3022-8.804 4.7301-3.2468 10.727-2.5368 16.26-2.5085 1.2665-0.024492 2.533-0.048984 3.8379-0.074219 5.1864-0.071234 10.029-0.11417 15.1 1.0742z" fill="#7082ba"/>
   <path transform="translate(200,268)" d="m0 0h1v6h4c0.45375 0.96938 0.9075 1.9388 1.375 2.9375 1.2829 3.1333 1.2829 3.1333 3.625 4.0625 4.0562 0.38266 6.2679 0.46587 9.75-1.75 1.9869-1.9869 3.6744-3.9281 5.25-6.25 0.99 0.33 1.98 0.66 3 1-1.3226 5.6873-3.3617 7.7532-8 11-1.9375 0.8125-1.9375 0.8125-4 1-1.6397 0.21656-1.6397 0.21656-3.3125 0.4375-5.0016-0.59341-7.4174-2.7255-10.688-6.4375-2.3267-3.9453-2.1772-7.4817-2-12z" fill="#343a54"/>
   <path transform="translate(257,164)" d="m0 0c0.36732 3.2141 0.32302 4.5813-1.6875 7.1875l-2.3125 2.8125c-3.7126 6.079-5.8638 10.843-5 18 0.86266 2.4056 0.86266 2.4056 2 4l-4 1c-3.1466-4.1955-3.663-7.9005-3-13 0.9669-2.9144 2.3014-5.548 3.75-8.25 0.34805-0.69352 0.69609-1.387 1.0547-2.1016 4.9906-9.6484 4.9906-9.6484 9.1953-9.6484z" fill="#323851"/>
   <path transform="translate(230,184)" d="m0 0h1c0.61039 6.8364-0.71362 10.642-5 16-2.4304 2.4304-3.3182 2.9535-6.75 3.1875-1.1138-0.09281-1.1138-0.09281-2.25-0.1875v5h-1c-0.60385-4.1465-0.87651-7.8814 0-12 2.3483-2.1636 4.6354-3.3205 7.5117-4.6875 3.4966-1.8444 4.6248-3.9096 6.4883-7.3125z" fill="#a6b9ee"/>
   <path transform="translate(257,220)" d="m0 0c2 3 2 3 2 5 1.4168-0.31182 2.8334-0.62449 4.25-0.9375 1.1834-0.26104 1.1834-0.26104 2.3906-0.52734 2.1282-0.48271 4.2447-0.99679 6.3594-1.5352v4h-2l4 6-1 2h-2l-2-2-2-1v-2c-0.9784 0.017402-0.9784 0.017402-1.9766 0.035156-4.7996 0.049554-9.3013-0.041019-14.023-1.0352v-2h-6v-1l11-1 1-4z" fill="#343a51"/>
   <path transform="translate(236,304)" d="m0 0 2.3125 2.375c3.506 3.4843 3.506 3.4843 8.0625 5 3.4495-0.49278 5.0293-2.1301 7.625-4.375h2c-0.27481 3.2977-0.84499 4.8159-3 7.375-3.6604 1.9827-5.744 1.9669-9.7812 1.3008-3.7337-1.1372-5.55-2.8118-8.2188-5.6758-1.375-2.8125-1.375-2.8125-2-5 0.99-0.33 1.98-0.66 3-1z" fill="#313751"/>
   <path transform="translate(247,184)" d="m0 0h1v5l1.5625-1c3.3635-1.3799 5.8299-1.3797 9.4375-1 2.75 1.8125 2.75 1.8125 5 4l1.875 1.5c0.37125 0.495 0.7425 0.99 1.125 1.5-0.3125 2.1875-0.3125 2.1875-1 4-3.2987-0.36652-4.0985-1.1061-6.4375-3.625l-2.5625-2.375c-2.5833 0.083333-2.5833 0.083333-5 1h-4c-1-1-1-1-1.0977-2.8477 0.032552-2.0508 0.065104-4.1016 0.097656-6.1523z" fill="#7185bd"/>
   <path transform="translate(235,294)" d="m0 0c2.7882 1.3322 5.3132 2.8392 7.875 4.5625 3.3566 2.1372 6.097 3.1354 10.125 3.4375v6l-1-2-2.625 0.25c-5.2971-0.39238-8.8905-3.3783-12.375-7.25l-2 2v-7z" fill="#7285be"/>
   <path transform="translate(204,268)" d="m0 0h21v5l-1-2-3.5 1c-5.277 1.3216-10.258 1.7473-15.5 0l-1 2v-6z" fill="#7588c1"/>
   <path transform="translate(328,173)" d="m0 0-1 3c-8.8099 2.0557-18.111 1.2053-27 0 3.9361-2.5995 8.0684-2.4058 12.625-2.5625 14.785-0.57717 14.785-0.57717 15.375-0.4375z" fill="#788cc7"/>
   <path transform="translate(200,268)" d="m0 0h1v6h4c0.45375 0.96938 0.9075 1.9388 1.375 2.9375 1.2829 3.1333 1.2829 3.1333 3.625 4.0625v4h6v1c-3.3703 0.4127-5.9628 0.61608-8.9531-1.1602-3.4614-2.8433-6.0598-5.343-7.0469-9.8398-0.076462-2.3321-0.091433-4.6685 0-7z" fill="#3d435b"/>
   <path transform="translate(312,189)" d="m0 0c-1.2109 6.4175-1.2109 6.4175-4.625 8.9375-4.0724 1.2821-7.1259 1.2823-11.375 1.0625v-2l3.625-1.1875c4.0355-1.4883 8.5558-6.8125 12.375-6.8125z" fill="#2c324d"/>
   <path transform="translate(257,216)" d="m0 0 3.125 1.9375c3.2611 1.8796 6.0955 2.6938 9.875 3.0625-2 3-2 3-4.1641 3.5117-1.2182 0.087012-1.2182 0.087012-2.4609 0.17578-0.81727 0.065742-1.6345 0.13148-2.4766 0.19922-0.62648 0.037383-1.253 0.074766-1.8984 0.11328-1.4982-3.371-2-5.2044-2-9z" fill="#f1f2f5"/>
   <path transform="translate(242,155)" d="m0 0v3l2 1c-4.9736 1.7573-9.7416 3.3258-15 4v-3c8.3871-5 8.3871-5 13-5z" fill="#2f354d"/>
   <path transform="translate(244,181)" d="m0 0c2.2883 2.2883 2.4226 3.2712 3 6.375 0.59973 3.2022 1.4313 5.7622 3 8.625l-4 1c-3.375-4.5-3.3503-7.5704-3-13l1-3z" fill="#383d55"/>
   <path transform="translate(302.44 181.75)" d="m0 0c3.5625 0.25 3.5625 0.25 6.5625 2.25v3c-1.8562-0.030938-1.8562-0.030938-3.75-0.0625-2.9141-0.0051668-5.4595 0.13234-8.25 1.0625 0-5.0764 0.36257-5.8809 5.4375-6.25z" fill="#2d3451"/>
   <path transform="translate(257,220)" d="m0 0c2 3 2 3 2.4375 5.0625 0.45027 2.3281 0.45027 2.3281 3.5625 3.9375l-12-1v-2h-6v-1l11-1 1-4z" fill="#42475d"/>
   <path transform="translate(257,154)" d="m0 0v1l5 1v1l-20 1v-3c5.0247-0.6253 9.9253-1.1301 15-1z" fill="#1f2540"/>
   <path transform="translate(175,182)" d="m0 0 2 1c-0.072188 0.59168-0.14438 1.1834-0.21875 1.793-0.48035 4.0896-0.91435 8.0809-0.78125 12.207l-4-2v-9h2l1-4z" fill="#1e243e"/>
   <path transform="translate(249,198)" d="m0 0h2c2.5678 3.8416 2.2269 7.8139 2.125 12.25-0.00902 0.74508-0.018047 1.4902-0.027344 2.2578-0.023472 1.8309-0.059341 3.6616-0.097656 5.4922h-1c-0.073477-1.0132-0.073477-1.0132-0.14844-2.0469-0.074766-0.89203-0.14953-1.7841-0.22656-2.7031-0.069609-0.88172-0.13922-1.7634-0.21094-2.6719-0.41589-2.5895-1.2225-4.2719-2.4141-6.5781-0.125-3.25-0.125-3.25 0-6z" fill="#909fcb"/>
   <path transform="translate(251,174)" d="m0 0c-0.66498 4.3889-2.1876 7.9811-4 12-2-3-2-3-1.8125-6 0.94172-3.4771 1.9045-6 5.8125-6z" fill="#262c46"/>
   <path transform="translate(299,173)" d="m0 0c2.2466-0.34058 2.2466-0.34058 5.0078-0.29297 0.98613 0.009668 1.9723 0.019336 2.9883 0.029297 1.0325 0.025137 2.0651 0.050273 3.1289 0.076172 1.5604 0.020303 1.5604 0.020303 3.1523 0.041016 2.5747 0.035432 5.1484 0.084832 7.7227 0.14648v1c-1.146 0.060586-2.292 0.12117-3.4727 0.18359-1.53 0.084476-3.0599 0.16912-4.5898 0.25391-1.1283 0.058975-1.1283 0.058975-2.2793 0.11914-4.6052 0.25917-9.1019 0.7233-13.658 1.4434l2-3z" fill="#6172a5"/>
   <path transform="translate(247,134)" d="m0 0c8.631 3.8542 8.631 3.8542 11 8l-1.875-0.8125c-4.3049-1.6359-8.7053-2.9002-13.125-4.1875l4-1v-2z" fill="#d3d4d9"/>
   <path transform="translate(256,307)" d="m0 0c-0.49832 3.6875-1.1007 5.6049-4 8l-4-2 3-2 1-3c2-1 2-1 4-1z" fill="#2e344d"/>
   <path transform="translate(235,294)" d="m0 0c2.8844 1.293 4.8722 2.6594 7 5l-1 2-4-2-2 2v-7z" fill="#697aae"/>
   <path transform="translate(219,282)" d="m0 0-1 3h-8v-3c6.75-1.125 6.75-1.125 9 0z" fill="#202640"/>
   <path transform="translate(305,195)" d="m0 0-1 4h-8v-2c6.75-2 6.75-2 9-2z" fill="#343a52"/>
   <path transform="translate(323,172)" d="m0 0 5 1-1 3c-2.31 0.33-4.62 0.66-7 1 0.99-1.65 1.98-3.3 3-5z" fill="#7386bf"/>
   <path transform="translate(242,155)" d="m0 0v3l2 1-8 2v-5c2.0755-0.55348 3.8437-1 6-1z" fill="#3b4158"/>
   <path transform="translate(206,280)" d="m0 0 4 1v4h6v1c-6.625 0.25-6.625 0.25-10-2v-4z" fill="#4c5166"/>
   <path transform="translate(268,228)" d="m0 0c1.875 0.1875 1.875 0.1875 4 1 1.25 2.5625 1.25 2.5625 2 5h-3l-2-2-2-1 1-3z" fill="#383d54"/>
   <path transform="translate(187,166)" d="m0 0c0.99 0.33 1.98 0.66 3 1v3c-2.5 1.6875-2.5 1.6875-5 3l-1-5 3-2z" fill="#353b55"/>
   <path transform="translate(237,271)" d="m0 0c0.99 0.33 1.98 0.66 3 1-0.95207 1.006-1.9119 2.0046-2.875 3-0.53367 0.55688-1.0673 1.1138-1.6172 1.6875-1.5078 1.3125-1.5078 1.3125-3.5078 1.3125 1.293-2.8844 2.6594-4.8722 5-7z" fill="#30364e"/>
   <path transform="translate(189,198)" d="m0 0c0.99 0.33 1.98 0.66 3 1v3c-3.75 1.125-3.75 1.125-6 0l1-3 2-1z" fill="#2b314c"/>
   <path transform="translate(259,225)" d="m0 0h8l-2 3c-2.625 0.1875-2.625 0.1875-5 0l-1-3z" fill="#232943"/>
   <path transform="translate(173,187)" d="m0 0h1l1 5h1v5l-4-2 1-8z" fill="#272e48"/>
   <path transform="translate(175,177)" d="m0 0 2 3-3 6h-2c0.55729-3.3437 1.3517-6.0331 3-9z" fill="#3f445b"/>
   <path transform="translate(230,184)" d="m0 0h1v6l-4 1c0.61278-2.9618 1.2537-4.3806 3-7z" fill="#95a9e0"/>
  </g>
 </g>
</svg>
