<?xml version="1.0" encoding="UTF-8"?>
<!-- Created with Inkscape (http://www.inkscape.org/) -->
<svg width="119.68mm" height="122.86mm" version="1.1" viewBox="0 0 119.68 122.86" xmlns="http://www.w3.org/2000/svg">
 <defs>
  <clipPath id="clipPath18-9">
   <path transform="translate(-331.62 -331.81)" d="M 0,675.594 H 841.89 V 0 H 0 Z"/>
  </clipPath>
  <clipPath id="clipPath20-5">
   <path transform="translate(-196.67 -163.67)" d="M 0,675.594 H 841.89 V 0 H 0 Z"/>
  </clipPath>
  <clipPath id="clipPath22-0">
   <path transform="translate(-346.93 -377.51)" d="M 0,675.594 H 841.89 V 0 H 0 Z"/>
  </clipPath>
  <clipPath id="clipPath24-2">
   <path transform="translate(-187.69 -313.75)" d="M 0,675.594 H 841.89 V 0 H 0 Z"/>
  </clipPath>
  <clipPath id="clipPath26-4">
   <path transform="translate(-232.99 -336.87)" d="M 0,675.594 H 841.89 V 0 H 0 Z"/>
  </clipPath>
  <clipPath id="clipPath28-1">
   <path transform="translate(-276.94 -270.77)" d="M 0,675.594 H 841.89 V 0 H 0 Z"/>
  </clipPath>
  <clipPath id="clipPath30-9">
   <path transform="translate(-253.07 -399.23)" d="M 0,675.594 H 841.89 V 0 H 0 Z"/>
  </clipPath>
  <clipPath id="clipPath32-4">
   <path transform="translate(-254.22 -380.13)" d="M 0,675.594 H 841.89 V 0 H 0 Z"/>
  </clipPath>
  <clipPath id="clipPath34-8">
   <path transform="translate(-177.01 -394.17)" d="M 0,675.594 H 841.89 V 0 H 0 Z"/>
  </clipPath>
  <clipPath id="clipPath36-0">
   <path transform="translate(-178.51 -374.96)" d="M 0,675.594 H 841.89 V 0 H 0 Z"/>
  </clipPath>
  <clipPath id="clipPath38-8">
   <path transform="translate(-188.38 -385.82)" d="M 0,675.594 H 841.89 V 0 H 0 Z"/>
  </clipPath>
  <clipPath id="clipPath40-7">
   <path transform="translate(-205.25 -381.47)" d="M 0,675.594 H 841.89 V 0 H 0 Z"/>
  </clipPath>
  <clipPath id="clipPath42-1">
   <path transform="translate(-216.76 -386.8)" d="M 0,675.594 H 841.89 V 0 H 0 Z"/>
  </clipPath>
  <clipPath id="clipPath44-4">
   <path transform="translate(-212.34 -378.68)" d="M 0,675.594 H 841.89 V 0 H 0 Z"/>
  </clipPath>
  <clipPath id="clipPath46-9">
   <path transform="translate(-225.63 -384.79)" d="M 0,675.594 H 841.89 V 0 H 0 Z"/>
  </clipPath>
  <clipPath id="clipPath48-5">
   <path transform="translate(-234.77 -389.23)" d="M 0,675.594 H 841.89 V 0 H 0 Z"/>
  </clipPath>
  <clipPath id="clipPath50-2">
   <path transform="translate(-230.73 -375.39)" d="M 0,675.594 H 841.89 V 0 H 0 Z"/>
  </clipPath>
  <clipPath id="clipPath52-1">
   <path transform="translate(-244.58 -385.17)" d="M 0,675.594 H 841.89 V 0 H 0 Z"/>
  </clipPath>
  <clipPath id="clipPath54-7">
   <path transform="translate(-233.34 -219.85)" d="M 0,675.594 H 841.89 V 0 H 0 Z"/>
  </clipPath>
  <clipPath id="clipPath56-0">
   <path transform="translate(-261.87 -215.1)" d="M 0,675.594 H 841.89 V 0 H 0 Z"/>
  </clipPath>
  <clipPath id="clipPath58-9">
   <path transform="translate(-168.63 -198.03)" d="M 0,675.594 H 841.89 V 0 H 0 Z"/>
  </clipPath>
  <clipPath id="clipPath60-2">
   <path transform="translate(-162.34 -189.05)" d="M 0,675.594 H 841.89 V 0 H 0 Z"/>
  </clipPath>
  <clipPath id="clipPath62-2">
   <path transform="translate(-243.17 -219.58)" d="M 0,675.594 H 841.89 V 0 H 0 Z"/>
  </clipPath>
  <clipPath id="clipPath64-8">
   <path transform="translate(-235.04 -204.93)" d="M 0,675.594 H 841.89 V 0 H 0 Z"/>
  </clipPath>
  <clipPath id="clipPath66-6">
   <path transform="translate(-246.24 -208.84)" d="M 0,675.594 H 841.89 V 0 H 0 Z"/>
  </clipPath>
  <clipPath id="clipPath68-7">
   <path transform="translate(-181.8 -188.52)" d="M 0,675.594 H 841.89 V 0 H 0 Z"/>
  </clipPath>
  <clipPath id="clipPath70-2">
   <path transform="translate(-178.73 -197.11)" d="M 0,675.594 H 841.89 V 0 H 0 Z"/>
  </clipPath>
  <clipPath id="clipPath72-4">
   <path transform="translate(-229.14 -193.89)" d="M 0,675.594 H 841.89 V 0 H 0 Z"/>
  </clipPath>
  <clipPath id="clipPath74-0">
   <path transform="translate(-200.29 -188.82)" d="M 0,675.594 H 841.89 V 0 H 0 Z"/>
  </clipPath>
  <clipPath id="clipPath76-6">
   <path transform="translate(-232.51 -239.3)" d="M 0,675.594 H 841.89 V 0 H 0 Z"/>
  </clipPath>
  <clipPath id="clipPath78-5">
   <path transform="translate(-159.91 -236)" d="M 0,675.594 H 841.89 V 0 H 0 Z"/>
  </clipPath>
  <clipPath id="clipPath80-8">
   <path transform="translate(-138.89 -199.06)" d="M 0,675.594 H 841.89 V 0 H 0 Z"/>
  </clipPath>
  <clipPath id="clipPath82-3">
   <path transform="translate(-248.16 -458.28)" d="M 0,675.594 H 841.89 V 0 H 0 Z"/>
  </clipPath>
  <clipPath id="clipPath84-6">
   <path transform="translate(-298.24 -379.14)" d="M 0,675.594 H 841.89 V 0 H 0 Z"/>
  </clipPath>
  <clipPath id="clipPath86-1">
   <path transform="translate(-286.73 -317.96)" d="M 0,675.594 H 841.89 V 0 H 0 Z"/>
  </clipPath>
  <clipPath id="clipPath88-3">
   <path transform="translate(-260.51 -401.77)" d="M 0,675.594 H 841.89 V 0 H 0 Z"/>
  </clipPath>
  <clipPath id="clipPath90-4">
   <path transform="translate(-146.9 -396.86)" d="M 0,675.594 H 841.89 V 0 H 0 Z"/>
  </clipPath>
  <clipPath id="clipPath92-0">
   <path transform="translate(-217.97 -227.41)" d="M 0,675.594 H 841.89 V 0 H 0 Z"/>
  </clipPath>
  <clipPath id="clipPath94-1">
   <path transform="translate(-208.31 -209.38)" d="M 0,675.594 H 841.89 V 0 H 0 Z"/>
  </clipPath>
  <clipPath id="clipPath96-1">
   <path transform="translate(-107.96 -340.84)" d="M 0,675.594 H 841.89 V 0 H 0 Z"/>
  </clipPath>
  <clipPath id="clipPath98-0">
   <path transform="translate(-293.42 -308.02)" d="M 0,675.594 H 841.89 V 0 H 0 Z"/>
  </clipPath>
  <clipPath id="clipPath100-9">
   <path transform="translate(-307.89 -327.16)" d="M 0,675.594 H 841.89 V 0 H 0 Z"/>
  </clipPath>
  <clipPath id="clipPath102-6">
   <path transform="translate(-300.97 -322.36)" d="M 0,675.594 H 841.89 V 0 H 0 Z"/>
  </clipPath>
  <clipPath id="clipPath104-4">
   <path transform="translate(-312.63 -331.34)" d="M 0,675.594 H 841.89 V 0 H 0 Z"/>
  </clipPath>
  <clipPath id="clipPath106-7">
   <path transform="translate(-319.03 -335.26)" d="M 0,675.594 H 841.89 V 0 H 0 Z"/>
  </clipPath>
  <clipPath id="clipPath108-8">
   <path transform="translate(-91.345 -324.99)" d="M 0,675.594 H 841.89 V 0 H 0 Z"/>
  </clipPath>
  <clipPath id="clipPath110-6">
   <path transform="translate(-98.423 -319.25)" d="M 0,675.594 H 841.89 V 0 H 0 Z"/>
  </clipPath>
  <clipPath id="clipPath112-5">
   <path transform="translate(-86.728 -327.7)" d="M 0,675.594 H 841.89 V 0 H 0 Z"/>
  </clipPath>
  <clipPath id="clipPath114-6">
   <path transform="translate(-143.64 -278.82)" d="M 0,675.594 H 841.89 V 0 H 0 Z"/>
  </clipPath>
  <clipPath id="clipPath116-6">
   <path transform="translate(-104.85 -320.19)" d="M 0,675.594 H 841.89 V 0 H 0 Z"/>
  </clipPath>
  <clipPath id="clipPath118-5">
   <path transform="translate(-176.09 -260.24)" d="M 0,675.594 H 841.89 V 0 H 0 Z"/>
  </clipPath>
  <clipPath id="clipPath120-0">
   <path transform="translate(-105.17 -386.05)" d="M 0,675.594 H 841.89 V 0 H 0 Z"/>
  </clipPath>
  <clipPath id="clipPath122-1">
   <path transform="translate(-211.03 -431.6)" d="M 0,675.594 H 841.89 V 0 H 0 Z"/>
  </clipPath>
  <clipPath id="clipPath124-0">
   <path transform="translate(-199.16 -238.07)" d="M 0,675.594 H 841.89 V 0 H 0 Z"/>
  </clipPath>
  <clipPath id="clipPath126-2">
   <path transform="translate(-194.69 -254.79)" d="M 0,675.594 H 841.89 V 0 H 0 Z"/>
  </clipPath>
  <clipPath id="clipPath128-8">
   <path transform="translate(-223.31 -246.74)" d="M 0,675.594 H 841.89 V 0 H 0 Z"/>
  </clipPath>
  <clipPath id="clipPath130-3">
   <path transform="translate(-160.75 -245.13)" d="M 0,675.594 H 841.89 V 0 H 0 Z"/>
  </clipPath>
  <clipPath id="clipPath132-8">
   <path transform="translate(-195.97 -230.42)" d="M 0,675.594 H 841.89 V 0 H 0 Z"/>
  </clipPath>
  <clipPath id="clipPath134-1">
   <path transform="translate(-212.59 -483.31)" d="M 0,675.594 H 841.89 V 0 H 0 Z"/>
  </clipPath>
  <clipPath id="clipPath136-4">
   <path transform="translate(-92.031 -478.34)" d="M 0,675.594 H 841.89 V 0 H 0 Z"/>
  </clipPath>
  <clipPath id="clipPath138-7">
   <path transform="translate(-134.45 -301.72)" d="M 0,675.594 H 841.89 V 0 H 0 Z"/>
  </clipPath>
  <clipPath id="clipPath140-4">
   <path transform="translate(-251.79 -365.16)" d="M 0,675.594 H 841.89 V 0 H 0 Z"/>
  </clipPath>
  <clipPath id="clipPath142-2">
   <path transform="translate(-242.73 -361.38)" d="M 0,675.594 H 841.89 V 0 H 0 Z"/>
  </clipPath>
  <clipPath id="clipPath144-6">
   <path transform="translate(-188.95 -365.66)" d="M 0,675.594 H 841.89 V 0 H 0 Z"/>
  </clipPath>
  <clipPath id="clipPath146-9">
   <path transform="translate(-181.39 -358.74)" d="M 0,675.594 H 841.89 V 0 H 0 Z"/>
  </clipPath>
 </defs>
 <g transform="translate(53.71 -32.544)">
  <path transform="matrix(.35278 0 0 -.35278 55.102 96.087)" d="m0 0c0-71.504-57.965-129.47-129.47-129.47-71.504 0-129.47 57.966-129.47 129.47s57.966 129.47 129.47 129.47c71.505 0 129.47-57.966 129.47-129.47" clip-path="url(#clipPath18-9)" fill="#00adef"/>
  <path transform="matrix(.35278 0 0 -.35278 7.4945 155.4)" d="m0 0c-13.481 0-24.989 8.982-27.964 11.514-4.58 1.859-9.324 4.374-11.692 5.676-0.711-0.077-1.436-0.115-2.168-0.115-14.78 0-32.425 15.673-38.533 34.225-2.353 7.144-1.384 14.179 2.801 20.341 5.771 8.496 17.199 14.254 30.916 15.686l-0.508 4.545c-0.057 0.158-0.114 0.32-0.174 0.484-1.209 1.524-4.115 5.351-6.219 9.475-3.261 2.365-14.019 10.341-31.129 24.751-7.299 6.146-11.56 10.346-13.532 15.175-3.073 2.871-6.164 5.671-8.788 7.961-0.923 0.798-1.838 1.585-2.73 2.312-0.996-0.054-1.955-0.083-2.867-0.083-18.298-1e-3 -26.445 9.838-31.835 16.348-2.214 2.674-3.974 4.716-4.863 4.716-0.104 0-0.212-0.01-0.325-0.025-1.673-0.223-3.279-0.337-4.77-0.337-5.234 0-9.527 1.412-12.759 4.196-4.145 3.571-6.216 8.961-6.335 16.477-0.385 24.36 4.748 47.677 14.454 65.654 9.898 18.331 23.893 30.242 39.407 33.539 3.138 0.667 6.296 1.004 9.387 1.004 14.144 0 24.748-6.841 31.334-12.851 1.959 2.495 4.014 4.846 6.143 7.029 4.895 5.196 10.895 9.823 17.775 13.69 0.514 0.288 1.028 0.569 1.545 0.845-4.367-0.57-9.459-1.454-15.342-2.657-6.243-1.279-12.026-1.927-17.187-1.927-20.946 0-28.25 10.956-28.366 15.954l-0.03 1.299 0.619 1.143c11.384 21.036 34.039 29.534 41.569 29.534 2.879 0 4.371-1.325 5.115-2.436 0.959-1.429 1.136-3.244 0.475-4.854-0.81-2.062-1.371-7.914-0.486-9.277 0.613-0.817 3.053-2.742 12.278-2.742 5.148 0 10.839 0.585 15.86 1.101l0.915 0.095c3.861 0.395 7.507 0.768 10.598 0.876 0.31 0.011 0.62 0.016 0.928 0.016 5.754 0 10.709-2.006 14.331-5.801 3.341-3.5 5.016-7.938 5.834-11.921 2.966 4.945 4.345 9.445 3.346 11.427-2.001 3.967-14.868 11.012-19.712 13.665-5.952 3.259-8.417 4.608-7.583 8.471 0.468 2.171 2.301 3.745 4.559 3.917 0.656 0.051 2.679 0.145 5.644 0.145 9.626 0 27.476-0.951 38.879-7.323l0.304-0.17 0.839-0.64 0.21-0.204c0.852-0.828 8.323-8.363 8.286-17.822-0.013-3.115-0.699-6.232-2.05-9.324 10.098-1.061 20.314-4.186 29.811-9.149 5.307-2.764 10.374-6.187 15.056-10.17 1.463-1.23 2.928-2.551 4.385-3.95 5.186 6.465 15.009 15.455 29.515 15.455 1.72 0 3.477-0.131 5.223-0.388 36.317-5.35 52.777-64.98 54.905-79.453 2.299-15.634-4.757-20.195-11.16-22.423-0.101-0.035-0.245-0.086-0.401-0.14-1.75-8.609-5.096-14.761-10.354-18.919 0.877-1.766 1.38-3.786 1.435-5.842 0.052-2.819-0.799-5.543-2.399-7.707-1.621-2.207-4.124-3.872-6.859-4.56-4.456-1.095-9.174-2.392-12.842-5.275-1.402-1.126-2.969-2.633-4.485-4.09-2.343-2.274-5.257-5.217-8.277-8.357-1.187-4.43-4.131-8.139-7.11-11.518-2.456-2.784-4.904-5.197-6.985-7.202-1.42-1.338-2.892-2.691-4.529-4.154 1.638-1.756 2.884-3.897 3.631-6.238 1.652-5.072 0.829-9.847-0.154-12.956-0.858-2.708-2.154-5.276-3.864-7.666 2.387-3.586 3.635-8.816 3.717-15.636 0.23-19.215-9.927-42.304-25.083-46.561-1.693-2.067-5.095-6.093-8.608-9.497-1.851-4.199-9.388-19.416-23.24-24.34-1.251-0.445-2.529-0.67-3.801-0.67-3.095 0-6.046 1.327-8.533 3.837-5.3 5.351-8.521 16.392-8.407 28.815 0.016 1.645 0.104 3.18 0.252 4.612-1.879-0.36-4.486-0.611-8.138-0.702 0.121-0.229 0.239-0.459 0.355-0.692 4.664-9.33 7.215-22.915 3.067-30.831-1.799-3.431-4.769-5.604-8.361-6.117-1.36-0.194-2.762-0.293-4.166-0.293" clip-path="url(#clipPath20-5)" fill="#fff"/>
  <g fill="#191a1c">
   <path transform="matrix(.35278 0 0 -.35278 60.505 79.964)" d="m0 0c-2.725-0.947-6.844-2.38-7.967-8.316-1.312-6.949-3.506-10.642-6.525-12.887 0.068 0.407 0.157 0.809 0.202 1.221 0.203 1.644 0.19 3.402-0.15 5.163-0.355 1.756-1.086 3.558-2.374 5.036-0.017 0.019-0.035 0.036-0.051 0.055 2.147 3.582 2.089 9.286 2.089 9.286-1.35-3.44-3.366-5.789-4.857-7.181-0.709 0.34-1.464 0.588-2.242 0.716-1.51 0.265-3.144 0.04-4.545-0.688-0.098 0.072-0.197 0.144-0.302 0.217-0.492 0.336-1.014 0.637-1.574 0.888-1.113 0.504-2.404 0.803-3.723 0.727-1.317-0.067-2.601-0.527-3.64-1.19-0.623-0.39-1.173-0.84-1.674-1.318-0.61 0.261-1.221 0.468-1.899 0.638-0.92 0.22-1.93 0.32-2.981 0.205-0.289 3.345-0.71 6.673-1.274 9.965-1.155 6.517-2.763 12.915-4.76 19.192-0.648 6.447-1.449 20.816 2.711 31.447 5.358 13.695 18.18 5.14 18.18 5.14s-6.617 8.128-15.189 5.062c-8.505-3.042-11.733-18.087-12.656-23.717-3.773 8.07-8.391 15.785-13.981 22.799 2.395 4.498 11.448 18.985 27.591 16.604 23.639-3.482 41.563-46.434 44.955-69.5 1.175-7.986-0.438-8.546-3.364-9.564m-15.626-37.962c-0.339-0.422-0.814-0.738-1.508-0.905l-1.611-0.367-1.716-0.42c-1.28-0.331-2.566-0.711-3.844-1.149 0.574 1.919 1.733 5.102 3.685 7.713 0.079 0.076 0.162 0.149 0.241 0.226 0.386 0.388 0.736 0.813 1.091 1.232 1.583-0.306 2.903-1.19 3.619-2.489 0.383-0.659 0.566-1.415 0.578-2.109-5e-3 -0.698-0.207-1.301-0.535-1.732m-26.48 13.775c0.341 4.306 0.382 8.621 0.161 12.917 0.558 0.136 1.227 0.149 1.937 0.019 0.572-0.097 1.225-0.307 1.77-0.536-0.277-1.563-0.251-3.868-0.732-5.372-0.617-1.935-1.28-2.459-1.28-2.459s2.104-0.042 3.034 2.715c0.887 2.633 0.861 4.196 1.655 5.357 0.543 0.65 1.142 1.202 1.77 1.599 0.638 0.409 1.3 0.633 1.976 0.674 0.675 0.041 1.386-0.102 2.089-0.415 0.351-0.156 0.698-0.352 1.031-0.576 0.151-0.101 0.316-0.225 0.467-0.347-0.605-1.586-0.573-4.712-1.159-6.548-0.617-1.935-1.72-2.685-1.72-2.685s2.355-0.22 3.415 2.783c1.066 3.024 0.906 5.189 2.536 6.037 1.657 0.664 3.813-0.024 4.931-1.597 1.283-1.663 1.679-4.22 1.308-6.838-0.333-2.665-1.056-5.305-2.001-7.965-0.322-0.888-0.668-1.778-1.023-2.675-11.127 1.188-17.092 3.838-20.165 5.912m-30.601-49.972c6e-3 0.052-0.022-0.165-0.015-0.251-0.03-0.142-0.05-0.286-0.091-0.443-0.092-0.321-0.227-0.661-0.384-1.005-0.324-0.691-0.776-1.374-1.261-2.03-4.056-5.274-10.877-8.509-17.567-8.109-1.6 0.083-3.25 0.352-4.803 0.725-0.026 0.043-0.056 0.091-0.082 0.136-0.757 1.298-1.351 2.409-1.728 3.216-0.385 0.803-0.612 1.273-0.624 1.3l-0.127 0.296-1e-3 -1e-3c-0.859 1.891-1.625 3.871-2.32 5.729-0.164 0.441-0.298 0.867-0.448 1.302 0.432 0.474 0.906 0.904 1.435 1.257 1.245 0.809 2.761 1.247 4.265 1.231 0.745-9e-3 1.495-0.126 2.113-0.36 0.155-0.058 0.308-0.115 0.421-0.191l0.195-0.106 0.251-0.173 1.106-0.776c1.582-1.123 3.522-1.98 5.445-2.381 3.879-0.813 7.672-0.438 11.316 0.14l1.361 0.256 0.68 0.128 0.332 0.062 0.213 0.025c0.326 0.058 0.324 0.01 0.317 0.026zm6.468 38.135c-4.495-11.113-13.301-21.207-23.367-27.782-0.865 0.541-1.8 0.965-2.679 1.483-1.141 0.671-1.912 1.483-2.383 2.739-0.46 1.227-0.777 0.723-0.844 0.191-0.215-1.722 0.655-3.348 1.766-4.6s2.943-2.011 3.687-3.541c0.358-0.737 0.332-1.775-7e-3 -2.734-0.194 0.122-0.391 0.235-0.582 0.37l-1.104 0.774c-0.342 0.253-1.005 0.638-1.502 0.805-1.068 0.4-2.125 0.544-3.176 0.561-2.093 0.02-4.186-0.576-5.958-1.726-0.28-0.185-0.528-0.411-0.787-0.622-0.093 0.32-0.199 0.649-0.286 0.964-0.395 1.421-0.7 2.788-0.965 4.116 1.405 1.586 4.333 1.596 5.386 1.491 1.095-0.11-2.429 2.446-5.814 0.844-0.179 1.087-0.339 2.144-0.469 3.125-0.36 2.797-0.6 5.104-0.826 6.699-0.223 1.596-0.429 2.483-0.6 2.487-0.167 5e-3 -0.426-0.868-0.712-2.464-0.283-1.595-0.599-3.914-0.752-6.836-0.14-2.914-0.087-6.476 0.609-10.38 0.044-0.249 0.11-0.509 0.158-0.761-0.054 0.019-0.101 0.044-0.157 0.063-0.938 0.392-1.99 0.657-3.031 0.955-1.06 0.222-2.119 0.459-3.134 0.553-1.007 0.159-1.961 0.151-2.776 0.203-0.816 9e-3 -1.499-0.032-1.982-0.039-0.484-6e-3 -0.763-0.065-0.78-0.058l-0.173-0.017v-1e-3c-1.135-0.091-2.223-0.303-3.264-0.532-1.026-0.283-2.022-0.534-2.92-0.914-0.452-0.18-0.894-0.347-1.313-0.533-0.41-0.204-0.809-0.402-1.194-0.593-0.776-0.366-1.433-0.832-2.05-1.205-0.613-0.383-1.116-0.814-1.57-1.158-0.457-0.341-0.807-0.695-1.093-0.979-0.57-0.572-0.842-0.929-0.781-1.015 0.062-0.086 0.505 0.035 1.233 0.33 0.365 0.146 0.791 0.35 1.312 0.537 0.519 0.188 1.076 0.456 1.725 0.677 0.653 0.211 1.331 0.515 2.102 0.722 0.378 0.119 0.77 0.241 1.173 0.367 0.408 0.104 0.827 0.212 1.258 0.322 0.85 0.248 1.773 0.383 2.71 0.578 0.949 0.142 1.926 0.293 2.94 0.363v-2e-3c2.591 0.232 5.213 0.057 7.735-0.542 1.695-0.402 3.335-1.011 4.899-1.78 0.142-0.521 0.266-1.039 0.43-1.563 0.65-2.054 1.367-4.106 2.308-6.23l-3e-3 -1e-3c1.041-2.324 2.254-4.57 3.612-6.726-1.702 0.369-3.393 0.542-4.717 0.552-0.779 8e-3 -1.43-0.02-1.891-0.055-0.461-0.024-0.728-0.066-0.745-0.064l-0.165-0.019v-1e-3c-4.349-0.494-7.875-2.462-9.961-4.237-2.121-1.79-2.953-3.294-2.821-3.418 0.164-0.171 1.522 0.785 3.811 1.906 2.28 1.125 5.556 2.338 9.306 2.723v-2e-3c3.384 0.378 6.868-0.159 10.026-1.462 1.047-1.358 2.152-2.67 3.332-3.919 0.889-0.943 1.827-1.84 2.793-2.71-0.353-0.043-0.689-0.099-0.985-0.142-0.422-0.08-0.77-0.177-1.018-0.234-0.249-0.055-0.388-0.112-0.397-0.112l-0.088-0.029 1e-3 -1e-3c-0.574-0.175-1.111-0.408-1.613-0.666-0.494-0.268-0.962-0.547-1.367-0.866-0.831-0.611-1.45-1.314-1.894-1.938-0.235-0.299-0.384-0.627-0.53-0.889-0.145-0.264-0.231-0.517-0.292-0.726-0.124-0.417-0.136-0.67-0.05-0.73 0.086-0.062 0.338 0.024 0.692 0.22 0.176 0.098 0.375 0.226 0.622 0.353 0.246 0.126 0.483 0.304 0.788 0.446 0.582 0.313 1.252 0.672 2.023 0.988 0.375 0.171 0.787 0.314 1.202 0.473 0.421 0.148 0.855 0.296 1.309 0.424v-2e-3c1.155 0.354 2.369 0.52 3.567 0.479 0.717-0.024 1.425-0.132 2.112-0.307 0.743-0.532 1.502-1.041 2.277-1.528-0.057-0.636-0.091-1.246-0.107-1.821-0.05-4.256 0.516-6.855 0.756-6.887 0.307-0.039 0.977 2.606 2.063 6.455 0.566 1.906 1.297 4.095 2.431 6.161 1.13 2.074 2.689 4.058 4.645 5.373 1.828 1.268 4.259 1.732 6.314 1.23 2.057-0.478 3.51-1.96 4.207-4.121 0.347-1.061 0.502-2.248 0.462-3.435-0.026-1.177-0.271-2.395-0.635-3.586-0.753-2.375-2.087-4.619-3.797-6.561-3.432-3.899-8.313-6.589-13.478-8.549-5.155-2.002-10.615-3.21-16.131-3.7-11.046-0.962-22.34 1.225-32.129 6.392-8.879 4.649-17.044 12.168-22.638 20.643 0.952-0.168 1.915-0.28 2.879-0.33 3.832-0.187 7.693 0.427 11.248 2.056 0.886 0.422 1.76 0.889 2.594 1.507 0.417 0.315 0.827 0.658 1.22 1.067 0.386 0.451 0.78 0.839 1.061 1.667 0.349 0.817 0.3 1.812-0.208 2.541-0.467 0.768-1.314 1.224-1.836 1.414l-0.434 0.158-0.321 0.102-0.627 0.197-1.255 0.395c-3.289 1.129-6.534 2.53-9.03 4.64-1.063 0.903-1.906 1.926-2.598 3.124 0.787 0.753 1.437 1.637 1.887 2.627 0.704 1.522 0.909 3.299 0.594 4.933l-2e-3 -1e-3c-0.243 1.282-0.84 2.409-1.574 3.245-0.374 0.433-0.759 0.742-1.068 0.989-0.315 0.246-0.573 0.441-0.785 0.627-0.41 0.344-0.661 0.731-0.788 1.04-0.132 0.311-0.147 0.565-0.246 0.615-0.081 0.047-0.358-0.071-0.571-0.538-0.211-0.459-0.265-1.243 0.075-2.079 0.316-0.819 0.918-1.56 1.223-2.192 0.335-0.665 0.601-1.432 0.74-2.261h-1e-3l0.011-0.063s0.085-0.413 0.081-1.01c-6e-3 -0.595-0.144-1.371-0.485-2.094-0.174-0.381-0.399-0.734-0.637-1.042-0.121 0.168-0.245 0.331-0.366 0.458-0.752 0.858-1.617 1.483-2.535 1.995-1.837 1.005-3.963 1.465-6.068 1.288-2.105-0.192-4.119-1.037-5.739-2.267-0.917-0.703-1.585-1.521-2.151-2.427-0.57-0.896-0.984-1.898-1.214-2.95-0.253-1.098-0.281-2.24-0.127-3.347-0.483 0.183-0.976 0.41-1.466 0.712-0.648 0.445-1.254 1.015-1.746 1.693-1.417 1.956-1.714 4.519-1.591 6.9 0.014 0.277 0.036 0.551 0.058 0.821 0.677 8.158-0.819 12.587-1.567 13.68-0.247 0.362-1.253 0.859-1.092-0.345 0.249-1.872 0.284-3.535 0.243-4.767-4.654 1.966-21.569 10.074-28.549 26.668-7.311 17.38-3.019 32.263 1.072 34.032 9.324-1.696 18.72-3.013 28.152-3.92 1.133-1.615 2.812-2.856 4.698-3.376-1.067-1.41-1.853-2.984-2.398-4.601-1.339-4.093-1.28-8.424-0.346-12.46 0.815-3.268 2.245-6.41 4.346-9.06-0.668-0.137-1.294-0.291-1.852-0.46-1.274-0.31-2.24-0.788-2.905-1.089-0.662-0.317-1.005-0.544-0.978-0.64 0.143-0.519 6.377 0.731 13.728-0.392 7.386-0.94 13.052-3.742 13.273-3.432 0.121 0.151-0.964 1.422-3.208 2.806 0.19 0.173 0.383 0.342 0.56 0.526 1.487 1.537 2.554 3.408 3.269 5.368 1.446 3.936 1.586 8.224 0.809 12.295-0.733 3.513-2.151 6.957-4.428 9.859 14.839-0.267 29.675 0.815 44.322 3.242-0.591-0.903-1.103-1.846-1.537-2.815-0.418-0.866-0.766-1.797-1.031-2.787-0.589-2.006-0.905-4.082-0.993-6.142-0.109-4.144 0.723-8.353 2.786-12.003 1.024-1.819 2.379-3.492 4.095-4.769 0.205-0.153 0.434-0.277 0.65-0.418-3e-3 -2e-3 -7e-3 -5e-3 -0.01-8e-3 -1.992-1.73-2.859-3.16-2.715-3.29 0.269-0.271 5.407 3.411 12.543 5.534 7.073 2.298 13.428 2.072 13.484 2.606 0.012 0.101-0.364 0.269-1.068 0.475-0.705 0.189-1.736 0.504-3.043 0.605-0.577 0.077-1.219 0.127-1.899 0.154 1.644 2.955 2.545 6.287 2.821 9.643 0.269 4.134-0.374 8.418-2.357 12.24-1.004 1.892-2.352 3.672-4.131 5.05-0.052 0.04-0.108 0.075-0.16 0.115 1.16 0.848 2.117 1.993 2.747 3.292 4.463 1.231 8.891 2.61 13.266 4.192 1.353 0.489 2.692 1.02 4.033 1.543 4.036 0.442 6.018-4.034 6.966-7.012 2.158-11.143 1.162-22.919-3.097-33.435m-93.843-129.89c1.398 0.931 2.977 1.815 4.703 2.646 0.331-2.123 0.682-3.713 0.973-4.828-3.014 1.852-5.372 2.152-5.676 2.182m-6.285 81.451c-0.657 1.387-0.841 2.874-0.526 4.284 0.151 0.705 0.431 1.394 0.83 2.014 0.378 0.62 0.879 1.213 1.397 1.603 1.25 0.943 2.684 1.52 4.168 1.664 1.479 0.126 3.023-0.204 4.342-0.927 0.652-0.36 1.259-0.816 1.693-1.314 0.108-0.125 0.216-0.247 0.28-0.367l0.122-0.185 0.141-0.272 0.608-1.207c0.866-1.735 2.172-3.406 3.678-4.667 3.037-2.547 6.558-4.006 10.044-5.215l1.32-0.416 0.661-0.208 0.322-0.102 0.2-0.077c0.315-0.104 0.29-0.145 0.291-0.128v-2e-3c0.029 0.042-0.097-0.136-0.131-0.215-0.095-0.111-0.18-0.229-0.291-0.347-0.232-0.24-0.511-0.476-0.812-0.706-0.612-0.456-1.333-0.845-2.069-1.195-6.065-2.737-13.606-2.371-19.315 1.137-1.431 0.865-2.819 1.93-4.051 3.041-1.182 1.157-2.251 2.414-2.902 3.807m-5.308 62.917c0.882-7.082 5.755-12.306 10.884-11.666 5.13 0.639 8.574 6.898 7.691 13.98-0.319 2.569-1.17 4.887-2.362 6.776 0.113-0.107 0.233-0.206 0.342-0.317 2.574-2.567 4.33-6.01 5.236-9.646 0.846-3.645 0.894-7.554-0.283-11.107-0.598-1.761-1.504-3.417-2.742-4.752-0.281-0.306-0.587-0.586-0.902-0.852-2.115 1.076-4.863 2.066-7.982 2.492-2.17 0.319-4.239 0.305-6.086 0.112-2.167 2.635-3.563 5.889-4.245 9.236-0.631 3.367-0.547 6.885 0.453 10.061-0.174-1.374-0.19-2.825-4e-3 -4.317m74.567 14.729c1.079 0.227 2.157 0.464 3.234 0.707 2.209-0.937 4.119-2.82 5.408-5.088 1.816-3.145 2.59-6.935 2.505-10.679-0.132-3.413-0.983-6.85-2.696-9.802-1.853-0.107-3.898-0.428-5.987-1.093-3.003-0.924-5.551-2.341-7.462-3.743-0.36 0.207-0.711 0.429-1.04 0.687-1.437 1.117-2.599 2.604-3.474 4.246-0.619 1.181-1.085 2.434-1.425 3.723 1.538-2.076 3.621-3.404 5.978-3.53 5.162-0.274 9.654 5.281 10.033 12.407 0.284 5.339-1.828 10.028-5.074 12.165m-75.329 27.69c25.895-2.435 52.014-0.721 77.369 5.077 2.069 0.473 3.853-0.817 3.991-2.92 0.434-6.621 0.869-13.242 1.303-19.863 0.138-2.102-1.422-4.221-3.491-4.693-25.355-5.798-51.474-7.512-77.369-5.077-2.113 0.199-3.936 2.095-4.074 4.197-0.435 6.621-0.869 13.242-1.304 19.863-0.138 2.103 1.462 3.615 3.575 3.416m-68.494 13.998c-0.374-1.049-0.706-2.112-1.048-3.171-2.861 5.975-11.362 21.172-23.857 21.211-12.685 0.04-19.97-10.121-19.97-10.121s15.836 12.701 26.576 1.239c8.238-8.792 11.597-23.982 12.777-31.18-0.99-6.195-1.604-12.437-1.733-18.72-0.055-2.598-0.029-5.205 0.086-7.815-0.317 0.097-0.639 0.169-0.961 0.212-1.304 0.191-2.539 0.016-3.638-0.308-0.669-0.206-1.267-0.446-1.863-0.739-0.526 0.451-1.099 0.872-1.741 1.228-1.073 0.606-2.38 0.997-3.698 0.995-1.321 6e-3 -2.595-0.362-3.68-0.924-0.545-0.28-1.051-0.608-1.525-0.969-0.101-0.079-0.195-0.157-0.29-0.234-1.437 0.654-3.081 0.792-4.574 0.447-1.951-0.429-3.72-1.588-4.902-3.141-1.208-1.543-1.842-3.383-2.103-5.154-0.247-1.777-0.167-3.534 0.123-5.164 0.2-1.21 0.525-2.385 0.911-3.536-2.296 1.078-5.653 2.744-8.709 4.604 0 0 4.996-6.102 8.974-9.395-1.352-0.897-2.514-2.115-3.249-3.6-0.698-1.343-1.058-2.871-1.017-4.449 3e-3 -0.079 0.021-0.16 0.026-0.238-2.142 1.884-3.903 3.998-5.588 6.033-4.021 4.857-8.184 9.873-15.826 8.858-4.019-0.536-6.802-0.166-8.274 1.101-1.445 1.246-2.178 3.774-2.24 7.728-0.701 44.323 18.438 81.926 44.518 87.468 18.963 4.03 31.535-9.639 34.943-13.922-3.4-5.839-6.2-12.021-8.448-18.344m-27.359-73.057c-0.578 1.239-1.132 2.453-1.648 3.669-1.085 2.606-1.947 5.204-2.421 7.847-0.509 2.595-0.249 5.169 0.943 6.899 1.034 1.629 3.15 2.43 4.84 1.855 1.673-0.76 1.628-2.931 2.853-5.893 1.218-2.943 3.557-2.598 3.557-2.598s-1.141 0.69-1.86 2.589c-0.682 1.802-0.816 4.925-1.505 6.477 0.145 0.13 0.303 0.263 0.449 0.372 0.32 0.241 0.656 0.455 0.998 0.629 0.686 0.35 1.388 0.53 2.065 0.526 0.677-6e-3 1.35-0.194 2.009-0.569 0.648-0.362 1.276-0.883 1.852-1.503 0.855-1.117 0.911-2.678 1.937-5.261 1.074-2.705 3.174-2.551 3.174-2.551s-0.69 0.489-1.41 2.387c-0.559 1.477-0.656 3.781-1.015 5.327 0.532 0.257 1.173 0.503 1.74 0.63 0.737 0.175 1.447 0.203 2.028 0.076 0.589-0.121 1.042-0.397 1.461-0.815 0.172-0.185 0.329-0.412 0.482-0.649 0.178-1.989 0.417-3.974 0.71-5.952-1.564-2.371-6.949-8.842-21.239-13.492m-1.457-8.568-1.735 0.327-1.628 0.282c-0.702 0.129-1.193 0.42-1.554 0.824-0.351 0.413-0.585 1.005-0.626 1.701-0.025 0.693 0.118 1.458 0.465 2.138 0.646 1.334 1.917 2.287 3.482 2.676 0.377-0.399 0.749-0.805 1.156-1.172 0.119-0.107 0.245-0.207 0.367-0.311 2.325-3.208 3.281-5.814 3.667-7.317-1.198 0.33-2.399 0.61-3.594 0.852m279.94 57.324c-2.723 18.516-19.816 70.764-50.778 75.325-16.571 2.443-28.041-8.959-33.408-17.836-2.565 2.767-5.279 5.4-8.171 7.832-4.309 3.666-9.107 6.933-14.152 9.561-10.097 5.277-21.307 8.533-32.771 8.954l-2.147 0.087c-0.358 0.016-0.717 8e-3 -1.076-5e-3 2.983 3.729 5.586 8.491 5.606 13.792 0.029 7.556-6.525 14.023-6.804 14.295l-0.328 0.251c-13.776 7.697-39.453 6.748-41.765 6.571-2.313-0.176 22.704-10.986 26.731-18.972 3.197-6.339-3.634-16.654-6.116-20.059-1.912 0.735-3.882 1.275-5.862 1.661-0.304 3.856-1.42 9.446-5.109 13.311-2.867 3.004-6.753 4.445-11.549 4.274-2.927-0.103-6.494-0.467-10.27-0.854-11.918-1.221-28.524-3.114-33.475 3.491-2.641 3.524-0.927 12.086-0.117 14.058 1.044 2.541-25.936-3.529-38.33-26.431 0.05-2.153 6.74-16.093 39.68-9.349 21.429 4.386 32.916 4.688 38.406 1.01 0.047-0.032 0.088-0.069 0.133-0.101-0.611-0.13-1.223-0.259-1.829-0.404-6.852-1.671-13.411-4.318-19.534-7.75-6.102-3.429-11.848-7.723-16.67-12.841-3.363-3.447-6.384-7.182-9.1-11.121-5.652 6.368-19.755 18.921-40.249 14.57-14.088-2.993-26.915-14.031-36.119-31.078-9.315-17.253-14.24-39.716-13.868-63.252 0.097-6.123 1.57-10.205 4.637-12.848 3.071-2.647 7.548-3.537 13.692-2.716 3.7 0.491 5.721-1.735 9.596-6.416 5.194-6.273 12.069-14.581 28.071-14.58 1.394 0 2.868 0.071 4.406 0.204 1.454-1.099 2.951-2.381 4.407-3.639 3.142-2.743 6.654-5.951 9.766-8.875 1.289-4.066 4.915-7.829 12.488-14.207 20.405-17.182 31.834-25.236 31.834-25.236 2.378-5.14 6.674-10.279 6.674-10.279 1.817-4.845 2.255-7.424 2.572-8.89l-3.085-3.256c-22.067-1.32-37.307-14.278-32.186-29.832 6.004-18.238 24.422-33.262 36.969-30.543 0 0 7.097-4.094 13.368-6.538 0 0 13.812-12.761 28.847-10.613 8.49 1.213 7.671 17.796 1.611 29.916-1.814 3.627-3.868 6.229-5.86 8.104 7.893-1.029 18.998 0.381 18.632 0.66-4.654 3.548-8.211 7.129-10.528 11.004 3.181 0.73 6.552 1.269 10.063 1.573 0.333-0.906 0.608-1.701 0.794-2.276l0.38-1.173s1.789 1.419 3.756 3.714c3.077 0.062 6.218-0.06 9.394-0.407l-1.241-2.942s-8.438-2.609-8.591-19.33c-0.154-16.723 6.129-30.201 14.21-27.328 13.865 4.928 20.769 22.571 20.769 22.571 4.909 4.602 9.972 11.046 9.972 11.046 12.657 2.148 23.166 22.936 22.936 42.113-0.125 10.377-3.14 14.107-5.445 15.445 0.349 0.355 0.704 0.701 1.037 1.077 2.094 2.38 3.791 5.185 4.783 8.313 0.979 3.096 1.249 6.644 0.158 9.994-0.536 1.675-1.466 3.318-2.805 4.653-1.189 1.176-2.691 2.012-4.245 2.493 3.107 2.684 6.198 5.411 9.213 8.256 2.27 2.187 4.51 4.42 6.637 6.832l1.565 1.856c0.516 0.629 1.002 1.307 1.502 1.959 0.49 0.67 0.939 1.41 1.406 2.114 0.218 0.38 0.421 0.786 0.629 1.179 0.204 0.401 0.426 0.769 0.58 1.252 0.342 0.765 0.549 1.577 0.685 2.396 2.956 3.09 6.405 6.612 9.372 9.493 1.602 1.54 3.26 3.13 4.854 4.41 1.576 1.239 3.434 2.329 5.322 3.196 1.906 0.88 3.943 1.561 6.048 2.142l1.593 0.416 1.709 0.42c1.509 0.378 3.085 1.317 4.117 2.72 1.035 1.401 1.472 3.1 1.443 4.672-0.042 1.579-0.483 3.086-1.25 4.39-0.636 1.128-1.527 2.074-2.548 2.832 7.108 3.346 11.052 9.3 12.952 19.352 0.364 1.93 1.015 2.231 3.45 3.077 5.024 1.748 9.776 4.506 7.926 17.09" clip-path="url(#clipPath22-0)"/>
   <path transform="matrix(.35278 0 0 -.35278 4.3277 102.45)" d="m0 0c-1.074 0.729-2.886 1.424-4.968 1.155-1.035-0.12-1.986-0.497-2.789-0.931-0.79-0.476-1.444-0.993-1.917-1.517-0.966-1.025-1.293-1.893-1.197-1.972 0.18-0.21 2.673 2.032 6.051 2.406 1.67 0.219 3.245-5e-3 4.396-0.291 1.153-0.267 1.919-0.476 1.993-0.329 0.056 0.103-0.467 0.761-1.569 1.479" clip-path="url(#clipPath24-2)"/>
   <path transform="matrix(.35278 0 0 -.35278 20.309 94.299)" d="m0 0c-1.538 0.825-3.483 1.604-5.745 2.142-2.275 0.526-4.821 0.782-7.501 0.647-2.679-0.138-5.213-0.654-7.397-1.433-1.094-0.383-2.109-0.807-3.023-1.273-0.921-0.448-1.742-0.935-2.468-1.405-1.461-0.931-2.517-1.851-3.217-2.506-0.681-0.684-1.014-1.104-0.95-1.19s0.576 0.094 1.423 0.496c0.865 0.373 2.07 0.964 3.596 1.56 0.759 0.304 1.593 0.62 2.499 0.908 0.9 0.306 1.876 0.576 2.905 0.827 2.057 0.511 4.355 0.845 6.784 0.971 2.427 0.123 4.776 0.019 6.857-0.252 2.095-0.283 3.974-0.721 5.523-1.197 3.11-0.939 4.903-2.026 5.052-1.833 0.129 0.13-1.235 1.884-4.338 3.538" clip-path="url(#clipPath26-4)"/>
   <path transform="matrix(.35278 0 0 -.35278 35.815 117.62)" d="m0 0c1.994-1.073 3.227 2.817 2.646 5.926-1.15 6.156-9.109 1.476-9.262-4.659-0.154-6.137 4.621-0.193 6.616-1.267" clip-path="url(#clipPath28-1)"/>
   <path transform="matrix(.35278 0 0 -.35278 27.392 72.299)" d="m0 0c0-0.89-0.721-1.611-1.611-1.611-0.889 0-1.611 0.721-1.611 1.611s0.722 1.611 1.611 1.611c0.89 0 1.611-0.721 1.611-1.611" clip-path="url(#clipPath30-9)"/>
   <path transform="matrix(.35278 0 0 -.35278 27.798 79.037)" d="m0 0c0-0.89-0.721-1.611-1.611-1.611-0.889 0-1.611 0.721-1.611 1.611s0.722 1.611 1.611 1.611c0.89 0 1.611-0.721 1.611-1.611" clip-path="url(#clipPath32-4)"/>
   <path transform="matrix(.35278 0 0 -.35278 .56105 74.085)" d="m0 0c0-0.89-0.721-1.611-1.611-1.611-0.889 0-1.611 0.721-1.611 1.611s0.722 1.611 1.611 1.611c0.89 0 1.611-0.721 1.611-1.611" clip-path="url(#clipPath34-8)"/>
   <path transform="matrix(.35278 0 0 -.35278 1.0887 80.864)" d="m0 0c0-0.89-0.721-1.611-1.611-1.611-0.889 0-1.611 0.721-1.611 1.611s0.722 1.61 1.611 1.61c0.89 0 1.611-0.72 1.611-1.61" clip-path="url(#clipPath36-0)"/>
   <path transform="matrix(.35278 0 0 -.35278 4.5729 77.03)" d="m0 0c-0.396-1.149-0.722-2.225-0.977-3.229l0.153-0.014c3.684-0.3 4.389 2.617 4.388 2.608 1e-3 2e-3 -1.355 0.485-3.564 0.635m2.075 5.184c-1e-3 -0.011 3.812-2.217 5.198-5.823-0.655-3.174-3.498-5.102-8.514-4.852-0.553-1.748-0.673-3.918-0.673-3.918 0-4e-3 -2.637 1.273-4.257 3.213 0.39 2.239 0.78 4.479 1.17 6.721-0.507 1.441-0.846 3.354-0.846 3.354 1e-3 0.011 2.859 1.661 7.922 1.305" clip-path="url(#clipPath38-8)"/>
   <path transform="matrix(.35278 0 0 -.35278 10.523 78.567)" d="m0 0c0.672 6.504 0.102 9.703 0.103 9.703-1e-3 -4e-3 2.829-1.158 4.784-1.505-0.16-7.195-1.401-12.297-1.401-12.296-1.973-0.071-4.243-0.918-4.242-0.916-0.908 2.574-1.816 5.155-2.723 7.743 0 0-0.535-2.796-1.009-7.796-1e-3 -3e-3 -2.519 0.905-3.882 2.469 0.201 5.587 1.692 9.911 1.692 9.913 0 1e-3 1.889 0.667 4.5 1.007 0.726-2.779 1.452-5.552 2.178-8.322" clip-path="url(#clipPath40-7)"/>
   <path transform="matrix(.35278 0 0 -.35278 14.582 76.686)" d="m0 0c1.357 1.521 1.501 4.438 1.501 4.437 0 0-1.336 0.624-3.127 0.781 1e-3 0-0.772-1.392-2.161-2.115 0.982-2.133 3.787-3.109 3.787-3.103" clip-path="url(#clipPath42-1)"/>
   <path transform="matrix(.35278 0 0 -.35278 13.023 79.551)" d="m0 0c0 4e-3 0.952-1.04 3.681-2.046-0.452 5.379 1.704 8.986 1.704 8.99 0 0-2.254 0.804-4.85 1.094 0-1e-3 -0.925-2.798-0.535-8.038" clip-path="url(#clipPath44-4)"/>
   <path transform="matrix(.35278 0 0 -.35278 17.713 77.396)" d="m0 0c-1.151-1.201-2.029-2.945-2.602-4.269-0.044-0.8-0.058-1.648-0.066-2.574-2.27 0.283-3.421 1.187-3.421 1.184-0.128 4.146 0.15 7.688 0.15 7.689 1.462 0.464 2.925 0.947 4.387 1.447 0 0-0.41-1.435-0.711-3.985 1.071 2.279 2.383 3.753 3.484 3.903 0.947 0.128 2.082-0.864 3.22-2.948 0-2e-3 -1.421-3.474-1.234-7.372 1e-3 -4e-3 -2.435 0.394-3.614 1.303 0.868 4.295 0.407 5.622 0.407 5.622" clip-path="url(#clipPath46-9)"/>
   <path transform="matrix(.35278 0 0 -.35278 20.938 75.827)" d="m0 0c0.297 1.106 0.594 2.213 0.891 3.32 0-1e-3 -1.483 0.443-2.828 1.475 0-1e-3 -1.22-0.977-2.146-3.123 1.506-1.822 4.083-1.675 4.083-1.672" clip-path="url(#clipPath48-5)"/>
   <path transform="matrix(.35278 0 0 -.35278 19.51 80.709)" d="m0 0c0-5e-3 3.028 1.021 5.121 3.498-0.45 5.329 1.556 9.303 1.556 9.306 0 0-2.241 0.556-4.829 0.56 0 2e-3 -0.132-9.318-1.848-13.364" clip-path="url(#clipPath50-2)"/>
   <path transform="matrix(.35278 0 0 -.35278 24.398 77.26)" d="m0 0c0.099 1.436 0.467 3.088 0.995 4.679-2.678-2.21-3.595-5.168-3.215-6.449 0 0 1.095 0.219 2.22 1.77m4.844 5.683c-0.33-1.808-1.301-3.678-1.301-3.677 0 0 0.124-2.356 0.811-3.947-0.709-0.529-1.419-1.053-2.129-1.572-1.186-0.014-1.802 0.611-2.082 1.596-0.788-1.214-1.922-2.296-2.66-2.459-1.678-0.375-3.298 1.222-3.388 2.437-0.181 2.411 1.617 6.763 5.782 7.736 0.559 0.132 1.102 0.135 1.476-0.03 0.187 0.491 0.374 0.982 0.561 1.473 2.034-0.262 2.929-1.555 2.93-1.557" clip-path="url(#clipPath52-1)"/>
  </g>
  <g fill="#fff">
   <path transform="matrix(.35278 0 0 -.35278 20.43 135.58)" d="m0 0-1.898-4.18 3.145 0.076 1.629 3.932z" clip-path="url(#clipPath54-7)"/>
   <path transform="matrix(.35278 0 0 -.35278 30.497 137.26)" d="m0 0s2.646-3.269 3.126-5.104c0 0 18.647 13.023 16.339 40.537 0 0-3.006-25.734-19.465-35.433" clip-path="url(#clipPath56-0)"/>
   <path transform="matrix(.35278 0 0 -.35278 -2.3945 143.28)" d="m0 0s3.146 7.391 10.128 11.737c0 0 2.469-0.216 5.23-1.424 0 0-1.589-1.016-2.953-2.072-1.304 0.691-2.685 0.959-2.685 0.959s-3.989-1.649-9.72-9.2" clip-path="url(#clipPath58-9)"/>
   <path transform="matrix(.35278 0 0 -.35278 -4.6161 146.45)" d="m0 0s3.994-2.432 9.135-4.48c0.417 1.667 0.784 2.91 1.628 5.288 0 0-1.534-0.997-2.876-2.877-4.238 1.98-7.374 4.46-7.374 4.46s-0.513-1.523-0.513-2.391" clip-path="url(#clipPath60-2)"/>
   <path transform="matrix(.35278 0 0 -.35278 23.901 135.68)" d="m0 0s12.58-2.379 16.799-11.891l-2.646-3.49s-0.345 1.439-1.784 3.452c0 0 0.815 0.758 1.208 1.266-3.643 7.287-13.577 10.663-13.577 10.663" clip-path="url(#clipPath62-2)"/>
   <path transform="matrix(.35278 0 0 -.35278 21.033 140.84)" d="m0 0s11.521-1.846 14.704-9.248c0 0 0.139 0.234 0.715 0.914 0 0-0.624 2.408-1.267 3.616-0.955 0.934-4.237 4.852-14.152 4.718" clip-path="url(#clipPath64-8)"/>
   <path transform="matrix(.35278 0 0 -.35278 24.984 139.46)" d="m0 0s4.641-1.88 6.213-5.639l-1.262-1.439c0.738-0.881 1.224-1.823 1.574-2.796 1.184 1.129 1.836 1.857 2.757 3.047 0 0-1.995 5.58-9.282 6.827" clip-path="url(#clipPath66-6)"/>
   <path transform="matrix(.35278 0 0 -.35278 2.2486 146.63)" d="m0 0s5.308 10.085 13.303 11.09c0 0-0.525 0.67-1.018 1.412 0 0-1.382 0.035-3.492-0.233-1.161-0.66-6.251-3.874-8.793-12.269" clip-path="url(#clipPath68-7)"/>
   <path transform="matrix(.35278 0 0 -.35278 1.1657 143.61)" d="m0 0s3.327 4.355 8.022 6.547l1.252-1.018c0.747 0.665 1.643 1.357 2.544 1.954-1.285 1.012-2.099 1.554-3.406 2.296 0 0-5.573-3.405-8.412-9.779" clip-path="url(#clipPath70-2)"/>
   <path transform="matrix(.35278 0 0 -.35278 18.949 144.74)" d="m0 0s12.542-1.305 14.728-7.748c0 0 0.46 2.531-0.23 4.372-0.375 1.001-4.43 4.603-14.498 3.376" clip-path="url(#clipPath72-4)"/>
   <path transform="matrix(.35278 0 0 -.35278 8.774 146.53)" d="m 0,0 c 0,0 -6.367,-1.457 -10.739,-8.821 0,0 1.074,5.983 4.449,8.208 C -3.269,1.378 0,0 0,0" clip-path="url(#clipPath74-0)"/>
   <path transform="matrix(.35278 0 0 -.35278 20.14 128.72)" d="m0 0s-2.8-7.422-0.46-13.501c1.195-3.104 5.197-3.299 5.197-3.299s-4.66 4.085-4.737 16.8" clip-path="url(#clipPath76-6)"/>
   <path transform="matrix(.35278 0 0 -.35278 -5.4736 129.88)" d="m 0,0 c 11.966,-7.824 14.114,-18.275 14.114,-18.275 -6.213,-4.776 -7.536,-10.989 -7.536,-10.989 6.731,7.939 12.139,8.515 12.139,8.515 C 16.128,-4.698 0,0 0,0" clip-path="url(#clipPath78-5)"/>
   <path transform="matrix(.35278 0 0 -.35278 -12.888 142.91)" d="m0 0s6.789-6.674 16.061-7.432c0 0-0.01 3.749 2.004 9.042 0 0-2.819-2.358-4.296-6.021 0 0-5.753 0.077-13.769 4.411" clip-path="url(#clipPath80-8)"/>
   <path transform="matrix(.35278 0 0 -.35278 25.659 51.468)" d="m0 0c-4.376 2.289-8.972 4.165-13.709 5.562-4.728 1.394-9.6 2.311-14.517 2.665-5.178 0.372-10.115 0.297-15.231-0.611-0.852-0.152-1.534-0.311-2.374-0.521-0.426-0.098-1.288-0.314-1.711-0.423 13.506 0.222 29.075-2.247 43.873-10.634-1.248-0.151-2.271-0.644-2.898-1.515-1.808-2.509 0.32-7.133 4.755-10.327 4.434-3.195 9.494-3.751 11.302-1.242 0.635 0.883 0.775 2.029 0.508 3.28 7.585-6.724 14.683-15.464 20.835-26.748 1.755 0.901 3.391 2.001 4.897 3.256-3.222 5.99-6.95 11.685-11.26 16.907-6.835 8.248-15.04 15.454-24.47 20.351" clip-path="url(#clipPath82-3)"/>
   <path transform="matrix(.35278 0 0 -.35278 43.327 79.387)" d="m0 0c-0.541 3.059-1.219 6.1-1.967 9.125-1.379-0.721-2.745-1.548-4.105-2.517 1.721-6.576 4.803-21.167 3.233-36.726 1.47 1.443 2.852 2.932 4.141 4.473 0.703 8.511 0.155 17.155-1.302 25.645" clip-path="url(#clipPath84-6)"/>
   <path transform="matrix(.35278 0 0 -.35278 39.266 100.97)" d="m0 0c5.956 8.096 9.897 17.562 11.744 27.49-0.591-1.152-1.214-2.286-1.88-3.389-4.521-7.493-10.689-14.141-17.586-19.493-0.513-0.397-1.04-0.776-1.563-1.161 3.177 1.588 8.168 4.208 11.679 6.647 0 0-0.524-4.982-5.143-13.528 0.958 1.111 1.877 2.254 2.749 3.434" clip-path="url(#clipPath86-1)"/>
   <path transform="matrix(.35278 0 0 -.35278 30.017 71.406)" d="m0 0s10.279 0.153 22.667 2.646c0 0 3.008-4.915 5.217-13.243 2.103 1.04 4.192 2.11 6.249 3.239-1.577 5.376-3.452 10.669-5.6 15.826-0.289 0.689-0.6 1.369-0.902 2.053-1.427-0.928-4.504-2.681-10.448-5.113-7.595-3.107-17.183-5.408-17.183-5.408" clip-path="url(#clipPath88-3)"/>
   <path transform="matrix(.35278 0 0 -.35278 -10.06 73.138)" d="m0 0s7.109-2.455 17.761-4.578c-0.088 1.078-0.169 2.158-0.235 3.236-5.13 0.275-10.983 0.698-17.526 1.342" clip-path="url(#clipPath90-4)"/>
   <path transform="matrix(.35278 0 0 -.35278 15.011 132.92)" d="m0 0s-0.148-3.777-1.899-7.848c1.425 1.361 4.126 4.316 5.54 8.311-1.782 2.379-6.198 7.664-9.123 8.611-1.927 0.623-3.988 1.075-5.937 1.335 0.919-0.454 4.736-2.382 6.28-3.774 2.934-2.647 5.139-6.635 5.139-6.635" clip-path="url(#clipPath92-0)"/>
   <path transform="matrix(.35278 0 0 -.35278 11.602 139.27)" d="m0 0c-7.071 5.311-9.875 11.479-9.408 19.016-0.553-1.553-3.334-10.5 3.387-17.099 0 0-2.876-0.929-6.1-1.6 4.141-0.714 9.445-0.496 12.121-0.317" clip-path="url(#clipPath94-1)"/>
   <path transform="matrix(.35278 0 0 -.35278 -23.801 92.9)" d="m0 0c2.331-2.681 4.779-5.26 7.343-7.712 3.822-3.656 7.959-6.967 12.344-9.905-8.523 8.735-15.256 19.862-15.256 19.862-5.294 13.861-7.325 26.337-8.104 34.031-0.127-1.862-0.217-3.725-0.255-5.589-0.221-10.386 0.922-20.84 3.928-30.687" clip-path="url(#clipPath96-1)"/>
   <path transform="matrix(.35278 0 0 -.35278 41.626 104.48)" d="m0 0c1.755 2.265 3.483 4.694 4.77 7.262 1.191 2.378 0.782 5.235-0.176 7.618-0.262 0.653-0.59 1.282-0.948 1.893-0.768-1.526-1.595-3.021-2.467-4.49 0.245-1.511 0.098-3.491-1.141-5.874-2.86-5.5-15.681-17.164-20.805-26.416 4.448 3.895 8.868 7.782 13.064 11.839 2.692 2.606 5.403 5.2 7.703 8.168" clip-path="url(#clipPath98-0)"/>
   <path transform="matrix(.35278 0 0 -.35278 46.733 97.727)" d="m0 0c1.116 1.033 2.214 2.052 3.387 3.064-1.109 1.29-4.231 4.553-9.277 7.171-0.061-0.212-0.13-0.422-0.193-0.633 2.386-3.024 4.8-6.254 4.8-6.254l-2.231-2.625c0.633-1.045 1.14-1.967 1.49-2.638 0.616 0.587 1.273 1.209 2.024 1.915" clip-path="url(#clipPath100-9)"/>
   <path transform="matrix(.35278 0 0 -.35278 44.291 99.42)" d="m0 0c0.191-0.459 0.361-0.929 0.517-1.405 1.12 1.126 2.097 2.092 3.143 3.103-1.14 3.374-2.794 6.046-4.387 8.058-0.145-0.391-0.305-0.776-0.457-1.163l1.607-5.048-1.318-1.724c0.326-0.593 0.631-1.198 0.895-1.821" clip-path="url(#clipPath102-6)"/>
   <path transform="matrix(.35278 0 0 -.35278 48.403 96.25)" d="m0 0c0.2 0.161 0.39 0.322 0.597 0.483 0.844 0.638 1.708 1.204 2.586 1.732-3.979 6.727-8.598 10.845-11.755 13.094-0.021-0.138-0.034-0.277-0.056-0.414-0.014-0.084-0.034-0.166-0.048-0.25 3.246-4.479 7.262-10.421 7.262-10.421l-1.408-1.644c1-0.789 1.96-1.643 2.822-2.58" clip-path="url(#clipPath104-4)"/>
   <path transform="matrix(.35278 0 0 -.35278 50.66 94.868)" d="m0 0c0.393 1.479 1.566 5.022 4.543 8.881 0 0-7.112 0.955-14.619 4.602 4.757-3.776 10.472-6.734 10.472-6.734-1.855-2.491-3.508-3.828-4.364-4.429 1.014-1.447 1.693-2.629 2.043-3.286 0.631 0.34 1.273 0.663 1.925 0.966" clip-path="url(#clipPath106-7)"/>
   <path transform="matrix(.35278 0 0 -.35278 -29.661 98.491)" d="m0 0c1.028 1.244 2.214 2.373 3.46 3.39l-1.75 1.203s1.301 4.577 5.056 10.313c-2.95-2.537-6.81-6.669-10.049-12.871 0.904-0.48 1.795-0.998 2.67-1.59 0.212-0.147 0.407-0.297 0.613-0.445" clip-path="url(#clipPath108-8)"/>
   <path transform="matrix(.35278 0 0 -.35278 -27.164 100.52)" d="m0 0c0.449 0.989 1.19 2.511 2.175 4.198l-2.173 1.69s1.95 4.145 4.677 7.277c-5.798-3.022-9.215-7.005-10.345-8.475 1.226-0.949 2.376-1.909 3.545-2.881 0.797-0.673 1.483-1.259 2.121-1.809" clip-path="url(#clipPath110-6)"/>
   <path transform="matrix(.35278 0 0 -.35278 -31.29 97.536)" d="m0 0c0.382 0.821 1.197 2.426 2.487 4.369l-4.175 2.772s4.655 3.017 8.6 7.362c-7.012-3.906-13.548-5.329-13.548-5.329 2.457-3.148 3.828-6.407 4.472-8.234 0.733-0.29 1.454-0.604 2.164-0.94" clip-path="url(#clipPath112-5)"/>
   <path transform="matrix(.35278 0 0 -.35278 -11.213 114.78)" d="m0 0c-3.6 4.099-9.16 9.697-17.673 16.933-12.522 10.641-16.765 17.386-16.728 25.368-1.658-3.221-3.965-9.668 0.543-14.937 5.199-6.077 16.942-16.018 33.858-27.364" clip-path="url(#clipPath114-6)"/>
   <path transform="matrix(.35278 0 0 -.35278 -24.897 100.19)" d="m0 0-1.053 0.958s1.06 4.434 2.625 8.569c-1.95-1.975-5.105-5.871-6.703-11.594 1.017-0.895 1.966-1.75 3.066-2.751 0.41 1.582 1.075 3.239 2.065 4.818" clip-path="url(#clipPath116-6)"/>
   <path transform="matrix(.35278 0 0 -.35278 .23635 121.33)" d="m 0,0 c -10.509,-0.344 -17.654,3.535 -21.708,6.719 1.994,-3.251 4.771,-6.769 8.199,-8.614 C -6.731,-2.797 0,0 0,0" clip-path="url(#clipPath118-5)"/>
   <path transform="matrix(.35278 0 0 -.35278 -24.784 76.95)" d="m0 0c1.041-0.295 2.085-0.571 3.127-0.859 1.212 7.204 3.822 15.767 3.822 15.767s4.64-0.499 15.38-0.345c-8.84 2.156-15.053 4.345-17.974 5.459-1.486-4.817-2.679-9.731-3.544-14.709-0.306-1.764-0.573-3.536-0.811-5.313" clip-path="url(#clipPath120-0)"/>
   <path transform="matrix(.35278 0 0 -.35278 12.563 60.88)" d="m0 0s2.762-12.273 2.762-26.234l3.758 0.153s-2.071 15.802-6.52 26.081" clip-path="url(#clipPath122-1)"/>
   <path transform="matrix(.35278 0 0 -.35278 8.3731 129.15)" d="m0 0c-5e-3 -2e-3 -0.01-3e-3 -0.014-4e-3 -0.909-0.267-2.164-0.555-3.709-0.788 1.471-1.771 4.065-2.332 5.629-2.508 0.284-0.027 0.567-0.054 0.835-0.061-0.393 0.7-1.497 2.082-2.741 3.361" clip-path="url(#clipPath124-0)"/>
   <path transform="matrix(.35278 0 0 -.35278 6.7985 123.25)" d="m0 0c1.428 5.041 4.373 10.585 4.373 10.585l-3.268 4.065c-1.703-3.608-4.083-9.559-4.522-15.502-0.288-3.906 0.073-8.588 0.414-11.753 0.881 3.633 1.838 8.492 3.003 12.605" clip-path="url(#clipPath126-2)"/>
   <path transform="matrix(.35278 0 0 -.35278 16.892 126.1)" d="m0 0s-6.736-4.443-13.038-6.771l5.871-1.175c2.159 1.634 5.11 4.313 7.167 7.946" clip-path="url(#clipPath128-8)"/>
   <path transform="matrix(.35278 0 0 -.35278 -5.1759 126.66)" d="m0 0-0.499-0.307s10.204-11.974 27.427-13.291c-0.903 1.686-1.609 3.416-1.764 5.404-6.94 0.455-15.732 2.503-25.164 8.194" clip-path="url(#clipPath130-3)"/>
   <path transform="matrix(.35278 0 0 -.35278 7.2504 131.85)" d="m0 0c1.381-0.126 3.705 1.457 5.049 2.7-1.725 0.124-6.737 0.697-9.418 3.24-0.346-0.892-0.803-2.159-0.973-3.052-0.01-0.049 0.024-0.206 0.217-0.455 0.854-1.101 3.44-2.329 5.125-2.433" clip-path="url(#clipPath132-8)"/>
   <path transform="matrix(.35278 0 0 -.35278 13.11 42.638)" d="m0 0c-0.114-4.667-2.098-9.68-2.902-11.531 0.053 4e-3 0.107 0.01 0.16 0.015 3.36 3.513 6.913 8.518 6.933 14.002 0.022 5.545-4.744 10.756-5.623 11.669-7.271 4.172-19.549 5.48-27.615 5.877 0.235-0.118 0.468-0.238 0.702-0.357 4.793-1.357 16.727-4.971 22.873-8.928 0 0 5.629-4.304 5.472-10.747" clip-path="url(#clipPath134-1)"/>
   <path transform="matrix(.35278 0 0 -.35278 -29.418 44.392)" d="m0 0c3.009 2.565 11.844 9.439 22.62 11.771 0 0 1.165-9.51 16.755-10.869 10.97-0.957 19.665 1.656 28.808 3.658-0.236-0.024-0.469-0.048-0.706-0.072-13.404-1.374-30.085-3.081-36.496 4.736-2.444 2.981-3.156 7.051-2.127 12.126-5.992-1.863-20.324-7.591-28.854-21.35" clip-path="url(#clipPath136-4)"/>
   <path transform="matrix(.35278 0 0 -.35278 -14.454 106.7)" d="m0 0c10.185-8.324 22.482-13.908 35.417-16.289 0.518-0.098 1.038-0.176 1.557-0.262-6.581 7.324-8.257 15.875-8.257 15.875-0.614-5.983 0.23-10.202 0.23-10.202-15.38 3.275-28.145 11.311-35.171 16.507 1.986-1.974 4.052-3.866 6.224-5.629" clip-path="url(#clipPath138-7)"/>
   <path transform="matrix(.35278 0 0 -.35278 26.94 84.321)" d="m0 0c-0.056-1.46-1.285-2.599-2.745-2.543-1.461 0.056-2.6 1.285-2.544 2.745 0.056 1.461 1.285 2.6 2.746 2.544 1.46-0.057 2.599-1.285 2.543-2.746" clip-path="url(#clipPath140-4)"/>
   <path transform="matrix(.35278 0 0 -.35278 23.744 85.654)" d="m0 0c0-0.771-0.625-1.396-1.395-1.396-0.771 0-1.396 0.625-1.396 1.396s0.625 1.395 1.396 1.395c0.77 0 1.395-0.624 1.395-1.395" clip-path="url(#clipPath142-2)"/>
   <path transform="matrix(.35278 0 0 -.35278 4.7711 84.143)" d="m0 0c-1.249 0.054-2.498 0.112-3.747 0.185-0.623-0.569-0.966-1.423-0.84-2.323 0.202-1.447 1.54-2.457 2.987-2.254 1.448 0.203 2.457 1.539 2.255 2.988-0.076 0.544-0.313 1.025-0.655 1.404" clip-path="url(#clipPath144-6)"/>
   <path transform="matrix(.35278 0 0 -.35278 2.1058 86.583)" d="m0 0c0-0.771-0.625-1.396-1.396-1.396-0.77 0-1.395 0.625-1.395 1.396s0.625 1.396 1.395 1.396c0.771 0 1.396-0.625 1.396-1.396" clip-path="url(#clipPath146-9)"/>
  </g>
 </g>
</svg>
