<svg xmlns="http://www.w3.org/2000/svg" width="128" height="128" viewBox="0 0 33.867 33.867"><circle cx="16.933" cy="16.933" r="16.933" style="fill:#6a7dcc;fill-opacity:1;stroke-width:.0652301;stroke-linecap:round;stroke-linejoin:round;-inkscape-stroke:none;paint-order:stroke fill markers"/><path d="m27.498 19.081-.021-.02-3.71-3.226a3.095 3.095 0 0 1-1.05-2.588l.41-4.9v-.032a2.516 2.516 0 0 0-2.516-2.495c-.64 0-1.254.252-1.725.704l-.022.021-3.225 3.71a3.087 3.087 0 0 1-2.587 1.05l-4.898-.41h-.032a2.469 2.469 0 0 0-2.294 1.53 2.47 2.47 0 0 0 .503 2.711l.021.022 3.71 3.225a3.095 3.095 0 0 1 1.05 2.588l-.41 4.9v.031a2.516 2.516 0 0 0 2.516 2.496c.64 0 1.254-.252 1.725-.704l.021-.021 3.226-3.71a3.087 3.087 0 0 1 2.587-1.05l4.898.41h.032A2.469 2.469 0 0 0 28 21.793a2.47 2.47 0 0 0-.503-2.712z" class="st3" style="fill:#fff;stroke-width:.264586"/><circle cx="-11.649" cy="20.918" r="3.003" class="st4" style="fill:#100d19;stroke-width:.264593" transform="rotate(-74.128)"/></svg>