<?xml version="1.0" encoding="UTF-8" standalone="no"?>
<svg
   width="128"
   height="128"
   viewBox="0 0 33.867057 33.867057"
   version="1.1"
   id="svg2"
   sodipodi:docname="icon.svg"
   inkscape:version="1.3.2 (091e20e, 2023-11-25)"
   inkscape:export-filename="icon.png"
   inkscape:export-xdpi="96"
   inkscape:export-ydpi="96"
   xmlns:inkscape="http://www.inkscape.org/namespaces/inkscape"
   xmlns:sodipodi="http://sodipodi.sourceforge.net/DTD/sodipodi-0.dtd"
   xmlns="http://www.w3.org/2000/svg"
   xmlns:svg="http://www.w3.org/2000/svg">
  <defs
     id="defs2" />
  <sodipodi:namedview
     id="namedview2"
     pagecolor="#ffffff"
     bordercolor="#000000"
     borderopacity="0.25"
     inkscape:showpageshadow="2"
     inkscape:pageopacity="0.0"
     inkscape:pagecheckerboard="0"
     inkscape:deskcolor="#d1d1d1"
     inkscape:zoom="2.0195943"
     inkscape:cx="-8.1699576"
     inkscape:cy="62.141193"
     inkscape:window-width="1916"
     inkscape:window-height="1041"
     inkscape:window-x="1080"
     inkscape:window-y="18"
     inkscape:window-maximized="1"
     inkscape:current-layer="svg2" />
  <circle
     style="fill:#393566;fill-opacity:1;stroke-width:0;stroke-linecap:round;stroke-linejoin:bevel;paint-order:markers stroke fill"
     id="path29-3"
     cx="16.933529"
     cy="16.933529"
     r="16.933529" />
  <path
     id="path10-5"
     style="fill:#83b0ff;stroke-width:0.264583"
     class="st2"
     d="M 19.447317,0.1879367 C 27.237474,9.8237231 14.737518,26.818629 8.7017258,12.887877 7.0414697,11.22156 5.0638415,12.630758 4.8820626,15.105997 4.5247548,29.449035 24.508107,31.751861 33.745461,18.624051 A 16.933529,16.933529 0 0 0 33.866778,16.933471 16.933529,16.933529 0 0 0 19.447323,0.1879367 Z" />
  <path
     id="path12-6"
     style="fill:#6a7dcc;stroke-width:0.264583"
     class="st1"
     d="m 18.227515,0.05438293 2.865863,6.43177087 c 0,0 0.196824,1.1661963 1.678336,1.1541357 C 22.919155,5.0925724 22.668187,2.8214304 22.108393,0.81453156 A 16.933529,16.933529 0 0 0 18.227515,0.05438293 Z" />
  <path
     id="path13-2"
     style="fill:#6a7dcc;stroke-width:0.264583"
     class="st1"
     d="m 33.548467,13.666945 c -1.727554,3.103523 -4.264434,5.994562 -8.013282,7.86526 -15.193771,7.583244 -19.8384384,-3.683884 -19.8384384,-3.683884 0,0 -1.251764,12.097278 18.3259304,8.504095 4.263407,-0.782605 7.234457,-2.759961 9.303199,-5.311025 a 16.933529,16.933529 0 0 0 0.540895,-4.10792 16.933529,16.933529 0 0 0 -0.318304,-3.266526 z" />
  <path
     id="path23-9"
     style="fill:#6a7dcc;stroke-width:0.264583"
     class="st1"
     d="m 28.939925,4.9936541 c -1.377625,0.18429 -2.299368,0.1869821 -2.299368,0.1869821 0,0 1.504825,0.7554946 3.589282,1.275448 A 16.933529,16.933529 0 0 0 29.660007,5.7704958 c -0.02847,-0.032434 -0.05587,-0.06573 -0.0846,-0.097928 A 16.933529,16.933529 0 0 0 29.024498,5.0827 c -0.02862,-0.029204 -0.05574,-0.060023 -0.08458,-0.089033 z m -3.796294,8.2035979 c 0,0 3.617931,5.344337 8.16242,4.547537 l -0.03338,-2.98161 c -4.12337,0.566549 -8.129031,-1.565927 -8.129031,-1.565927 z m -4.292671,5.687204 c 0,0 -0.14253,4.540951 3.117391,5.61041 l 1.345563,-1.850845 C 22.426644,21.577585 20.85096,18.884456 20.85096,18.884456 Z" />
  <circle
     style="fill:#505099;fill-opacity:1;stroke-width:0;stroke-linecap:round;stroke-linejoin:bevel;paint-order:markers stroke fill"
     id="circle33-1"
     cx="16.933529"
     cy="16.933529"
     r="16.933529" />
  <path
     id="path33-2"
     style="fill:#83b0ff;stroke-width:0.264583"
     class="st2"
     d="m 19.447523,0.18791085 c 0.0026,0.003231 0.0052,0.006676 0.0078,0.009907 0.03446,0.005169 0.06909,0.009045 0.103505,0.0144296 A 16.933529,16.933529 0 0 0 19.44748,0.1877601 Z m 1.270995,0.28491629 C 27.72148,10.808998 14.725362,27.755625 8.3235273,13.69697 7.6145867,12.606294 6.3688594,12.733729 5.8750258,14.178878 2.9938184,25.703695 22.099192,32.01136 32.257646,19.477661 32.823117,18.818117 33.372694,18.01422 33.84472,17.237282 a 16.933529,16.933529 0 0 0 0.02227,-0.303837 16.933529,16.933529 0 0 0 -0.170291,-2.385065 c -0.0011,-0.0078 -0.0022,-0.01551 -0.0032,-0.02337 a 16.933529,16.933529 0 0 0 -0.50539,-2.336099 c -5.28e-4,-0.0018 -5.86e-4,-0.0037 -0.0011,-0.0056 a 16.933529,16.933529 0 0 0 -0.0011,-0.0045 16.933529,16.933529 0 0 0 -0.826925,-2.2270264 c -0.0071,-0.015507 -0.014,-0.031207 -0.02111,-0.046735 a 16.933529,16.933529 0 0 0 -1.117448,-2.055531 c -0.01465,-0.023087 -0.0297,-0.045981 -0.04452,-0.069004 A 16.933529,16.933529 0 0 0 29.802466,5.934102 C 29.774256,5.901129 29.745226,5.86891 29.716776,5.836153 a 16.933529,16.933529 0 0 0 -1.61045,-1.6204647 c -0.02742,-0.024121 -0.05477,-0.048415 -0.08236,-0.072342 A 16.933529,16.933529 0 0 0 26.164213,2.7399094 c -0.01141,-0.00754 -0.02302,-0.01486 -0.0345,-0.022247 A 16.933529,16.933529 0 0 0 24.044031,1.565751 16.933529,16.933529 0 0 0 20.718518,0.47282714 Z" />
  <path
     id="path34-7"
     style="fill:#6a7dcc;stroke-width:0.264583"
     class="st1"
     d="m 18.227722,0.05435493 0.0011,0.0034459 c 0.05571,0.0043074 0.11128,0.0094762 0.166953,0.01442963 A 16.933529,16.933529 0 0 0 18.235512,0.05543177 c -0.0026,-1.9814e-4 -0.0052,-9.1531e-4 -0.0078,-0.0011134 z m 0.843621,0.08903298 c 0.116729,0.0150757 0.233054,0.0326066 0.349468,0.050073 a 16.933529,16.933529 0 0 0 -0.349468,-0.050073 z m 0.920414,0.14468396 c 0.152438,0.0282347 0.304625,0.0588384 0.456313,0.0912513 a 16.933529,16.933529 0 0 0 -0.456313,-0.0912513 z m 0.702278,0.14690226 c 1.515884,2.21857287 2.101534,4.74404897 2.030031,7.20416317 0.01594,1.508e-4 0.03153,0.00125 0.04785,0.00111 C 22.919362,5.0925358 22.668394,2.8213895 22.1086,0.81449279 A 16.933529,16.933529 0 0 0 20.694035,0.43497413 Z" />
  <path
     id="path35-0"
     style="fill:#6a7dcc;stroke-width:0.264583"
     class="st1"
     d="m 33.548673,13.666919 c -1.727551,3.103519 -4.264436,5.994562 -8.013282,7.865258 C 10.594756,28.989083 5.8652093,18.242618 5.7114196,17.881683 7.232714,26.889916 23.253574,30.587059 32.257646,19.477661 c 0.565786,-0.65991 1.11599,-1.464153 1.588187,-2.241493 a 16.933529,16.933529 0 0 0 0.02111,-0.302723 16.933529,16.933529 0 0 0 -0.07902,-1.610448 c -0.0013,-0.014 -0.002,-0.02828 -0.0032,-0.0423 a 16.933529,16.933529 0 0 0 -0.236018,-1.613786 z" />
  <path
     id="path36-9"
     style="fill:#6a7dcc;stroke-width:0.264583"
     class="st1"
     d="m 28.939925,4.9936541 c -1.377625,0.18429 -2.299368,0.1869821 -2.299368,0.1869821 0,0 1.504825,0.7554946 3.589282,1.275448 A 16.933529,16.933529 0 0 0 29.660007,5.7704958 c -0.02847,-0.032434 -0.05587,-0.06573 -0.0846,-0.097928 A 16.933529,16.933529 0 0 0 29.024498,5.0827 c -0.02862,-0.029204 -0.05574,-0.060023 -0.08458,-0.089033 z m -3.796294,8.2035979 c 0,0 3.617931,5.344337 8.16242,4.547537 l -0.03338,-2.98161 c -4.12337,0.566549 -8.129031,-1.565927 -8.129031,-1.565927 z m -4.292671,5.687204 c 0,0 -0.14253,4.540951 3.117391,5.61041 l 1.345563,-1.850845 C 22.426644,21.577585 20.85096,18.884456 20.85096,18.884456 Z" />
</svg>
