<svg xmlns="http://www.w3.org/2000/svg" width="128" height="128" viewBox="0 0 33.867 33.867"><circle cx="16.933" cy="16.933" r="16.933" style="fill:#83affd;fill-opacity:1;stroke-width:.0652301;stroke-linecap:round;stroke-linejoin:round;-inkscape-stroke:none;paint-order:stroke fill markers"/><path fill="#f8f8f8" d="M20.681 5.785c.925.231.925.231 1.746 1.053.067.777.067.777.023 1.715-.016.51-.016.51-.03 1.031-.03.715-.062 1.43-.097 2.144-.044 1.68-.065 2.633.82 4.1 1.138 1.065 2.32 2.033 3.552 2.986.661.757.661.757.809 1.823-.148.988-.148.988-.97 1.81A58.78 58.78 0 0 1 24 22.371c-3.68-.278-3.68-.278-6.836 1.358-.706.773-.706.773-1.309 1.592l-.646.74c-.488.559-.951 1.14-1.408 1.724-1.95-.308-1.95-.308-2.875-1.232-.06-.777-.06-.777-.008-1.715l.037-1.031c.032-.715.07-1.43.112-2.144.069-2.228.069-2.228-1.074-4.114l-1.12-.854-.83-.653-.736-.554c-1.125-.94-1.285-1.094-1.515-2.618.205-1.104.205-1.104.616-1.515.583-.04 1.167-.054 1.75-.058l1.086-.024a132.57 132.57 0 0 1 2.262-.022c2.601-.073 3.782-.459 5.582-2.36.434-.51.857-1.03 1.258-1.566 1.059-1.28 1.059-1.28 2.336-1.54z" style="stroke-width:.264585"/><path fill="#181521" d="M18.32 13.82c1.026.668 1.026.668 1.643 1.644.23 1.206.23 1.206 0 2.464-1.022 1.382-1.608 1.972-3.312 2.285-1.207-.231-1.207-.231-2.182-.847-1-1.537-.87-2.495-.668-4.313.869-1.737 2.805-1.54 4.519-1.232z" style="stroke-width:.264585"/></svg>