<svg xmlns="http://www.w3.org/2000/svg" width="199.996" height="199.998" viewBox="0 0 52.916 52.916"><path d="M51.992 23.971c.06 1.514.014 2.46-.04 2.928-.066.473-.133.473-.2.106-.152-.727-.346-2.903-.967-5.627a35.612 35.612 0 0 0-1.337-4.346 26.072 26.072 0 0 0-2.173-4.364c-.857-1.375-1.834-2.624-2.868-3.63-.123-.13-.247-.254-.37-.377-.13-.12-.261-.233-.388-.346l-.752-.642c-.522-.37-.98-.734-1.446-.995a21.993 21.993 0 0 0-6.622-2.945 11.54 11.54 0 0 1-.292-.141 22.68 22.68 0 0 0-4.23-2.057C28.804.999 27.245.547 25.6.304 23.953.06 22.26-.066 20.514.036c-1.746.109-3.528.412-5.292.963a19.164 19.164 0 0 0-5.059 2.487c-1.59 1.065-2.97 2.416-4.113 3.87C3.76 10.29 2.4 13.67 1.85 17.05a24.44 24.44 0 0 0-.3 3.408c-.103.236-.212.48-.304.72C.656 22.651.222 24.13 0 25.374c.36-1.421.914-2.783 1.549-4.099.01.759.05 1.503.12 2.247a23.66 23.66 0 0 0-.861 3.694 23.214 23.214 0 0 0-.194 3.976c.077 1.234.197 2.43.473 3.601.056.304.134.59.218.882.081.293.155.59.254.886.201.582.399 1.189.67 1.778.244.607.561 1.2.89 1.82.36.6.737 1.235 1.199 1.856.212.292.44.589.68.885-.599-.296-1.206-.603-1.823-.935.66.43 1.376.868 2.13 1.306.72.84 1.56 1.682 2.562 2.508a21.904 21.904 0 0 0 5.69 3.344c.35-.046-.226-.35-.67-.656-.459-.304-.812-.55-.113-.381 1.231.547 2.152.815 2.931 1.03.385.116.752.183 1.101.265.35.077.699.151 1.073.215.772.405 1.53.765 2.257 1.062 3.26 1.379 5.45 1.65 6.84 1.76 1.405.085 2.093-.035 2.777-.141.346-.064.698-.127 1.15-.187.451-.092.998-.148 1.746-.282.745-.124 1.69-.272 2.91-.572 1.221-.3 2.731-.723 4.548-1.527.917-.367 1.39-.526 1.52-.544.13-.014-.053.187-.48.441-.836.568-2.631 1.44-4.437 2.022-1.8.606-3.592.91-4.255 1.086-.339.092-.391.159-.028.19.367.018 1.15.036 2.501-.137 1.238-.293 2.477-.642 3.676-1.122.603-.218 1.189-.5 1.778-.765.296-.138.582-.296.864-.445.286-.155.579-.3.854-.476 2.064-1.411 3.7-2.984 5.041-4.84 1.334-1.863 2.388-3.947 3.157-6.463.142-.37.261-.765.4-1.171.123-.41.232-.829.348-1.252.092-.42.19-.847.275-1.26.075-.412.152-.811.209-1.192.24-1.52.3-2.67.405-2.734-.01 1.471-.084 2.476-.088 3.051-.018.575.042.72.176.477.276-.484.83-2.558.893-5.733-.318-2.893-.547-3.56-.924-4.872zm-47.9-7.743c.201-.303.406-.603.621-.9.004-.003.004-.01.01-.013a20.29 20.29 0 0 0-.867 3.29c-.018.033-.036.068-.057.1.04-.805.13-1.634.293-2.477zm2.554-2.222c-.197.356-.43.78-.68 1.249-.727.984-1.228 1.841-1.288 2.042.11-.635.243-1.263.409-1.88.067-.265.155-.526.24-.783.077-.085.155-.173.23-.25.133-.145.26-.283.39-.42.135-.124.262-.247.389-.364.247-.233.476-.448.691-.645.021-.022.04-.036.064-.057-.18.402-.339.783-.462 1.125.007-.003.01-.01.017-.017zm4.23 31.322c-1.69-1.1-3.21-2.43-4.494-3.926-3.327-3.856-5.158-8.9-4.823-13.98.064-.226.155-.53.247-.886.05-.215.11-.459.17-.713.056.328.116.66.18.985a41.52 41.52 0 0 0 .959 3.714c.014.053.018.11.032.163.05.232.106.465.155.698-.081-.123-.145-.187-.198-.187-.109-.003-.155.37-.035 1.005.194 1.285.953 3.676 2.53 6.188 1.538 2.522 3.855 5.144 6.455 7.303a45.426 45.426 0 0 1-1.178-.364zM22.8 46.81c-.247-.081-.498-.159-.78-.247-.402-.145-.84-.296-1.312-.452-.455-.18-.953-.374-1.485-.582a21.556 21.556 0 0 1-2.364-1.153 18.34 18.34 0 0 1-1.22-1.07c.246.18.476.343.687.491 1.295.84 2.142 1.147 2.985 1.46.36.117.723.237 1.129.368.84.444 1.71.832 2.603 1.167-.085.007-.162.01-.243.018zm1.52-43.987c-.226.003-.444.014-.66.021-.211.007-.423.035-.642.053-.426.039-.857.078-1.301.12a59.16 59.16 0 0 0-1.415.25l-.388.074c-.127.036-.261.071-.395.106l-.847.244c-.6.151-1.22.42-1.93.695-.36.134-.719.314-1.097.508-.377.19-.783.384-1.192.62l-.38.237c-.442.19-.89.416-1.334.684-1.493.872-2.893 2.17-3.94 3.577-.142.187-.276.378-.407.565a24.68 24.68 0 0 0-1.721 2.265c-.215.169-.41.328-.593.469.282-.155-.039.204-.638.942a20.813 20.813 0 0 1 1.425-3.242 19.546 19.546 0 0 0-2.043 4.025 23.82 23.82 0 0 0-.666.896 17.31 17.31 0 0 1 1.774-4.787 17.248 17.248 0 0 1 2.72-3.7c.557-.551 1.15-1.09 1.789-1.57.317-.24.66-.452.99-.678.329-.236.682-.42 1.038-.61a15.84 15.84 0 0 1 4.46-1.627 19.941 19.941 0 0 1 4.585-.423c1.006.039 1.99.134 2.953.279-.05.003-.099.007-.145.007zm10.742 4.089a25.616 25.616 0 0 1 4.163 3.735 25.312 25.312 0 0 0-2.283-1.53c-.338-.332-.66-.646-.99-.946-.558-.441-1.102-.896-1.747-1.355-.272-.17-.561-.345-.86-.529.585.18 1.153.388 1.717.625zm.325 1.35c-.187-.095-.37-.186-.55-.275a35.817 35.817 0 0 0-2.88-1.213c.286.042.576.081.862.123.313.057.613.13.92.194.088.022.177.04.261.057.021.01.036.021.053.032.29.222.565.458.843.673.17.142.332.28.49.41zm-3.951-2.476c.275.06.553.127.829.198.296.18.571.38.853.564.226.152.441.3.664.448a21.52 21.52 0 0 0-1.764-.508c-.187-.046-.367-.102-.544-.137l-.536-.096c-.36-.056-.705-.151-1.086-.183l-.12-.014a23.461 23.461 0 0 0-2.713-.572c1.464-.07 2.96 0 4.417.3zm-5.68 42.36c-.018-.003-.032-.01-.05-.013.604-.053 1.21-.117 1.824-.205.438.06.879.11 1.323.138.907.067 1.817.06 2.734-.007-1.912.32-3.884.349-5.831.088zm17.713-6.815c-.374.452-.762.893-1.19 1.302a20.3 20.3 0 0 1-5.855 3.955 19.489 19.489 0 0 1-6.12.8c1.266-.307 2.529-.68 3.777-1.164a28.76 28.76 0 0 0 6.065-3.189 24.739 24.739 0 0 0 4.497-4.025c-.331.78-.72 1.56-1.174 2.321zm1.855-4.152a23.914 23.914 0 0 1-2.303 2.621c-.985.96-2.124 1.891-3.281 2.706a27.702 27.702 0 0 1-3.38 1.99c-.522.26-1.009.465-1.428.66-.427.172-.801.313-1.09.42-.586.218-.872.267-.71.179-.504.056.23-.226 1.422-.776 1.189-.554 2.826-1.418 4.138-2.364a25.547 25.547 0 0 0 4.329-3.47c.74-.742 1.393-1.5 1.972-2.248-.092.628.014.589.568-.473-.074.25-.152.505-.237.755zm-.285-12.957c-.11-.339-.247-.67-.388-1.006a5.503 5.503 0 0 0-.057-.405 27.853 27.853 0 0 0-.522-1.838c-.272-.812-.392-.97-.363-.759.007.11.053.314.12.582.049.272.112.614.183.992-.06-.124-.116-.247-.18-.364-.451-.92-.991-1.795-1.549-2.646-.017-.028-.035-.052-.052-.08l-.036-.075-.543-1.22c-.19-.399-.423-.78-.635-1.175-.215-.385-.41-.787-.667-1.147l.081.448.057.455.05.46c-.018-.026-.036-.05-.054-.071-.645-.741-1.287-1.468-1.958-2.114-.282-.285-.553-.529-.797-.744-.24-.219-.462-.416-.663-.571a29.964 29.964 0 0 0-.9-.734c-.405-.332-.395-.399-.077-.265.649.244 2.519 1.355 4.35 3.158.92.889 1.81 1.957 2.589 3.076a25.714 25.714 0 0 1 1.566 2.557c.032.149.067.297.095.438.395 1.107.9 2.882 1.097 4.903.06.406.092.833.113 1.263a21.694 21.694 0 0 0-.86-3.118z" style="fill:#5669a1;fill-opacity:1;stroke-width:.264584"/><g style="stroke-width:.332854"><path fill="#f7f7f9" d="M-351.748-692.192c1.532 1.153 1.355 1.991-.529 2.513a29.265 29.265 0 0 0-3.968.397 8.147 8.147 0 0 0-2.117 3.043 1.124 1.124 0 0 1-1.058 0 14.75 14.75 0 0 0-1.191-1.455 80.163 80.163 0 0 1 0-3.44 12.258 12.258 0 0 1-3.307-3.44c-.054-.5.122-.896.529-1.19a14.169 14.169 0 0 1 3.969.397c.242-.012.418-.1.529-.265a65.85 65.85 0 0 1 2.116-3.043c.668-.237 1.242-.104 1.72.397.095 1.616.36 3.204.794 4.763a6.895 6.895 0 0 0 2.513 1.323z" style="clip-rule:evenodd;fill-rule:evenodd;stroke-width:.0880675;image-rendering:optimizeQuality;shape-rendering:geometricPrecision;text-rendering:geometricPrecision" transform="translate(1099.97 2106.793) scale(3.00432)"/><path fill="#2c2a3b" d="M-358.098-693.78c1.799.16 2.24.999 1.323 2.514-1.208.436-1.914.04-2.116-1.19.156-.51.42-.95.793-1.324z" style="clip-rule:evenodd;fill-rule:evenodd;stroke-width:.0880675;image-rendering:optimizeQuality;shape-rendering:geometricPrecision;text-rendering:geometricPrecision" transform="translate(1099.97 2106.793) scale(3.00432)"/></g></svg>