<svg xmlns="http://www.w3.org/2000/svg" width="490.678" height="491.672" viewBox="0 0 129.825 130.088"><path d="M743.75 493.6c-9.51-28.26-26.05-49.82-43.37-68.61l1.97-3.6-6.81-6.98c-47.01-48.21-105.69-65.39-144.92-65.39-15.14 0-27.26 2.46-35.78 7.11-16.39-29.13-39.37-47.61-58.16-60.33-49.01-33.19-104.87-29.5-104.87-29.5s-30.59 44.86.56 73.53c0 0 19.45-3.15 27.65-1.61-10.69 6.27-16.68 18.36-21.54 28.16-.81 1.64-1.84 3.72-2.8 5.5-6.45-3.68-17.58-12.64-23.75-18.27-22.3-20.31-38.17-20.3-38.17-20.3-29.89 19.79-26.71 62.67-26.71 62.67l8 3.43c11.77 5.04 21.33 10.17 29.76 14.96.33.32.84.71 1.57 1.21 9.6 6.47 25.72 14.26 38.42 20.01-25.02 1.77-40.79 12.58-54.79 36.88-10.15 17.74-12.61 32.31-7.53 44.55 8 19.25 31.21 25.52 55.78 32.17 1.37.37 2.75.74 4.15 1.12l.01.01c4.22 6.76 12.26 10.07 20.81 12.29-2.11 4.78-3.85 9.46-5.24 13.63-13.05 1.14-22.84 5.98-29.17 14.44-10.8 14.43-8.11 34.64-2.59 54.98-18.57 27.62-22.65 56.2-11.09 79.22 9.69 19.3 29.48 31.28 51.65 31.28.63 0 1.26-.01 1.89-.03 1.05.13 2.15.23 3.32.28 21.67.95 43.71 1.44 65.51 1.44 21.8 0 43.85-.48 65.51-1.44l.26-.01c12.14-.78 15.93-5.24 17.18-6.71 2.26-2.65 3.42-5.93 3.34-9.33v-.08c.08-3.4-1.09-6.68-3.34-9.33-1.25-1.47-5.04-5.93-17.18-6.71l-.26-.01c-3.06-.13-6.15-.24-9.22-.35 7.42-2.11 14.55-5.88 20.67-10.93 12.2 5.58 23.08 8.3 33.06 8.3 24.12 0 38.68-15.66 50.43-30.34l3.21-4.01-3.41-50.6c6.16-4.45 10.09-10.6 12.66-17.32.59 8.25 3.33 16.05 8.19 22.93 10.93 15.47 31.17 24.71 54.14 24.71h.01c26.8 0 51.04-12.33 66.49-33.83 15.94-22.21 29.67-64.36 4.5-139.19z" class="st3" style="fill:none" transform="matrix(.26458 0 0 .26458 -70.631 -70.426)"/><path d="m530.65 389.76-1.42 1.67c1.71 20.69-4.58 39.95-8.01 45.11 2.09 4.52 32.43 79.35-2.38 94.64 5.8 16.94 45.21 30.61 78.22 30.33-14.87-8.82-28.47-29.67-13.07-45.24-23.24-11.64-56.09-65.06-17.43-78.59 42.95 1.5 82.3 26.66 111.59-12.54-80.72-83.83-194.56-58.66-147.5-35.38z" class="st0" style="fill:#393566" transform="matrix(.26458 0 0 .26458 -70.631 -70.426)"/><path d="M515.76 444.61c-19.08 25.51-27.97 25.74-47.78 37.97-7.3 8.64-4.84 20.98 9.17 18.18 4.84 57.33 85.38 37.05 41.43-59.94z" class="st1" style="fill:#6a7dcc" transform="matrix(.26458 0 0 .26458 -70.631 -70.426)"/><path d="M517.88 446.18c-16.49 21.01-29.11 24.84-42.98 34.33-9.14 6.26-4.01 17.64 7.19 11.92 4.19 47.23 57.21 23.84 35.79-46.25zM447.98 451.05l1.48 1.34c23.35-14.82 42.04-20.04 59.46-23.52-28.04-17.49-48.94-24.52-70.61 4.81-1.04 5.93 5.51 13.84 9.67 17.37zM357.21 533.73l1.72.38c6.3-9.62 16.28-16.75 22.2-20.02-8-42.51 4.44-22.73 33.03-35.32-2.02-4.24-3.96-10.14-3.73-16.85-69.27-11.08-84.91-12.03-104.1 22.24-24.32 38.28 24.33 41.13 50.88 49.57z" class="st2" style="fill:#83b0ff" transform="matrix(.26458 0 0 .26458 -70.631 -70.426)"/><path d="M418.94 480.5c-2.98 4.47-27.66 7.82-35.89 9.15.48 11.86 1.46 19.57 2.05 26.88-2.31-.22-15.47 9.16-25.85 23.88 21.18 8.54 46.32 8.08 70.41 12.52 10.6 5.45-9.68 4.6-15.19 2.49 29.07 40.24 80.56 66.06 134.7 68.61-2.08-32.92-1.07-58.33-34.79-91.08-22.01 8.64-38.11-3.42-40.65-27.99-10.89 2-16.67-11.03-12.14-20.47 6.57-9.7 18.43-12.23 24.15-16.65 9.85-4.94 23.98-19.29 33.91-36.13-14.39 1.51-32.92 4.92-56.76 17.37 11.02 11.69-42.5 10.87-43.8 1.8-9.46 14.7-2.29 20.55-.15 29.62z" class="st0" style="fill:#393566" transform="matrix(.26458 0 0 .26458 -70.631 -70.426)"/><path d="m347.43 657.68-1.71-4.26c-52.14 68.56 26.3 118.3 72 50.82-22.24-4.06-56.11-13.18-70.29-46.56z" class="st2" style="fill:#83b0ff" transform="matrix(.26458 0 0 .26458 -70.631 -70.426)"/><path d="M500.46 687.18c-8.73-5.34-20.58-12.95-28.72-20.89-4.2 7.42-10.91 18.06-16.15 24.84 15.92 23.37 39.58 15.67 52.16.63-2.71-1.71-3.73-2.36-7.29-4.58z" class="st1" style="fill:#6a7dcc" transform="matrix(.26458 0 0 .26458 -70.631 -70.426)"/><path d="M574.85 636.4c-75.66 17.17-149-16.37-183.51-83.26-12.62 16.19-19.08 43.84-20.19 53.86-5.41 6.2-3.64-8.75-1.52-11.38-55.15-5.24-18.94 76.25 6.48 89.82 70.85 34.68 72.75 9.91 95.53-27.24 19.38 7.39 48.27 13.33 68.93 1.42 13.37 10.06-52.81 13.33-53.48 7.52l-2.95 4.38c63.04 44.63 75.89 31.95 96.79 9.5l-3.06-45.31zM591.22 565.17c-1.36.01-3.48-.07-5.5-.13-2.33 17.61-25.68 34.84-33.64 40.41.65 7 .9 13.73.94 18.98 55.17 4.07 35.74-23.32 46.57-59.38-2.91.05-5.08.11-8.37.12z" class="st0" style="fill:#393566" transform="matrix(.26458 0 0 .26458 -70.631 -70.426)"/><path d="M633.99 493.99c-4.43-5.4-10.28-1.55-16.01 1.54-22.73 17.53-48.71 29.09-30.47 52.85 32.51 34.31 67.34-26.21 46.48-54.39z" class="st3" style="fill:#fff" transform="matrix(.26458 0 0 .26458 -70.631 -70.426)"/><path d="M734.95 534.89c-7.69-39.91-28.18-78.04-56.3-103.88-32.06 37.33-86.46-2.98-115.07 11.14-33.18 18.74 1.88 58.48 23.9 71.95 9.87-5.36 18.02-15.4 28.23-22.37 29.94-20.06 33.55 32.09 22.29 50.01 88.57 11.19 28.38 118.72 2.96 60.05-5.48-5.5-12.01-.85-12.61 7.32-1.69 67.84 134.51 54.11 106.6-74.22z" class="st2" style="fill:#83b0ff" transform="matrix(.26458 0 0 .26458 -70.631 -70.426)"/><path d="M502.44 737.39c-43.15-1.9-86.71-1.9-129.86 0-4.52.19-7.95 1.44-8.17 2.62v.59c.22 1.18 3.65 2.42 8.17 2.62 43.15 1.9 86.71 1.9 129.86 0 4.22-.27 8.29-1.38 8.17-2.62v-.59c.12-1.24-3.95-2.35-8.17-2.62z" class="st4" style="fill:#100d19" transform="matrix(.26458 0 0 .26458 -70.631 -70.426)"/><path d="M678.15 429c-37.85 41.07-91.33-.59-118.25 11.82-18.48 8.52-3.48 26.77 2.28 39.92 0 0-4.88-36.56 25.98-27.87 89.99 25.32 103.38-8.91 103.38-8.91s-8.58-10.53-13.39-14.96zM643.33 524.8c24.45 4.23 46.15 23.73 44.07 59.67-4.89.04-5.54-3.81-5.54-3.81L671 556.29l-33-14.56M601.34 507.61c-23.76 1.32-30.26-12.93-30.26-12.93l9.85 21.59h7.65" class="st1" style="fill:#6a7dcc" transform="matrix(.26458 0 0 .26458 -70.631 -70.426)"/><path d="M631.04 618.16s15.33 37.19 65.48 12.16c40.24-20.08 38.47-75.69 38.47-75.69s15.92 80.7-43.46 91.6c-64.62 11.86-60.49-28.07-60.49-28.07zM474.9 446.18c-19.5-12.2-27.86-26.28-27.86-26.28l-9.44 14.83s4.3 13.36 9 17.65" class="st1" style="fill:#6a7dcc" transform="matrix(.26458 0 0 .26458 -70.631 -70.426)"/><path d="M362.42 532.57c22.88 5.26 40.48-11.17 40.48-11.17l-20.24-5.13M437.61 505.47c6.5.08 20.63-4.94 24.36-6.31-2.31-4.2-2.67-9.9-.37-14.68 6.57-9.7 18.43-12.23 24.15-16.65 5.12-2.57 11.41-7.7 17.66-14.39l3.55-3.97c4.21-4.93 8.3-10.51 11.89-16.42v-1.27c-14.28 1.55-32.55 5.06-55.95 17.28 11.02 11.69-42.5 10.87-43.8 1.8-9.46 14.71-2.29 20.57-.15 29.63-2.98 4.47-27.66 7.82-35.89 9.15.04.95.08 1.86.12 2.75 13.24 17.11 47.29 13 54.43 13.08zM523.35 386.72c1.02.61 10.13 4.53 10.23 4.58 11.23 5.61 36.63 29.71 42.25 47.04 39.32 4.01 75.14 22.14 102.32-13.19-65.33-64.41-154.3-63.21-157.04-47.75z" class="st5" style="fill:#505099" transform="matrix(.26458 0 0 .26458 -70.631 -70.426)"/><path d="M563.94 438.68c-14.08-19.95-24.64-24.97-24.64-24.97s35.62-8.05 49.67 26.15M405.68 593.13c-16.57 32.11-38.83 48.96-10.12 77.33 28.71 28.37 74.86-15.48 74.86-15.48l16.67 12.14 35.87-.84 16.34-1.01s4.88 22.75 28.84 24.5 12.79-40.48 12.79-40.48l-2.71-24.48s-19.01 7.74-65.63-3.11c-46.62-10.85-85.63-37.64-85.63-37.64" class="st5" style="fill:#505099" transform="matrix(.26458 0 0 .26458 -70.631 -70.426)"/><path d="M332.09 460.46c14.82-2.6 55.35 12.25 63.63 9.9 8.27-2.35 6.56-5.98 1.47-7.83-5.08-1.86-63.22-7.66-63.22-7.66l-9.97 3.56M454.21 418.3c27.85-.77 28.23 8.65 34.49 8.26 9.44-.59-3.65-7.43-3.65-7.43l-17.47-6.25M483.42 475.17c-7.33 3.42-9.48 11.52-.05 11.53 14.12.02 33.69-30.3 34.51-40.51M351.03 664.94c-19.71 33.11-18.24 52.21-18.24 52.21s-10.22-30.11-.02-52.21c10.19-22.1 12.96-11.52 12.96-11.52" class="st3" style="fill:#fff" transform="matrix(.26458 0 0 .26458 -70.631 -70.426)"/><path d="M631.19 494.68c15.91 52.75-41.49 66.84-46.38 31.57-3.46 3.27-9.24 10.81 2.69 22.12 32.03 41.3 67.23-27.05 43.69-53.69z" class="st2" style="fill:#83b0ff" transform="matrix(.26458 0 0 .26458 -70.631 -70.426)"/><path d="M309.62 481.64c25.78 17.17 74.15 24.21 74.15 24.21l-13.45 22.26s-64.71-11.84-71.56-27.27M405.68 700.63s-17.27 33.54-31.97 35.67c-14.47 2.09-27.87-6.63-27.87-6.63-3.66-16.73 20.66-48.52 20.66-48.52s6.57 8.63 19.48 13.72" class="st1" style="fill:#6a7dcc" transform="matrix(.26458 0 0 .26458 -70.631 -70.426)"/><path d="M470.43 705.59c9.71 2.47 29.27-18.06 29.27-18.06l11.35 4.88s-14.59 15.36-19.14 15.69c-4.55.33-10.29 1.38-10.29 1.38" class="st2" style="fill:#83b0ff" transform="matrix(.26458 0 0 .26458 -70.631 -70.426)"/><path d="M299.64 506.33s12.91 7.4 15.76-.33c3.63-9.83-13.12-15.22-13.12-15.22" class="st4" style="fill:#100d19" transform="matrix(.26458 0 0 .26458 -70.631 -70.426)"/><path d="m728.28 518.42-5.55-30.26-13.3-14.14c-8.87-15.53-19.86-10.6-9.36 5.64 10.92 16.91 20.42 43.11 22.85 55.82 2.97 15.47 14.29 25.77 5.36-17.06z" class="st3" style="fill:#fff" transform="matrix(.26458 0 0 .26458 -70.631 -70.426)"/><path d="M665.33 414.16c-21.87 10.6-61.03 2.71-61.03 2.71s29.6-1.6 50.02-10.79" class="st0" style="fill:#393566" transform="matrix(.26458 0 0 .26458 -70.631 -70.426)"/><path d="M691.35 640.1c-10.76-3.53-10.29-18.52-10.29-18.52s5.2 8.89 14.73 12.41M722.17 617.82c-15 2.63-26.94-15.01-26.94-15.01s13.22 7.04 26.83 5.17M740.71 577.08c-15.68 11.81-40.54-.73-40.54-.73s19.7 0 34.25-10.14" class="st1" style="fill:#6a7dcc" transform="matrix(.26458 0 0 .26458 -70.631 -70.426)"/><path d="M324.72 457.16s14.96 3.81 10.21 12.36c-5.1 9.16-18.27-.65-18.27-.65M305.61 486.93s10.54 10.41 17.21 0c5.65-8.83-10.85-16.57-10.85-16.57M378.89 738.92s7.4-12.91-.33-15.76c-9.83-3.63-15.22 13.12-15.22 13.12M326.19 710.01s6.57-11.63 15.12-6.87c9.16 5.1-3.68 20.2-3.68 20.2M357 733.86s10.41-10.54 0-17.21c-8.83-5.65-16.57 10.85-16.57 10.85M610.53 470.99c-35.62-27.65-44.35 19.67-30.98 6.84 12.66-12.14 46.82 5.46 30.98-6.84z" class="st4" style="fill:#100d19" transform="matrix(.26458 0 0 .26458 -70.631 -70.426)"/><path d="M731.24 497.81c-9.89-29.41-28.45-51.37-47.04-70.74l1.88-3.45c-82.95-85.07-205.39-67.08-163.71-33.32.9 9.74.29 17.98-.88 24.58-18.38-108.3-122.8-136.24-160.59-135.56-.49 1.27-1.99 5.74-2.43 7.06 6.44 1.88 3.54 4.47-1.63 5.43-1.2 4.4-2.11 8.69-2.74 12.16 7.75 5.16 4.44 9.62.24 12.48 1.2 3.09 3.09 6.51 4.97 9.54 89.23-7.52 136.79 28.35 155.74 93.82-29.04-33.81-96.82-88.79-127.53-70.67-12.94 6.68-18.51 30.91-25.49 36.31-11.27 8.84-52.29-38.55-63.25-38.81l-7.79 7.2c7.47 10.77-3.82 11.06-6.7 8.2 0 0-4.05 12.06-4.05 25.24 49.22 21.09 62.65 44.23 92.1 29.45 39.5-23.88 9.89-57.99 51.33-43.17 28.19 9.91 54.01 24.94 77.49 43.34-36.19-26.85-87.93 9.7-61.96 34.69-22.78-1.44-17.71-17.97-29.83 3.51-64.95-10.42-87.03-12.32-107.91 23.94-25.53 44.63 12.07 49.27 51.6 60.54-2.35 9.08 20 11.29 30.06 13.95-7.07 10.44-12.24 24.47-15.28 35.75-41.2-2.02-35.78 29.72-27.2 58.87-57.45 77.12 30.85 135.14 82.85 59.48 12.59.47 17.76 3.61 29.41-9.11 18.89 23.43 46.23 13.91 59-1.61 41.15 22.19 57.97 7.93 75.74-14.26L584 628.57c23.39-7.63 15.43-45.11 21.72-60.58 15.42.64 29.82-4.55 40.73-13.35 27.18 7.42 36.01 26.82 29.1 45.09-2.05 5.43-6.69 10.93-11 13.05-16.97 8.35-16.57-21.27-29.77-18.77-4.38.83-7.31 3.71-8.8 7.92-26.68 75.22 170.16 88.84 105.26-104.12zM524.1 375.24c38.37-21.04 119.41 16.97 150.55 50.04-31.73 39.04-90.35-1.02-115.08 10.26-31.23 14.23-.9 66.89 20.36 81.34-10.73 12.03-3.89 32.24 8.71 41.64-32.03-1.34-61.09-15.08-66.32-26.17 29.54-15.48 10.28-75.24 1.82-95.68 2.66-5.1 8.48-18.83 7.89-40.05 16.16 6.78 15.7 1.21 9.78-1.8-5.52-2.79-25.54-15.29-17.71-19.58zm-6.22 70.94c40.27 101.04-43 99.92-37.86 51.06-14.72 5.02-17.18-6.61-10.27-12.65 15.82-13.83 28.51-12.09 48.13-38.41zm-77-11.54c23.57-32.25 48.45-13.69 60.63-6.89-13.31 2.85-31.8 8.82-51.75 21.34-3.81-3.43-9.31-9.54-8.88-14.45zm-108.46 89.77c-23.8-7.52-28.88-13.91-29.33-15.4-4.58-12.16 14.42-42.22 27.48-47.82 15.03-8.24 61.85.76 77.21 3.01.03 4.75 1.24 9.28 2.8 12.95-35.26 11.45-37.69-3.96-32.32 35.56-4.94 2.92-13.9 9.07-20.49 18.45-4.89-1.09-15.02-3.47-25.35-6.75zm31.18 14.74c29.99-38.23 24.51-.73 22.21-47.24 63.49-9.67 20.55-12.97 33.85-36.65 8.71 9 54.96 5.96 47.14-5.21 20.27-10.36 37.93-13.85 47.57-15.03-21.09 32.52-36.28 28.78-52.65 44.59-9.77 9.43-3.32 28.57 9.74 28.09 3.3 23.97 19.97 36.2 42.26 28.3 31.74 31.48 30.68 55.93 32.64 85.23-47.93-2.85-96.74-25.28-125.43-61.87 7.49 1.44 17.48.63 13.02-6.89-3.4-5.7-42.93-3.64-70.35-13.32zm25.81 189.36c-50.25 22.27-75.76-29.76-44.43-69.85 11.63 29.06 41.64 42.38 67.68 47.31-8.28 9.31-18.92 20.4-23.25 22.54zm92.23-25.11c-11.5.74-19.47-7.89-22.75-12.26 3.91-5.16 10.06-14.73 13.48-20.67 9.51 8.76 22.45 16.24 31.25 21.81-3.95 4.21-11.52 10.46-21.98 11.12zm80.56-8.79c-13.19 10.35-38.92 1.84-76.52-25.25 14.72 9.27 78.63-.54 54.91-12.75-24.93 13.6-49.76 5.37-70.17-1.62-28.9 50.88-28.82 49.47-74.04 37.06-35.79-9.68-58.21-52.11-50.46-86.76.82-5.39 9.44-5.88 19.75-6.71-3.02 7.9 1.45 18.06 7.99 9.5 2.16-15.52 7.57-35.36 17.43-49.88 39.09 71.74 117.21 96.38 184.35 80.77l2.78 41.15c-1.6 1.92-5.96 6.59-16.02 14.49zm29.2-89.3c-2.85 20.07-21.53 15.83-35.8 16.38-.05-3.48-.23-8.72-.77-14.95 7.7-5.41 29.62-22.09 33.03-38.99 1.43.04 2.38.12 8.46 0-1.81 8.76-5.05 26.05-4.92 37.56zm28.16-53.55c-20.56 13.21-40.08-9.94-34.75-25.5 14.46-14.08 42.58-38.46 46.91-30.91 11.85 19.19 4.89 45.72-12.16 56.41zm99.15 71.78c-33.53 41.37-96.59 20.55-87.08-17.49 1.63-4.77 5.74-5.19 8.08-1.59 27.24 59.82 90.73-50.46 2.22-64.78 9.38-19.23 4.88-56.94-15.06-55.01-15.61 1.82-25.17 17.89-39.34 26.31-20.83-13.35-48.51-63.6-22.13-68.59 28.45-5.38 80.07 27.64 113.35-7.65 57.34 54.38 72.3 151.08 39.96 188.8z" class="st4" style="fill:#100d19" transform="matrix(.26458 0 0 .26458 -70.631 -70.426)"/><path d="M435.17 651.71s5.6 12.24 14.25 7.92 14.79-17.02 21.23-19.23c8.03-2.76 24.14 9.88 32.35-.15-20.72-3.83-39.97-13.18-39.97-13.18l-18.47 19.81M410.53 598.47c-3.67 9.83 13.64 28.98 17.31 31.28 3.67 2.31 3.08-13.91 3.08-13.91" class="st0" style="fill:#393566" transform="matrix(.26458 0 0 .26458 -70.631 -70.426)"/><path d="m494.9 612.6-.08-.08-14.02-12.19c-2.8-2.43-4.28-6.09-3.97-9.78l1.55-18.52v-.12c-.02-5.2-4.29-9.43-9.51-9.43-2.42 0-4.74.95-6.52 2.66l-.08.08-12.19 14.02a11.669 11.669 0 0 1-9.78 3.97l-18.51-1.55h-.12c-3.85.02-7.17 2.23-8.67 5.78-1.5 3.55-.77 7.47 1.9 10.25l.08.08L429 609.96c2.8 2.43 4.28 6.09 3.97 9.78l-1.55 18.52v.12c.02 5.2 4.29 9.43 9.51 9.43 2.42 0 4.74-.95 6.52-2.66l.08-.08 12.19-14.02a11.669 11.669 0 0 1 9.78-3.97l18.51 1.55h.12c3.85-.02 7.17-2.23 8.67-5.78 1.5-3.55.77-7.48-1.9-10.25z" class="st3" style="fill:#fff" transform="matrix(.26458 0 0 .26458 -70.631 -70.426)"/><g transform="matrix(.26458 0 0 .26458 -70.631 -70.426)"><circle cx="454.97" cy="604.48" r="11.35" class="st4" style="fill:#100d19" transform="rotate(-74.128 454.939 604.462)"/><path d="m506.4 611.73-.19-.19-17.4-15.14a11.623 11.623 0 0 1-3.94-9.71l1.93-22.99v-.27c-.03-7.97-6.57-14.46-14.57-14.46-3.73 0-7.28 1.45-10.01 4.08l-.19.19-15.14 17.41a11.583 11.583 0 0 1-9.71 3.94l-22.99-1.93h-.27c-5.91.03-11 3.42-13.3 8.86-2.3 5.44-1.18 11.46 2.92 15.71l.19.19 17.4 15.14c2.78 2.41 4.25 6.04 3.94 9.71l-1.93 22.99v.27c.03 7.97 6.57 14.46 14.57 14.46 3.73 0 7.28-1.45 10.01-4.08l.19-.19 15.14-17.41a11.583 11.583 0 0 1 9.71-3.94l22.99 1.93h.27c5.91-.03 11-3.42 13.3-8.86 2.3-5.44 1.18-11.46-2.92-15.71zm-18.21 13.6-18.4-1.54c-4.54-.38-9 1.43-11.99 4.87l-12.12 13.93c-4.32 4.17-11.53 1.12-11.55-4.88l1.54-18.4c.38-4.54-1.43-9-4.87-11.99l-13.93-12.12c-4.17-4.32-1.12-11.53 4.88-11.55l18.4 1.54c4.54.38 9-1.43 11.99-4.87l12.12-13.93c4.32-4.17 11.53-1.12 11.55 4.88l-1.54 18.4c-.38 4.54 1.43 9 4.87 11.99l13.93 12.12c4.17 4.31 1.12 11.52-4.88 11.55z" class="st4" style="fill:#100d19"/></g></svg>