<svg xmlns="http://www.w3.org/2000/svg" width="327.402" height="329.174" viewBox="0 0 86.625 87.094"><path fill="#13111d" d="M14.836 0c8.615.396 15.819 2.545 22.49 8.202l.588.472c2.324 1.934 4.118 4.416 5.761 6.936l.58-.17c1.98-.542 3.79-.75 5.836-.723l.877.01c10.085.197 18.825 5.57 25.78 12.525l.091.605c.232.96.706 1.425 1.364 2.157 6.21 7.147 8.96 16.96 8.335 26.342-.514 4.442-2.417 8.712-5.911 11.579-3.281 2.448-7.251 3.348-11.287 2.973-2.215-.434-4.068-1.226-5.821-2.646l-.51-.402c-1.442-1.271-2.03-2.842-2.665-4.625-.732.623-1.19 1.24-1.588 2.117-.059.75-.077 1.424-.043 2.17l.027.61c.043.845.098 1.689.169 2.532.293 3.737.293 3.737-.817 5.248-2.092 2.441-4.682 4.303-7.955 4.61-1.964.021-3.513-.112-5.306-.941-.947-.311-1.604-.108-2.484.316l-.474.288-.844.513.533.078c1.41.24 2.404.444 3.436 1.51.47.939.385 1.986.083 2.976-.692.922-1.63 1.297-2.729 1.521-.995.088-1.994.114-2.993.149l-.939.033c-5.983.189-11.979.158-17.962-.017l-.952-.024c-3.568-.124-6.64-.62-9.383-3.084-2.46-2.644-2.837-5.683-2.787-9.105.098-2.377.89-4.372 2.192-6.357.755-1.274.468-2.276.186-3.678-.44-2.428-.537-4.822.74-6.997 1.07-1.433 2.342-2.471 4.14-2.758a53.35 53.35 0 0 1 1.565-.176l.115-.744c.15-.844.15-.844.414-1.638l-.562-.066c-1.112-.29-1.948-.908-2.81-1.657-.79-.52-1.545-.674-2.465-.89-3.011-.751-6.155-1.857-7.905-4.58-.898-1.543-1.005-2.955-.81-4.713 1.124-3.77 3.466-7.514 6.947-9.467 1.254-.557 2.559-.853 3.9-1.116l-.776-.38c-1.883-.926-3.738-1.88-5.557-2.927-2.15-1.236-4.375-2.283-6.63-3.308-.15-4.152.536-7.286 3.325-10.474.378-.373.378-.373 1.172-.903 2.808.19 5.332 2 7.285 3.893 1.1 1.022 2.333 1.864 3.563 2.722l.542-.889.715-1.162.355-.585c.617-.998 1.206-1.869 2.092-2.656l-.87.075c-2.983.18-2.983.18-3.97-.48a8.337 8.337 0 0 1-.98-1.711l-.497-.86c-.814-2.713-.308-5.666.903-8.189A47.37 47.37 0 0 1 14.835 0z" style="stroke-width:.264582"/><path fill="#f8f8f9" d="M14.836 0c8.615.396 15.819 2.545 22.49 8.202l.588.472c2.324 1.934 4.118 4.416 5.761 6.936l.58-.17c1.98-.542 3.79-.75 5.836-.723l.877.01c10.085.197 18.825 5.57 25.78 12.525l.091.605c.232.96.706 1.425 1.364 2.157 6.21 7.147 8.96 16.96 8.335 26.342-.514 4.442-2.417 8.712-5.911 11.579-3.281 2.448-7.251 3.348-11.287 2.973-2.215-.434-4.068-1.226-5.821-2.646l-.51-.402c-1.442-1.271-2.03-2.842-2.665-4.625-.732.623-1.19 1.24-1.588 2.117-.059.75-.077 1.424-.043 2.17l.027.61c.043.845.098 1.689.169 2.532.293 3.737.293 3.737-.817 5.248-2.092 2.441-4.682 4.303-7.955 4.61-1.964.021-3.513-.112-5.306-.941-.947-.311-1.604-.108-2.484.316l-.474.288-.844.513.533.078c1.41.24 2.404.444 3.436 1.51.47.939.385 1.986.083 2.976-.692.922-1.63 1.297-2.729 1.521-.995.088-1.994.114-2.993.149l-.939.033c-5.983.189-11.979.158-17.962-.017l-.952-.024c-3.568-.124-6.64-.62-9.383-3.084-2.46-2.644-2.837-5.683-2.787-9.105.098-2.377.89-4.372 2.192-6.357.755-1.274.468-2.276.186-3.678-.44-2.428-.537-4.822.74-6.997 1.07-1.433 2.342-2.471 4.14-2.758a53.35 53.35 0 0 1 1.565-.176l.115-.744c.15-.844.15-.844.414-1.638l-.562-.066c-1.112-.29-1.948-.908-2.81-1.657-.79-.52-1.545-.674-2.465-.89-3.011-.751-6.155-1.857-7.905-4.58-.898-1.543-1.005-2.955-.81-4.713 1.124-3.77 3.466-7.514 6.947-9.467 1.254-.557 2.559-.853 3.9-1.116l-.776-.38c-1.883-.926-3.738-1.88-5.557-2.927-2.15-1.236-4.375-2.283-6.63-3.308-.15-4.152.536-7.286 3.325-10.474.378-.373.378-.373 1.172-.903 2.808.19 5.332 2 7.285 3.893 1.1 1.022 2.333 1.864 3.563 2.722l.542-.889.715-1.162.355-.585c.617-.998 1.206-1.869 2.092-2.656l-.87.075c-2.983.18-2.983.18-3.97-.48a8.337 8.337 0 0 1-.98-1.711l-.497-.86c-.814-2.713-.308-5.666.903-8.189A47.37 47.37 0 0 1 14.835 0Zm1.587 2.381L16.16 3.97h.529v.529l-1.058.264-.265 2.382h.53c.052.959-.038 1.551-.53 2.38.304.55.304.55.794 1.06.653.156.653.156 1.396.133l.85.013.912.002c6.964.152 13.401 1.257 18.644 6.258 2.072 2.22 4.92 6.004 4.92 9.203l-.33-.342c-2.394-2.474-4.806-4.793-7.607-6.802l-.49-.353c-3.155-2.244-6.637-4.5-10.622-4.508l-.55-.02c-1.366-.008-2.125.294-3.155 1.177-.59.768-.59.768-1.074 1.637l-.27.457c-.261.446-.517.896-.772 1.346l-.43.754c-.302.54-.6 1.082-.893 1.627-2.735-.06-4.688-2.26-6.658-3.949-1.85-1.63-1.85-1.63-3.925-2.93-.638.076-.994.225-1.538.562-.502.792-.233 1.468-.05 2.348H2.93c-.49 1.04-.588 1.85-.563 2.994l.015.856.018.648.423.205c2.397 1.168 4.77 2.337 7.035 3.748 2.222 1.367 4.178 2.223 6.83 1.868 2.24-.54 3.84-1.77 5.1-3.69.72-1.34 1.108-2.79 1.514-4.247l.265-.794c1.927-.123 3.376.132 5.143.893l.683.285c3.431 1.461 6.829 3.142 9.784 5.436l-.41-.127c-2.084-.442-4.563-.448-6.469.567-1.29.864-2.6 1.776-3.175 3.265-.151 1.118-.18 2.074.397 3.059l.397.38c-.897-.104-1.507-.215-2.282-.694-.588-.411-.588-.411-1.19-.364-.566.24-.566.24-.844.942l-.446.645c-1.276.105-2.465-.074-3.722-.282-6.279-1.077-6.279-1.077-12.153.812-2.35 1.856-4.42 4.707-4.847 7.739-.076 1.461.189 2.517 1.142 3.638 1.363 1.053 2.853 1.655 4.482 2.166l.599.198c1.224.396 2.438.695 3.704.923.735.235.89.828 1.27 1.475.763.373 1.56.583 2.38.794l.627.165c.496.127.993.246 1.49.364l-.319.62c-1.458 2.607-1.458 2.607-2.062 5.465l-.504-.037c-1.673-.07-2.873.123-4.258 1.096-1.15 1.186-1.1 2.458-1.108 4.051l-.012 1.022c.063 1.031.308 1.875.59 2.864.157 1.516-.201 2.409-1.008 3.655-1.593 2.641-2.36 5.115-1.902 8.251.704 2.112 1.708 3.856 3.52 5.204 2.01.992 4.022 1.275 6.24 1.326l.826.027c3.02.087 6.042.098 9.064.092.942 0 1.884 0 2.827.002 2.747.001 5.49-.015 8.234-.154l.63-.03c1.032-.047 1.032-.047 1.997-.38l-.265-.795c-2.36-.232-4.704-.317-7.073-.348a1673.47 1673.47 0 0 0-3.924-.057c-.969-.013-1.937-.028-2.906-.043-1.892-.028-3.784-.055-5.676-.08l.548-.418.72-.56.713-.549c.662-.588 1.082-1.146 1.541-1.897.58-.812.815-1.042 1.808-1.246.92-.044.92-.044 1.79-.016 1.014-.096 1.395-.47 2.14-1.136 1.016 0 1.63.703 2.382 1.323 1.365.853 2.948.677 4.497.53 1.324-.368 2.268-.953 3.275-1.869.442-.342.442-.342.959-.513.807.228 1.476.556 2.21.962 1.667.86 3.63.817 5.463.626a10.761 10.761 0 0 0 3.968-2.381l.411-.316c.835-.755 1.154-1.293 1.26-2.43a47.701 47.701 0 0 0-.232-3.224c-.031-.373-.062-.747-.091-1.12-.127-1.528-.286-3.04-.554-4.552l.595-.182c1.182-.564 1.813-1.546 2.315-2.728.095-.524.168-1.052.226-1.58l.103-.92.101-.957.108-.96c.188-1.624.188-1.624.256-3.256.29.016.579.032.877.05 2.15-.009 4.073-.625 5.777-1.931.701-.338 1.08-.199 1.813.029 1.556.702 2.938 1.554 3.763 3.086.554 1.666.47 3.429-.274 5.016-.408.742-.63.927-1.373 1.423-.909.115-.909.115-1.852 0-.685-.666-1.073-1.35-1.537-2.183-.534-.801-.534-.801-1.489-1.059-1.004-.03-1.004-.03-1.703.794-.925 1.414-1.03 2.649-.827 4.3.683 2.09 1.846 3.523 3.777 4.554 3.12 1.456 6.493 1.333 9.717.208 3.249-1.377 5.346-3.776 6.731-6.963 2.763-6.918 1.064-15.184-1.704-21.876-1.684-3.71-4.225-6.891-7.022-9.825-.419-.535-.492-.903-.65-1.552-3.689-4.9-10.68-7.963-16.405-9.525-.312-.09-.624-.18-.946-.271-2.128-.52-4.229-.617-6.413-.655l-.842-.025c-1.924 0-3.434.363-5.028 1.48-.608.743-.608.743-.496 1.57.159.833.159.833.77 1.287.69.774.63 1.217.586 2.236l-.03.864-.036.657-.157-.71c-1.72-7.122-5.974-13.344-12.274-17.2-4.846-2.83-10.204-4.824-15.88-4.844z" style="stroke-width:.264582"/><path fill="#82aefd" d="M72.775 30.133c.812.447 1.344 1.109 1.923 1.815l.387.47c3.025 3.733 5.207 8.184 6.426 12.825l.229.853c1.446 5.556 1.41 11.294-1.486 16.362-1.76 2.297-3.998 4.221-6.945 4.746-2.72.227-5.187-.072-7.392-1.786-1.186-1.131-1.805-2.342-1.968-3.969.09-.784.207-1.26.628-1.918.697.099.995.193 1.472.725l.38.565c.541.796 1.032 1.37 1.852 1.885 1.267.167 2.18.003 3.272-.688 1.438-1.23 2.176-3.105 2.383-4.947.046-2.397-.277-4.065-1.8-5.946-1.162-1.144-2.607-1.623-4.122-2.157-.65-.234-1.242-.49-1.85-.814l.26-.805a10.718 10.718 0 0 0-.454-7.145c-.393-.608-.778-.93-1.393-1.31-1.564-.282-2.522.26-3.803 1.076-.984.724-1.857 1.544-2.725 2.401-.704.562-1.035.782-1.938.756-2.427-1.647-4.448-4.878-5.292-7.673-.226-1.413-.23-2.478.447-3.754 2.315-1.267 5.483-.323 7.937.182 6.017 1.163 6.017 1.163 11.724-.661l.681-.592c.642-.467.642-.467 1.167-.496z" style="stroke-width:.264582"/><path fill="#383465" d="M43.146 29.898c0 1.451-1.147 2.436-2.117 3.44-1.54 1.225-3.188 2.244-4.894 3.224-1.114.66-1.833 1.219-2.514 2.332-.184 1.148-.082 1.691.447 2.728.54.75.54.75 1.277.932.657.308.657.308.98.95l.223.764c.485 1.478.919 2.425 2.278 3.264 1.047.425 1.714.362 2.832.258 1.807-.028 1.807-.028 2.672.496.58.627 1.016 1.256 1.462 1.985l.278.438c1.75 2.776 2.694 5.24 2.947 8.524l.065.75c.078.912.15 1.808.15 2.723-.612-.03-1.224-.064-1.836-.1l-1.033-.055c-3.08-.273-4.894-1.326-7.065-3.548-1.338-1.646-1.257-3.334-1.074-5.367.05-.478.108-.955.178-1.43-.024-.793-.275-1.103-.812-1.67-.55-.223-.55-.223-1.158-.265l-.601-.083c-1.15.153-1.786.953-2.51 1.804l-.527.693c-1.296 1.7-1.296 1.7-2.546 1.984-1.33-.255-1.948-1.212-2.712-2.282v-.264l1.852-.53-.265-1.058c-1.686-.387-3.34-.604-5.06-.76-2.355-.22-4.574-.71-6.846-1.357.385-.884.872-1.472 1.554-2.15.27-.27.27-.27.544-.547.548-.477.548-.477 1.606-1.007v-4.762c2.001-.347 2.001-.347 2.62-.451 1.251-.226 2.314-.596 3.466-1.137-.129-.826-.265-1.586-.53-2.38-.05-.943-.05-.943 0-1.853l.53-.53.646.26c1.131.325 2.136.358 3.306.353l.62.013c1.402 0 2.401-.195 3.63-.89.31-.525.31-.525.529-1.058 2.155-1.445 4.911-1.857 7.408-2.381z" style="stroke-width:.264582"/><path fill="#4f4e97" d="M23.832 58.737c.968.415 1.655 1.014 2.43 1.72l.706.637c.605.59.826.817.846 1.656l-.025.705-.017.773c-.014.537-.031 1.073-.052 1.61-.032 1.565-.032 1.565.55 2.994.699.58 1.23.71 2.138.65 1.761-.5 3.03-2.354 4.154-3.707.552-.611.844-.682 1.672-.754.898.011 1.696.2 2.563.43 4.856 1.259 9.943 1.262 14.916.727l.546-.032c.723.723.448 2.68.499 3.718.026.454.068.907.111 1.36.12 1.754.12 1.754-.439 2.618a11.3 11.3 0 0 1-1.494 1.3l-.449.337c-1.379.974-2.655 1.19-4.314.985-2.033-.558-3.87-1.512-5.705-2.53l-.544-.301c-.96-.55-1.738-1.096-2.482-1.931l.912.028c2.908.061 5.992.105 8.613-1.351l-.265-1.058a23.34 23.34 0 0 0-2.678.678c-2.814.755-5.19.286-7.952-.421l-1.011-.257-.705-.234c-.956-.048-1.357.438-2.073 1.044-2.401 1.937-5.113 3.287-8.248 3.23-2.062-.24-3.596-1.683-4.85-3.247-.932-1.478-1.447-3.028-1.057-4.762.95-2.358 2.29-4.51 3.704-6.615z" style="stroke-width:.264582"/><path fill="#4f4f97" d="m50.108 18.438.67.01c7.815.19 15.316 4.374 20.943 9.598-.379.93-.816 1.34-1.654 1.885l-.6.399c-1.555.856-2.967 1.001-4.708 1.006l-.725.003c-2.283-.037-4.44-.47-6.66-.974-1.505-.334-2.771-.52-4.306-.385-1.023.057-1.332.014-2.15-.63-.612-.673-1.147-1.367-1.686-2.098a35.752 35.752 0 0 0-1.059-1.059l2.646-.264-.48-.579c-.578-.744-.578-.744-.921-1.393-.537-.803-1.06-1.131-1.89-1.616-1.839-1.084-1.839-1.084-2.53-1.968.04-.535.04-.535.265-1.059 1.455-.866 3.197-.914 4.845-.876z" style="stroke-width:.264582"/><path fill="#383465" d="M21.715 51.858a9.803 9.803 0 0 1 1.521 1.836l.36.536c.292.666.196.92-.029 1.597-.104 1.237-.104 1.237.307 2.363.222.547.222.547 0 1.132l-.402.63-.432.695-.465.72c-.297.47-.594.94-.889 1.412l-.405.63c-.843 1.452-1.1 2.668-.889 4.324.605 2.255 2.094 3.869 4.085 5.027 2.713.762 5.08-.02 7.507-1.306.97-.551 1.862-1.122 2.696-1.869l.529.265c-3.08 5.76-3.08 5.76-5.292 6.614-3.798.662-8.318-1.158-11.369-3.27-2.528-1.969-4.044-5.045-4.77-8.107-.085-.905-.098-1.803-.1-2.712l-.02-.72c-.007-1.706-.007-1.706.576-2.414.671-.267 1.14-.32 1.859-.289l.64.022.484.028.265 2.116c.804-.306.804-.306 1.27-.992l.116-.558.142-.625.142-.669c.55-2.349 1.375-4.318 2.563-6.416z" style="stroke-width:.264582"/><path fill="#82aefc" d="m16.225 33.933.69.035c2.629.16 5.467.385 7.975 1.221.13 1.18.13 1.18.265 2.382l-1.14.213-1.473.283-.752.14-.718.139-.663.126c-.599.125-.599.125-1.075.686-.05.95-.086 1.787.154 2.711.16.668.24 1.11.11 1.787-.607.653-1.244 1.132-1.98 1.634-.64.464-1.026.886-1.46 1.541-3.136-.423-6.29-1.192-8.995-2.91l-.53-.794 1.588-.265c.106-1.108.106-1.108-.364-2.067-.43-.332-.43-.332-.959-.579v-.793l2.382.264c.6-.725.6-.725.48-1.438-.228-.718-.524-1.167-1.01-1.737l.53-.264.529.264c.794.066.794.066 1.587 0l.53-.529a34.035 34.035 0 0 0-.265-1.587c.927-.928 3.358-.529 4.564-.463z" style="stroke-width:.264582"/><path fill="#383464" d="m46.85 23.283 2.117.53.265-.53.314.562c.54.857 1.143 1.582 1.802 2.349-.525-.01-1.05-.018-1.576-.026-.594.004-.594.004-1.334.29l.426.359c1.023.876 1.951 1.72 2.749 2.816l-.612.579c-1.058 1.107-1.62 1.953-1.637 3.506.11 3.583 1.897 6.934 4.402 9.447.413.358.847.693 1.286 1.02l-.258.574a6.52 6.52 0 0 0-.061 4.282c.45.92.985 1.764 1.642 2.552-3.486.245-7.145-1.008-10.054-2.91-.487-.506-.897-1.026-1.323-1.587l.596-.397c1.309-1.19 1.969-2.779 2.104-4.534.05-3.251-.474-6.32-1.575-9.373-.534-1.517-.74-2.402-.331-3.953l.248-.975.137-.516c.308-1.339.479-2.706.673-4.065z" style="stroke-width:.264582"/><path fill="#4f4e97" d="M43.146 29.898c0 1.451-1.147 2.436-2.117 3.44-1.54 1.225-3.188 2.244-4.894 3.224-1.127.673-1.85 1.182-2.514 2.332-.1.894-.08 1.75 0 2.645-1.806 1.021-3.605.921-5.639.91l-1.016.016c-3.957-.002-3.957-.002-5.516-1.19-.2-.7-.2-.7-.264-1.323l.803-.146 1.065-.201.527-.095c1.232-.237 2.288-.617 3.426-1.146-.129-.826-.265-1.586-.53-2.38-.05-.944-.05-.944 0-1.853l.53-.53.646.26c1.131.324 2.136.358 3.306.353l.62.013c1.402 0 2.401-.195 3.63-.89.31-.525.31-.525.529-1.058 2.155-1.445 4.911-1.857 7.408-2.381z" style="stroke-width:.264582"/><path fill="#83affd" d="M43.94 32.279c.856.69 1.054 1.443 1.356 2.48l.267.9c.706 2.63 1.122 5.962-.085 8.493-.733 1.207-1.506 1.963-2.861 2.414-1.362.162-2.119.113-3.258-.678-.962-.807-1.43-1.532-1.769-2.761-.055-.72-.038-1.392 0-2.117l-1.042.017c-.358.006-.717.002-1.075-.017-.264-.264-.264-.264-.397-.975.157-1.037.501-1.38 1.315-2.014a50.997 50.997 0 0 1 3.181-1.95c1.445-.833 2.76-1.758 3.806-3.081l.562-.711z" style="stroke-width:.264582"/><path fill="#f8f8f8" d="M35.672 52.768c.595.148.595.148 1.124.678.043.5.043.5.015 1.104l-.02.664c-.018.46-.039.921-.062 1.381-.028 1.082-.042 1.697.528 2.641a31.65 31.65 0 0 0 2.288 1.924c.426.488.426.488.521 1.174-.095.636-.095.636-.624 1.166a37.83 37.83 0 0 1-1.633-.048c-2.37-.18-2.37-.18-4.403.875-.455.498-.455.498-.843 1.025l-.417.476c-.314.36-.612.734-.906 1.111-1.257-.198-1.257-.198-1.852-.793-.04-.501-.04-.501-.005-1.105l.023-.664c.021-.46.045-.921.073-1.381.044-1.435.044-1.435-.692-2.65l-.722-.55-.534-.421-.475-.357c-.724-.606-.827-.705-.975-1.686.132-.711.132-.711.397-.976a18.28 18.28 0 0 1 1.127-.037l.7-.016c.485-.009.97-.014 1.457-.014 1.675-.047 2.436-.296 3.595-1.52.28-.329.552-.664.81-1.01.683-.823.683-.823 1.505-.991z" style="stroke-width:.264582"/><path fill="#697cca" d="M13.513 69.585c.626.58 1.047 1.173 1.488 1.902 2.027 3.06 5.05 4.668 8.53 5.615.652.18 1.268.416 1.888.685-1.124 1.718-2.478 3.145-4.233 4.233h-1.059l-.264-1.058c-.9.028-.9.028-1.852.265-.45.66-.45.66-.794 1.323H16.16l.182-1.01c.107-.855.107-.855-.182-1.653-.827-.387-1.512-.164-2.381.017l-.265.793h-.53l.133-.545c.152-.892.167-1.727.132-2.63-.297-.358-.297-.358-1.075-.28-.256.004-.512.01-.777.016-.212-2.92.251-5.348 2.117-7.673z" style="stroke-width:.264582"/><path fill="#fbfcfd" d="M64.313 40.481c1.063 1.965 1.412 3.584.874 5.776-.63 1.934-1.536 3.194-3.04 4.526-1.22.46-2.374.507-3.655.281-1.316-.691-2.16-1.776-2.646-3.175-.215-.876-.215-.876 0-1.852.781-.918 1.7-1.638 2.646-2.381l.446-.356c3.655-2.915 3.655-2.915 5.375-2.819z" style="stroke-width:.264582"/><path fill="#697cca" d="m6.898 39.423.493.067.648.081.642.084c.643.071.643.071 1.392-.232.693.217.693.217 1.555.562 2.507.94 5.096 1.503 7.706 2.083l.264 1.588-.55.426-.723.566-.716.558a7.813 7.813 0 0 0-1.45 1.625c-3.137-.423-6.292-1.192-8.996-2.91l-.53-.794 1.588-.265c.106-1.108.106-1.108-.364-2.067-.43-.333-.43-.333-.959-.579v-.793z" style="stroke-width:.264582"/><path fill="#687bc9" d="M72.817 30.17c.601.314.849.633 1.22 1.2l.342.513.252.396c-.374.254-.749.508-1.124.76l-.633.429c-3.641 2.327-9.416 1.414-13.423.547-2.618-.581-2.618-.581-3.34-.942-1.315-.1-2.13-.042-3.175.793-.531.846-.624 1.593-.695 2.58l-.06.79-.039.6c-1.186-1.456-1.471-2.751-1.416-4.603.093-.69.093-.69.54-1.533 2.315-1.267 5.483-.323 7.937.182 6.017 1.163 6.017 1.163 11.724-.661l.681-.592c.642-.467.642-.467 1.209-.46z" style="stroke-width:.264582"/><path fill="#687bc8" d="M82.304 50.27h.265c.137 5.26-.11 9.95-3.837 14.023-2.245 2.2-4.888 3.015-7.948 2.984-2.204-.177-4.22-1.02-5.678-2.719a16.273 16.273 0 0 1-.529-1.058c.749.36 1.45.76 2.15 1.207 1.161.738 1.806.95 3.208.959l.897.011c.91-.062 1.629-.265 2.477-.59l-.265-2.116c.23.223.458.447.694.678.629.513.817.64 1.654.694 1.215-.461 2.609-1.232 3.208-2.43l-.459-.074c-.746-.238-1.148-.607-1.724-1.134l-.566-.514-.426-.395.53-.265c.44.175.882.352 1.322.53.51.072 1.024.127 1.538.164l.783.06.59.04.198-.612c.442-1.303.916-2.594 1.39-3.886l-.688.028c-1.752.041-3.062.04-4.604-.822v-.264l.543-.08c1.801-.288 3.34-.78 5.013-1.508l.264-2.91z" style="stroke-width:.264582"/><path fill="#383464" d="M56.64 53.446h1.323a342.525 342.525 0 0 1-.331 3.472l-.088.992c-.315 3.087-.315 3.087-1.433 4.267-.947.746-2.091.588-3.242.562l-.597-.007c-.484-.006-.969-.016-1.453-.026-.171-.928-.215-1.722 0-2.646.585-.64 1.212-1.09 1.92-1.588 1.814-1.32 3.012-2.99 3.9-5.026zM47.909 70.908c.276.415.552.83.823 1.248 1.133 1.683 2.227 2.217 4.204 2.72-1.028 1.143-1.913 1.6-3.44 1.704-2.538-.075-4.856-1.442-7.028-2.646l-.544-.301c-.96-.55-1.738-1.096-2.482-1.931l.912.028c2.647.055 4.983-.128 7.555-.822z" style="stroke-width:.264582"/><path fill="#687bc9" d="M44.998 34.396c1.35 2.575 1.624 6.26.808 9.06-.576 1.22-1.22 2.135-2.395 2.846-1.235.411-2.312.563-3.492-.025-1.242-.862-1.918-1.659-2.33-3.15-.054-.72-.037-1.392 0-2.117l-1.04.017c-.36.006-.718.002-1.076-.017-.264-.264-.264-.264-.28-1.075l.016-.777.529-.264.264 1.058 1.852.264.262.734.35.953.344.949c.31.867.31.867 1.161 1.333 1.112.126 1.712.073 2.712-.446 1.313-1.104 1.947-2.488 2.118-4.197.043-.778.074-1.556.098-2.335l.031-.82c.025-.664.047-1.327.068-1.991z" style="stroke-width:.264582"/><path fill="#81acf9" d="M39.376 27.516c.466.259.93.521 1.389.794v.53l-.72.214c-2.153.677-4.116 1.474-6.085 2.586-1.256.679-1.256.679-2.017.463-.545-.439-.897-.793-1.232-1.412-.043-.784.153-1.184.642-1.79 2.35-2.475 4.938-2.927 8.023-1.385z" style="stroke-width:.264582"/><path fill="#83aefc" d="M13.513 69.585c.644.598 1.1 1.228 1.57 1.968.557.85 1.103 1.587 1.87 2.265a14.688 14.688 0 0 1-1.323 2.663c-.478.775-.929 1.544-1.323 2.364h-.53l-.248-.644c-.218-.65-.218-.65-.545-.943-.53-.01-1.059-.011-1.588 0-.212-2.92.251-5.348 2.117-7.673z" style="stroke-width:.264582"/><path fill="#f8f9fb" d="M75.69 35.19c.614-.068.614-.068 1.323 0 2.954 3.154 4.738 9.325 5.027 13.493-.121.76-.121.76-.265 1.323l-.794-.265c-.226-.467-.226-.467-.402-1.065l-.199-.654-.192-.662-.35-1.125-.177-.563c-.9-2.819-2.04-5.521-3.634-8.025-.464-.833-.392-1.522-.337-2.458z" style="stroke-width:.264582"/><path fill="#687ac8" d="M36.002 71.702c.708.34 1.362.71 2.012 1.15l.525.353.54.365 1.068.72.475.322c.418.282.418.282.937.53v.528c-1.349 1.087-2.714 1.838-4.47 1.71-1.275-.28-2.356-.977-3.203-1.974a11.25 11.25 0 0 1 1.356-2.596l.432-.634.328-.474z" style="stroke-width:.264582"/><path fill="#7fa9f3" d="M64.577 41.54c.769.768.844 1.468.877 2.513-.03 2.225-.78 4.25-2.336 5.855-1.235 1.14-2.242 1.33-3.905 1.283-1.182-.208-1.836-.796-2.573-1.714-.775-1.175-.878-2.044-.794-3.44.53.794.53.794.877 1.588.514.914.8 1.2 1.769 1.587 1.632.187 2.912-.036 4.233-1.058 1.19-1.491 1.63-2.78 1.737-4.663l.034-.567c.028-.461.055-.923.081-1.385z" style="stroke-width:.264582"/><path fill="#687bc9" d="M66.959 46.037c1.978.104 3.796 1.288 5.126 2.712a9.58 9.58 0 0 1 1.753 3.638c-.107.609-.107.609-.265 1.059l-.282-.475c-1.82-2.912-3.962-3.596-7.126-4.553l.794-2.38z" style="stroke-width:.264582"/><path fill="#f4f6f9" d="m43.94 32.279.264.53c-1.002 2.51-2.843 5.103-5.291 6.35-.86.065-.86.065-1.588 0-.264-.265-.264-.265-.399-.87.135-.718.135-.718.947-1.322.355-.2.713-.396 1.073-.587 1.685-.924 3.22-1.856 4.432-3.39.185-.235.37-.47.562-.711z" style="stroke-width:.264582"/><path fill="#181521" d="M34.15 57.943c.662.43.662.43 1.059 1.059.148.777.148.777 0 1.587-.658.89-1.036 1.27-2.134 1.472-.777-.149-.777-.149-1.405-.546-.643-.99-.56-1.607-.43-2.778.56-1.119 1.807-.991 2.91-.794z" style="stroke-width:.264582"/><path fill="#f0f1f5" d="m16.225 33.933.7.035c2.251.134 4.436.502 6.642.957v1.058c-1.862.931-4.237.026-6.09-.505-1.65-.467-3.337-.767-5.022-1.082v-.265c1.266-.34 2.474-.266 3.77-.198z" style="stroke-width:.264582"/><path fill="#151423" d="M57.698 34.66c1.22.506 2.342 1.12 3.44 1.852v.53l-.445-.013c-.667-.017-1.335-.027-2.003-.037l-.7-.02c-1.264-.015-1.966-.018-2.938.863h-1.058c.047-1.194.15-1.725.96-2.63 1.08-.66 1.498-.753 2.744-.545z" style="stroke-width:.264582"/><path fill="#393668" d="M67.752 24.87c.974.478 1.63 1.09 2.382 1.853-1.944.472-3.776.603-5.772.579l-.81-.001c-1.199-.007-2.299-.05-3.473-.314v-.264l.477-.085c.723-.13 1.446-.262 2.17-.395l.749-.133c1.166-.216 2.247-.453 3.346-.906l.931-.333z" style="stroke-width:.264582"/><path fill="#373363" d="M39.718 65.687c.967.24 1.908.363 2.899.458v.265l-.61-.02c-.916-.028-1.831-.046-2.747-.063l-.96-.033c-1.806-.067-1.806-.067-3.368.711l-.517.728c-.398.385-.8.765-1.207 1.141l-.597.56c-.577.416-.577.416-1.636.416v-.53c.398-.382.398-.382.943-.826.986-.834 1.82-1.726 2.644-2.719 1.305-1.446 3.556-.515 5.156-.088z" style="stroke-width:.264582"/><path fill="#f3f4f6" d="M13.513 69.585c.413.281.413.281.794.794-.095 1.36-.456 2.39-1.059 3.605-.499 1.01-.892 1.891-1.058 3.01l-.794.264c-.212-2.92.251-5.348 2.117-7.673z" style="stroke-width:.264582"/><path fill="#687bc9" d="M32.034 28.31c.85.373 1.408.821 2.05 1.489l.492.506.368.386c-1.507 1.173-1.507 1.173-2.381 1.588-.71-.188-1.021-.492-1.538-1.009-.314-.579-.314-.579-.298-1.24.293-.781.683-1.176 1.307-1.72z" style="stroke-width:.264582"/><path fill="#7ba5f0" d="M6.634 43.127c1.189.192 2.281.593 3.406 1.009 2.101.76 4.215 1.365 6.383 1.901l-.264.794c-3.137-.423-6.292-1.192-8.996-2.91l-.53-.794z" style="stroke-width:.264582"/><path fill="#4e4e96" d="M23.832 44.979c-.32.96-.54 1.026-1.406 1.488l-.625.341c-.954.446-1.75.586-2.798.569l-.992-.017c1.837-2.305 2.858-2.812 5.82-2.381z" style="stroke-width:.264582"/><path fill="#7ca5f1" d="m24.096 77.523 1.323.264c-1.003 1.447-2.05 2.62-3.44 3.704l-.529-.264.877-1.257.493-.707a64.04 64.04 0 0 1 1.276-1.74z" style="stroke-width:.264582"/><path fill="#373363" d="M25.155 59.796c1.111.571 2.124 1.216 2.645 2.38.11 1.156.078 2.284 0 3.44h-.264l-.017-.893c-.156-1.348-.862-2.212-1.678-3.261-.402-.58-.573-.979-.686-1.666z" style="stroke-width:.264582"/><path fill="#ebeff7" d="M34.944 26.723c1.917-.142 3.103.075 4.763 1.058l-.265.794c-1.15-.174-2.11-.602-3.175-1.059-.735-.182-.735-.182-1.323-.264v-.53z" style="stroke-width:.264582"/><path fill="#e7e6e8" d="M43.146 20.373c.53 0 .53 0 1.224.562 1.082 1.308.726 3.138.628 4.73-.722-.722-.837-1.536-1.075-2.498-.354-1.406-.354-1.406-.777-2.794z" style="stroke-width:.264582"/><path fill="#7da7f4" d="m41.096 74.96.463.181v.53c-.886.725-1.765 1.286-2.91 1.405-.263-.04-.263-.04-.53-.083 2.098-2.156 2.098-2.156 2.977-2.034z" style="stroke-width:.264582"/></svg>