<?xml version="1.0" encoding="UTF-8" standalone="no"?>
<svg
   width="327.40161"
   height="329.17422"
   viewBox="0 0 86.624635 87.093522"
   version="1.1"
   id="svg54"
   sodipodi:docname="pninja-logo.svg"
   inkscape:version="1.3.2 (091e20e, 2023-11-25)"
   xmlns:inkscape="http://www.inkscape.org/namespaces/inkscape"
   xmlns:sodipodi="http://sodipodi.sourceforge.net/DTD/sodipodi-0.dtd"
   xmlns="http://www.w3.org/2000/svg"
   xmlns:svg="http://www.w3.org/2000/svg">
  <defs
     id="defs54" />
  <sodipodi:namedview
     id="namedview54"
     pagecolor="#ffffff"
     bordercolor="#000000"
     borderopacity="0.25"
     inkscape:showpageshadow="2"
     inkscape:pageopacity="0.0"
     inkscape:pagecheckerboard="0"
     inkscape:deskcolor="#d1d1d1"
     inkscape:zoom="1.1455625"
     inkscape:cx="247.04021"
     inkscape:cy="97.332097"
     inkscape:window-width="1916"
     inkscape:window-height="1041"
     inkscape:window-x="1080"
     inkscape:window-y="18"
     inkscape:window-maximized="1"
     inkscape:current-layer="svg54" />
  <path
     d="M 14.835846,-6.1354654e-5 C 23.450752,0.39626865 30.65501,2.5447286 37.32533,8.2019886 c 0.29161,0.2338 0.29161,0.2338 0.58911,0.47232 2.32317,1.9332304 4.11799,4.4161404 5.76086,6.9359804 0.1916,-0.0562 0.38319,-0.1123 0.58059,-0.17014 1.97859,-0.54248 3.78825,-0.75086 5.83553,-0.72283 0.28929,0.003 0.57857,0.006 0.87662,0.009 10.08536,0.19726 18.82489,5.57072 25.78004,12.52587 0.03,0.19952 0.06,0.39904 0.0909,0.60461 0.23203,0.95988 0.70629,1.42488 1.36425,2.15696 6.21048,7.14766 8.96066,16.96011 8.33434,26.34247 -0.51364,4.44215 -2.41684,8.71223 -5.91099,11.57857 -3.28081,2.44854 -7.25089,3.34801 -11.28685,2.97345 -2.21446,-0.43407 -4.06754,-1.22602 -5.82081,-2.64582 -0.16849,-0.13268 -0.33697,-0.26535 -0.51056,-0.40205 -1.44151,-1.27137 -2.02926,-2.84245 -2.66443,-4.62502 -0.73153,0.62255 -1.18955,1.24022 -1.58749,2.11666 -0.0592,0.75006 -0.0772,1.42393 -0.0434,2.16937 0.009,0.20125 0.0175,0.4025 0.0265,0.60985 0.0439,0.84553 0.0984,1.68932 0.16922,2.53303 0.29293,3.73698 0.29293,3.73698 -0.81681,5.24772 -2.09221,2.44107 -4.68237,4.30283 -7.9551,4.6101 -1.96377,0.0209 -3.51254,-0.1118 -5.30611,-0.94154 -0.9465,-0.31082 -1.60372,-0.10749 -2.48356,0.31626 -0.15655,0.0951 -0.31309,0.19031 -0.47439,0.28835 -0.2783,0.16917 -0.55661,0.33833 -0.84335,0.51263 0.17565,0.0259 0.35129,0.0518 0.53226,0.0785 1.41115,0.23898 2.40434,0.44352 3.43647,1.50895 0.46981,0.93961 0.38522,1.98643 0.0827,2.97655 -0.69201,0.92268 -1.62923,1.29689 -2.7285,1.52135 -0.99544,0.0883 -1.9945,0.1134 -2.99309,0.14883 -0.46488,0.0166 -0.46488,0.0166 -0.93915,0.0334 -5.98326,0.18865 -11.97866,0.15728 -17.961938,-0.0169 -0.471339,-0.0122 -0.471339,-0.0122 -0.952199,-0.0247 -3.56794,-0.124 -6.640574,-0.61894 -9.383043,-3.08415 -2.4594038,-2.64312 -2.8372848,-5.68285 -2.7874148,-9.10431 0.09808,-2.3773 0.890225,-4.3722 2.192105,-6.35721 0.7556958,-1.27436 0.468206,-2.27566 0.186034,-3.67831 -0.439918,-2.4276 -0.536605,-4.82171 0.7410368,-6.99696 1.068898,-1.43324 2.341741,-2.47132 4.139264,-2.75744 0.520416,-0.0685 1.042548,-0.12363 1.564756,-0.17674 0.0382,-0.24556 0.0764,-0.49113 0.115755,-0.74413 0.148827,-0.84336 0.148827,-0.84336 0.413409,-1.63711 -0.185538,-0.0218 -0.371076,-0.0437 -0.562237,-0.0661 -1.111583,-0.28998 -1.947757,-0.90843 -2.809119,-1.65778 -0.790819,-0.51991 -1.54583,-0.67377 -2.465988,-0.88883 -3.0109278,-0.75191 -6.1542328,-1.8581 -7.9043928,-4.58057 -0.897723,-1.54287 -1.005055,-2.9555 -0.810283,-4.71287 1.124109,-3.76965 3.465644,-7.51473 6.947349,-9.46709 1.2535378,-0.55712 2.5583538,-0.8533 3.9005208,-1.1162 -0.38472,-0.18776 -0.38472,-0.18776 -0.777211,-0.3793 -1.883005,-0.92644 -3.7374348,-1.88054 -5.5562258,-2.92798 -2.149595,-1.23548 -4.374915,-2.2825 -6.63109096,-3.30728 -0.149475,-4.15209 0.537229,-7.28666 3.32588096,-10.47476 0.37827,-0.37311 0.37827,-0.37311 1.172016,-0.90227 2.807657,0.19035 5.331774,2.00047 7.2853118,3.89225 1.10042,1.02194 2.332752,1.86424 3.562558,2.7223 0.268076,-0.43997 0.268076,-0.43997 0.541567,-0.88883 0.238323,-0.38727 0.476727,-0.7745 0.715199,-1.16168 0.175988,-0.28956 0.175988,-0.28956 0.355532,-0.58497 0.617027,-0.99814 1.205733,-1.86942 2.091853,-2.65616 -0.287175,0.0246 -0.57435,0.0491 -0.870227,0.0744 -2.982735,0.18024 -2.982735,0.18024 -3.969767,-0.48059 -0.413654,-0.55189 -0.7022,-1.08052 -0.980814,-1.71048 -0.163711,-0.28376 -0.327421,-0.56753 -0.496092,-0.85989 -0.813934,-2.7131104 -0.308158,-5.6661204 0.902267,-8.1886104 0.378439,-0.69873 0.768414,-1.38512995 1.181318,-2.06394995465 z"
     fill="#13111d"
     id="path5-3"
     style="stroke-width:0.264582" />
  <path
     d="M 14.835846,-6.1354654e-5 C 23.450752,0.39626865 30.65501,2.5447286 37.32533,8.2019886 c 0.29161,0.2338 0.29161,0.2338 0.58911,0.47232 2.32317,1.9332304 4.11799,4.4161404 5.76086,6.9359804 0.1916,-0.0562 0.38319,-0.1123 0.58059,-0.17014 1.97859,-0.54248 3.78825,-0.75086 5.83553,-0.72283 0.28929,0.003 0.57857,0.006 0.87662,0.009 10.08536,0.19726 18.82489,5.57072 25.78004,12.52587 0.03,0.19952 0.06,0.39904 0.0909,0.60461 0.23203,0.95988 0.70629,1.42488 1.36425,2.15696 6.21048,7.14766 8.96066,16.96011 8.33434,26.34247 -0.51364,4.44215 -2.41684,8.71223 -5.91099,11.57857 -3.28081,2.44854 -7.25089,3.34801 -11.28685,2.97345 -2.21446,-0.43407 -4.06754,-1.22602 -5.82081,-2.64582 -0.16849,-0.13268 -0.33697,-0.26535 -0.51056,-0.40205 -1.44151,-1.27137 -2.02926,-2.84245 -2.66443,-4.62502 -0.73153,0.62255 -1.18955,1.24022 -1.58749,2.11666 -0.0592,0.75006 -0.0772,1.42393 -0.0434,2.16937 0.009,0.20125 0.0175,0.4025 0.0265,0.60985 0.0439,0.84553 0.0984,1.68932 0.16922,2.53303 0.29293,3.73698 0.29293,3.73698 -0.81681,5.24772 -2.09221,2.44107 -4.68237,4.30283 -7.9551,4.6101 -1.96377,0.0209 -3.51254,-0.1118 -5.30611,-0.94154 -0.9465,-0.31082 -1.60372,-0.10749 -2.48356,0.31626 -0.15655,0.0951 -0.31309,0.19031 -0.47439,0.28835 -0.2783,0.16917 -0.55661,0.33833 -0.84335,0.51263 0.17565,0.0259 0.35129,0.0518 0.53226,0.0785 1.41115,0.23898 2.40434,0.44352 3.43647,1.50895 0.46981,0.93961 0.38522,1.98643 0.0827,2.97655 -0.69201,0.92268 -1.62923,1.29689 -2.7285,1.52135 -0.99544,0.0883 -1.9945,0.1134 -2.99309,0.14883 -0.46488,0.0166 -0.46488,0.0166 -0.93915,0.0334 -5.98326,0.18865 -11.97866,0.15728 -17.961938,-0.0169 -0.471339,-0.0122 -0.471339,-0.0122 -0.952199,-0.0247 -3.56794,-0.124 -6.640574,-0.61894 -9.383043,-3.08415 -2.4594038,-2.64312 -2.8372848,-5.68285 -2.7874148,-9.10431 0.09808,-2.3773 0.890225,-4.3722 2.192105,-6.35721 0.7556958,-1.27436 0.468206,-2.27566 0.186034,-3.67831 -0.439918,-2.4276 -0.536605,-4.82171 0.7410368,-6.99696 1.068898,-1.43324 2.341741,-2.47132 4.139264,-2.75744 0.520416,-0.0685 1.042548,-0.12363 1.564756,-0.17674 0.0382,-0.24556 0.0764,-0.49113 0.115755,-0.74413 0.148827,-0.84336 0.148827,-0.84336 0.413409,-1.63711 -0.185538,-0.0218 -0.371076,-0.0437 -0.562237,-0.0661 -1.111583,-0.28998 -1.947757,-0.90843 -2.809119,-1.65778 -0.790819,-0.51991 -1.54583,-0.67377 -2.465988,-0.88883 -3.0109278,-0.75191 -6.1542328,-1.8581 -7.9043928,-4.58057 -0.897723,-1.54287 -1.005055,-2.9555 -0.810283,-4.71287 1.124109,-3.76965 3.465644,-7.51473 6.947349,-9.46709 1.2535378,-0.55712 2.5583538,-0.8533 3.9005208,-1.1162 -0.38472,-0.18776 -0.38472,-0.18776 -0.777211,-0.3793 -1.883005,-0.92644 -3.7374348,-1.88054 -5.5562258,-2.92798 -2.149595,-1.23548 -4.374915,-2.2825 -6.63109096,-3.30728 -0.149475,-4.15209 0.537229,-7.28666 3.32588096,-10.47476 0.37827,-0.37311 0.37827,-0.37311 1.172016,-0.90227 2.807657,0.19035 5.331774,2.00047 7.2853118,3.89225 1.10042,1.02194 2.332752,1.86424 3.562558,2.7223 0.268076,-0.43997 0.268076,-0.43997 0.541567,-0.88883 0.238323,-0.38727 0.476727,-0.7745 0.715199,-1.16168 0.175988,-0.28956 0.175988,-0.28956 0.355532,-0.58497 0.617027,-0.99814 1.205733,-1.86942 2.091853,-2.65616 -0.287175,0.0246 -0.57435,0.0491 -0.870227,0.0744 -2.982735,0.18024 -2.982735,0.18024 -3.969767,-0.48059 -0.413654,-0.55189 -0.7022,-1.08052 -0.980814,-1.71048 -0.163711,-0.28376 -0.327421,-0.56753 -0.496092,-0.85989 C 11.938301,7.5396186 12.444077,4.5866086 13.654502,2.0641186 14.032941,1.3653886 14.422916,0.67898865 14.83582,1.6864535e-4 Z M 16.423339,2.3811786 c -0.08731,0.52387 -0.174624,1.04775 -0.264582,1.58749 0.174624,0 0.349248,0 0.529164,0 0,0.17463 0,0.34925 0,0.52917 -0.349248,0.0873 -0.698497,0.17462 -1.058328,0.26458 -0.08731,0.78581 -0.174625,1.57162 -0.264583,2.38124 0.174625,0 0.349249,0 0.529165,0 0.05329,0.95919 -0.03763,1.55178 -0.529165,2.38124 0.303627,0.5494304 0.303627,0.5494304 0.793747,1.0583304 0.652928,0.15723 0.652928,0.15723 1.396291,0.13332 0.280737,0.004 0.561475,0.009 0.85072,0.0131 0.300775,8e-4 0.60155,0.002 0.911439,0.002 6.963533,0.1523 13.401253,1.25688 18.643743,6.25799 2.07163,2.22116 4.92061,6.0043 4.92061,9.20354 -0.10884,-0.113 -0.21768,-0.226 -0.32982,-0.34242 -2.39505,-2.47373 -4.80684,-4.79267 -7.60765,-6.8013 -0.243,-0.1749 -0.243,-0.1749 -0.49092,-0.35334 -3.15406,-2.24442 -6.63652,-4.50087 -10.62153,-4.50836 -0.272168,-0.01 -0.272168,-0.01 -0.549834,-0.0196 -1.365311,-0.008 -2.124572,0.29351 -3.154316,1.17719 -0.590274,0.76773 -0.590274,0.76773 -1.074865,1.6371 -0.08885,0.15064 -0.177694,0.30129 -0.269233,0.45649 -0.261645,0.44627 -0.517202,0.89608 -0.77256,1.34598 -0.141541,0.24897 -0.283082,0.49795 -0.428912,0.75447 -0.302551,0.53996 -0.600982,1.08159 -0.893999,1.62677 -2.734787,-0.0595 -4.687806,-2.26106 -6.657511,-3.94871 -1.8506318,-1.6305 -1.8506318,-1.6305 -3.9257758,-2.93043 -0.63752,0.0759 -0.993923,0.2246 -1.537884,0.56224 -0.501254,0.79145 -0.232416,1.46737 -0.04961,2.34816 -0.523873,0 -1.047746,0 -1.587493,0 -0.489825,1.03943 -0.587386,1.84884 -0.562238,2.99309 0.0048,0.28274 0.0095,0.56548 0.01447,0.85679 0.0061,0.21385 0.01228,0.42769 0.0186,0.64802 0.139516,0.0677 0.279033,0.13536 0.422776,0.20509 2.397036,1.16769 4.770022,2.33688 7.035135,3.74711 2.2217728,1.36792 4.1773828,2.22304 6.8295268,1.86861 2.239164,-0.54026 3.839706,-1.76966 5.100442,-3.68968 0.718703,-1.33977 1.107558,-2.78989 1.514113,-4.24779 0.130968,-0.3929 0.130968,-0.3929 0.264582,-0.79374 1.927246,-0.12323 3.375556,0.1317 5.142826,0.89296 0.22557,0.0939 0.45114,0.18788 0.68354,0.28467 3.43054,1.46162 6.82858,3.14249 9.78399,5.43692 -0.1354,-0.042 -0.27081,-0.0839 -0.41031,-0.12712 -2.0842,-0.44211 -4.56287,-0.44798 -6.46883,0.56637 -1.28967,0.86397 -2.59979,1.77616 -3.17499,3.2649 -0.15158,1.11817 -0.17966,2.07432 0.39688,3.05923 0.13097,0.12551 0.26193,0.25102 0.39687,0.38034 -0.89685,-0.10429 -1.5075,-0.21506 -2.28202,-0.69453 -0.58846,-0.41075 -0.58846,-0.41075 -1.19062,-0.3638 -0.5654,0.24093 -0.5654,0.24093 -0.84336,0.94257 -0.14733,0.21283 -0.29467,0.42565 -0.44648,0.64492 -1.275222,0.10461 -2.464132,-0.0747 -3.721788,-0.28267 -6.27871,-1.07659 -6.27871,-1.07659 -12.1531458,0.81184 -2.350338,1.85688 -4.419882,4.70748 -4.846194,7.73903 -0.07655,1.46193 0.188466,2.51719 1.142044,3.638 1.362142,1.05333 2.852239,1.65586 4.4813598,2.16627 0.296469,0.098 0.296469,0.098 0.598928,0.19792 1.224156,0.39608 2.437987,0.69572 3.704731,0.92281 0.734831,0.23585 0.89041,0.82855 1.269104,1.47548 0.763735,0.37317 1.56,0.5825 2.381239,0.79375 0.206684,0.0546 0.413369,0.10914 0.626316,0.16536 0.495365,0.12693 0.992687,0.24617 1.490342,0.3638 -0.105389,0.20464 -0.210777,0.40928 -0.319359,0.62012 -1.457832,2.60711 -1.457832,2.60711 -2.061881,5.46527 -0.166439,-0.0123 -0.332877,-0.0245 -0.50436,-0.0372 -1.672412,-0.0705 -2.873036,0.12332 -4.258119,1.09554 -1.148862,1.18592 -1.099932,2.45826 -1.107938,4.05142 -0.0038,0.33731 -0.0075,0.67462 -0.01137,1.02215 0.06214,1.03118 0.307287,1.87446 0.590142,2.8639 0.156816,1.51589 -0.201901,2.4084 -1.00872,3.65454 -1.5927888,2.64163 -2.3592258,5.11566 -1.9016838,8.25166 0.7040378,2.11211 1.7082518,3.8554 3.5191498,5.20379 2.01008,0.99195 4.022515,1.27488 6.240419,1.32601 0.40885,0.0131 0.40885,0.0131 0.825959,0.0265 3.020509,0.0874 6.042205,0.0982 9.063775,0.0928 0.94243,-0.001 1.88483,1e-5 2.82727,0.002 2.74733,8e-4 5.49029,-0.0156 8.2346,-0.15399 0.31156,-0.0154 0.31156,-0.0154 0.62941,-0.0311 1.03247,-0.0459 1.03247,-0.0459 1.99678,-0.38019 -0.0873,-0.26194 -0.17463,-0.52388 -0.26458,-0.79375 -2.35927,-0.23249 -4.70368,-0.3177 -7.07344,-0.3483 -0.36325,-0.005 -0.7265,-0.011 -1.08974,-0.0167 -0.9447,-0.0144 -1.88941,-0.0276 -2.83414,-0.0404 -0.96856,-0.0134 -1.9371,-0.0281 -2.90565,-0.0426 -1.89202,-0.0282 -3.784067,-0.0551 -5.676121,-0.0811 0.180827,-0.13765 0.361655,-0.27528 0.547962,-0.4171 0.237656,-0.18466 0.475313,-0.36932 0.720172,-0.55959 0.235398,-0.18129 0.470795,-0.36259 0.713326,-0.54938 0.661371,-0.58793 1.081231,-1.14576 1.540791,-1.89697 0.58046,-0.81181 0.81521,-1.04178 1.80764,-1.24643 0.92087,-0.0434 0.92087,-0.0434 1.79109,-0.0155 1.01265,-0.0961 1.39425,-0.47043 2.1394,-1.13584 1.01538,0 1.62881,0.70215 2.38124,1.32291 1.36512,0.85282 2.94895,0.67659 4.4979,0.52916 1.32381,-0.36717 2.26791,-0.95251 3.2742,-1.86861 0.44235,-0.3421 0.44235,-0.3421 0.95911,-0.51263 0.80729,0.22749 1.47646,0.55571 2.20968,0.96118 1.66758,0.86084 3.63118,0.81782 5.46321,0.62632 1.48561,-0.50122 2.82825,-1.30412 3.96873,-2.38124 0.13551,-0.10405 0.27102,-0.20809 0.41063,-0.31529 0.83525,-0.75538 1.15415,-1.2931 1.26019,-2.43079 -0.0367,-1.08203 -0.12266,-2.14709 -0.23216,-3.22356 -0.0313,-0.37321 -0.0618,-0.74649 -0.0915,-1.11982 -0.12696,-1.52854 -0.2853,-3.04104 -0.55345,-4.55216 0.19645,-0.06 0.39291,-0.12005 0.59531,-0.1819 1.182,-0.56414 1.81214,-1.54637 2.3151,-2.7285 0.0942,-0.52368 0.16723,-1.05136 0.2253,-1.58026 0.0341,-0.30338 0.0682,-0.60675 0.10336,-0.91932 0.0334,-0.31566 0.0668,-0.63131 0.10128,-0.95653 0.0355,-0.31667 0.0709,-0.63335 0.10749,-0.95963 0.1882,-1.62495 0.1882,-1.62495 0.25631,-3.25715 0.28922,0.0164 0.57845,0.0327 0.87643,0.0496 2.14986,-0.008 4.07348,-0.62453 5.7774,-1.93062 0.70094,-0.33716 1.07912,-0.19826 1.8128,0.0289 1.55634,0.70278 2.93829,1.55396 3.76307,3.0861 0.55451,1.66634 0.47095,3.42888 -0.27389,5.01673 -0.40811,0.74116 -0.62932,0.92666 -1.37252,1.42213 -0.9095,0.11575 -0.9095,0.11575 -1.85208,0 -0.68521,-0.66564 -1.073,-1.34923 -1.53788,-2.18281 -0.53356,-0.80087 -0.53356,-0.80087 -1.48827,-1.05833 -1.00378,-0.0304 -1.00378,-0.0304 -1.70325,0.79375 -0.9246,1.41408 -1.02997,2.64861 -0.82682,4.29946 0.68243,2.09014 1.84626,3.52329 3.7765,4.55474 3.11949,1.45611 6.49328,1.33225 9.71719,0.20774 3.24865,-1.37663 5.34619,-3.77587 6.73134,-6.96285 2.76249,-6.91802 1.06385,-15.18393 -1.70428,-21.87661 -1.684,-3.7098 -4.22508,-6.89101 -7.02176,-9.82468 -0.41878,-0.53523 -0.49227,-0.90287 -0.65112,-1.55235 -3.68802,-4.89917 -10.67855,-7.96232 -16.4041,-9.52496 -0.31207,-0.0894 -0.62414,-0.17872 -0.94567,-0.27078 -2.12798,-0.51949 -4.2292,-0.61731 -6.41302,-0.65526 -0.41672,-0.0122 -0.41672,-0.0122 -0.84187,-0.0247 -1.92464,-3.1e-4 -3.43408,0.36285 -5.02855,1.47987 -0.60784,0.74278 -0.60784,0.74278 -0.49609,1.57096 0.15919,0.83266 0.15919,0.83266 0.77101,1.28674 0.68959,0.77339 0.62926,1.21699 0.58498,2.23551 -0.01,0.28513 -0.0191,0.57026 -0.0289,0.86403 -0.0123,0.21691 -0.0246,0.43383 -0.0372,0.65732 -0.0518,-0.23431 -0.10369,-0.46862 -0.1571,-0.71003 -1.71947,-7.12245 -5.97382,-13.34462 -12.2731,-17.1999104 -4.84623,-2.83007 -10.20461,-4.82446 -15.880103,-4.84413 z"
     fill="#f8f8f9"
     id="path11-6"
     style="stroke-width:0.264582" />
  <path
     d="m 72.77521,30.133369 c 0.81161,0.4467 1.34402,1.10859 1.92236,1.81487 0.128,0.15476 0.25601,0.30951 0.38789,0.46896 3.02492,3.73422 5.20701,8.18455 6.4251,12.82629 0.0757,0.28138 0.15143,0.56276 0.22944,0.85266 1.44575,5.5558 1.40958,11.29409 -1.48621,16.36172 -1.75985,2.29759 -3.99757,4.2214 -6.94528,4.74594 -2.71966,0.22758 -5.18621,-0.072 -7.39177,-1.78593 -1.18534,-1.1312 -1.8051,-2.34151 -1.96783,-3.96873 0.0905,-0.78457 0.20712,-1.25999 0.62839,-1.91822 0.69665,0.0991 0.99449,0.19341 1.47174,0.72554 0.12551,0.18622 0.25102,0.37244 0.38033,0.5643 0.54071,0.79637 1.03149,1.36931 1.85208,1.88515 1.26702,0.16734 2.17995,0.003 3.2711,-0.68833 1.43819,-1.22881 2.17604,-3.10506 2.38331,-4.94645 0.0461,-2.39679 -0.27701,-4.06549 -1.8004,-5.94586 -1.16151,-1.14413 -2.60658,-1.62285 -4.1217,-2.15697 -0.64911,-0.23418 -1.24196,-0.48949 -1.84897,-0.81441 0.0853,-0.26569 0.17053,-0.53138 0.25838,-0.80512 0.67218,-2.3669 0.51214,-4.89349 -0.45268,-7.14475 -0.39394,-0.60793 -0.77852,-0.93072 -1.39319,-1.31051 -1.56385,-0.28149 -2.5226,0.26083 -3.80337,1.07693 -0.98407,0.72341 -1.85684,1.5438 -2.72541,2.40088 -0.70307,0.56128 -1.03455,0.78147 -1.93785,0.75551 -2.42681,-1.6471 -4.44743,-4.87768 -5.29165,-7.67289 -0.22609,-1.41261 -0.22914,-2.47758 0.44649,-3.75376 2.31537,-1.2669 5.48325,-0.32283 7.93746,0.1819 6.01726,1.16318 6.01726,1.16318 11.7243,-0.66145 0.22476,-0.19509 0.44952,-0.39018 0.68109,-0.59118 0.64182,-0.46715 0.64182,-0.46715 1.16685,-0.49609 z"
     fill="#82aefd"
     id="path18-7"
     style="stroke-width:0.264582" />
  <path
     d="m 43.14614,29.897729 c 0,1.45172 -1.14715,2.43663 -2.11666,3.43957 -1.54036,1.22524 -3.18887,2.24434 -4.89477,3.22459 -1.11412,0.66049 -1.83242,1.21916 -2.51353,2.33163 -0.18456,1.14838 -0.0818,1.69154 0.44649,2.72851 0.53972,0.75037 0.53972,0.75037 1.27743,0.93224 0.65732,0.30799 0.65732,0.30799 0.98081,0.94981 0.11,0.37806 0.11,0.37806 0.22221,0.76377 0.48489,1.47784 0.91847,2.42516 2.27789,3.26387 1.04684,0.42513 1.71411,0.36209 2.83186,0.25838 1.80728,-0.0283 1.80728,-0.0283 2.67166,0.49609 0.57968,0.62694 1.01654,1.25562 1.46243,1.98437 0.0917,0.14452 0.18332,0.28905 0.27776,0.43795 1.74977,2.7763 2.69403,5.24056 2.94684,8.52477 0.0217,0.24761 0.0433,0.49522 0.0656,0.75034 0.0779,0.91102 0.14934,1.80761 0.14934,2.7223 -0.61197,-0.0306 -1.22379,-0.0643 -1.83554,-0.0992 -0.34072,-0.0184 -0.68144,-0.0368 -1.03249,-0.0558 -3.08003,-0.27299 -4.89474,-1.32557 -7.06517,-3.54808 -1.33801,-1.64542 -1.25716,-3.33419 -1.07389,-5.36677 0.0497,-0.4781 0.10787,-0.95545 0.17796,-1.43098 -0.0243,-0.79247 -0.27501,-1.1019 -0.81248,-1.66992 -0.55029,-0.22218 -0.55029,-0.22218 -1.15755,-0.26458 -0.1985,-0.0273 -0.397,-0.0546 -0.60151,-0.0827 -1.15004,0.15283 -1.78553,0.95339 -2.5094,1.80453 -0.17394,0.22851 -0.34788,0.45702 -0.5271,0.69246 -1.29665,1.70029 -1.29665,1.70029 -2.5466,1.98437 -1.32908,-0.2556 -1.94741,-1.2121 -2.71197,-2.28202 0,-0.0873 0,-0.17463 0,-0.26459 0.91678,-0.26193 0.91678,-0.26193 1.85208,-0.52916 -0.0873,-0.34925 -0.17463,-0.6985 -0.26458,-1.05833 -1.68616,-0.38699 -3.34103,-0.60411 -5.060138,-0.76067 -2.355162,-0.21994 -4.574037,-0.71042 -6.846065,-1.35599 0.384534,-0.88403 0.872051,-1.47251 1.554421,-2.14973 0.269098,-0.27114 0.269098,-0.27114 0.543634,-0.54776 0.547767,-0.47749 0.547767,-0.47749 1.606096,-1.00666 0,-1.57162 0,-3.14323 0,-4.76248 2.000903,-0.34726 2.000903,-0.34726 2.619532,-0.45094 1.251692,-0.22634 2.31394,-0.59616 3.46586,-1.13655 -0.12853,-0.82627 -0.26421,-1.58638 -0.52917,-2.38124 -0.0496,-0.94257 -0.0496,-0.94257 0,-1.85207 0.17463,-0.17463 0.34925,-0.34925 0.52917,-0.52917 0.21316,0.0856 0.42633,0.17121 0.64595,0.25942 1.13178,0.32425 2.13631,0.35728 3.30625,0.35243 0.3067,0.006 0.3067,0.006 0.61959,0.0129 1.40237,0.001 2.40183,-0.19434 3.63026,-0.88935 0.3108,-0.52506 0.3108,-0.52506 0.52916,-1.05833 2.15495,-1.44504 4.91162,-1.85732 7.4083,-2.38124 z"
     fill="#383465"
     id="path24-5"
     style="stroke-width:0.264582" />
  <path
     d="m 23.831641,58.737189 c 0.968055,0.4152 1.655039,1.01387 2.430849,1.71978 0.23295,0.2101 0.46589,0.42019 0.7059,0.63666 0.60444,0.59012 0.82584,0.81698 0.84523,1.65654 -0.008,0.23267 -0.0162,0.46534 -0.0246,0.70506 -0.006,0.25494 -0.0113,0.50989 -0.017,0.77256 -0.0141,0.53683 -0.0312,1.0736 -0.0517,1.61023 -0.0323,1.56548 -0.0323,1.56548 0.55035,2.9936 0.6981,0.58032 1.22976,0.7107 2.13733,0.65009 1.76101,-0.5004 3.03058,-2.35321 4.15373,-3.70622 0.55194,-0.61161 0.84431,-0.68248 1.67224,-0.75447 0.89838,0.0111 1.69607,0.20073 2.56314,0.42994 4.85566,1.25866 9.94302,1.2622 14.91582,0.72657 0.18008,-0.0106 0.36016,-0.0211 0.5457,-0.032 0.72354,0.72354 0.44794,2.68038 0.49932,3.71836 0.0263,0.45422 0.0678,0.90751 0.1115,1.36038 0.11968,1.75368 0.11968,1.75368 -0.43925,2.61792 -0.47062,0.49031 -0.94774,0.89622 -1.49448,1.29914 -0.14802,0.11152 -0.29604,0.22305 -0.44855,0.33796 -1.37918,0.97374 -2.65497,1.18902 -4.31393,0.98495 -2.03323,-0.55798 -3.87051,-1.51269 -5.70505,-2.53007 -0.17959,-0.0994 -0.35918,-0.1988 -0.54422,-0.30121 -0.95938,-0.54965 -1.73794,-1.09634 -2.48194,-1.9312 0.30082,0.009 0.60164,0.0184 0.91157,0.0279 2.90811,0.0613 5.99288,0.10503 8.61339,-1.35081 -0.13097,-0.52388 -0.13097,-0.52388 -0.26458,-1.05833 -0.9173,0.16932 -1.7883,0.40283 -2.6789,0.67799 -2.81373,0.75582 -5.19031,0.28626 -7.95193,-0.42064 -0.33356,-0.0849 -0.66712,-0.16985 -1.01079,-0.25735 -0.2326,-0.0771 -0.46521,-0.15416 -0.70486,-0.23358 -0.95642,-0.048 -1.35644,0.43831 -2.07325,1.04386 -2.40111,1.93753 -5.11296,3.28685 -8.24752,3.22976 -2.062627,-0.23879 -3.596235,-1.68274 -4.849301,-3.2463 -0.932806,-1.47781 -1.447811,-3.02822 -1.058329,-4.76248 0.950807,-2.35744 2.290567,-4.50921 3.704151,-6.61455 z"
     fill="#4f4e97"
     id="path31-3"
     style="stroke-width:0.264582" />
  <path
     d="m 50.10796,18.438009 c 0.33126,0.005 0.33126,0.005 0.66921,0.0108 7.81612,0.18844 15.31699,4.37291 20.94385,9.59685 -0.37897,0.93129 -0.81588,1.34089 -1.65364,1.88515 -0.19782,0.13165 -0.39563,0.2633 -0.59945,0.39894 -1.55627,0.85644 -2.96777,1.0014 -4.70873,1.00665 -0.23926,0.001 -0.47851,0.002 -0.72502,0.003 -2.28341,-0.0373 -4.43942,-0.47004 -6.66035,-0.97397 -1.50485,-0.33488 -2.77096,-0.5196 -4.30586,-0.38511 -1.02323,0.0565 -1.33221,0.014 -2.15076,-0.62942 -0.61072,-0.67346 -1.14632,-1.36813 -1.68568,-2.09909 -0.34639,-0.35904 -0.69721,-0.71409 -1.05833,-1.05832 0.87312,-0.0873 1.74624,-0.17463 2.64582,-0.26459 -0.23738,-0.28649 -0.23738,-0.28649 -0.47955,-0.57877 -0.57877,-0.74414 -0.57877,-0.74414 -0.9219,-1.39319 -0.53698,-0.803 -1.0592,-1.13099 -1.88929,-1.61643 -1.83927,-1.08355 -1.83927,-1.08355 -2.53006,-1.96783 0.0402,-0.53421 0.0402,-0.53421 0.26458,-1.05833 1.45518,-0.86682 3.19743,-0.91417 4.84516,-0.87643 z"
     fill="#4f4f97"
     id="path35-5"
     style="stroke-width:0.264582" />
  <path
     d="m 21.714983,51.858049 c 0.599306,0.56582 1.070974,1.14541 1.521348,1.83554 0.118689,0.17701 0.237379,0.35402 0.359666,0.5364 0.291545,0.6662 0.195798,0.91989 -0.02894,1.59679 -0.104203,1.23701 -0.104203,1.23701 0.306699,2.36322 0.222466,0.54719 0.222466,0.54719 -5.17e-4,1.1321 -0.132418,0.20773 -0.264836,0.41545 -0.401266,0.62948 -0.142564,0.22936 -0.285129,0.45873 -0.432013,0.69504 -0.153478,0.23755 -0.306957,0.4751 -0.465086,0.71985 -0.297107,0.47042 -0.593411,0.94135 -0.888831,1.41283 -0.200417,0.31204 -0.200417,0.31204 -0.404883,0.63039 -0.843602,1.45117 -1.099862,2.66683 -0.889089,4.32329 0.604788,2.25456 2.09391,3.86891 4.084488,5.02706 2.713481,0.76168 5.080681,-0.0197 7.507521,-1.30637 0.96948,-0.55066 1.8619,-1.12131 2.69543,-1.86861 0.17462,0.0873 0.34925,0.17462 0.52916,0.26458 -3.08051,5.75959 -3.08051,5.75959 -5.29164,6.61455 -3.79803,0.66205 -8.317935,-1.15852 -11.368766,-3.2711 -2.527968,-1.96805 -4.044613,-5.04381 -4.770748,-8.10593 -0.08451,-0.90516 -0.09789,-1.80329 -0.09922,-2.71197 -0.0065,-0.23738 -0.01296,-0.47476 -0.01964,-0.71933 -0.0077,-1.70663 -0.0077,-1.70663 0.575673,-2.41535 0.670761,-0.26623 1.139131,-0.32008 1.858276,-0.28835 0.317189,0.0107 0.317189,0.0107 0.640785,0.0217 0.159618,0.009 0.319235,0.0184 0.48369,0.0279 0.08731,0.6985 0.174624,1.39699 0.264582,2.11666 0.804329,-0.30635 0.804329,-0.30635 1.270524,-0.99193 0.03809,-0.18426 0.07619,-0.36852 0.115432,-0.55836 0.04683,-0.20641 0.09366,-0.41281 0.141915,-0.62548 0.04696,-0.2206 0.09392,-0.4412 0.142304,-0.66849 0.55098,-2.34887 1.375311,-4.31774 2.56314,-6.41612 z"
     fill="#383465"
     id="path40-6"
     style="stroke-width:0.264582" />
  <path
     d="m 16.224903,33.932609 c 0.341713,0.0177 0.341713,0.0177 0.69033,0.0357 2.628331,0.15875 5.466764,0.38511 7.974737,1.22111 0.130968,1.17871 0.130968,1.17871 0.26458,2.38124 -0.37585,0.0703 -0.751701,0.14051 -1.138942,0.2129 -0.491289,0.0943 -0.982556,0.18869 -1.473805,0.28319 -0.247953,0.046 -0.495906,0.0921 -0.751372,0.13952 -0.237039,0.0461 -0.474078,0.0921 -0.7183,0.13953 -0.328379,0.0623 -0.328379,0.0623 -0.663393,0.12596 -0.59874,0.1248 -0.59874,0.1248 -1.074994,0.68639 -0.05002,0.95041 -0.08535,1.78728 0.153995,2.71093 0.16082,0.66758 0.240713,1.10913 0.110587,1.78697 -0.607787,0.65285 -1.243865,1.13222 -1.980232,1.634 -0.640441,0.46442 -1.025745,0.88626 -1.459337,1.54098 -3.136871,-0.4227 -6.2913188,-1.19182 -8.9957938,-2.9104 -0.174624,-0.26194 -0.349249,-0.52388 -0.529164,-0.79375 0.785809,-0.13097 0.785809,-0.13097 1.587493,-0.26458 0.105376,-1.10865 0.105376,-1.10865 -0.363801,-2.06705 -0.430176,-0.33268 -0.430176,-0.33268 -0.95911,-0.57877 0,-0.26194 0,-0.52388 0,-0.79375 0.785809,0.0873 1.571618,0.17462 2.381239,0.26458 0.601158,-0.72492 0.601158,-0.72492 0.479556,-1.43866 -0.227624,-0.71789 -0.523271,-1.16645 -1.00872,-1.73632 0.174624,-0.0873 0.349248,-0.17463 0.529164,-0.26459 0.174625,0.0873 0.349249,0.17463 0.529165,0.26459 0.7937458,0.0661 0.7937458,0.0661 1.5874928,0 0.174624,-0.17463 0.349248,-0.34925 0.529164,-0.52917 -0.07587,-0.53107 -0.163688,-1.0606 -0.264582,-1.58749 0.92742,-0.92742 3.358484,-0.52837 4.564043,-0.46302 z"
     fill="#82aefc"
     id="path44-2"
     style="stroke-width:0.264582" />
  <path
     d="m 46.85029,23.283169 c 0.6985,0.17462 1.397,0.34925 2.11666,0.52916 0.0873,-0.17462 0.17462,-0.34924 0.26458,-0.52916 0.10368,0.18554 0.20737,0.37108 0.31419,0.56224 0.53973,0.85612 1.14283,1.58156 1.80247,2.34816 -0.52538,-0.009 -1.05075,-0.0172 -1.57613,-0.0258 -0.59425,0.004 -0.59425,0.004 -1.33428,0.29042 0.14052,0.11835 0.28104,0.23669 0.42582,0.35863 1.0238,0.87621 1.95169,1.71981 2.74917,2.81635 -0.20191,0.191 -0.40382,0.38199 -0.61185,0.57878 -1.0579,1.1071 -1.61987,1.95337 -1.6371,3.50571 0.10979,3.58358 1.89767,6.93418 4.40178,9.44744 0.41373,0.35835 0.84775,0.69318 1.28674,1.02009 -0.0853,0.18929 -0.17053,0.37858 -0.25838,0.57361 -0.49585,1.3721 -0.52938,2.89285 -0.061,4.28189 0.44996,0.92061 0.98506,1.76416 1.64227,2.5528 -3.48614,0.24464 -7.14519,-1.00869 -10.05412,-2.9104 -0.48739,-0.50571 -0.89736,-1.02589 -1.32292,-1.58749 0.19646,-0.13097 0.39291,-0.26194 0.59531,-0.39688 1.30905,-1.19004 1.969,-2.77831 2.10426,-4.53407 0.0499,-3.25107 -0.47367,-6.32023 -1.57509,-9.37303 -0.53382,-1.51649 -0.73883,-2.4014 -0.33073,-3.95219 0.0819,-0.32197 0.16371,-0.64393 0.24805,-0.97565 0.068,-0.25529 0.068,-0.25529 0.13746,-0.51573 0.30759,-1.33879 0.47808,-2.70585 0.67282,-4.06485 z"
     fill="#383464"
     id="path47-9"
     style="stroke-width:0.264582" />
  <path
     d="m 43.14614,29.897729 c 0,1.45172 -1.14715,2.43663 -2.11666,3.43957 -1.54036,1.22524 -3.18887,2.24434 -4.89477,3.22459 -1.12679,0.67351 -1.85044,1.18227 -2.51353,2.33163 -0.10068,0.89406 -0.0796,1.75086 0,2.64583 -1.80637,1.02099 -3.6047,0.92077 -5.63891,0.9095 -0.33543,0.005 -0.67087,0.0106 -1.01647,0.016 -3.95636,-0.002 -3.95636,-0.002 -5.515399,-1.19011 -0.200826,-0.69924 -0.200826,-0.69924 -0.264582,-1.32291 0.265006,-0.0481 0.530012,-0.0962 0.803048,-0.14572 0.355209,-0.0671 0.710396,-0.13426 1.065564,-0.20154 0.260657,-0.0468 0.260657,-0.0468 0.52658,-0.0946 1.231557,-0.2366 2.287699,-0.61739 3.425619,-1.14566 -0.12853,-0.82627 -0.26421,-1.58638 -0.52917,-2.38124 -0.0496,-0.94257 -0.0496,-0.94257 0,-1.85207 0.17463,-0.17463 0.34925,-0.34925 0.52917,-0.52917 0.21316,0.0856 0.42633,0.17121 0.64595,0.25942 1.13178,0.32425 2.13631,0.35728 3.30624,0.35243 0.30671,0.006 0.30671,0.006 0.6196,0.0129 1.40237,10e-4 2.40183,-0.19434 3.63026,-0.88935 0.3108,-0.52506 0.3108,-0.52506 0.52916,-1.05833 2.15495,-1.44504 4.91162,-1.85732 7.4083,-2.38124 z"
     fill="#4f4e97"
     id="path56"
     style="stroke-width:0.264582" />
  <path
     d="m 43.93989,32.278969 c 0.85659,0.69016 1.05449,1.44303 1.35598,2.48046 0.088,0.29672 0.17599,0.59345 0.26665,0.89916 0.70693,2.6303 1.12213,5.96247 -0.0847,8.49351 -0.73322,1.2068 -1.506,1.96271 -2.86079,2.41431 -1.36162,0.16155 -2.11861,0.1122 -3.25767,-0.67799 -0.96233,-0.8073 -1.43033,-1.53247 -1.7694,-2.76158 -0.0545,-0.72052 -0.0381,-1.39209 0,-2.11666 -0.34379,0.005 -0.68758,0.0109 -1.04179,0.0165 -0.35828,0.006 -0.71703,0.002 -1.07486,-0.0165 -0.26459,-0.26458 -0.26459,-0.26458 -0.39688,-0.97564 0.15652,-1.03693 0.50079,-1.37957 1.31464,-2.01331 1.03305,-0.69507 2.10029,-1.33187 3.18126,-1.94955 1.44495,-0.83384 2.75925,-1.75862 3.80537,-3.08165 0.27831,-0.35197 0.27831,-0.35197 0.56224,-0.71106 z"
     fill="#83affd"
     id="path59"
     style="stroke-width:0.264582" />
  <path
     d="m 35.67169,52.767549 c 0.59531,0.14883 0.59531,0.14883 1.12448,0.67799 0.0433,0.50055 0.0433,0.50055 0.0145,1.10484 -0.01,0.3287 -0.01,0.3287 -0.0196,0.66404 -0.0185,0.46035 -0.0391,0.92063 -0.062,1.38079 -0.0285,1.08217 -0.042,1.69648 0.52813,2.64117 0.73313,0.6862 1.49452,1.30928 2.28822,1.92339 0.42581,0.48782 0.42581,0.48782 0.5209,1.17408 -0.0951,0.63665 -0.0951,0.63665 -0.62425,1.16582 -0.54445,-0.007 -1.08914,-0.0174 -1.63277,-0.0479 -2.37013,-0.17935 -2.37013,-0.17935 -4.40301,0.87474 -0.45529,0.498 -0.45529,0.498 -0.84336,1.02526 -0.13745,0.15723 -0.27489,0.31446 -0.41651,0.47645 -0.31394,0.36039 -0.61233,0.73426 -0.9064,1.11104 -1.25676,-0.19843 -1.25676,-0.19843 -1.85207,-0.79374 -0.0391,-0.50055 -0.0391,-0.50055 -0.005,-1.10484 0.008,-0.21913 0.0153,-0.43827 0.0233,-0.66404 0.0209,-0.46042 0.045,-0.92071 0.0723,-1.38079 0.0443,-1.43514 0.0443,-1.43514 -0.69195,-2.65047 -0.23806,-0.18145 -0.47612,-0.36289 -0.7214,-0.54984 -0.17633,-0.13881 -0.35266,-0.27762 -0.53433,-0.42064 -0.15655,-0.11767 -0.3131,-0.23533 -0.47439,-0.35657 -0.72414,-0.60633 -0.82749,-0.7052 -0.97564,-1.68671 0.13229,-0.71106 0.13229,-0.71106 0.39687,-0.97564 0.3752,-0.0255 0.75152,-0.0349 1.12757,-0.0372 0.23073,-0.005 0.46146,-0.0102 0.69918,-0.0155 0.4857,-0.009 0.97149,-0.0138 1.45727,-0.0145 1.67517,-0.0467 2.43597,-0.29539 3.59512,-1.52032 0.27989,-0.32813 0.55211,-0.66324 0.81028,-1.00872 0.68247,-0.82397 0.68247,-0.82397 1.50481,-0.99218 z"
     fill="#f8f8f8"
     id="path61"
     style="stroke-width:0.264582" />
  <path
     d="m 13.512936,69.585059 c 0.626192,0.58042 1.047244,1.17308 1.488275,1.90168 2.026671,3.05988 5.049166,4.66795 8.529675,5.61514 0.651662,0.17989 1.268228,0.41655 1.888244,0.68523 -1.123968,1.71794 -2.478589,3.14457 -4.23331,4.23331 -0.349249,0 -0.698497,0 -1.058329,0 -0.130968,-0.52387 -0.130968,-0.52387 -0.264582,-1.05833 -0.899793,0.0275 -0.899793,0.0275 -1.852076,0.26459 -0.449478,0.66082 -0.449478,0.66082 -0.793746,1.32291 -0.349249,0 -0.698497,0 -1.058329,0 0.06003,-0.33288 0.120054,-0.66576 0.1819,-1.00872 0.107336,-0.85584 0.107336,-0.85584 -0.1819,-1.65364 -0.826457,-0.3874 -1.511565,-0.16396 -2.38124,0.0165 -0.08731,0.26193 -0.174624,0.52387 -0.264582,0.79374 -0.174624,0 -0.349249,0 -0.529165,0 0.04366,-0.18008 0.08731,-0.36016 0.132292,-0.5457 0.151731,-0.89142 0.16701,-1.72659 0.132291,-2.62928 -0.297746,-0.35883 -0.297746,-0.35883 -1.074865,-0.28112 -0.25648,0.005 -0.512959,0.0109 -0.777211,0.0165 -0.211949,-2.92019 0.250838,-5.34744 2.116658,-7.67288 z"
     fill="#697cca"
     id="path64"
     style="stroke-width:0.264582" />
  <path
     d="m 64.31272,40.481019 c 1.06303,1.96471 1.41251,3.58443 0.87436,5.77637 -0.62941,1.93318 -1.53606,3.19318 -3.04063,4.5258 -1.21873,0.46041 -2.37368,0.50683 -3.65454,0.28112 -1.3163,-0.69141 -2.16049,-1.77608 -2.64582,-3.17499 -0.21498,-0.87643 -0.21498,-0.87643 0,-1.85207 0.78121,-0.91827 1.69998,-1.63852 2.64582,-2.38124 0.14712,-0.11741 0.29425,-0.23483 0.44583,-0.35579 3.65527,-2.91474 3.65527,-2.91474 5.37498,-2.8192 z"
     fill="#fbfcfd"
     id="path68"
     style="stroke-width:0.264582" />
  <path
     d="m 6.8983812,39.422689 c 0.162687,0.0222 0.325374,0.0443 0.492991,0.0672 0.320769,0.0404 0.320769,0.0404 0.648019,0.0816 0.211801,0.0276 0.423601,0.0553 0.641819,0.0837 0.642906,0.0711 0.642906,0.0711 1.3921568,-0.23254 0.692461,0.21704 0.692461,0.21704 1.55442,0.56224 2.506988,0.94012 5.096429,1.50273 7.705957,2.08358 0.130968,0.78581 0.130968,0.78581 0.264582,1.5875 -0.181787,0.14051 -0.363573,0.28103 -0.550868,0.42581 -0.238404,0.1869 -0.476807,0.3738 -0.722434,0.56637 -0.236356,0.18417 -0.472713,0.36835 -0.716232,0.5581 -0.588305,0.5077 -1.016144,0.98468 -1.450035,1.6247 -3.136871,-0.4227 -6.2913188,-1.19182 -8.9957938,-2.9104 -0.174624,-0.26194 -0.349249,-0.52388 -0.529164,-0.79375 0.523872,-0.0873 1.047745,-0.17462 1.587493,-0.26458 0.105376,-1.10865 0.105376,-1.10865 -0.363801,-2.06705 -0.430176,-0.33268 -0.430176,-0.33268 -0.95911,-0.57877 0,-0.26194 0,-0.52388 0,-0.79375 z"
     fill="#697cca"
     id="path71"
     style="stroke-width:0.264582" />
  <path
     d="m 72.81655,30.169529 c 0.60179,0.3148 0.84905,0.63387 1.21956,1.19992 0.11323,0.16951 0.22647,0.33902 0.34313,0.51366 0.12483,0.19594 0.12483,0.19594 0.25218,0.39584 -0.3743,0.25433 -0.74925,0.50771 -1.12447,0.76068 -0.20873,0.1412 -0.41747,0.2824 -0.63252,0.42788 -3.64153,2.3272 -9.41625,1.41459 -13.42341,0.54776 -2.61839,-0.58159 -2.61839,-0.58159 -3.34035,-0.94257 -1.31516,-0.0993 -2.13029,-0.042 -3.17499,0.79375 -0.53065,0.84602 -0.62401,1.59243 -0.69453,2.57967 -0.0198,0.26057 -0.0396,0.52115 -0.0599,0.78961 -0.013,0.19782 -0.0259,0.39564 -0.0393,0.59945 -1.18592,-1.45545 -1.4709,-2.75051 -1.41592,-4.60228 0.093,-0.68936 0.093,-0.68936 0.53949,-1.53272 2.31537,-1.2669 5.48326,-0.32284 7.93747,0.1819 6.01726,1.16318 6.01726,1.16318 11.7243,-0.66146 0.22476,-0.19508 0.44952,-0.39017 0.68109,-0.59117 0.64182,-0.46715 0.64182,-0.46715 1.20819,-0.45992 z"
     fill="#687bc9"
     id="path72"
     style="stroke-width:0.264582" />
  <path
     d="m 82.3043,50.270559 c 0.0873,0 0.17463,0 0.26459,0 0.13691,5.26029 -0.10964,9.94955 -3.83645,14.02286 -2.2458,2.19937 -4.88819,3.0147 -7.94883,2.98378 -2.20349,-0.17678 -4.21981,-1.01969 -5.67715,-2.7192 -0.18769,-0.34689 -0.36718,-0.69871 -0.52916,-1.05833 0.74828,0.36072 1.44925,0.76103 2.14973,1.20716 1.16099,0.73821 1.80557,0.9511 3.20806,0.95911 0.29604,0.004 0.59208,0.007 0.8971,0.0114 0.90937,-0.0624 1.62841,-0.26512 2.47632,-0.59015 -0.13097,-1.04774 -0.13097,-1.04774 -0.26458,-2.11665 0.22919,0.22373 0.45839,0.44747 0.69453,0.67799 0.62829,0.51379 0.8164,0.63992 1.65363,0.69453 1.2146,-0.46155 2.60859,-1.2319 3.20806,-2.43085 -0.22714,-0.0363 -0.22714,-0.0363 -0.45888,-0.0734 -0.74617,-0.23801 -1.14868,-0.60647 -1.72392,-1.13378 -0.1869,-0.16951 -0.3738,-0.33902 -0.56637,-0.51366 -0.21078,-0.19594 -0.21078,-0.19594 -0.42581,-0.39584 0.17462,-0.0873 0.34925,-0.17463 0.52916,-0.26458 0.44139,0.17533 0.88229,0.35191 1.32291,0.52916 0.51039,0.073 1.02365,0.12819 1.53789,0.16536 0.25818,0.0198 0.51637,0.0396 0.78237,0.06 0.19475,0.013 0.3895,0.0259 0.59015,0.0393 0.0655,-0.20191 0.13097,-0.40382 0.19843,-0.61184 0.44176,-1.30319 0.91551,-2.59414 1.38906,-3.88605 -0.34021,0.0138 -0.34021,0.0138 -0.68729,0.0279 -1.75136,0.0415 -3.06187,0.0393 -4.60435,-0.82165 0,-0.0873 0,-0.17462 0,-0.26458 0.1794,-0.0259 0.3588,-0.0518 0.54363,-0.0786 1.80112,-0.28938 3.33984,-0.78166 5.01259,-1.50895 0.0873,-0.96043 0.17463,-1.92086 0.26458,-2.9104 z"
     fill="#687bc8"
     id="path78"
     style="stroke-width:0.264582" />
  <path
     d="m 56.63983,53.445539 c 0.43656,0 0.87312,0 1.32291,0 -0.10299,1.15831 -0.21595,2.31544 -0.33073,3.47264 -0.0435,0.49113 -0.0435,0.49113 -0.0879,0.99218 -0.31534,3.08702 -0.31534,3.08702 -1.43349,4.26639 -0.94663,0.74622 -2.09061,0.58866 -3.24114,0.56224 -0.19713,-0.002 -0.39426,-0.005 -0.59737,-0.007 -0.48442,-0.006 -0.96879,-0.0157 -1.45314,-0.0258 -0.17122,-0.92838 -0.21476,-1.72184 0,-2.64583 0.58465,-0.63982 1.21221,-1.09006 1.92029,-1.58852 1.81369,-1.32023 3.01179,-2.98935 3.90052,-5.02603 z"
     fill="#383464"
     id="path87"
     style="stroke-width:0.264582" />
  <path
     d="m 47.90862,70.907969 c 0.27656,0.41485 0.55267,0.83003 0.82372,1.2485 1.13284,1.68265 2.22693,2.21644 4.20334,2.72023 -1.02773,1.14193 -1.91305,1.59999 -3.43957,1.70325 -2.53808,-0.0753 -4.85644,-1.44157 -7.02796,-2.64582 -0.26939,-0.1491 -0.26939,-0.1491 -0.54422,-0.30121 -0.95939,-0.54965 -1.73794,-1.09634 -2.48194,-1.9312 0.30082,0.009 0.60164,0.0184 0.91157,0.0279 2.64735,0.0552 4.98386,-0.12718 7.55506,-0.82165 z"
     fill="#383464"
     id="path89"
     style="stroke-width:0.264582" />
  <path
     d="m 44.99822,34.395629 c 1.35024,2.57567 1.62382,6.26019 0.80821,9.06091 -0.57618,1.21941 -1.22092,2.13423 -2.39571,2.84529 -1.23462,0.41154 -2.31193,0.56275 -3.49124,-0.0248 -1.24256,-0.86199 -1.91819,-1.65894 -2.32956,-3.15018 -0.0545,-0.72052 -0.0381,-1.39208 0,-2.11666 -0.3438,0.005 -0.68759,0.0109 -1.0418,0.0165 -0.35828,0.006 -0.71703,0.002 -1.07486,-0.0165 -0.26458,-0.26458 -0.26458,-0.26458 -0.28112,-1.07486 0.006,-0.25648 0.0109,-0.51296 0.0165,-0.77721 0.17462,-0.0873 0.34925,-0.17462 0.52916,-0.26458 0.0873,0.34925 0.17463,0.69849 0.26459,1.05833 0.61118,0.0873 1.22237,0.17462 1.85207,0.26458 0.0863,0.24215 0.17258,0.48431 0.26148,0.7338 0.17343,0.47169 0.17343,0.47169 0.35037,0.95291 0.17036,0.46964 0.17036,0.46964 0.34416,0.94877 0.31034,0.86702 0.31034,0.86702 1.16065,1.33325 1.11234,0.12593 1.71178,0.0728 2.71197,-0.44648 1.31268,-1.10385 1.94737,-2.48749 2.11769,-4.19624 0.0437,-0.77853 0.074,-1.55626 0.0982,-2.33563 0.0102,-0.27047 0.0205,-0.54093 0.031,-0.81959 0.0248,-0.66382 0.0475,-1.32764 0.0682,-1.9916 z"
     fill="#687bc9"
     id="path92"
     style="stroke-width:0.264582" />
  <path
     d="m 39.37585,27.516489 c 0.46651,0.25838 0.93091,0.52081 1.38905,0.79375 0,0.17462 0,0.34925 0,0.52916 -0.23738,0.0709 -0.47476,0.14188 -0.71933,0.21497 -2.15341,0.67628 -4.11613,1.47387 -6.08539,2.58536 -1.25614,0.67924 -1.25614,0.67924 -2.01744,0.46354 -0.54434,-0.43906 -0.89626,-0.79339 -1.23196,-1.41179 -0.0424,-0.78467 0.15295,-1.18437 0.64182,-1.7911 2.34959,-2.47463 4.93807,-2.92648 8.02325,-1.38389 z"
     fill="#81acf9"
     id="path94"
     style="stroke-width:0.264582" />
  <path
     d="m 13.512936,69.585059 c 0.643828,0.59798 1.100308,1.22753 1.570957,1.96783 0.555777,0.85099 1.102109,1.58743 1.868611,2.26549 -0.355759,0.9561 -0.786827,1.79524 -1.32291,2.66235 -0.477671,0.77502 -0.928585,1.54383 -1.322911,2.36471 -0.174625,0 -0.349249,0 -0.529165,0 -0.08186,-0.21283 -0.16371,-0.42565 -0.248046,-0.64492 -0.218506,-0.6491 -0.218506,-0.6491 -0.545701,-0.94258 -0.529054,-0.0108 -1.058448,-0.0112 -1.587493,0 -0.211949,-2.92019 0.250838,-5.34744 2.116658,-7.67288 z"
     fill="#83aefc"
     id="path96"
     style="stroke-width:0.264582" />
  <path
     d="m 75.68975,35.189369 c 0.61391,-0.0672 0.61391,-0.0672 1.32291,0 2.95412,3.15452 4.73827,9.32609 5.02706,13.49369 -0.12092,0.76068 -0.12092,0.76068 -0.26458,1.32291 -0.3929,-0.13097 -0.3929,-0.13097 -0.79375,-0.26458 -0.22614,-0.46709 -0.22614,-0.46709 -0.40204,-1.06556 -0.0657,-0.21585 -0.13139,-0.4317 -0.19908,-0.65409 -0.0636,-0.21833 -0.12713,-0.43665 -0.19262,-0.66159 -0.11591,-0.37544 -0.23266,-0.75062 -0.35037,-1.12551 -0.0582,-0.18564 -0.11643,-0.37129 -0.17641,-0.56256 -0.89972,-2.819 -2.03963,-5.52131 -3.63419,-8.02499 -0.46323,-0.83268 -0.39194,-1.52252 -0.33693,-2.45772 z"
     fill="#f8f9fb"
     id="path98"
     style="stroke-width:0.264582" />
  <path
     d="m 36.00242,71.701709 c 0.70752,0.34013 1.36111,0.71076 2.01124,1.15031 0.17326,0.11648 0.34652,0.23295 0.52503,0.35295 0.17804,0.12057 0.35607,0.24113 0.5395,0.36535 0.35604,0.2404 0.71225,0.48053 1.06866,0.72037 0.15676,0.10609 0.31353,0.21218 0.47504,0.32149 0.41787,0.28198 0.41787,0.28198 0.93676,0.5291 0,0.17462 0,0.34925 0,0.52916 -1.34843,1.08663 -2.71336,1.83796 -4.46999,1.71049 -1.27474,-0.28144 -2.35554,-0.97818 -3.2029,-1.97507 0.35072,-0.95852 0.77879,-1.75552 1.35599,-2.59621 0.14256,-0.20907 0.28513,-0.41815 0.43201,-0.63355 0.10846,-0.15655 0.21692,-0.3131 0.32866,-0.47439 z"
     fill="#687ac8"
     id="path100"
     style="stroke-width:0.264582" />
  <path
     d="m 64.5773,41.539349 c 0.76825,0.76825 0.8442,1.46857 0.87643,2.51353 -0.0292,2.22469 -0.78039,4.24949 -2.33577,5.85492 -1.23477,1.14053 -2.24216,1.33068 -3.90465,1.28363 -1.18248,-0.20837 -1.83614,-0.79661 -2.57348,-1.71461 -0.77502,-1.17503 -0.87747,-2.04408 -0.79374,-3.43957 0.52916,0.79374 0.52916,0.79374 0.87642,1.58749 0.51408,0.91392 0.80077,1.20004 1.7694,1.58749 1.63187,0.18727 2.91216,-0.0364 4.23331,-1.05833 1.19067,-1.49128 1.63032,-2.77944 1.73632,-4.66326 0.0171,-0.28035 0.0171,-0.28035 0.0346,-0.56637 0.0281,-0.46158 0.0547,-0.92324 0.0811,-1.38492 z"
     fill="#7fa9f3"
     id="path102"
     style="stroke-width:0.264582" />
  <path
     d="m 66.95854,46.037239 c 1.97879,0.10415 3.79675,1.28795 5.12628,2.71197 0.8375,1.07133 1.43192,2.31665 1.75285,3.638 -0.10645,0.60875 -0.10645,0.60875 -0.26458,1.05833 -0.0931,-0.15655 -0.18622,-0.31309 -0.28215,-0.47439 -1.81973,-2.91251 -3.96209,-3.59572 -7.12615,-4.55267 0.26194,-0.78581 0.52387,-1.57162 0.79375,-2.38124 z"
     fill="#687bc9"
     id="path105"
     style="stroke-width:0.264582" />
  <path
     d="m 43.93989,32.278969 c 0.0873,0.17462 0.17462,0.34925 0.26458,0.52916 -1.00286,2.51152 -2.84319,5.10406 -5.29164,6.34998 -0.8599,0.0661 -0.8599,0.0661 -1.5875,0 -0.26458,-0.26459 -0.26458,-0.26459 -0.39894,-0.86816 0.13436,-0.71934 0.13436,-0.71934 0.94671,-1.32291 0.35484,-0.20065 0.71262,-0.39616 1.0728,-0.58705 1.6851,-0.92419 3.21918,-1.85641 4.43175,-3.38996 0.18554,-0.23465 0.37108,-0.4693 0.56224,-0.71106 z"
     fill="#f4f6f9"
     id="path108"
     style="stroke-width:0.264582" />
  <path
     d="m 34.15035,57.943439 c 0.66145,0.42995 0.66145,0.42995 1.05833,1.05833 0.14882,0.77721 0.14882,0.77721 0,1.58749 -0.65776,0.88991 -1.03565,1.27015 -2.1332,1.47174 -0.77721,-0.14883 -0.77721,-0.14883 -1.40559,-0.5457 -0.64337,-0.9898 -0.56006,-1.60714 -0.42995,-2.77811 0.55943,-1.11885 1.80694,-0.99135 2.91041,-0.79375 z"
     fill="#181521"
     id="path109"
     style="stroke-width:0.264582" />
  <path
     d="m 16.224903,33.932609 c 0.346477,0.0174 0.346477,0.0174 0.699954,0.0351 2.251259,0.13382 4.436045,0.50273 6.642202,0.9571 0,0.34925 0,0.6985 0,1.05833 -1.86186,0.93093 -4.236724,0.0259 -6.089525,-0.50539 -1.650672,-0.46687 -3.337984,-0.76662 -5.022927,-1.0821 0,-0.0873 0,-0.17463 0,-0.26458 1.266781,-0.33987 2.474553,-0.26654 3.770296,-0.19844 z"
     fill="#f0f1f5"
     id="path113"
     style="stroke-width:0.264582" />
  <path
     d="m 57.69816,34.660209 c 1.21995,0.50583 2.34159,1.12009 3.43957,1.85208 0,0.17462 0,0.34924 0,0.52916 -0.14674,-0.004 -0.29348,-0.008 -0.44467,-0.0126 -0.66755,-0.0165 -1.33505,-0.0268 -2.00272,-0.037 -0.2309,-0.007 -0.4618,-0.0133 -0.69969,-0.0202 -1.26485,-0.0145 -1.96682,-0.0178 -2.93831,0.86351 -0.34925,0 -0.6985,0 -1.05833,0 0.0468,-1.19397 0.15085,-1.72481 0.95911,-2.62929 1.07995,-0.65997 1.49887,-0.7534 2.74504,-0.5457 z"
     fill="#151423"
     id="path114"
     style="stroke-width:0.264582" />
  <path
     d="m 67.75228,24.870669 c 0.97375,0.47769 1.6298,1.08961 2.38124,1.85208 -1.94381,0.47263 -3.77503,0.60344 -5.7712,0.57877 -0.26722,-1.7e-4 -0.53444,-3.4e-4 -0.80976,-5.2e-4 -1.1993,-0.007 -2.29911,-0.0497 -3.47316,-0.31367 0,-0.0873 0,-0.17463 0,-0.26458 0.15723,-0.0279 0.31446,-0.0558 0.47646,-0.0846 0.7235,-0.12961 1.44642,-0.26228 2.16936,-0.395 0.37091,-0.0657 0.37091,-0.0657 0.74931,-0.13281 1.16653,-0.21617 2.24746,-0.45316 3.34655,-0.90588 0.3073,-0.11017 0.61459,-0.22033 0.9312,-0.33383 z"
     fill="#393668"
     id="path117"
     style="stroke-width:0.264582" />
  <path
     d="m 39.71794,65.686599 c 0.96751,0.24028 1.90784,0.36358 2.89904,0.45888 0,0.0873 0,0.17463 0,0.26459 -0.20147,-0.007 -0.40293,-0.0139 -0.61049,-0.021 -0.91541,-0.0275 -1.83074,-0.0447 -2.7464,-0.0617 -0.31702,-0.0111 -0.63404,-0.0222 -0.96066,-0.0336 -1.80585,-0.0669 -1.80585,-0.0669 -3.36774,0.71158 -0.17053,0.24011 -0.34106,0.48021 -0.51676,0.7276 -0.39817,0.38474 -0.80039,0.76537 -1.20716,1.14101 -0.19679,0.18451 -0.39359,0.36903 -0.59634,0.55914 -0.57774,0.41651 -0.57774,0.41651 -1.63607,0.41651 0,-0.17463 0,-0.34925 0,-0.52917 0.39791,-0.3824 0.39791,-0.3824 0.94257,-0.82682 0.98604,-0.83366 1.82,-1.72583 2.64376,-2.71817 1.30565,-1.4468 3.55598,-0.51562 5.15625,-0.0889 z"
     fill="#373363"
     id="path120"
     style="stroke-width:0.264582" />
  <path
     d="m 13.512936,69.585059 c 0.41341,0.28112 0.41341,0.28112 0.793747,0.79375 -0.09446,1.3605 -0.455382,2.39034 -1.058329,3.60493 -0.499137,1.01027 -0.892074,1.89156 -1.058329,3.00962 -0.261936,0.0873 -0.523873,0.17463 -0.793747,0.26458 -0.211949,-2.92019 0.250838,-5.34744 2.116658,-7.67288 z"
     fill="#f3f4f6"
     id="path121"
     style="stroke-width:0.264582" />
  <path
     d="m 32.03369,28.310239 c 0.8507,0.37265 1.40806,0.82112 2.05051,1.48827 0.24352,0.25069 0.24352,0.25069 0.49196,0.50643 0.18213,0.19134 0.18213,0.19134 0.36793,0.38654 -1.50739,1.17241 -1.50739,1.17241 -2.38124,1.58749 -0.70994,-0.18792 -1.02104,-0.49188 -1.53788,-1.00872 -0.31419,-0.57877 -0.31419,-0.57877 -0.29766,-1.24023 0.29305,-0.78145 0.6823,-1.17623 1.30638,-1.71978 z"
     fill="#687bc9"
     id="path124"
     style="stroke-width:0.264582" />
  <path
     d="m 6.6337992,43.126839 c 1.18893,0.19199 2.281622,0.59361 3.4064948,1.00872 2.100953,0.76085 4.214266,1.36501 6.383046,1.90168 -0.08731,0.26194 -0.174625,0.52388 -0.264583,0.79375 -3.136871,-0.4227 -6.2913188,-1.19182 -8.9957938,-2.9104 -0.174624,-0.26194 -0.349249,-0.52388 -0.529164,-0.79375 z"
     fill="#7ba5f0"
     id="path127"
     style="stroke-width:0.264582" />
  <path
     d="m 23.831641,44.978909 c -0.320156,0.96047 -0.538748,1.02577 -1.405593,1.48827 -0.206343,0.11256 -0.412686,0.22511 -0.625282,0.34107 -0.953462,0.44548 -1.749724,0.5859 -2.79775,0.56844 -0.491131,-0.008 -0.491131,-0.008 -0.992183,-0.0165 1.837556,-2.30484 2.858587,-2.81183 5.820808,-2.38124 z"
     fill="#4e4e96"
     id="path128"
     style="stroke-width:0.264582" />
  <path
     d="m 24.096223,77.522519 c 0.436561,0.0873 0.873121,0.17462 1.322907,0.26458 -1.002861,1.44736 -2.050581,2.61927 -3.439565,3.70415 -0.174624,-0.0873 -0.349248,-0.17462 -0.529164,-0.26458 0.291916,-0.41908 0.584114,-0.83796 0.876429,-1.25676 0.24403,-0.34994 0.24403,-0.34994 0.492991,-0.70694 0.416068,-0.58802 0.840816,-1.16682 1.276402,-1.74045 z"
     fill="#7ca5f1"
     id="path129"
     style="stroke-width:0.264582" />
  <path
     d="m 25.15455,59.795519 c 1.11147,0.57161 2.12436,1.21663 2.64582,2.38124 0.11002,1.15517 0.0772,2.28297 0,3.43957 -0.0873,0 -0.17462,0 -0.26458,0 -0.005,-0.29468 -0.0109,-0.58936 -0.0165,-0.89297 -0.15594,-1.3483 -0.86274,-2.21209 -1.67844,-3.2618 -0.40202,-0.57938 -0.57266,-0.97814 -0.68626,-1.66604 z"
     fill="#373363"
     id="path130"
     style="stroke-width:0.264582" />
  <path
     d="m 34.94409,26.722739 c 1.91701,-0.14142 3.10332,0.0751 4.76248,1.05833 -0.0873,0.26194 -0.17462,0.52387 -0.26458,0.79375 -1.15038,-0.1743 -2.10982,-0.60184 -3.17499,-1.05833 -0.73524,-0.18294 -0.73524,-0.18294 -1.32291,-0.26459 0,-0.17462 0,-0.34924 0,-0.52916 z"
     fill="#ebeff7"
     id="path133"
     style="stroke-width:0.264582" />
  <path
     d="m 43.14614,20.372769 c 0.52917,0 0.52917,0 1.22369,0.56224 1.0825,1.30788 0.72651,3.13764 0.62839,4.7294 -0.72174,-0.72173 -0.83687,-1.53506 -1.07487,-2.49699 -0.35476,-1.4069 -0.35476,-1.4069 -0.77721,-2.79465 z"
     fill="#e7e6e8"
     id="path137"
     style="stroke-width:0.264582" />
  <path
     d="m 41.09563,74.959379 c 0.1528,0.06 0.30559,0.12005 0.46302,0.1819 0,0.17462 0,0.34925 0,0.52916 -0.88604,0.72554 -1.76497,1.28628 -2.91041,1.4056 -0.26193,-0.0409 -0.26193,-0.0409 -0.52916,-0.0827 2.09776,-2.15603 2.09776,-2.15603 2.97655,-2.03398 z"
     fill="#7da7f4"
     id="path139"
     style="stroke-width:0.264582" />
</svg>
