<svg xmlns="http://www.w3.org/2000/svg" width="319.122" height="350.95" viewBox="0 0 84.434 92.855"><path d="M51.91 72.367c-.225 1.913-.962 4.094.212 5.846.411.693 1.153 1.105 1.907 1.326-.45 2.272 1.801 4.453 4.052 4.147 1.634-.022 3.279-.053 4.898.209-2.683.709-4.652 2.986-5.606 5.513-.056.772-.627.338-.928-.01-.984-.86-2.228-1.367-3.337-2.048-2.957-1.601-6.068-3.004-9.358-3.735-2.155.06-3.815 2.665-2.717 4.596a3.122 3.122 0 0 0 2.326 1.654c.194 1.726-.207 3.794 1.158 5.146 1.06.961 2.666.814 3.887.277 1.138-.077 1.85 1.036 2.813 1.467.615.419 1.415.873 1.943 1.204-1.252.146-2.488.467-3.69.85-1.333.389-2.358 1.35-3.293 2.328-2.105 2.015-4.055 4.684-3.87 7.742.156 3.129 2.324 5.973 5.216 7.116 1.633.816 3.185 1.823 4.762 2.755.884.291 1.67.813 2.492 1.21.774.198 1.466.723 1.73 1.486.223.372.826.48.335.909-.299.451-.448 1.13-1.133.918-1.954.058-4.248.407-5.44 2.141-.733 1.301-.244 2.844-.365 4.254.013 2.101.1 4.201.227 6.299-1.065 1.595-2.61 2.97-3.14 4.857-.218 3.218-.097 6.577 1.214 9.57 1.832 2.595 5.162 3.495 8.187 3.579 1.927.18 4.133.712 5.817-.563 1.663-1.42 3.848-2.068 5.5-3.482.168-.374.419-.383.719-.133 1.363.635 3.365.71 4.263-.707.881.336 1.961-.144 2.73.542 2.416 1.255 5.715 1.457 7.825-.505.358-.221.607-.796.934-.88 1.458.751 3.095 1.021 4.658 1.47.034-.364-.629-1.189.085-.892 1.981.378 4.253.07 5.705-1.447 1.42-1.12 3.094-2.477 3.158-4.441a34.925 34.925 0 0 0-.583-6.177 4.01 4.01 0 0 0 .342-2.334c1.669-1.046 2.685-2.987 2.62-4.953.22-1.893.237-3.855.96-5.647.973-.304 1.967-.574 2.826-1.153.5-.27 1.024.26 1.549.31 1.38.332 2.778.996 3.482 2.292.44.861.38 1.875.307 2.807-.157.44-.424-.335-.686-.361-1.65-1.21-4.237-.623-5.24 1.152-1.618 1.966-2.299 4.948-.901 7.219 1.037 1.992 3.192 3.119 5.344 3.457 4.116 1.07 8.915.48 12.123-2.495 2.353-2.089 4.13-4.886 4.894-7.942 1.082-8.588-.825-17.526-5.356-24.903-.167-1.057-.197-2.319-1.161-3-2.664-3.05-4.946-6.52-8.303-8.88-6.51-5.055-14.99-7.544-23.2-6.588-1.327.14-2.709.22-3.967.638-.579.54-.974 1.263-1.16 2.03-3.405-4.17-6.915-8.485-11.714-11.12-1.473-.916-3.146-1.69-4.924-1.537-3.209-.138-6.5-.171-9.578-1.18-1.289-.709-2.32-1.78-3.483-2.666l-.067.463zm13.84 18.438c1.037.434 1.992 1.05 3.037 1.477 1.313.61 2.65 1.169 3.955 1.796-2.217.863-4.495 2.265-5.424 4.559-.174.349-.1.948-.261 1.187-.836-.17-1.672.145-2.473.239a54.925 54.925 0 0 0-4.545-1.208 9.674 9.674 0 0 0 3.213-2.115c.9-1.026.756-2.461.974-3.719.115-.712.145-1.555.647-2.107.265-.157.582-.207.877-.11zm-4.152 64.925c-3.572.234-7.304.003-10.682 1.372-1.342.692-2.165 2.633-1.074 3.888.63.766 1.691.944 2.63.947.74 1.328 2.415 1.395 3.745 1.582 4.012.718 8.11.345 12.159.582 2.917.058 5.83.405 8.744.42 1.331-.18 2.667-.592 4.015-.292l6.011.53c1.832-.857 2.337-3.86.511-4.987-3.144-1.435-6.602-1.966-9.955-2.705-5.304-.995-10.709-1.422-16.104-1.337z" style="clip-rule:evenodd;fill:#fff;fill-rule:evenodd;stroke-width:.264583;image-rendering:optimizeQuality;shape-rendering:geometricPrecision;text-rendering:geometricPrecision" transform="translate(-40.685 -71.904)"/><path fill="#201e2f" d="M83.64 93.662c.075.21.207.386.397.53.212-.759.168-1.465-.132-2.117a5.125 5.125 0 0 1-.53-2.381c-.056-.665.12-1.238.53-1.72 10.875-1.9 20.267.966 28.178 8.599a156.835 156.835 0 0 1 4.894 6.085c-.019.404.158.669.53.794-.043.45.002.89.132 1.323 4.671 7.556 6.435 15.758 5.292 24.606-3.347 8.134-9.124 10.648-17.33 7.54-2.522-2.132-2.743-4.469-.662-7.01.77-1.151 1.696-1.328 2.778-.53v1.059c.423.07.776-.018 1.058-.265.364.042.717-.003 1.059-.132.682-.285 1.123-.77 1.323-1.456.682-1.066.682-2.124 0-3.174-.978-2.213-2.654-3.624-5.027-4.234-.34-.378-.78-.555-1.323-.529a1.475 1.475 0 0 1-.794-.265 7.56 7.56 0 0 1-3.969 1.72 5.772 5.772 0 0 0-1.19 2.514l-.794 6.614a5.274 5.274 0 0 1-2.382 2.117 3.05 3.05 0 0 0 .133 1.852l-.53 1.323c.464 2.276.685 4.569.662 6.88a9.58 9.58 0 0 1-3.043 2.91 12.356 12.356 0 0 1-4.498.529 14.515 14.515 0 0 1-1.852-.53.818.818 0 0 0-.264.794 6.308 6.308 0 0 1-2.778-1.587c-1.25 2.982-3.41 3.909-6.483 2.778a8.113 8.113 0 0 1-1.852-.926c-.467-.254-.996-.343-1.587-.265.062-.341-.026-.606-.265-.793-.004-.405-.18-.537-.529-.397a4.088 4.088 0 0 0-1.455 1.984c-.253.369-.606.545-1.059.53a12.058 12.058 0 0 1-2.645-1.06l-1.72 1.72a24.866 24.866 0 0 0-5.292 3.176c-1.108.215-2.166.17-3.175-.133a17.394 17.394 0 0 0-4.233-.529c-1.512-.323-2.703-1.116-3.572-2.381a20.823 20.823 0 0 1-.794-8.467c1.059-1.41 2.117-2.822 3.175-4.233a96.111 96.111 0 0 1-.264-10.054 1.818 1.818 0 0 1 1.19-.794 14.27 14.27 0 0 0 2.91-.53 4.872 4.872 0 0 0 1.588-.131 23.05 23.05 0 0 1 2.91-4.366c-.78-.217-1.573-.35-2.38-.397-.516-1-1.31-1.662-2.382-1.984-.125-.372-.39-.549-.794-.53a1.85 1.85 0 0 1-1.058-.529c-.49-.314-.976-.667-1.455-1.058-.106.06-.15.149-.132.265-1.838-1.008-3.69-2.022-5.557-3.043-2.35-1.999-3.011-4.424-1.984-7.276a17.97 17.97 0 0 1 4.895-5.424 76.139 76.139 0 0 1 3.836-.926 45.54 45.54 0 0 1 11.642 2.381c1.159-.798 2.173-.666 3.043.397a2.438 2.438 0 0 0 1.587 0c-.724-1.232-.856-2.51-.397-3.836 1.613-1.799 3.598-2.945 5.953-3.44a9.027 9.027 0 0 1 2.646.265l.53-.133a3.345 3.345 0 0 0-1.06-.661 61.736 61.736 0 0 0-3.968-2.514 43.343 43.343 0 0 1-5.82-2.646c-2.204-1.273-3.836-.788-4.895 1.456a32.138 32.138 0 0 1-.662 4.498 26.328 26.328 0 0 1-2.646 1.72 11.24 11.24 0 0 1-3.44 0 35.47 35.47 0 0 1-6.085-3.705 5.58 5.58 0 0 0-3.307.397c-.5-.075-.853-.34-1.058-.794l-.265-4.233a1.846 1.846 0 0 0-.661-.926c-1.627.227-2.2-.435-1.72-1.984.347-.284.744-.46 1.19-.53a45.555 45.555 0 0 1 11.113 5.16l-.53.264c.967.47 1.981.778 3.043.926.38-.015.733-.103 1.059-.264.487-2.25 1.678-4.058 3.572-5.424 1.53-.73 3.118-.818 4.762-.265a71.093 71.093 0 0 1 11.642 5.689c.38.246.732.554 1.058.926.22.182.397.138.53-.132a4.725 4.725 0 0 0-1.324-1.323c-1.955-3.234-4.69-5.571-8.202-7.012-4.23-1.742-8.64-2.447-13.229-2.116-1.725-.669-2.078-1.683-1.058-3.043l-.265-.53a47.466 47.466 0 0 0-2.249-.793c-.498-.639-.675-1.344-.529-2.117a6.973 6.973 0 0 0 3.043 1.455 70.23 70.23 0 0 0 10.319.794 29.477 29.477 0 0 1 9.657 7.276c2.43 2.93 4.856 5.84 7.276 8.731z" style="clip-rule:evenodd;fill-rule:evenodd;stroke-width:.264583;image-rendering:optimizeQuality;shape-rendering:geometricPrecision;text-rendering:geometricPrecision" transform="translate(-40.685 -71.904)"/><path fill="#5669a1" d="M95.81 100.277a10.762 10.762 0 0 0-1.851-3.043l-5.821-1.058a4.186 4.186 0 0 1-.265-1.984c.945.024 1.254-.417.926-1.323a17.832 17.832 0 0 1-2.778-2.25 1.305 1.305 0 0 0-.794-.132c.017-.553.281-.95.794-1.19l2.117-.132a304.8 304.8 0 0 0 12.17 2.249l4.234 2.116a19.348 19.348 0 0 0 3.969 3.44c1.598 1.023 1.598 1.905 0 2.646-1.235.44-2.47.881-3.704 1.323a72.804 72.804 0 0 1-8.996-.662z" style="clip-rule:evenodd;fill-rule:evenodd;stroke-width:.264583;image-rendering:optimizeQuality;shape-rendering:geometricPrecision;text-rendering:geometricPrecision" transform="translate(-40.685 -71.904)"/><path fill="#c6c6ca" d="M78.877 91.017c.524.347.965.788 1.323 1.323-.132.27-.309.314-.529.132a5.073 5.073 0 0 0-1.058-.926c.222-.09.31-.267.264-.53z" style="clip-rule:evenodd;fill-rule:evenodd;stroke-width:.264583;image-rendering:optimizeQuality;shape-rendering:geometricPrecision;text-rendering:geometricPrecision" transform="translate(-40.685 -71.904)"/><path fill="#a9a8ae" d="M83.905 92.075c.3.652.344 1.358.132 2.117a1.14 1.14 0 0 1-.397-.53c.254-.466.343-.996.265-1.587z" style="clip-rule:evenodd;fill-rule:evenodd;stroke-width:.264583;image-rendering:optimizeQuality;shape-rendering:geometricPrecision;text-rendering:geometricPrecision" transform="translate(-40.685 -71.904)"/><path fill="#344474" d="M87.873 94.192c-.07.693.017 1.354.265 1.984l5.82 1.058a10.762 10.762 0 0 1 1.853 3.043 3.729 3.729 0 0 0-.926.265c-3.752-1.277-5.913.046-6.483 3.968a16.727 16.727 0 0 0 1.588 5.557 56.072 56.072 0 0 1 3.307 3.175 8.426 8.426 0 0 1-.397 2.91c.35 1.204.57 2.438.662 3.704l.397.397a14.998 14.998 0 0 1-7.409-1.587 3.083 3.083 0 0 1-1.323-1.985c2.094-4.902 2.094-9.797 0-14.684a2.45 2.45 0 0 1 .53-.662 5.963 5.963 0 0 1-.794-2.249 60.292 60.292 0 0 0 1.455-5.953c.379.513.864.866 1.455 1.059z" style="clip-rule:evenodd;fill-rule:evenodd;stroke-width:.264583;image-rendering:optimizeQuality;shape-rendering:geometricPrecision;text-rendering:geometricPrecision" transform="translate(-40.685 -71.904)"/><path fill="#bebec2" d="M77.29 94.72c.39.152.743.373 1.058.662l-.529.133a9.027 9.027 0 0 0-2.646-.265l2.117-.53z" style="clip-rule:evenodd;fill-rule:evenodd;stroke-width:.264583;image-rendering:optimizeQuality;shape-rendering:geometricPrecision;text-rendering:geometricPrecision" transform="translate(-40.685 -71.904)"/><path fill="#e8e8ed" d="M78.877 99.219a9.176 9.176 0 0 1-3.704-1.852c1.79-.059 3.466.427 5.027 1.455-.437.16-.878.293-1.323.397z" style="clip-rule:evenodd;fill-rule:evenodd;stroke-width:.264583;image-rendering:optimizeQuality;shape-rendering:geometricPrecision;text-rendering:geometricPrecision" transform="translate(-40.685 -71.904)"/><path fill="#a4b6ec" d="M75.173 97.367a9.176 9.176 0 0 0 3.704 1.852c-1.08.32-2.14.673-3.175 1.058a7.33 7.33 0 0 1-2.91-1.323 16.595 16.595 0 0 1 2.381-1.587z" style="clip-rule:evenodd;fill-rule:evenodd;stroke-width:.264583;image-rendering:optimizeQuality;shape-rendering:geometricPrecision;text-rendering:geometricPrecision" transform="translate(-40.685 -71.904)"/><path fill="#7789bf" d="M72.792 98.954a7.33 7.33 0 0 0 2.91 1.323 61.564 61.564 0 0 0-3.571 1.588 3.375 3.375 0 0 1-1.456-1.456 4.717 4.717 0 0 1 2.117-1.455z" style="clip-rule:evenodd;fill-rule:evenodd;stroke-width:.264583;image-rendering:optimizeQuality;shape-rendering:geometricPrecision;text-rendering:geometricPrecision" transform="translate(-40.685 -71.904)"/><path fill="#7588c0" d="M112.48 101.865a16.733 16.733 0 0 1-5.028 2.513c-4.78.104-9.543-.073-14.287-.529l-.662.661a23.513 23.513 0 0 1-.926 3.837.756.756 0 0 1 .265.661 32.852 32.852 0 0 0-1.72-3.44 6.677 6.677 0 0 1 0-2.645l.662-.662a23.577 23.577 0 0 1 5.688.397c1.72-.629 3.44-.585 5.16.133 1.234.176 2.469.176 3.704 0a16.916 16.916 0 0 0 5.953-2.514c.55.417.946.946 1.19 1.588z" style="clip-rule:evenodd;fill-rule:evenodd;stroke-width:.264583;image-rendering:optimizeQuality;shape-rendering:geometricPrecision;text-rendering:geometricPrecision" transform="translate(-40.685 -71.904)"/><path fill="#a3b6f1" d="M112.48 101.865a11.705 11.705 0 0 1 1.587 1.852c.068.665.288 1.283.661 1.852 1.375 2.398 2.742 4.779 4.102 7.144a20.675 20.675 0 0 1 1.587 5.556c-.036 1.3.14 2.535.53 3.704v.53c-.303.42-.7.772-1.191 1.057-.205 3.364-1.396 6.318-3.572 8.864-2.454 1.937-5.188 2.554-8.202 1.852a16.367 16.367 0 0 0-2.382-1.19c-.518-1.125-.254-2.007.794-2.646.197.394.373.791.53 1.19 3.434.845 5.462-.434 6.085-3.836.215-1.055.48-2.113.793-3.175-.32-4.043-2.261-6.998-5.82-8.864a4.882 4.882 0 0 0-1.588-.132c.082-.85-.006-1.644-.264-2.381-.018-1.211-.548-2.137-1.588-2.778a62.932 62.932 0 0 1-3.175-.926 8.412 8.412 0 0 0-3.44 1.984c-.991-.058-1.785.294-2.38 1.058a1.312 1.312 0 0 1-.795.133 2.23 2.23 0 0 0-.132-1.059c-1.584-.217-2.51-1.1-2.778-2.646a.756.756 0 0 0-.265-.661c.415-1.245.723-2.524.926-3.837l.662-.661c4.744.456 9.507.633 14.287.53a16.733 16.733 0 0 0 5.028-2.514z" style="clip-rule:evenodd;fill-rule:evenodd;stroke-width:.264583;image-rendering:optimizeQuality;shape-rendering:geometricPrecision;text-rendering:geometricPrecision" transform="translate(-40.685 -71.904)"/><path fill="#f5f7fb" d="M55.33 102.394c1.304.343 2.627.607 3.968.793.339.38.78.556 1.323.53.45-.043.89.002 1.323.132.55.451 1.167.76 1.852.926l.794.53c-.507-.076-.948.012-1.323.264l-.53.264a58.438 58.438 0 0 1-10.582-2.778c-.43-.225-.519-.49-.265-.794a9.445 9.445 0 0 1 3.44.133z" style="clip-rule:evenodd;fill-rule:evenodd;stroke-width:.264583;image-rendering:optimizeQuality;shape-rendering:geometricPrecision;text-rendering:geometricPrecision" transform="translate(-40.685 -71.904)"/><path fill="#5668a0" d="M75.173 112.977a7.752 7.752 0 0 0-1.587 2.91c-1.513.71-3.012.666-4.498-.132a29.117 29.117 0 0 0-7.144-4.233.642.642 0 0 1 .53-.132 2.61 2.61 0 0 0 1.587-.265c-.782-2.219.012-3.365 2.381-3.44a9.344 9.344 0 0 1 .265-3.042c1.743.26 3.507.348 5.291.264a10.845 10.845 0 0 0 3.44-1.852 16.623 16.623 0 0 0 4.762-1.19l.53.264a19.592 19.592 0 0 1-1.853 1.985 60.52 60.52 0 0 0-5.159 4.1c-.687 1.455-.467 2.734.662 3.837.25.128.515.172.793.132v.794z" style="clip-rule:evenodd;fill-rule:evenodd;stroke-width:.264583;image-rendering:optimizeQuality;shape-rendering:geometricPrecision;text-rendering:geometricPrecision" transform="translate(-40.685 -71.904)"/><path fill="#7689c0" d="M78.348 112.977c.354.216.619.524.794.926 1.129.122 2.143-.187 3.043-.926.493-1.276.714-2.6.661-3.969a62.374 62.374 0 0 1-.264-6.085c.169-.485.434-.573.793-.265l.926 2.646a159.032 159.032 0 0 1-.264 8.202 8.311 8.311 0 0 1-.926 1.852l-.794-.397a33.998 33.998 0 0 0-4.233-.132c-.08-.677.008-1.294.264-1.852z" style="clip-rule:evenodd;fill-rule:evenodd;stroke-width:.264583;image-rendering:optimizeQuality;shape-rendering:geometricPrecision;text-rendering:geometricPrecision" transform="translate(-40.685 -71.904)"/><path fill="#7c7b85" d="M116.977 102.658c.372.125.549.39.53.794-.372-.125-.549-.39-.53-.794z" style="clip-rule:evenodd;fill-rule:evenodd;stroke-width:.264583;image-rendering:optimizeQuality;shape-rendering:geometricPrecision;text-rendering:geometricPrecision" transform="translate(-40.685 -71.904)"/><path fill="#a3b6ef" d="M55.33 102.394a9.445 9.445 0 0 0-3.44-.133c-.254.304-.165.569.265.794a58.438 58.438 0 0 0 10.583 2.778 3.409 3.409 0 0 0-1.058 1.852c-1.473.509-2.62 1.39-3.44 2.646-.254.467-.343.996-.265 1.588a45.361 45.361 0 0 1-10.583-3.969c.894.043 1.423-.354 1.588-1.19a3.52 3.52 0 0 0-1.059-1.72l.662-.265a4.7 4.7 0 0 0 1.852.53c1.256-.024 1.697-.641 1.323-1.853-.645-.512-.689-.997-.133-1.455a9.587 9.587 0 0 1 3.175 0 .874.874 0 0 1 .53.397z" style="clip-rule:evenodd;fill-rule:evenodd;stroke-width:.264583;image-rendering:optimizeQuality;shape-rendering:geometricPrecision;text-rendering:geometricPrecision" transform="translate(-40.685 -71.904)"/><path fill="#7e86aa" d="M59.298 103.188c.543-.026.985.15 1.323.529-.543.026-.984-.15-1.323-.53z" style="clip-rule:evenodd;fill-rule:evenodd;stroke-width:.264583;image-rendering:optimizeQuality;shape-rendering:geometricPrecision;text-rendering:geometricPrecision" transform="translate(-40.685 -71.904)"/><path fill="#a3b7f0" d="M82.582 102.923a62.374 62.374 0 0 0 .264 6.085 9.854 9.854 0 0 1-.661 3.97c-.9.738-1.914 1.047-3.043.925a1.981 1.981 0 0 0-.794-.926c.256-.78.3-1.573.133-2.381a4.887 4.887 0 0 0-.926-.53v-.264c1.617-.912 2.763-2.235 3.44-3.969a23.286 23.286 0 0 1 1.587-2.91z" style="clip-rule:evenodd;fill-rule:evenodd;stroke-width:.264583;image-rendering:optimizeQuality;shape-rendering:geometricPrecision;text-rendering:geometricPrecision" transform="translate(-40.685 -71.904)"/><path fill="#a9b7df" d="M63.796 104.775c.592-.078 1.12.01 1.588.265-.188.239-.452.327-.794.264l-.794-.529z" style="clip-rule:evenodd;fill-rule:evenodd;stroke-width:.264583;image-rendering:optimizeQuality;shape-rendering:geometricPrecision;text-rendering:geometricPrecision" transform="translate(-40.685 -71.904)"/><path fill="#72707b" d="M65.384 105.04c.143.015.231.104.264.264a5.59 5.59 0 0 1-2.381.265c.375-.252.816-.34 1.323-.265.342.063.606-.025.794-.264z" style="clip-rule:evenodd;fill-rule:evenodd;stroke-width:.264583;image-rendering:optimizeQuality;shape-rendering:geometricPrecision;text-rendering:geometricPrecision" transform="translate(-40.685 -71.904)"/><path fill="#262437" d="M95.017 105.304a19.124 19.124 0 0 1 4.233.397c.893.272 1.202.846.926 1.72-.925.47-1.851.514-2.778.132a6.678 6.678 0 0 0-2.646 0c-.19.562-.499.694-.926.397a1.719 1.719 0 0 1 0-1.323 8.32 8.32 0 0 0 1.191-1.323z" style="clip-rule:evenodd;fill-rule:evenodd;stroke-width:.264583;image-rendering:optimizeQuality;shape-rendering:geometricPrecision;text-rendering:geometricPrecision" transform="translate(-40.685 -71.904)"/><path fill="#e5e5ea" d="M114.067 103.717c2.414 2.534 4.002 5.532 4.763 8.995-1.36-2.364-2.727-4.745-4.102-7.143a4.081 4.081 0 0 1-.661-1.852z" style="clip-rule:evenodd;fill-rule:evenodd;stroke-width:.264583;image-rendering:optimizeQuality;shape-rendering:geometricPrecision;text-rendering:geometricPrecision" transform="translate(-40.685 -71.904)"/><path fill="#f3f4f6" d="M80.994 105.833c-.676 1.734-1.822 3.057-3.44 3.97a4.873 4.873 0 0 1-1.587-.133c.35-.216.526-.525.53-.926a15.587 15.587 0 0 0 3.174-2.778 3.425 3.425 0 0 1 1.323-.133z" style="clip-rule:evenodd;fill-rule:evenodd;stroke-width:.264583;image-rendering:optimizeQuality;shape-rendering:geometricPrecision;text-rendering:geometricPrecision" transform="translate(-40.685 -71.904)"/><path fill="#7487c0" d="M47.392 107.95a45.361 45.361 0 0 0 10.583 3.969c-.078-.592.01-1.12.265-1.588a4.08 4.08 0 0 0 .265 1.852c-1.435.576-2.052 1.634-1.853 3.175-.71.044-1.416 0-2.116-.132a50.476 50.476 0 0 0-6.086-3.307c.775-1.006.599-1.844-.529-2.514-1.561-.07-1.738-.554-.529-1.455z" style="clip-rule:evenodd;fill-rule:evenodd;stroke-width:.264583;image-rendering:optimizeQuality;shape-rendering:geometricPrecision;text-rendering:geometricPrecision" transform="translate(-40.685 -71.904)"/><path fill="#bbc2d4" d="M76.496 108.744c-.003.401-.179.71-.529.926a4.883 4.883 0 0 0 1.588.132v.265a4.46 4.46 0 0 1-2.117-.265c.27-.447.623-.8 1.058-1.058z" style="clip-rule:evenodd;fill-rule:evenodd;stroke-width:.264583;image-rendering:optimizeQuality;shape-rendering:geometricPrecision;text-rendering:geometricPrecision" transform="translate(-40.685 -71.904)"/><path fill="#354474" d="M62.473 111.39a.644.644 0 0 0-.529.132 29.117 29.117 0 0 1 7.144 4.233c1.486.798 2.985.842 4.498.132a7.752 7.752 0 0 1 1.587-2.91c1.021 3.87 3.579 5.678 7.673 5.424 2.844 2.56 4.52 5.691 5.027 9.393 2.513-.9 4.365-2.532 5.557-4.895a29.888 29.888 0 0 1 3.968-.132l-1.058 7.408c-4.425.057-8.835-.164-13.23-.661a35.736 35.736 0 0 1-5.82-1.72 6.895 6.895 0 0 1-2.514-1.323 22.695 22.695 0 0 1-.793-4.763c-.479-.501-1.052-.634-1.72-.397a65.85 65.85 0 0 0-2.117 3.043 57.597 57.597 0 0 1-3.704-3.043l2.91-.264a.966.966 0 0 0 .265-.397 72.072 72.072 0 0 0-9.922-3.175c-.11-1.102.286-1.984 1.19-2.646a7.105 7.105 0 0 0-.925-1.587c-.14-1.937.697-2.554 2.513-1.852z" style="clip-rule:evenodd;fill-rule:evenodd;stroke-width:.264583;image-rendering:optimizeQuality;shape-rendering:geometricPrecision;text-rendering:geometricPrecision" transform="translate(-40.685 -71.904)"/><path fill="#f9f9fa" d="M103.748 116.152c-1.766 2.191-4.06 2.94-6.879 2.249-1.233-.396-1.939-1.233-2.117-2.514a33.444 33.444 0 0 1 2.646-2.248 34.86 34.86 0 0 0 5.027-2.779 3.069 3.069 0 0 1 1.456 1.852c.215 1.196.17 2.343-.133 3.44z" style="clip-rule:evenodd;fill-rule:evenodd;stroke-width:.264583;image-rendering:optimizeQuality;shape-rendering:geometricPrecision;text-rendering:geometricPrecision" transform="translate(-40.685 -71.904)"/><path fill="#7588c1" d="M106.13 113.242c.258.737.346 1.53.264 2.38a4.873 4.873 0 0 1 1.588.133c3.559 1.866 5.5 4.82 5.82 8.864a38.068 38.068 0 0 0-.793 3.175c.784-3.857-.627-6.547-4.234-8.07-.657-1.257-1.715-1.919-3.175-1.984.37-1.474.546-2.973.53-4.498z" style="clip-rule:evenodd;fill-rule:evenodd;stroke-width:.264583;image-rendering:optimizeQuality;shape-rendering:geometricPrecision;text-rendering:geometricPrecision" transform="translate(-40.685 -71.904)"/><path fill="#b2b1b7" d="M53.742 117.21c-.685.01-1.214-.254-1.587-.793-.018-.116.026-.205.132-.265.48.39.964.744 1.455 1.058z" style="clip-rule:evenodd;fill-rule:evenodd;stroke-width:.264583;image-rendering:optimizeQuality;shape-rendering:geometricPrecision;text-rendering:geometricPrecision" transform="translate(-40.685 -71.904)"/><path fill="#a2b4ea" d="M94.752 115.888c.178 1.28.884 2.117 2.117 2.513 2.82.692 5.113-.058 6.88-2.249-.791 3.393-2.908 4.848-6.35 4.366-2.315-.798-3.197-2.342-2.647-4.63z" style="clip-rule:evenodd;fill-rule:evenodd;stroke-width:.264583;image-rendering:optimizeQuality;shape-rendering:geometricPrecision;text-rendering:geometricPrecision" transform="translate(-40.685 -71.904)"/><path fill="#94939b" d="M54.8 117.74c.404-.02.669.157.794.529-.404.019-.669-.157-.794-.53z" style="clip-rule:evenodd;fill-rule:evenodd;stroke-width:.264583;image-rendering:optimizeQuality;shape-rendering:geometricPrecision;text-rendering:geometricPrecision" transform="translate(-40.685 -71.904)"/><path fill="#959eb0" d="M120.417 118.269c.344 1.175.52 2.41.53 3.704a10.682 10.682 0 0 1-.53-3.704z" style="clip-rule:evenodd;fill-rule:evenodd;stroke-width:.264583;image-rendering:optimizeQuality;shape-rendering:geometricPrecision;text-rendering:geometricPrecision" transform="translate(-40.685 -71.904)"/><path fill="#908f97" d="M104.807 120.65c.543-.026.984.15 1.323.53-.544.025-.985-.151-1.323-.53z" style="clip-rule:evenodd;fill-rule:evenodd;stroke-width:.264583;image-rendering:optimizeQuality;shape-rendering:geometricPrecision;text-rendering:geometricPrecision" transform="translate(-40.685 -71.904)"/><path fill="#f7f7f9" d="M77.29 127.794c1.531 1.153 1.355 1.991-.53 2.513a29.263 29.263 0 0 0-3.968.397 8.147 8.147 0 0 0-2.117 3.043 1.124 1.124 0 0 1-1.058 0 14.66 14.66 0 0 0-1.19-1.455 80.13 80.13 0 0 1 0-3.44 12.258 12.258 0 0 1-3.308-3.44c-.054-.5.123-.896.53-1.19a14.169 14.169 0 0 1 3.968.397c.242-.012.419-.1.53-.265a65.85 65.85 0 0 1 2.116-3.043c.668-.237 1.241-.104 1.72.397.095 1.616.36 3.204.793 4.763a6.895 6.895 0 0 0 2.514 1.323z" style="clip-rule:evenodd;fill-rule:evenodd;stroke-width:.264583;image-rendering:optimizeQuality;shape-rendering:geometricPrecision;text-rendering:geometricPrecision" transform="translate(-40.685 -71.904)"/><path fill="#344474" d="M64.59 124.883c-.669.532-1.154 1.238-1.455 2.117a105.363 105.363 0 0 0-2.117 5.556 17.18 17.18 0 0 0 1.455 7.54 15.454 15.454 0 0 0 5.027 1.72 6.36 6.36 0 0 0 2.382-.66 85.87 85.87 0 0 0 5.556-3.176c1.196-.215 2.342-.171 3.44.132-1.176.411-2.41.632-3.705.662a36.931 36.931 0 0 0-4.365 5.953c-.639.871-1.476 1.18-2.514.926a11.271 11.271 0 0 0-2.117-.926c-1.202.388-2.348.256-3.44-.397a20.01 20.01 0 0 1-6.217-4.63 27.96 27.96 0 0 1-1.984-11.642l1.587-.264c-.491 3.182.523 3.887 3.043 2.116.722-1.076.942-2.222.661-3.44a19.593 19.593 0 0 0 2.25-4.762 32.94 32.94 0 0 0 2.513 3.175z" style="clip-rule:evenodd;fill-rule:evenodd;stroke-width:.264583;image-rendering:optimizeQuality;shape-rendering:geometricPrecision;text-rendering:geometricPrecision" transform="translate(-40.685 -71.904)"/><path fill="#7588c0" d="M120.946 122.502c.305 1.628.35 3.304.132 5.027-.795 1.767-1.589 3.53-2.38 5.292-.72 1.336-1.823 2.174-3.308 2.513a59.567 59.567 0 0 1-7.938 0c-.965-.479-1.583-1.228-1.852-2.249.818.328 1.611.725 2.382 1.191 3.014.702 5.748.085 8.202-1.852 2.176-2.546 3.366-5.5 3.572-8.864a3.769 3.769 0 0 0 1.19-1.058z" style="clip-rule:evenodd;fill-rule:evenodd;stroke-width:.264583;image-rendering:optimizeQuality;shape-rendering:geometricPrecision;text-rendering:geometricPrecision" transform="translate(-40.685 -71.904)"/><path fill="#5c5b67" d="M55.859 125.148c-.92.271-1.89.448-2.91.53.884-.455 1.854-.632 2.91-.53z" style="clip-rule:evenodd;fill-rule:evenodd;stroke-width:.264583;image-rendering:optimizeQuality;shape-rendering:geometricPrecision;text-rendering:geometricPrecision" transform="translate(-40.685 -71.904)"/><path fill="#5669a2" d="M64.59 124.883a.795.795 0 0 0 .53.53 12.258 12.258 0 0 0 3.306 3.44 80.13 80.13 0 0 0 0 3.439c.429.46.826.946 1.191 1.455.353.176.706.176 1.058 0a8.147 8.147 0 0 1 2.117-3.043c1.243 1.37 2.83 2.12 4.763 2.25a21.64 21.64 0 0 0 2.91 1.322c4.148.227 8.292.492 12.435.794.676 2.463.897 4.977.662 7.54-.188.234-.408.41-.662.53a12.144 12.144 0 0 0-3.968-.662c-.897-.67-1.514-1.507-1.852-2.513.668-.238 1.33-.503 1.984-.794.207-.512.075-.908-.397-1.19a15.116 15.116 0 0 1-4.895.66 22.309 22.309 0 0 1-4.895-.528c-1.097-.304-2.243-.348-3.44-.133a85.87 85.87 0 0 1-5.555 3.175 6.36 6.36 0 0 1-2.382.662 15.454 15.454 0 0 1-5.027-1.72 17.197 17.197 0 0 1-1.455-7.54c.654-1.873 1.36-3.726 2.117-5.557.301-.88.786-1.585 1.455-2.117z" style="clip-rule:evenodd;fill-rule:evenodd;stroke-width:.264583;image-rendering:optimizeQuality;shape-rendering:geometricPrecision;text-rendering:geometricPrecision" transform="translate(-40.685 -71.904)"/><path fill="#2c2a3b" d="M70.94 126.206c1.798.16 2.24.999 1.323 2.514-1.209.436-1.914.04-2.117-1.19.157-.51.421-.95.794-1.324z" style="clip-rule:evenodd;fill-rule:evenodd;stroke-width:.264583;image-rendering:optimizeQuality;shape-rendering:geometricPrecision;text-rendering:geometricPrecision" transform="translate(-40.685 -71.904)"/><path fill="#c6c9d7" d="M111.157 125.413c.682 1.05.682 2.108 0 3.174v-3.174z" style="clip-rule:evenodd;fill-rule:evenodd;stroke-width:.264583;image-rendering:optimizeQuality;shape-rendering:geometricPrecision;text-rendering:geometricPrecision" transform="translate(-40.685 -71.904)"/><path fill="#888790" d="M107.717 129.381c.24.188.327.452.265.794h.793c-.282.247-.635.335-1.058.265v-1.059z" style="clip-rule:evenodd;fill-rule:evenodd;stroke-width:.264583;image-rendering:optimizeQuality;shape-rendering:geometricPrecision;text-rendering:geometricPrecision" transform="translate(-40.685 -71.904)"/><path fill="#e8eaef" d="M54.007 138.906c-.225 1.596-.93 2.919-2.117 3.969.261-1.578.966-2.9 2.117-3.969z" style="clip-rule:evenodd;fill-rule:evenodd;stroke-width:.264583;image-rendering:optimizeQuality;shape-rendering:geometricPrecision;text-rendering:geometricPrecision" transform="translate(-40.685 -71.904)"/><path fill="#a1b4ee" d="M60.092 145.52c.035.233-.053.41-.265.53a11.905 11.905 0 0 1-2.91 1.323c-1.008-.18-1.757.174-2.249 1.058a3.032 3.032 0 0 1-.661-.264c-.065-2.015-.947-2.544-2.646-1.588l-.265-.926c.237-.951.501-1.877.794-2.778 1.187-1.05 1.892-2.373 2.117-3.969a.642.642 0 0 1 .132-.529c.232 1.522.76 2.933 1.587 4.233 1.477.937 2.932 1.908 4.366 2.91z" style="clip-rule:evenodd;fill-rule:evenodd;stroke-width:.264583;image-rendering:optimizeQuality;shape-rendering:geometricPrecision;text-rendering:geometricPrecision" transform="translate(-40.685 -71.904)"/><path fill="#354473" d="M87.08 139.965c.338 1.006.955 1.843 1.852 2.513a12.14 12.14 0 0 1 3.968.662c-.39.505-.92.813-1.587.926-1.683.22-3.359.175-5.027-.133a8.564 8.564 0 0 0-1.19-.793 1.305 1.305 0 0 1-.133-.794 22.916 22.916 0 0 1-6.086-1.985c2.745.08 5.48-.052 8.203-.396z" style="clip-rule:evenodd;fill-rule:evenodd;stroke-width:.264583;image-rendering:optimizeQuality;shape-rendering:geometricPrecision;text-rendering:geometricPrecision" transform="translate(-40.685 -71.904)"/><path fill="#7587be" d="M81.259 143.933c-.618.794-1.323 1.5-2.117 2.117-1.681.083-2.916-.622-3.704-2.117-.294.289-.558.289-.794 0 .498-1.431 1.468-2.005 2.91-1.72a16.019 16.019 0 0 1 3.705 1.72z" style="clip-rule:evenodd;fill-rule:evenodd;stroke-width:.264583;image-rendering:optimizeQuality;shape-rendering:geometricPrecision;text-rendering:geometricPrecision" transform="translate(-40.685 -71.904)"/><path fill="#a2b4e2" d="M81.259 143.933c.493.092.713.356.661.794l-1.455 1.455c-.45.102-.89.058-1.323-.132.794-.617 1.5-1.323 2.117-2.117z" style="clip-rule:evenodd;fill-rule:evenodd;stroke-width:.264583;image-rendering:optimizeQuality;shape-rendering:geometricPrecision;text-rendering:geometricPrecision" transform="translate(-40.685 -71.904)"/><path fill="#7387c0" d="M60.092 145.52a19.05 19.05 0 0 0 2.646 1.456 14.2 14.2 0 0 1-5.027 2.249c.092-.781-.172-1.399-.794-1.852a11.905 11.905 0 0 0 2.91-1.323c.212-.12.3-.297.265-.53z" style="clip-rule:evenodd;fill-rule:evenodd;stroke-width:.264583;image-rendering:optimizeQuality;shape-rendering:geometricPrecision;text-rendering:geometricPrecision" transform="translate(-40.685 -71.904)"/><path fill="#b8b8bd" d="M92.9 146.315c-.224.387-.576.608-1.058.661-1.196.215-2.343.171-3.44-.132 1.541.1 3.04-.077 4.498-.53z" style="clip-rule:evenodd;fill-rule:evenodd;stroke-width:.264583;image-rendering:optimizeQuality;shape-rendering:geometricPrecision;text-rendering:geometricPrecision" transform="translate(-40.685 -71.904)"/><path fill="#95949c" d="M73.321 146.315c.24.187.327.452.265.793.591-.078 1.12.01 1.587.265h-1.852v-1.058z" style="clip-rule:evenodd;fill-rule:evenodd;stroke-width:.264583;image-rendering:optimizeQuality;shape-rendering:geometricPrecision;text-rendering:geometricPrecision" transform="translate(-40.685 -71.904)"/><path fill="#63626e" d="M53.213 151.606c1.469.007 2.88.184 4.233.53a12.347 12.347 0 0 1-4.233-.53z" style="clip-rule:evenodd;fill-rule:evenodd;stroke-width:.264583;image-rendering:optimizeQuality;shape-rendering:geometricPrecision;text-rendering:geometricPrecision" transform="translate(-40.685 -71.904)"/><path fill="#232132" d="M79.142 162.19a94.54 94.54 0 0 0-12.965-1.059 44.284 44.284 0 0 0-4.894-.264 42.85 42.85 0 0 0-5.953.529c-1.059.176-1.5-.265-1.323-1.323-.887.044-1.769 0-2.646-.132-.325-.42-.237-.773.264-1.059a5.09 5.09 0 0 1 2.382-.793c10.876-1.25 21.547-.28 32.014 2.91 1.105.399 1.281 1.016.53 1.852-2.465-.19-4.935-.41-7.409-.661z" style="clip-rule:evenodd;fill-rule:evenodd;stroke-width:.264583;image-rendering:optimizeQuality;shape-rendering:geometricPrecision;text-rendering:geometricPrecision" transform="translate(-40.685 -71.904)"/><path fill="#3a3847" d="M66.177 161.131c-2.559-.044-5.116 0-7.672.133 6.198-.028 12.372.325 18.52 1.058a19.146 19.146 0 0 1-3.175.132 622.703 622.703 0 0 0-14.816-.397 17.498 17.498 0 0 1-3.704-.661 42.845 42.845 0 0 1 5.953-.53c1.678 0 3.31.09 4.894.265z" style="clip-rule:evenodd;fill-rule:evenodd;stroke-width:.264583;image-rendering:optimizeQuality;shape-rendering:geometricPrecision;text-rendering:geometricPrecision" transform="translate(-40.685 -71.904)"/><path fill="#aaa9af" d="M66.177 161.131c4.385.058 8.707.411 12.965 1.059a8.18 8.18 0 0 1-2.778.529c-.887 0-1.725-.089-2.514-.265 1.062.044 2.12 0 3.175-.132a150.731 150.731 0 0 0-18.52-1.058c2.556-.133 5.113-.177 7.672-.133z" style="clip-rule:evenodd;fill-rule:evenodd;stroke-width:.264583;image-rendering:optimizeQuality;shape-rendering:geometricPrecision;text-rendering:geometricPrecision" transform="translate(-40.685 -71.904)"/></svg>