<svg width="195.973" height="127.116" viewBox="0 0 20.069 13.012" preserveAspectRatio="xMidYMid" xmlns="http://www.w3.org/2000/svg"><defs><clipPath clipPathUnits="userSpaceOnUse" id="prefix__a"><path d="M0 792h612V0H0z"/></clipPath><clipPath clipPathUnits="userSpaceOnUse" id="prefix__b"><path d="M0 792h612V0H0z" transform="translate(-360.587 -549.127)"/></clipPath><clipPath clipPathUnits="userSpaceOnUse" id="prefix__c"><path d="M0 792h612V0H0z" transform="translate(-376.121 -537.016)"/></clipPath><clipPath clipPathUnits="userSpaceOnUse" id="prefix__d"><path d="M0 792h612V0H0z" transform="translate(-395.04 -537.498)"/></clipPath><clipPath clipPathUnits="userSpaceOnUse" id="prefix__e"><path d="M0 792h612V0H0z" transform="translate(-402.537 -555.018)"/></clipPath><clipPath clipPathUnits="userSpaceOnUse" id="prefix__f"><path d="M0 792h612V0H0z" transform="translate(-427.36 -575.408)"/></clipPath><clipPath clipPathUnits="userSpaceOnUse" id="prefix__g"><path d="M0 792h612V0H0z" transform="translate(-416.684 -580.035)"/></clipPath><clipPath clipPathUnits="userSpaceOnUse" id="prefix__h"><path d="M0 792h612V0H0z" transform="translate(-431.197 -567.3)"/></clipPath><clipPath clipPathUnits="userSpaceOnUse" id="prefix__i"><path d="M0 792h612V0H0z" transform="translate(-424.88 -553.263)"/></clipPath><clipPath clipPathUnits="userSpaceOnUse" id="prefix__j"><path d="M0 792h612V0H0z" transform="translate(-419.659 -579.732)"/></clipPath><clipPath clipPathUnits="userSpaceOnUse" id="prefix__k"><path d="M0 792h612V0H0z" transform="translate(-417.908 -550.81)"/></clipPath><clipPath clipPathUnits="userSpaceOnUse" id="prefix__l"><path d="M0 792h612V0H0z" transform="translate(-403.34 -571.413)"/></clipPath><clipPath clipPathUnits="userSpaceOnUse" id="prefix__m"><path d="M0 792h612V0H0z" transform="translate(-409.791 -578.311)"/></clipPath></defs><path d="M460.51 506.045H313.53v95.337h146.98z" transform="matrix(.13654 0 0 -.13654 -42.81 82.112)" clip-path="url(#prefix__a)" fill="#d9411e"/><path d="M0 0c-1.022.544-2.178.927-3.434 1.139a22.487 22.487 0 01-3.729.313c-1.014 0-2.04.087-3.051.26-.983.167-1.874.476-2.649.917a5.245 5.245 0 00-1.854 1.786c-.47.744-.708 1.73-.708 2.919.023 1.051.267 1.95.727 2.673a5.477 5.477 0 001.807 1.773c.753.454 1.622.787 2.582.991a14.78 14.78 0 005.122.167 9.796 9.796 0 002.019-.509 7.252 7.252 0 001.79-.967A6.122 6.122 0 00.037 9.975l.224-.329 1.652.695-.35.495c-.45.634-.948 1.206-1.481 1.699a7.5 7.5 0 01-1.899 1.268c-.708.333-1.517.59-2.407.763-.881.171-1.908.257-3.053.257-1.099 0-2.233-.126-3.371-.374a10.635 10.635 0 01-3.183-1.242 7.23 7.23 0 01-2.395-2.314c-.621-.967-.936-2.161-.936-3.548 0-1.456.292-2.696.868-3.684a6.77 6.77 0 012.283-2.364c.923-.576 2-.989 3.2-1.23 1.173-.234 2.4-.353 3.648-.353A23 23 0 00-4.039-.51a9.542 9.542 0 002.907-.871A5.84 5.84 0 00.986-3.127c.531-.713.801-1.676.801-2.861 0-1.065-.26-1.973-.771-2.7a6.26 6.26 0 00-2.04-1.844 9.692 9.692 0 00-2.838-1.054 15.191 15.191 0 00-3.11-.334c-1.688 0-3.357.323-4.959.959a11.864 11.864 0 00-4.203 2.826l-.32.334-1.317-1.142.369-.369c1.179-1.179 2.642-2.206 4.35-3.053 1.727-.858 3.773-1.292 6.08-1.292 1.097 0 2.261.125 3.461.373 1.216.251 2.358.68 3.392 1.277a8.116 8.116 0 012.6 2.357c.692.984 1.044 2.216 1.044 3.662 0 1.465-.33 2.706-.979 3.688A6.908 6.908 0 010 0" transform="matrix(.13654 0 0 -.13654 6.425 7.133)" clip-path="url(#prefix__b)" fill="#fff"/><path d="M0 0c-1.191 0-2.28.246-3.238.731a8.348 8.348 0 00-2.546 1.986 9.493 9.493 0 00-1.707 2.89 10.855 10.855 0 00-.695 3.381c0 1.059.196 2.141.583 3.217a9.423 9.423 0 001.671 2.906 8.895 8.895 0 002.609 2.101c.993.532 2.111.802 3.323.802a7.02 7.02 0 003.199-.749 8.72 8.72 0 002.606-2.009 9.615 9.615 0 001.745-2.891 9.288 9.288 0 00.636-3.377c0-1.058-.196-2.14-.583-3.216a9.402 9.402 0 00-1.671-2.907A8.625 8.625 0 003.327.785C2.333.264 1.214 0 0 0m7.227 16.296a10.592 10.592 0 01-3.122 2.483c-1.225.645-2.606.973-4.105.973a8.928 8.928 0 01-3.877-.869 10.099 10.099 0 01-3.15-2.348c-.888-.98-1.6-2.135-2.117-3.432a11.079 11.079 0 01-.779-4.115c0-1.353.242-2.677.719-3.936a11.236 11.236 0 012.017-3.393A10.183 10.183 0 01-4.059-.768c1.219-.617 2.582-.943 4.05-.97h.018a9.26 9.26 0 013.91.928 10.392 10.392 0 013.147 2.365A11.168 11.168 0 019.163 4.95c.504 1.275.76 2.633.76 4.038a11.37 11.37 0 01-.697 3.852 11.089 11.089 0 01-1.999 3.456" transform="matrix(.13654 0 0 -.13654 8.546 8.787)" clip-path="url(#prefix__c)" fill="#fff"/><path d="M0 0a10.108 10.108 0 00-.764-.164 31.878 31.878 0 00-.735-.113 5.165 5.165 0 00-.714-.052c-.582 0-1.011.193-1.312.59-.332.438-.493.873-.493 1.33v25.434h-1.738V1.591c0-.954.302-1.799.897-2.509.616-.737 1.493-1.11 2.608-1.11.35 0 .697.02 1.032.06.324.039.614.078.875.117.265.04.573.1.915.179l.589.136L.387.097z" transform="matrix(.13654 0 0 -.13654 11.13 8.721)" clip-path="url(#prefix__d)" fill="#fff"/><path d="M0 0a9.89 9.89 0 01-2.385-2.408v3.853h-1.738v-20.802h1.738v12.951c.24.849.572 1.644.986 2.366A7.492 7.492 0 00.143-2.139a7.361 7.361 0 002.098 1.29c.784.321 1.668.508 2.629.557l.462.023v1.714h-.487C2.994 1.445 1.364.959 0 0" transform="matrix(.13654 0 0 -.13654 12.153 6.33)" clip-path="url(#prefix__e)" fill="#fff"/><path d="M0 0l-14.387-15.555L3.694-7.213A14.593 14.593 0 010 0" transform="matrix(.13654 0 0 -.13654 15.542 3.545)" clip-path="url(#prefix__f)" fill="#26212b"/><path d="M0 0c-1.993 0-3.892-.4-5.624-1.121L-7.555-17.39 2.092-.151C1.409-.053.711 0 0 0" transform="matrix(.13654 0 0 -.13654 14.085 2.913)" clip-path="url(#prefix__g)" fill="#26212b"/><path d="M0 0l-17.133-9.588 16.075 1.907A14.592 14.592 0 010 0" transform="matrix(.13654 0 0 -.13654 16.066 4.652)" clip-path="url(#prefix__h)" fill="#26212b"/><path d="M0 0a14.726 14.726 0 014.627 5.066L-10.44 2.073z" transform="matrix(.13654 0 0 -.13654 15.204 6.569)" clip-path="url(#prefix__i)" fill="#26212b"/><path d="M0 0l-8.387-18.179L7.171-3.788A14.597 14.597 0 010 0" transform="matrix(.13654 0 0 -.13654 14.491 2.955)" clip-path="url(#prefix__j)" fill="#26212b"/><path d="M0 0c1.621.134 3.167.531 4.595 1.15l-8.44 1.001z" transform="matrix(.13654 0 0 -.13654 14.252 6.904)" clip-path="url(#prefix__k)" fill="#26212b"/><path d="M0 0a14.548 14.548 0 01-1.233-4.705L1.04-8.768z" transform="matrix(.13654 0 0 -.13654 12.263 4.09)" clip-path="url(#prefix__l)" fill="#26212b"/><path d="M0 0a14.701 14.701 0 01-5.158-4.607l2.121-10.684z" transform="matrix(.13654 0 0 -.13654 13.144 3.149)" clip-path="url(#prefix__m)" fill="#26212b"/></svg>