<svg xmlns="http://www.w3.org/2000/svg" width="40.698" height="41.107" fill="none"><g clip-path="url(#a)" transform="translate(-3.259 -7.75)"><path stroke="#c0ff58" stroke-width=".12" d="m22.307 42.3-.65 2.527M27.978 43.694l-2.72 4.489M26.415 41.21l-1.924 2.06M27.425 41.463l.467 1.682M23.07 41.605l3-.834M23.617 38.799l2.353 1.02M25.524 36.936l1.07 2.224M30.564 34.639l-2.639 4.593M12.028 27.19l-4.04 1.57M11.88 22.899 5.66 21.17M12.168 22.255 9.64 19.462M17.54 20.25l-2.497-1.08M17.608 20.859l-1.065.756M14.543 14.588l-2.294-1.047M14.861 15.541l-5.113 3.092M19.44 13.719l-2.515.847M16.192 10.234l-.384 3.406M23.066 8.397l-3.254 2.898M20.91 17.497l-2.452 2.609M21.163 16.35l-1.04-2.293M12.835 27.903l-.737 2.12M8.213 26.084l-.825 2.21M6.435 28.77 4.331 27.63M14.553 24.794l-.672 1.065M6.81 29.883l-.752 1.466M13.875 31.425l-4.027 2.39M7.529 37.58 4.69 34.545M16.974 37.254l-3.27 1.291M13.733 35.711l-.824 2.294M15.816 39.86l-2.007-.428M11.453 38.96l-3.032-.75M11.649 39.915l-1.804 1.023M13.145 40.326l1.125 5.581M32.263 34.035l3.599 2.278M32.877 29.86l1.235.277M34.185 26.868l4.237-.221M34.784 22.722l-.978 3.65M35.639 22.538l3.086 3.484M35.99 21.865l3.874.796M40.863 23.044l2.66 6.17M35.786 21.33l5.246-2.245M35.212 20.949l.215-1.977M36.994 18.095l-.289-1.108M39.429 16.593l-1.99 1.836M30.18 20.333l4.137 1.073M31.969 23.604l2.35-1.307M32.023 16.658l2.604 4.425M31.151 16.673l-1.437 2.445M34.333 11.71l-2.248 3.41M34.116 11.469l-2.176.308M31.437 11.496l-.452-1.752M35.15 30.487l1.817.811M34.17 32.738l2.872-.816M36.648 36.044l1.268-3.3M37.007 36.666l3.856.99M30.706 37.842 28.294 39.7M34.238 39.815l-5.812.48M35.091 44.432l-2.566-1.143" opacity=".88"/><path fill="#c0ff58" d="M35.079 22.796c.514 0 .93-.42.93-.94s-.416-.94-.93-.94a.936.936 0 0 0-.931.94c0 .52.416.94.93.94zM29.399 20.878a.936.936 0 0 0 .93-.94c0-.52-.416-.94-.93-.94a.936.936 0 0 0-.931.94c0 .519.417.94.93.94zM12.775 23.794c.514 0 .93-.42.93-.94s-.416-.94-.93-.94a.936.936 0 0 0-.931.94c0 .52.416.94.93.94zM7.157 30.067a.936.936 0 0 0 .931-.94c0-.52-.417-.94-.931-.94a.936.936 0 0 0-.931.94c0 .519.417.94.931.94zM39.335 27.566a.936.936 0 0 0 .931-.94c0-.52-.417-.941-.931-.941a.936.936 0 0 0-.931.94c0 .52.417.94.931.94zM31.578 16.825c.514 0 .931-.421.931-.94 0-.52-.417-.94-.931-.94a.936.936 0 0 0-.931.94c0 .519.417.94.93.94zM21.607 17.916a.936.936 0 0 0 .931-.94c0-.52-.417-.94-.93-.94a.936.936 0 0 0-.932.94c0 .52.417.94.931.94zM9.077 42.357c.514 0 .931-.421.931-.94 0-.52-.417-.94-.93-.94a.936.936 0 0 0-.932.94c0 .519.417.94.931.94zM14.042 35.888c.514 0 .931-.421.931-.94 0-.52-.417-.94-.931-.94a.936.936 0 0 0-.931.94c0 .519.417.94.93.94zM11.451 14.069a.972.972 0 0 0 .967-.977.972.972 0 0 0-.967-.977.972.972 0 0 0-.967.977c0 .54.433.977.967.977zM23.395 12.914a.972.972 0 0 0 .967-.977.972.972 0 0 0-.967-.977.972.972 0 0 0-.968.977c0 .54.433.977.968.977zM15.777 16.088c.688 0 1.246-.563 1.246-1.259 0-.695-.558-1.258-1.246-1.258s-1.246.563-1.246 1.258c0 .696.558 1.259 1.246 1.259zM36.044 17.275c.689 0 1.247-.564 1.247-1.26 0-.694-.558-1.258-1.247-1.258-.688 0-1.246.564-1.246 1.259s.558 1.259 1.246 1.259zM38.19 32.771c.689 0 1.247-.563 1.247-1.258 0-.695-.558-1.259-1.247-1.259-.688 0-1.246.564-1.246 1.259s.558 1.258 1.246 1.258zM34.651 30.822a.58.58 0 0 0 .576-.582.58.58 0 0 0-.576-.582.579.579 0 0 0-.576.582c0 .321.258.582.576.582zM19.925 14.085c.318 0 .576-.26.576-.582a.579.579 0 0 0-.577-.582.579.579 0 0 0-.576.582c0 .321.258.582.576.582zM14.602 19.557a.58.58 0 0 0 .576-.582.579.579 0 0 0-.576-.581.579.579 0 0 0-.576.581c0 .322.258.582.576.582zM5.17 21.58A.58.58 0 0 0 5.748 21a.58.58 0 0 0-.576-.582.58.58 0 0 0-.577.582.58.58 0 0 0 .577.582zM16.275 10.325a.58.58 0 0 0 .576-.582.58.58 0 0 0-.576-.582.58.58 0 0 0-.576.582.58.58 0 0 0 .576.582zM19.397 12.227a.58.58 0 0 0 .576-.582.58.58 0 0 0-.576-.582.579.579 0 0 0-.576.582c0 .321.258.582.576.582zM27.167 41.497c.688 0 1.246-.564 1.246-1.259s-.558-1.259-1.246-1.259c-.689 0-1.247.564-1.247 1.259s.558 1.259 1.247 1.259zM13.18 27.986c.688 0 1.246-.563 1.246-1.258 0-.695-.559-1.259-1.247-1.259-.688 0-1.246.564-1.246 1.259s.558 1.258 1.246 1.258zM12.023 31.243c.35 0 .633-.287.633-.64a.636.636 0 0 0-.633-.64.636.636 0 0 0-.633.64c0 .353.283.64.633.64zM14.357 31.86c.35 0 .633-.287.633-.64a.636.636 0 0 0-.633-.64.636.636 0 0 0-.634.64c0 .353.284.64.633.64zM9.328 34.802c.35 0 .633-.286.633-.64a.636.636 0 0 0-.633-.639.636.636 0 0 0-.633.64c0 .353.283.64.633.64zM17.99 21.147c.35 0 .633-.286.633-.64a.636.636 0 0 0-.633-.639.636.636 0 0 0-.633.64c0 .353.283.64.633.64zM3.892 27.87c.35 0 .633-.287.633-.64a.636.636 0 0 0-.633-.64.636.636 0 0 0-.633.64c0 .353.283.64.633.64zM8.41 26.078c.349 0 .633-.286.633-.64a.636.636 0 0 0-.634-.64.636.636 0 0 0-.633.64c0 .353.284.64.633.64zM36.406 37.215c.35 0 .633-.287.633-.64a.636.636 0 0 0-.633-.64.636.636 0 0 0-.633.64c0 .353.283.64.633.64zM31.245 38.108c.35 0 .633-.286.633-.64a.636.636 0 0 0-.633-.638.636.636 0 0 0-.633.639c0 .353.283.64.633.64zM34.623 40.17c.215 0 .39-.176.39-.394a.392.392 0 0 0-.39-.394.392.392 0 0 0-.39.394c0 .217.174.394.39.394zM35.434 44.997c.215 0 .39-.177.39-.394a.392.392 0 0 0-.39-.394.392.392 0 0 0-.39.394c0 .217.174.394.39.394zM25.12 48.858c.215 0 .39-.177.39-.394a.392.392 0 0 0-.39-.394.392.392 0 0 0-.39.394c0 .217.174.394.39.394zM14.283 46.598c.215 0 .39-.176.39-.394a.392.392 0 0 0-.39-.393.392.392 0 0 0-.39.393c0 .218.174.394.39.394zM28.02 43.858c.215 0 .39-.176.39-.394a.392.392 0 0 0-.39-.393.392.392 0 0 0-.39.393c0 .218.174.394.39.394zM24.22 43.91c.215 0 .39-.177.39-.395a.392.392 0 0 0-.39-.393.392.392 0 0 0-.39.393c0 .218.174.394.39.394zM23.204 39.031c.215 0 .39-.176.39-.393a.392.392 0 0 0-.39-.394.392.392 0 0 0-.39.394c0 .217.174.393.39.393zM25.399 36.953c.215 0 .39-.176.39-.394a.392.392 0 0 0-.39-.394.392.392 0 0 0-.39.394c0 .218.174.394.39.394zM33.79 33.212c.216 0 .39-.177.39-.394a.392.392 0 0 0-.39-.394.392.392 0 0 0-.39.394c0 .217.175.394.39.394zM41.242 38.145c.215 0 .39-.176.39-.394a.392.392 0 0 0-.39-.394.392.392 0 0 0-.39.394c0 .218.175.394.39.394zM32.537 30.105c.215 0 .39-.176.39-.394a.392.392 0 0 0-.39-.393.392.392 0 0 0-.39.393c0 .218.175.394.39.394zM31.778 24.219c.215 0 .39-.177.39-.394a.392.392 0 0 0-.39-.394.392.392 0 0 0-.39.394c0 .217.174.394.39.394zM41.3 19.302c.216 0 .39-.176.39-.394a.392.392 0 0 0-.39-.393.392.392 0 0 0-.39.393c0 .218.175.394.39.394zM43.567 29.99c.215 0 .39-.176.39-.393a.392.392 0 0 0-.39-.394.392.392 0 0 0-.39.394c0 .217.174.394.39.394zM35.448 18.984c.215 0 .39-.177.39-.394a.392.392 0 0 0-.39-.394.392.392 0 0 0-.39.394c0 .218.175.394.39.394zM37.08 18.869c.216 0 .39-.177.39-.394a.392.392 0 0 0-.39-.394.392.392 0 0 0-.389.394c0 .217.175.394.39.394zM39.637 16.684c.216 0 .39-.176.39-.394a.392.392 0 0 0-.39-.394.392.392 0 0 0-.39.394c0 .218.175.394.39.394zM16.3 22.23c.215 0 .39-.177.39-.394a.392.392 0 0 0-.39-.394.392.392 0 0 0-.39.394c0 .217.174.394.39.394zM14.691 25.027c.215 0 .39-.176.39-.394a.392.392 0 0 0-.39-.394.392.392 0 0 0-.39.394c0 .218.175.394.39.394zM5.814 32.07c.216 0 .39-.177.39-.394a.392.392 0 0 0-.39-.394.392.392 0 0 0-.39.394c0 .217.175.394.39.394zM4.5 34.625c.215 0 .39-.176.39-.394a.392.392 0 0 0-.39-.394.392.392 0 0 0-.39.394c0 .218.175.394.39.394zM23.344 8.537c.215 0 .39-.176.39-.393a.392.392 0 0 0-.39-.394.392.392 0 0 0-.39.394c0 .217.174.393.39.393zM31.56 12.243c.215 0 .39-.177.39-.394a.392.392 0 0 0-.39-.394.392.392 0 0 0-.39.394c0 .217.174.394.39.394zM16.153 40.344c.215 0 .39-.177.39-.394a.392.392 0 0 0-.39-.394.392.392 0 0 0-.39.394c0 .217.174.394.39.394zM17.333 37.55c.216 0 .39-.176.39-.393a.392.392 0 0 0-.39-.394.392.392 0 0 0-.39.394c0 .217.175.393.39.393zM12.654 40.44c.688 0 1.246-.564 1.246-1.26 0-.694-.558-1.258-1.246-1.258-.689 0-1.247.564-1.247 1.259s.558 1.258 1.247 1.258zM31.175 34.782c.688 0 1.246-.563 1.246-1.258 0-.696-.558-1.26-1.246-1.26s-1.246.564-1.246 1.26c0 .695.558 1.258 1.246 1.258zM40.453 23.447c.35 0 .633-.286.633-.64a.636.636 0 0 0-.633-.64.636.636 0 0 0-.633.64c0 .353.283.64.633.64zM9.346 19.555c.35 0 .633-.286.633-.64a.636.636 0 0 0-.633-.639.636.636 0 0 0-.633.64c0 .353.283.639.633.639zM33.633 27.427c.318 0 .576-.26.576-.582a.58.58 0 0 0-.576-.582.58.58 0 0 0-.576.582c0 .321.258.582.576.582zM7.905 38.518a.58.58 0 0 0 .576-.582.58.58 0 0 0-.576-.581.58.58 0 0 0-.577.581.58.58 0 0 0 .577.582zM21.546 45.988a.58.58 0 0 0 .576-.582.58.58 0 0 0-.576-.582.58.58 0 0 0-.576.582.58.58 0 0 0 .576.582zM32.019 43.622a.58.58 0 0 0 .576-.582.58.58 0 0 0-.576-.582.58.58 0 0 0-.576.582.58.58 0 0 0 .576.582zM22.542 42.358a.58.58 0 0 0 .576-.582.58.58 0 0 0-.576-.582.58.58 0 0 0-.576.582c0 .321.257.582.576.582zM30.9 9.81c.215 0 .39-.176.39-.394a.392.392 0 0 0-.39-.394.392.392 0 0 0-.39.394c0 .218.174.394.39.394zM34.467 11.763c.216 0 .39-.176.39-.393a.392.392 0 0 0-.39-.394.392.392 0 0 0-.39.394c0 .217.175.393.39.393z" opacity=".88"/><path fill="#c0ff58" d="M28.31 15.502 16.824 29.887l5.272.037-4.02 11.472 11.767-14.917-5.378.02z"/></g><defs><clipPath id="a"><path fill="#fff" d="M3 7h41v42H3z"/></clipPath></defs></svg>